0
SECTION
2
HEADER
999
*** POWERPCB  HEADER ***
9
$EXTMIN
10
-3.239084
20
-0.127
9
$EXTMAX
10
41.8338
20
24.6126
9
$FILLMODE
70
0
9
$GRIDMODE
70
1
9
$GRIDUNIT
10
0.127
20
0.127
9
$INSBASE
10
207.326786
20
44.552994
9
$LIMCHECK
70
0
9
$PLINEWID
40
0.0254
9
$SNAPMODE
70
1
9
$SNAPUNIT
10
0.0254
20
0.0254
9
$TEXTSIZE
40
2.54
9
$TEXTSTYLE
7
W0$254
9
$USERI1
70
101
9
$USERI2
70
1
9
$USERI5
70
150
9
$VIEWCTR
10
20.656476
20
13.6271233333
0
ENDSEC
0
SECTION
2
TABLES
999
*** POWERPCB  LAYER ***
0
TABLE
2
LAYER
70
32
0
LAYER
2
DBLAYERS
70
1
62
-6
6
CONTINUOUS
0
LAYER
2
BOARD_OUTLINE_00
70
0
62
6
6
CONTINUOUS
0
LAYER
2
BOARD_CUTOUT_00
70
0
62
6
6
CONTINUOUS
0
LAYER
2
TEXT_129
70
0
62
56
6
CONTINUOUS
0
LAYER
2
LABEL_INFO
70
1
62
-6
6
CONTINUOUS
0
LAYER
2
LABEL_ATTRIBUTE
70
1
62
-6
6
CONTINUOUS
0
LAYER
2
PART_NAME_01
70
0
62
254
6
CONTINUOUS
0
LAYER
2
PART_TYPE_01
70
1
62
-1
6
CONTINUOUS
0
LAYER
2
PART_INFO
70
1
62
-6
6
CONTINUOUS
0
LAYER
2
PART_PTS
70
1
62
-6
6
CONTINUOUS
0
LAYER
2
PART_NAME_126
70
0
62
2
6
CONTINUOUS
0
LAYER
2
PART_TYPE_TOP
70
1
62
-250
6
CONTINUOUS
0
LAYER
2
SYM_NAME
70
1
62
-6
6
CONTINUOUS
0
LAYER
2
SYM_PART_TYPE_01
70
1
62
-6
6
CONTINUOUS
0
LAYER
2
SYM_PART_NAME_01
70
1
62
-6
6
CONTINUOUS
0
LAYER
2
SYM_TERMINAL
70
1
62
-6
6
CONTINUOUS
0
LAYER
2
PKG_INFO
70
1
62
-6
6
CONTINUOUS
0
LAYER
2
SYM_ATTRIBUTE_01
70
1
62
-6
6
CONTINUOUS
0
LAYER
2
SYM_ATTRIBUTE_126
70
1
62
-6
6
CONTINUOUS
0
LAYER
2
SYM_PART_NAME_126
70
1
62
-6
6
CONTINUOUS
0
LAYER
2
PART_TOP_2DLINE_00
70
0
62
96
6
CONTINUOUS
0
LAYER
2
DRIL_PLTE_THRU_01
70
0
62
16
6
CONTINUOUS
0
LAYER
2
DRIL_PLTE_THRU_02
70
0
62
176
6
CONTINUOUS
0
LAYER
2
PADS_INNER
70
0
62
1
6
CONTINUOUS
0
LAYER
2
PADS_BOT
70
0
62
5
6
CONTINUOUS
0
LAYER
2
PADS_TOP
70
0
62
1
6
CONTINUOUS
0
LAYER
2
DRIL_NPLTE_THRU_01
70
0
62
16
6
CONTINUOUS
0
LAYER
2
DRIL_NPLTE_THRU_02
70
0
62
176
6
CONTINUOUS
0
LAYER
2
PART_TOP_2DLINE_01
70
0
62
96
6
CONTINUOUS
0
LAYER
2
PART_TOP_2DLINE_126
70
0
62
96
6
CONTINUOUS
0
LAYER
2
PCB_PARAMS
70
1
62
-6
6
CONTINUOUS
0
LAYER
2
DRIL_SYMBOL
70
0
62
6
6
CONTINUOUS
0
ENDTAB
999
*** POWERPCB  TEXT STYLE ***
0
TABLE
2
STYLE
70
12
0
STYLE
2
W0$2032
70
64
40
0
41
0.75
42
0
50
0
71
0
3
simplex
0
STYLE
2
W0$254
70
64
40
0
41
0.75
42
0
50
0
71
0
3
simplex
0
STYLE
2
W0$1778
70
64
40
0
41
0.75
42
0
50
0
71
0
3
simplex
0
STYLE
2
W0$0762
70
64
40
0
41
0.75
42
0
50
0
71
0
3
simplex
0
STYLE
2
W0$07
70
64
40
0
41
0.75
42
0
50
0
71
0
3
simplex
0
STYLE
2
W0$5
70
64
40
0
41
0.75
42
0
50
0
71
0
3
simplex
0
STYLE
2
W0$127
70
64
40
0
41
0.75
42
0
50
0
71
0
3
simplex
0
STYLE
2
W0$254R0
70
64
40
0
41
0.75
42
0
50
0
71
0
3
simplex
0
STYLE
2
W0$127R0
70
64
40
0
41
0.75
42
0
50
0
71
0
3
simplex
0
STYLE
2
W0$1016R0
70
64
40
0
41
0.75
42
0
50
0
71
0
3
simplex
0
STYLE
2
W0$0508R0
70
64
40
0
41
0.75
42
0
50
0
71
0
3
simplex
0
STYLE
2
W0$5R0
70
64
40
0
41
0.75
42
0
50
0
71
0
3
simplex
0
ENDTAB
0
ENDSEC
0
SECTION
2
BLOCKS
999
*** POWERPCB  DBLAYER ***
0
BLOCK
2
DBLAYERS
8
0
10
0
20
0
3
DBLAYERS
70
64
0
TEXT
8
DBLAYERS
10
0
20
-3.048
40
1.778
1
__It__Is__Job__Name__:=HH522_RFID_V2.2.pcb
999
 *  1.Number             2.Type                  3.RouteColor
999
 *  4.ViaColor           5.PadColor              6.CopperColor
999
 *  7.2DLineColor        8.TextColor             9.ErrorColor
999
 * 10.TopComponentColor 11.BottomComponentColor 12.RoutingDirection
999
 * 13.LayerThickness    14.CopperThickness      15.Dielectric
999
 * 16.IsRouteable       17.IsVisible            18.IsSelectable
999
 * 19.IsPrepreg         20.AssSilkScreen        21.AssPasteMask
999
 * 22.AssSolderMask     23.AssAssembly
0
TEXT
8
DBLAYERS
10
0
20
-6.096
40
1.778
1
<All Layers>:=0 0 0 12 12 12 30 12 15 2 9 2 0 0 3.5 0 1 1 0 -1 -1 -1 -1 0 0 0 8 12 12 10 
0
TEXT
8
DBLAYERS
10
0
20
-9.144
40
1.778
1
Bottom:=2 1 9 9 9 9 9 9 15 0 9 1 0 53340 3.5 1 1 1 0 129 122 128 -1 0 0 1 8 9 9 9 
0
TEXT
8
DBLAYERS
10
0
20
-12.192
40
1.778
1
Layer_3:=3 0 0 0 0 0 0 0 0 0 0 2 0 0 3.2999999523 0 1 1 0 -1 -1 -1 -1 0 0 0 0 0 0 0 
0
TEXT
8
DBLAYERS
10
0
20
-15.24
40
1.778
1
Layer_4:=4 0 0 0 0 0 0 0 0 0 0 2 0 0 3.2999999523 0 1 1 0 -1 -1 -1 -1 0 0 0 0 0 0 0 
0
TEXT
8
DBLAYERS
10
0
20
-18.288
40
1.778
1
Layer_5:=5 0 0 0 0 0 0 0 0 0 0 2 0 0 3.2999999523 0 1 1 0 -1 -1 -1 -1 0 0 0 0 0 0 0 
0
TEXT
8
DBLAYERS
10
0
20
-21.336
40
1.778
1
Layer_6:=6 0 0 0 0 0 0 0 0 0 0 2 0 0 3.2999999523 0 1 1 0 -1 -1 -1 -1 0 0 0 0 0 0 0 
0
TEXT
8
DBLAYERS
10
0
20
-24.384
40
1.778
1
Layer_7:=7 0 0 0 0 0 0 0 0 0 0 2 0 0 3.2999999523 0 1 1 0 -1 -1 -1 -1 0 0 0 0 0 0 0 
0
TEXT
8
DBLAYERS
10
0
20
-27.432
40
1.778
1
Layer_8:=8 0 0 0 0 0 0 0 0 0 0 2 0 0 3.2999999523 0 1 1 0 -1 -1 -1 -1 0 0 0 0 0 0 0 
0
TEXT
8
DBLAYERS
10
0
20
-30.48
40
1.778
1
Layer_9:=9 0 0 0 0 0 0 0 0 0 0 2 0 0 3.2999999523 0 1 1 0 -1 -1 -1 -1 0 0 0 0 0 0 0 
0
TEXT
8
DBLAYERS
10
0
20
-33.528
40
1.778
1
Layer_10:=10 0 0 0 0 0 0 0 0 0 0 2 0 0 3.2999999523 0 1 1 0 -1 -1 -1 -1 0 0 0 0 0 0 0 
0
TEXT
8
DBLAYERS
10
0
20
-36.576
40
1.778
1
Layer_11:=11 0 0 0 0 0 0 0 0 0 0 2 0 0 3.2999999523 0 1 1 0 -1 -1 -1 -1 0 0 0 0 0 0 0 
0
TEXT
8
DBLAYERS
10
0
20
-39.624
40
1.778
1
Layer_12:=12 0 0 0 0 0 0 0 0 0 0 2 0 0 3.2999999523 0 1 1 0 -1 -1 -1 -1 0 0 0 0 0 0 0 
0
TEXT
8
DBLAYERS
10
0
20
-42.672
40
1.778
1
Layer_13:=13 0 0 0 0 0 0 0 0 0 0 2 0 0 3.2999999523 0 1 1 0 -1 -1 -1 -1 0 0 0 0 0 0 0 
0
TEXT
8
DBLAYERS
10
0
20
-45.72
40
1.778
1
Layer_14:=14 0 0 0 0 0 0 0 0 0 0 2 0 0 3.2999999523 0 1 1 0 -1 -1 -1 -1 0 0 0 0 0 0 0 
0
TEXT
8
DBLAYERS
10
0
20
-48.768
40
1.778
1
Layer_15:=15 0 0 0 0 0 0 0 0 0 0 2 0 0 3.2999999523 0 1 1 0 -1 -1 -1 -1 0 0 0 0 0 0 0 
0
TEXT
8
DBLAYERS
10
0
20
-51.816
40
1.778
1
Layer_16:=16 0 0 0 0 0 0 0 0 0 0 2 0 0 3.2999999523 0 1 1 0 -1 -1 -1 -1 0 0 0 0 0 0 0 
0
TEXT
8
DBLAYERS
10
0
20
-54.864
40
1.778
1
Layer_17:=17 0 0 0 0 0 0 0 0 0 0 2 0 0 3.2999999523 0 1 1 0 -1 -1 -1 -1 0 0 0 0 0 0 0 
0
TEXT
8
DBLAYERS
10
0
20
-57.912
40
1.778
1
Layer_18:=18 0 0 0 0 0 0 0 0 0 0 2 0 0 3.2999999523 0 1 1 0 -1 -1 -1 -1 0 0 0 0 0 0 0 
0
TEXT
8
DBLAYERS
10
0
20
-60.96
40
1.778
1
Layer_19:=19 0 0 0 0 0 0 0 0 0 0 2 0 0 3.2999999523 0 1 1 0 -1 -1 -1 -1 0 0 0 0 0 0 0 
0
TEXT
8
DBLAYERS
10
0
20
-64.008
40
1.778
1
Layer_20:=20 0 0 0 0 0 0 0 0 0 0 2 0 0 3.2999999523 0 1 1 0 -1 -1 -1 -1 0 0 0 0 0 0 0 
0
TEXT
8
DBLAYERS
10
0
20
-67.056
40
1.778
1
Layer_21:=21 0 0 0 0 0 0 0 0 0 0 2 0 0 3.2999999523 0 1 1 0 -1 -1 -1 -1 0 0 0 0 0 0 0 
0
TEXT
8
DBLAYERS
10
0
20
-70.104
40
1.778
1
Layer_22:=22 0 0 0 0 0 0 0 0 0 0 2 0 0 3.2999999523 0 1 1 0 -1 -1 -1 -1 0 0 0 0 0 0 0 
0
TEXT
8
DBLAYERS
10
0
20
-73.152
40
1.778
1
Layer_23:=23 0 0 0 0 0 0 0 0 0 0 2 0 0 3.2999999523 0 1 1 0 -1 -1 -1 -1 0 0 0 0 0 0 0 
0
TEXT
8
DBLAYERS
10
0
20
-76.2
40
1.778
1
Layer_24:=24 0 0 0 0 0 0 0 0 0 0 2 0 0 3.2999999523 0 1 1 0 -1 -1 -1 -1 0 0 0 0 0 0 0 
0
TEXT
8
DBLAYERS
10
0
20
-79.248
40
1.778
1
Layer_25:=25 0 0 0 0 0 0 0 0 0 0 2 0 0 3.2999999523 0 1 1 0 -1 -1 -1 -1 0 0 0 0 0 0 0 
0
TEXT
8
DBLAYERS
10
0
20
-82.296
40
1.778
1
Layer_26:=26 0 0 0 0 0 0 0 0 0 0 2 0 0 3.2999999523 0 1 1 0 -1 -1 -1 -1 0 0 0 0 0 0 0 
0
TEXT
8
DBLAYERS
10
0
20
-85.344
40
1.778
1
Layer_27:=27 0 0 0 0 0 0 0 0 0 0 2 0 0 3.2999999523 0 1 1 0 -1 -1 -1 -1 0 0 0 0 0 0 0 
0
TEXT
8
DBLAYERS
10
0
20
-88.392
40
1.778
1
Layer_28:=28 0 0 0 0 0 0 0 0 0 0 2 0 0 3.2999999523 0 1 1 0 -1 -1 -1 -1 0 0 0 0 0 0 0 
0
TEXT
8
DBLAYERS
10
0
20
-91.44
40
1.778
1
Layer_29:=29 0 0 0 0 0 0 0 0 0 0 2 0 0 3.2999999523 0 1 1 0 -1 -1 -1 -1 0 0 0 0 0 0 0 
0
TEXT
8
DBLAYERS
10
0
20
-94.488
40
1.778
1
Layer_30:=30 0 0 0 0 0 0 0 0 0 0 2 0 0 3.2999999523 0 1 1 0 -1 -1 -1 -1 0 0 0 0 0 0 0 
0
TEXT
8
DBLAYERS
10
0
20
-97.536
40
1.778
1
Layer_31:=31 0 0 0 0 0 0 0 0 0 0 2 0 0 3.2999999523 0 1 1 0 -1 -1 -1 -1 0 0 0 0 0 0 0 
0
TEXT
8
DBLAYERS
10
0
20
-100.584
40
1.778
1
Layer_32:=32 0 0 0 0 0 0 0 0 0 0 2 0 0 3.2999999523 0 1 1 0 -1 -1 -1 -1 0 0 0 0 0 0 0 
0
TEXT
8
DBLAYERS
10
0
20
-103.632
40
1.778
1
Layer_33:=33 0 0 0 0 0 0 0 0 0 0 2 0 0 3.2999999523 0 1 1 0 -1 -1 -1 -1 0 0 0 0 0 0 0 
0
TEXT
8
DBLAYERS
10
0
20
-106.68
40
1.778
1
Layer_34:=34 0 0 0 0 0 0 0 0 0 0 2 0 0 3.2999999523 0 1 1 0 -1 -1 -1 -1 0 0 0 0 0 0 0 
0
TEXT
8
DBLAYERS
10
0
20
-109.728
40
1.778
1
Layer_35:=35 0 0 0 0 0 0 0 0 0 0 2 0 0 3.2999999523 0 1 1 0 -1 -1 -1 -1 0 0 0 0 0 0 0 
0
TEXT
8
DBLAYERS
10
0
20
-112.776
40
1.778
1
Layer_36:=36 0 0 0 0 0 0 0 0 0 0 2 0 0 3.2999999523 0 1 1 0 -1 -1 -1 -1 0 0 0 0 0 0 0 
0
TEXT
8
DBLAYERS
10
0
20
-115.824
40
1.778
1
Layer_37:=37 0 0 0 0 0 0 0 0 0 0 2 0 0 3.2999999523 0 1 1 0 -1 -1 -1 -1 0 0 0 0 0 0 0 
0
TEXT
8
DBLAYERS
10
0
20
-118.872
40
1.778
1
Layer_38:=38 0 0 0 0 0 0 0 0 0 0 2 0 0 3.2999999523 0 1 1 0 -1 -1 -1 -1 0 0 0 0 0 0 0 
0
TEXT
8
DBLAYERS
10
0
20
-121.92
40
1.778
1
Layer_39:=39 0 0 0 0 0 0 0 0 0 0 2 0 0 3.2999999523 0 1 1 0 -1 -1 -1 -1 0 0 0 0 0 0 0 
0
TEXT
8
DBLAYERS
10
0
20
-124.968
40
1.778
1
Layer_40:=40 0 0 0 0 0 0 0 0 0 0 2 0 0 3.2999999523 0 1 1 0 -1 -1 -1 -1 0 0 0 0 0 0 0 
0
TEXT
8
DBLAYERS
10
0
20
-128.016
40
1.778
1
Layer_41:=41 0 0 0 0 0 0 0 0 0 0 2 0 0 3.2999999523 0 1 1 0 -1 -1 -1 -1 0 0 0 0 0 0 0 
0
TEXT
8
DBLAYERS
10
0
20
-131.064
40
1.778
1
Layer_42:=42 0 0 0 0 0 0 0 0 0 0 2 0 0 3.2999999523 0 1 1 0 -1 -1 -1 -1 0 0 0 0 0 0 0 
0
TEXT
8
DBLAYERS
10
0
20
-134.112
40
1.778
1
Layer_43:=43 0 0 0 0 0 0 0 0 0 0 2 0 0 3.2999999523 0 1 1 0 -1 -1 -1 -1 0 0 0 0 0 0 0 
0
TEXT
8
DBLAYERS
10
0
20
-137.16
40
1.778
1
Layer_44:=44 0 0 0 0 0 0 0 0 0 0 2 0 0 3.2999999523 0 1 1 0 -1 -1 -1 -1 0 0 0 0 0 0 0 
0
TEXT
8
DBLAYERS
10
0
20
-140.208
40
1.778
1
Layer_45:=45 0 0 0 0 0 0 0 0 0 0 2 0 0 3.2999999523 0 1 1 0 -1 -1 -1 -1 0 0 0 0 0 0 0 
0
TEXT
8
DBLAYERS
10
0
20
-143.256
40
1.778
1
Layer_46:=46 0 0 0 0 0 0 0 0 0 0 2 0 0 3.2999999523 0 1 1 0 -1 -1 -1 -1 0 0 0 0 0 0 0 
0
TEXT
8
DBLAYERS
10
0
20
-146.304
40
1.778
1
Layer_47:=47 0 0 0 0 0 0 0 0 0 0 2 0 0 3.2999999523 0 1 1 0 -1 -1 -1 -1 0 0 0 0 0 0 0 
0
TEXT
8
DBLAYERS
10
0
20
-149.352
40
1.778
1
Layer_48:=48 0 0 0 0 0 0 0 0 0 0 2 0 0 3.2999999523 0 1 1 0 -1 -1 -1 -1 0 0 0 0 0 0 0 
0
TEXT
8
DBLAYERS
10
0
20
-152.4
40
1.778
1
Layer_49:=49 0 0 0 0 0 0 0 0 0 0 2 0 0 3.2999999523 0 1 1 0 -1 -1 -1 -1 0 0 0 0 0 0 0 
0
TEXT
8
DBLAYERS
10
0
20
-155.448
40
1.778
1
Layer_50:=50 0 0 0 0 0 0 0 0 0 0 2 0 0 3.2999999523 0 1 1 0 -1 -1 -1 -1 0 0 0 0 0 0 0 
0
TEXT
8
DBLAYERS
10
0
20
-158.496
40
1.778
1
Layer_51:=51 0 0 0 0 0 0 0 0 0 0 2 0 0 3.2999999523 0 1 1 0 -1 -1 -1 -1 0 0 0 0 0 0 0 
0
TEXT
8
DBLAYERS
10
0
20
-161.544
40
1.778
1
Layer_52:=52 0 0 0 0 0 0 0 0 0 0 2 0 0 3.2999999523 0 1 1 0 -1 -1 -1 -1 0 0 0 0 0 0 0 
0
TEXT
8
DBLAYERS
10
0
20
-164.592
40
1.778
1
Layer_53:=53 0 0 0 0 0 0 0 0 0 0 2 0 0 3.2999999523 0 1 1 0 -1 -1 -1 -1 0 0 0 0 0 0 0 
0
TEXT
8
DBLAYERS
10
0
20
-167.64
40
1.778
1
Layer_54:=54 0 0 0 0 0 0 0 0 0 0 2 0 0 3.2999999523 0 1 1 0 -1 -1 -1 -1 0 0 0 0 0 0 0 
0
TEXT
8
DBLAYERS
10
0
20
-170.688
40
1.778
1
Layer_55:=55 0 0 0 0 0 0 0 0 0 0 2 0 0 3.2999999523 0 1 1 0 -1 -1 -1 -1 0 0 0 0 0 0 0 
0
TEXT
8
DBLAYERS
10
0
20
-173.736
40
1.778
1
Layer_56:=56 0 0 0 0 0 0 0 0 0 0 2 0 0 3.2999999523 0 1 1 0 -1 -1 -1 -1 0 0 0 0 0 0 0 
0
TEXT
8
DBLAYERS
10
0
20
-176.784
40
1.778
1
Layer_57:=57 0 0 0 0 0 0 0 0 0 0 2 0 0 3.2999999523 0 1 1 0 -1 -1 -1 -1 0 0 0 0 0 0 0 
0
TEXT
8
DBLAYERS
10
0
20
-179.832
40
1.778
1
Layer_58:=58 0 0 0 0 0 0 0 0 0 0 2 0 0 3.2999999523 0 1 1 0 -1 -1 -1 -1 0 0 0 0 0 0 0 
0
TEXT
8
DBLAYERS
10
0
20
-182.88
40
1.778
1
Layer_59:=59 0 0 0 0 0 0 0 0 0 0 2 0 0 3.2999999523 0 1 1 0 -1 -1 -1 -1 0 0 0 0 0 0 0 
0
TEXT
8
DBLAYERS
10
0
20
-185.928
40
1.778
1
Layer_60:=60 0 0 0 0 0 0 0 0 0 0 2 0 0 3.2999999523 0 1 1 0 -1 -1 -1 -1 0 0 0 0 0 0 0 
0
TEXT
8
DBLAYERS
10
0
20
-188.976
40
1.778
1
Layer_61:=61 0 0 0 0 0 0 0 0 0 0 2 0 0 3.2999999523 0 1 1 0 -1 -1 -1 -1 0 0 0 0 0 0 0 
0
TEXT
8
DBLAYERS
10
0
20
-192.024
40
1.778
1
Layer_62:=62 0 0 0 0 0 0 0 0 0 0 2 0 0 3.2999999523 0 1 1 0 -1 -1 -1 -1 0 0 0 0 0 0 0 
0
TEXT
8
DBLAYERS
10
0
20
-195.072
40
1.778
1
Layer_63:=63 0 0 0 0 0 0 0 0 0 0 2 0 0 3.2999999523 0 1 1 0 -1 -1 -1 -1 0 0 0 0 0 0 0 
0
TEXT
8
DBLAYERS
10
0
20
-198.12
40
1.778
1
Layer_64:=64 0 0 0 0 0 0 0 0 0 0 2 0 0 3.2999999523 0 1 1 0 -1 -1 -1 -1 0 0 0 0 0 0 0 
0
TEXT
8
DBLAYERS
10
0
20
-201.168
40
1.778
1
Layer_65:=65 0 0 0 0 0 0 0 0 0 0 2 0 0 3.2999999523 0 1 1 0 -1 -1 -1 -1 0 0 0 0 0 0 0 
0
TEXT
8
DBLAYERS
10
0
20
-204.216
40
1.778
1
Layer_66:=66 0 0 0 0 0 0 0 0 0 0 2 0 0 3.2999999523 0 1 1 0 -1 -1 -1 -1 0 0 0 0 0 0 0 
0
TEXT
8
DBLAYERS
10
0
20
-207.264
40
1.778
1
Layer_67:=67 0 0 0 0 0 0 0 0 0 0 2 0 0 3.2999999523 0 1 1 0 -1 -1 -1 -1 0 0 0 0 0 0 0 
0
TEXT
8
DBLAYERS
10
0
20
-210.312
40
1.778
1
Layer_68:=68 0 0 0 0 0 0 0 0 0 0 2 0 0 3.2999999523 0 1 1 0 -1 -1 -1 -1 0 0 0 0 0 0 0 
0
TEXT
8
DBLAYERS
10
0
20
-213.36
40
1.778
1
Layer_69:=69 0 0 0 0 0 0 0 0 0 0 2 0 0 3.2999999523 0 1 1 0 -1 -1 -1 -1 0 0 0 0 0 0 0 
0
TEXT
8
DBLAYERS
10
0
20
-216.408
40
1.778
1
Layer_70:=70 0 0 0 0 0 0 0 0 0 0 2 0 0 3.2999999523 0 1 1 0 -1 -1 -1 -1 0 0 0 0 0 0 0 
0
TEXT
8
DBLAYERS
10
0
20
-219.456
40
1.778
1
Layer_71:=71 0 0 0 0 0 0 0 0 0 0 2 0 0 3.2999999523 0 1 1 0 -1 -1 -1 -1 0 0 0 0 0 0 0 
0
TEXT
8
DBLAYERS
10
0
20
-222.504
40
1.778
1
Layer_72:=72 0 0 0 0 0 0 0 0 0 0 2 0 0 3.2999999523 0 1 1 0 -1 -1 -1 -1 0 0 0 0 0 0 0 
0
TEXT
8
DBLAYERS
10
0
20
-225.552
40
1.778
1
Layer_73:=73 0 0 0 0 0 0 0 0 0 0 2 0 0 3.2999999523 0 1 1 0 -1 -1 -1 -1 0 0 0 0 0 0 0 
0
TEXT
8
DBLAYERS
10
0
20
-228.6
40
1.778
1
Layer_74:=74 0 0 0 0 0 0 0 0 0 0 2 0 0 3.2999999523 0 1 1 0 -1 -1 -1 -1 0 0 0 0 0 0 0 
0
TEXT
8
DBLAYERS
10
0
20
-231.648
40
1.778
1
Layer_75:=75 0 0 0 0 0 0 0 0 0 0 2 0 0 3.2999999523 0 1 1 0 -1 -1 -1 -1 0 0 0 0 0 0 0 
0
TEXT
8
DBLAYERS
10
0
20
-234.696
40
1.778
1
Layer_76:=76 0 0 0 0 0 0 0 0 0 0 2 0 0 3.2999999523 0 1 1 0 -1 -1 -1 -1 0 0 0 0 0 0 0 
0
TEXT
8
DBLAYERS
10
0
20
-237.744
40
1.778
1
Layer_77:=77 0 0 0 0 0 0 0 0 0 0 2 0 0 3.2999999523 0 1 1 0 -1 -1 -1 -1 0 0 0 0 0 0 0 
0
TEXT
8
DBLAYERS
10
0
20
-240.792
40
1.778
1
Layer_78:=78 0 0 0 0 0 0 0 0 0 0 2 0 0 3.2999999523 0 1 1 0 -1 -1 -1 -1 0 0 0 0 0 0 0 
0
TEXT
8
DBLAYERS
10
0
20
-243.84
40
1.778
1
Layer_79:=79 0 0 0 0 0 0 0 0 0 0 2 0 0 3.2999999523 0 1 1 0 -1 -1 -1 -1 0 0 0 0 0 0 0 
0
TEXT
8
DBLAYERS
10
0
20
-246.888
40
1.778
1
Layer_80:=80 0 0 0 0 0 0 0 0 0 0 2 0 0 3.2999999523 0 1 1 0 -1 -1 -1 -1 0 0 0 0 0 0 0 
0
TEXT
8
DBLAYERS
10
0
20
-249.936
40
1.778
1
Layer_81:=81 0 0 0 0 0 0 0 0 0 0 2 0 0 3.2999999523 0 1 1 0 -1 -1 -1 -1 0 0 0 0 0 0 0 
0
TEXT
8
DBLAYERS
10
0
20
-252.984
40
1.778
1
Layer_82:=82 0 0 0 0 0 0 0 0 0 0 2 0 0 3.2999999523 0 1 1 0 -1 -1 -1 -1 0 0 0 0 0 0 0 
0
TEXT
8
DBLAYERS
10
0
20
-256.032
40
1.778
1
Layer_83:=83 0 0 0 0 0 0 0 0 0 0 2 0 0 3.2999999523 0 1 1 0 -1 -1 -1 -1 0 0 0 0 0 0 0 
0
TEXT
8
DBLAYERS
10
0
20
-259.08
40
1.778
1
Layer_84:=84 0 0 0 0 0 0 0 0 0 0 2 0 0 3.2999999523 0 1 1 0 -1 -1 -1 -1 0 0 0 0 0 0 0 
0
TEXT
8
DBLAYERS
10
0
20
-262.128
40
1.778
1
Layer_85:=85 0 0 0 0 0 0 0 0 0 0 2 0 0 3.2999999523 0 1 1 0 -1 -1 -1 -1 0 0 0 0 0 0 0 
0
TEXT
8
DBLAYERS
10
0
20
-265.176
40
1.778
1
Layer_86:=86 0 0 0 0 0 0 0 0 0 0 2 0 0 3.2999999523 0 1 1 0 -1 -1 -1 -1 0 0 0 0 0 0 0 
0
TEXT
8
DBLAYERS
10
0
20
-268.224
40
1.778
1
Layer_87:=87 0 0 0 0 0 0 0 0 0 0 2 0 0 3.2999999523 0 1 1 0 -1 -1 -1 -1 0 0 0 0 0 0 0 
0
TEXT
8
DBLAYERS
10
0
20
-271.272
40
1.778
1
Layer_88:=88 0 0 0 0 0 0 0 0 0 0 2 0 0 3.2999999523 0 1 1 0 -1 -1 -1 -1 0 0 0 0 0 0 0 
0
TEXT
8
DBLAYERS
10
0
20
-274.32
40
1.778
1
Layer_89:=89 0 0 0 0 0 0 0 0 0 0 2 0 0 3.2999999523 0 1 1 0 -1 -1 -1 -1 0 0 0 0 0 0 0 
0
TEXT
8
DBLAYERS
10
0
20
-277.368
40
1.778
1
Layer_90:=90 0 0 0 0 0 0 0 0 0 0 2 0 0 3.2999999523 0 1 1 0 -1 -1 -1 -1 0 0 0 0 0 0 0 
0
TEXT
8
DBLAYERS
10
0
20
-280.416
40
1.778
1
Layer_91:=91 0 0 0 0 0 0 0 0 0 0 2 0 0 3.2999999523 0 1 1 0 -1 -1 -1 -1 0 0 0 0 0 0 0 
0
TEXT
8
DBLAYERS
10
0
20
-283.464
40
1.778
1
Layer_92:=92 0 0 0 0 0 0 0 0 0 0 2 0 0 3.2999999523 0 1 1 0 -1 -1 -1 -1 0 0 0 0 0 0 0 
0
TEXT
8
DBLAYERS
10
0
20
-286.512
40
1.778
1
Layer_93:=93 0 0 0 0 0 0 0 0 0 0 2 0 0 3.2999999523 0 1 1 0 -1 -1 -1 -1 0 0 0 0 0 0 0 
0
TEXT
8
DBLAYERS
10
0
20
-289.56
40
1.778
1
Layer_94:=94 0 0 0 0 0 0 0 0 0 0 2 0 0 3.2999999523 0 1 1 0 -1 -1 -1 -1 0 0 0 0 0 0 0 
0
TEXT
8
DBLAYERS
10
0
20
-292.608
40
1.778
1
Layer_95:=95 0 0 0 0 0 0 0 0 0 0 2 0 0 3.2999999523 0 1 1 0 -1 -1 -1 -1 0 0 0 0 0 0 0 
0
TEXT
8
DBLAYERS
10
0
20
-295.656
40
1.778
1
Layer_96:=96 0 0 0 0 0 0 0 0 0 0 2 0 0 3.2999999523 0 1 1 0 -1 -1 -1 -1 0 0 0 0 0 0 0 
0
TEXT
8
DBLAYERS
10
0
20
-298.704
40
1.778
1
Layer_97:=97 0 0 0 0 0 0 0 0 0 0 2 0 0 3.2999999523 0 1 1 0 -1 -1 -1 -1 0 0 0 0 0 0 0 
0
TEXT
8
DBLAYERS
10
0
20
-301.752
40
1.778
1
Layer_98:=98 0 0 0 0 0 0 0 0 0 0 2 0 0 3.2999999523 0 1 1 0 -1 -1 -1 -1 0 0 0 0 0 0 0 
0
TEXT
8
DBLAYERS
10
0
20
-304.8
40
1.778
1
Layer_99:=99 0 0 0 0 0 0 0 0 0 0 2 0 0 3.2999999523 0 1 1 0 -1 -1 -1 -1 0 0 0 0 0 0 0 
0
TEXT
8
DBLAYERS
10
0
20
-307.848
40
1.778
1
Layer_100:=100 0 0 0 0 0 0 0 0 0 0 2 0 0 3.2999999523 0 1 1 0 -1 -1 -1 -1 0 0 0 0 0 0 0 
0
TEXT
8
DBLAYERS
10
0
20
-310.896
40
1.778
1
Layer_101:=101 0 0 0 0 0 0 0 0 0 0 2 0 0 3.2999999523 0 1 1 0 -1 -1 -1 -1 0 0 0 0 0 0 0 
0
TEXT
8
DBLAYERS
10
0
20
-313.944
40
1.778
1
Layer_102:=102 0 0 0 0 0 0 0 0 0 0 2 0 0 3.2999999523 0 1 1 0 -1 -1 -1 -1 0 0 0 0 0 0 0 
0
TEXT
8
DBLAYERS
10
0
20
-316.992
40
1.778
1
Layer_103:=103 0 0 0 0 0 0 0 0 0 0 2 0 0 3.2999999523 0 1 1 0 -1 -1 -1 -1 0 0 0 0 0 0 0 
0
TEXT
8
DBLAYERS
10
0
20
-320.04
40
1.778
1
Layer_104:=104 0 0 0 0 0 0 0 0 0 0 2 0 0 3.2999999523 0 1 1 0 -1 -1 -1 -1 0 0 0 0 0 0 0 
0
TEXT
8
DBLAYERS
10
0
20
-323.088
40
1.778
1
Layer_105:=105 0 0 0 0 0 0 0 0 0 0 2 0 0 3.2999999523 0 1 1 0 -1 -1 -1 -1 0 0 0 0 0 0 0 
0
TEXT
8
DBLAYERS
10
0
20
-326.136
40
1.778
1
Layer_106:=106 0 0 0 0 0 0 0 0 0 0 2 0 0 3.2999999523 0 1 1 0 -1 -1 -1 -1 0 0 0 0 0 0 0 
0
TEXT
8
DBLAYERS
10
0
20
-329.184
40
1.778
1
Layer_107:=107 0 0 0 0 0 0 0 0 0 0 2 0 0 3.2999999523 0 1 1 0 -1 -1 -1 -1 0 0 0 0 0 0 0 
0
TEXT
8
DBLAYERS
10
0
20
-332.232
40
1.778
1
Layer_108:=108 0 0 0 0 0 0 0 0 0 0 2 0 0 3.2999999523 0 1 1 0 -1 -1 -1 -1 0 0 0 0 0 0 0 
0
TEXT
8
DBLAYERS
10
0
20
-335.28
40
1.778
1
Layer_109:=109 0 0 0 0 0 0 0 0 0 0 2 0 0 3.2999999523 0 1 1 0 -1 -1 -1 -1 0 0 0 0 0 0 0 
0
TEXT
8
DBLAYERS
10
0
20
-338.328
40
1.778
1
Layer_110:=110 0 0 0 0 0 0 0 0 0 0 2 0 0 3.2999999523 0 1 1 0 -1 -1 -1 -1 0 0 0 0 0 0 0 
0
TEXT
8
DBLAYERS
10
0
20
-341.376
40
1.778
1
Layer_111:=111 0 0 0 0 0 0 0 0 0 0 2 0 0 3.2999999523 0 1 1 0 -1 -1 -1 -1 0 0 0 0 0 0 0 
0
TEXT
8
DBLAYERS
10
0
20
-344.424
40
1.778
1
Layer_112:=112 0 0 0 0 0 0 0 0 0 0 2 0 0 3.2999999523 0 1 1 0 -1 -1 -1 -1 0 0 0 0 0 0 0 
0
TEXT
8
DBLAYERS
10
0
20
-347.472
40
1.778
1
Layer_113:=113 0 0 0 0 0 0 0 0 0 0 2 0 0 3.2999999523 0 1 1 0 -1 -1 -1 -1 0 0 0 0 0 0 0 
0
TEXT
8
DBLAYERS
10
0
20
-350.52
40
1.778
1
Layer_114:=114 0 0 0 0 0 0 0 0 0 0 2 0 0 3.2999999523 0 1 1 0 -1 -1 -1 -1 0 0 0 0 0 0 0 
0
TEXT
8
DBLAYERS
10
0
20
-353.568
40
1.778
1
Layer_115:=115 0 0 0 0 0 0 0 0 0 0 2 0 0 3.2999999523 0 1 1 0 -1 -1 -1 -1 0 0 0 0 0 0 0 
0
TEXT
8
DBLAYERS
10
0
20
-356.616
40
1.778
1
Layer_116:=116 0 0 0 0 0 0 0 0 0 0 2 0 0 3.2999999523 0 1 1 0 -1 -1 -1 -1 0 0 0 0 0 0 0 
0
TEXT
8
DBLAYERS
10
0
20
-359.664
40
1.778
1
Layer_117:=117 0 0 0 0 0 0 0 0 0 0 2 0 0 3.2999999523 0 1 1 0 -1 -1 -1 -1 0 0 0 0 0 0 0 
0
TEXT
8
DBLAYERS
10
0
20
-362.712
40
1.778
1
Layer_118:=118 0 0 0 0 0 0 0 0 0 0 2 0 0 3.2999999523 0 1 1 0 -1 -1 -1 -1 0 0 0 0 0 0 0 
0
TEXT
8
DBLAYERS
10
0
20
-365.76
40
1.778
1
Layer_119:=119 0 0 0 0 0 0 0 0 0 0 2 0 0 3.2999999523 0 1 1 0 -1 -1 -1 -1 0 0 0 0 0 0 0 
0
TEXT
8
DBLAYERS
10
0
20
-368.808
40
1.778
1
Mechanical1:=120 0 13 13 13 13 13 13 13 13 13 2 0 0 3.2999999523 0 1 1 0 -1 -1 -1 -1 0 0 0 13 13 13 13 
0
TEXT
8
DBLAYERS
10
0
20
-371.856
40
1.778
1
Solder Mask Top:=121 5 5 5 5 5 5 5 5 5 5 2 0 0 3.2999999523 0 1 1 0 -1 -1 -1 -1 0 0 0 5 5 5 5 
0
TEXT
8
DBLAYERS
10
0
20
-374.904
40
1.778
1
Paste Mask Bottom:=122 4 4 4 4 4 4 4 4 4 4 2 0 0 3.2999999523 0 1 1 0 -1 -1 -1 -1 0 0 0 4 4 4 4 
0
TEXT
8
DBLAYERS
10
0
20
-377.952
40
1.778
1
Paste Mask Top:=123 4 7 7 7 7 7 7 7 7 7 2 0 0 3.2999999523 0 1 1 0 -1 -1 -1 -1 0 0 0 7 7 7 7 
0
TEXT
8
DBLAYERS
10
0
20
-381
40
1.778
1
Drill Drawing:=124 2 12 12 12 12 12 12 12 12 12 2 0 0 3.2999999523 0 1 1 0 -1 -1 -1 -1 0 0 0 12 12 12 12 
0
TEXT
8
DBLAYERS
10
0
20
-384.048
40
1.778
1
DrillGuide:=125 0 4 4 4 4 4 4 4 4 4 2 0 0 3.2999999523 0 1 1 0 -1 -1 -1 -1 0 0 0 4 4 4 4 
0
TEXT
8
DBLAYERS
10
0
20
-387.096
40
1.778
1
Layer_127:=127 0 0 0 0 0 0 0 0 0 0 2 0 0 3.2999999523 0 1 1 0 -1 -1 -1 -1 0 0 0 0 0 0 0 
0
TEXT
8
DBLAYERS
10
0
20
-390.144
40
1.778
1
Solder Mask Bottom:=128 5 13 13 13 13 13 13 13 13 13 2 0 0 3.2999999523 0 1 1 0 -1 -1 -1 -1 0 0 0 13 13 13 13 
0
TEXT
8
DBLAYERS
10
0
20
-393.192
40
1.778
1
Silkscreen Bottom:=129 3 6 6 6 6 6 6 6 6 6 2 0 0 3.2999999523 0 1 1 0 -1 -1 -1 -1 0 0 0 6 6 6 6 
0
TEXT
8
DBLAYERS
10
0
20
-396.24
40
1.778
1
Layer_130:=130 0 0 0 0 0 0 0 0 0 0 2 0 0 3.2999999523 0 1 1 0 -1 -1 -1 -1 0 0 0 0 0 0 0 
0
TEXT
8
DBLAYERS
10
0
20
-399.288
40
1.778
1
Layer_131:=131 0 0 0 0 0 0 0 0 0 0 2 0 0 3.2999999523 0 1 1 0 -1 -1 -1 -1 0 0 0 0 0 0 0 
0
TEXT
8
DBLAYERS
10
0
20
-402.336
40
1.778
1
Layer_132:=132 0 0 0 0 0 0 0 0 0 0 2 0 0 3.2999999523 0 1 1 0 -1 -1 -1 -1 0 0 0 0 0 0 0 
0
TEXT
8
DBLAYERS
10
0
20
-405.384
40
1.778
1
Layer_133:=133 0 0 0 0 0 0 0 0 0 0 2 0 0 3.2999999523 0 1 1 0 -1 -1 -1 -1 0 0 0 0 0 0 0 
0
TEXT
8
DBLAYERS
10
0
20
-408.432
40
1.778
1
Layer_134:=134 0 0 0 0 0 0 0 0 0 0 2 0 0 3.2999999523 0 1 1 0 -1 -1 -1 -1 0 0 0 0 0 0 0 
0
TEXT
8
DBLAYERS
10
0
20
-411.48
40
1.778
1
Layer_135:=135 0 0 0 0 0 0 0 0 0 0 2 0 0 3.2999999523 0 1 1 0 -1 -1 -1 -1 0 0 0 0 0 0 0 
0
TEXT
8
DBLAYERS
10
0
20
-414.528
40
1.778
1
Layer_136:=136 0 0 0 0 0 0 0 0 0 0 2 0 0 3.2999999523 0 1 1 0 -1 -1 -1 -1 0 0 0 0 0 0 0 
0
TEXT
8
DBLAYERS
10
0
20
-417.576
40
1.778
1
Layer_137:=137 0 0 0 0 0 0 0 0 0 0 2 0 0 3.2999999523 0 1 1 0 -1 -1 -1 -1 0 0 0 0 0 0 0 
0
TEXT
8
DBLAYERS
10
0
20
-420.624
40
1.778
1
Layer_138:=138 0 0 0 0 0 0 0 0 0 0 2 0 0 3.2999999523 0 1 1 0 -1 -1 -1 -1 0 0 0 0 0 0 0 
0
TEXT
8
DBLAYERS
10
0
20
-423.672
40
1.778
1
Layer_139:=139 0 0 0 0 0 0 0 0 0 0 2 0 0 3.2999999523 0 1 1 0 -1 -1 -1 -1 0 0 0 0 0 0 0 
0
TEXT
8
DBLAYERS
10
0
20
-426.72
40
1.778
1
Layer_140:=140 0 0 0 0 0 0 0 0 0 0 2 0 0 3.2999999523 0 1 1 0 -1 -1 -1 -1 0 0 0 0 0 0 0 
0
TEXT
8
DBLAYERS
10
0
20
-429.768
40
1.778
1
Layer_141:=141 0 0 0 0 0 0 0 0 0 0 2 0 0 3.2999999523 0 1 1 0 -1 -1 -1 -1 0 0 0 0 0 0 0 
0
TEXT
8
DBLAYERS
10
0
20
-432.816
40
1.778
1
Layer_142:=142 0 0 0 0 0 0 0 0 0 0 2 0 0 3.2999999523 0 1 1 0 -1 -1 -1 -1 0 0 0 0 0 0 0 
0
TEXT
8
DBLAYERS
10
0
20
-435.864
40
1.778
1
Layer_143:=143 0 0 0 0 0 0 0 0 0 0 2 0 0 3.2999999523 0 1 1 0 -1 -1 -1 -1 0 0 0 0 0 0 0 
0
TEXT
8
DBLAYERS
10
0
20
-438.912
40
1.778
1
Layer_144:=144 0 0 0 0 0 0 0 0 0 0 2 0 0 3.2999999523 0 1 1 0 -1 -1 -1 -1 0 0 0 0 0 0 0 
0
TEXT
8
DBLAYERS
10
0
20
-441.96
40
1.778
1
Layer_145:=145 0 0 0 0 0 0 0 0 0 0 2 0 0 3.2999999523 0 1 1 0 -1 -1 -1 -1 0 0 0 0 0 0 0 
0
TEXT
8
DBLAYERS
10
0
20
-445.008
40
1.778
1
Layer_146:=146 0 0 0 0 0 0 0 0 0 0 2 0 0 3.2999999523 0 1 1 0 -1 -1 -1 -1 0 0 0 0 0 0 0 
0
TEXT
8
DBLAYERS
10
0
20
-448.056
40
1.778
1
Layer_147:=147 0 0 0 0 0 0 0 0 0 0 2 0 0 3.2999999523 0 1 1 0 -1 -1 -1 -1 0 0 0 0 0 0 0 
0
TEXT
8
DBLAYERS
10
0
20
-451.104
40
1.778
1
Layer_148:=148 0 0 0 0 0 0 0 0 0 0 2 0 0 3.2999999523 0 1 1 0 -1 -1 -1 -1 0 0 0 0 0 0 0 
0
TEXT
8
DBLAYERS
10
0
20
-454.152
40
1.778
1
Layer_149:=149 0 0 0 0 0 0 0 0 0 0 2 0 0 3.2999999523 0 1 1 0 -1 -1 -1 -1 0 0 0 0 0 0 0 
0
TEXT
8
DBLAYERS
10
0
20
-457.2
40
1.778
1
Layer_150:=150 0 0 0 0 0 0 0 0 0 0 2 0 0 3.2999999523 0 1 1 0 -1 -1 -1 -1 0 0 0 0 0 0 0 
0
TEXT
8
DBLAYERS
10
0
20
-460.248
40
1.778
1
Layer_151:=151 0 0 0 0 0 0 0 0 0 0 2 0 0 3.2999999523 0 1 1 0 -1 -1 -1 -1 0 0 0 0 0 0 0 
0
TEXT
8
DBLAYERS
10
0
20
-463.296
40
1.778
1
Layer_152:=152 0 0 0 0 0 0 0 0 0 0 2 0 0 3.2999999523 0 1 1 0 -1 -1 -1 -1 0 0 0 0 0 0 0 
0
TEXT
8
DBLAYERS
10
0
20
-466.344
40
1.778
1
Layer_153:=153 0 0 0 0 0 0 0 0 0 0 2 0 0 3.2999999523 0 1 1 0 -1 -1 -1 -1 0 0 0 0 0 0 0 
0
TEXT
8
DBLAYERS
10
0
20
-469.392
40
1.778
1
Layer_154:=154 0 0 0 0 0 0 0 0 0 0 2 0 0 3.2999999523 0 1 1 0 -1 -1 -1 -1 0 0 0 0 0 0 0 
0
TEXT
8
DBLAYERS
10
0
20
-472.44
40
1.778
1
Layer_155:=155 0 0 0 0 0 0 0 0 0 0 2 0 0 3.2999999523 0 1 1 0 -1 -1 -1 -1 0 0 0 0 0 0 0 
0
TEXT
8
DBLAYERS
10
0
20
-475.488
40
1.778
1
Layer_156:=156 0 0 0 0 0 0 0 0 0 0 2 0 0 3.2999999523 0 1 1 0 -1 -1 -1 -1 0 0 0 0 0 0 0 
0
TEXT
8
DBLAYERS
10
0
20
-478.536
40
1.778
1
Layer_157:=157 0 0 0 0 0 0 0 0 0 0 2 0 0 3.2999999523 0 1 1 0 -1 -1 -1 -1 0 0 0 0 0 0 0 
0
TEXT
8
DBLAYERS
10
0
20
-481.584
40
1.778
1
Layer_158:=158 0 0 0 0 0 0 0 0 0 0 2 0 0 3.2999999523 0 1 1 0 -1 -1 -1 -1 0 0 0 0 0 0 0 
0
TEXT
8
DBLAYERS
10
0
20
-484.632
40
1.778
1
Layer_159:=159 0 0 0 0 0 0 0 0 0 0 2 0 0 3.2999999523 0 1 1 0 -1 -1 -1 -1 0 0 0 0 0 0 0 
0
TEXT
8
DBLAYERS
10
0
20
-487.68
40
1.778
1
Layer_160:=160 0 0 0 0 0 0 0 0 0 0 2 0 0 3.2999999523 0 1 1 0 -1 -1 -1 -1 0 0 0 0 0 0 0 
0
TEXT
8
DBLAYERS
10
0
20
-490.728
40
1.778
1
Layer_161:=161 0 0 0 0 0 0 0 0 0 0 2 0 0 3.2999999523 0 1 1 0 -1 -1 -1 -1 0 0 0 0 0 0 0 
0
TEXT
8
DBLAYERS
10
0
20
-493.776
40
1.778
1
Layer_162:=162 0 0 0 0 0 0 0 0 0 0 2 0 0 3.2999999523 0 1 1 0 -1 -1 -1 -1 0 0 0 0 0 0 0 
0
TEXT
8
DBLAYERS
10
0
20
-496.824
40
1.778
1
Layer_163:=163 0 0 0 0 0 0 0 0 0 0 2 0 0 3.2999999523 0 1 1 0 -1 -1 -1 -1 0 0 0 0 0 0 0 
0
TEXT
8
DBLAYERS
10
0
20
-499.872
40
1.778
1
Layer_164:=164 0 0 0 0 0 0 0 0 0 0 2 0 0 3.2999999523 0 1 1 0 -1 -1 -1 -1 0 0 0 0 0 0 0 
0
TEXT
8
DBLAYERS
10
0
20
-502.92
40
1.778
1
Layer_165:=165 0 0 0 0 0 0 0 0 0 0 2 0 0 3.2999999523 0 1 1 0 -1 -1 -1 -1 0 0 0 0 0 0 0 
0
TEXT
8
DBLAYERS
10
0
20
-505.968
40
1.778
1
Layer_166:=166 0 0 0 0 0 0 0 0 0 0 2 0 0 3.2999999523 0 1 1 0 -1 -1 -1 -1 0 0 0 0 0 0 0 
0
TEXT
8
DBLAYERS
10
0
20
-509.016
40
1.778
1
Layer_167:=167 0 0 0 0 0 0 0 0 0 0 2 0 0 3.2999999523 0 1 1 0 -1 -1 -1 -1 0 0 0 0 0 0 0 
0
TEXT
8
DBLAYERS
10
0
20
-512.064
40
1.778
1
Layer_168:=168 0 0 0 0 0 0 0 0 0 0 2 0 0 3.2999999523 0 1 1 0 -1 -1 -1 -1 0 0 0 0 0 0 0 
0
TEXT
8
DBLAYERS
10
0
20
-515.112
40
1.778
1
Layer_169:=169 0 0 0 0 0 0 0 0 0 0 2 0 0 3.2999999523 0 1 1 0 -1 -1 -1 -1 0 0 0 0 0 0 0 
0
TEXT
8
DBLAYERS
10
0
20
-518.16
40
1.778
1
Layer_170:=170 0 0 0 0 0 0 0 0 0 0 2 0 0 3.2999999523 0 1 1 0 -1 -1 -1 -1 0 0 0 0 0 0 0 
0
TEXT
8
DBLAYERS
10
0
20
-521.208
40
1.778
1
Layer_171:=171 0 0 0 0 0 0 0 0 0 0 2 0 0 3.2999999523 0 1 1 0 -1 -1 -1 -1 0 0 0 0 0 0 0 
0
TEXT
8
DBLAYERS
10
0
20
-524.256
40
1.778
1
Layer_172:=172 0 0 0 0 0 0 0 0 0 0 2 0 0 3.2999999523 0 1 1 0 -1 -1 -1 -1 0 0 0 0 0 0 0 
0
TEXT
8
DBLAYERS
10
0
20
-527.304
40
1.778
1
Layer_173:=173 0 0 0 0 0 0 0 0 0 0 2 0 0 3.2999999523 0 1 1 0 -1 -1 -1 -1 0 0 0 0 0 0 0 
0
TEXT
8
DBLAYERS
10
0
20
-530.352
40
1.778
1
Layer_174:=174 0 0 0 0 0 0 0 0 0 0 2 0 0 3.2999999523 0 1 1 0 -1 -1 -1 -1 0 0 0 0 0 0 0 
0
TEXT
8
DBLAYERS
10
0
20
-533.4
40
1.778
1
Layer_175:=175 0 0 0 0 0 0 0 0 0 0 2 0 0 3.2999999523 0 1 1 0 -1 -1 -1 -1 0 0 0 0 0 0 0 
0
TEXT
8
DBLAYERS
10
0
20
-536.448
40
1.778
1
Layer_176:=176 0 0 0 0 0 0 0 0 0 0 2 0 0 3.2999999523 0 1 1 0 -1 -1 -1 -1 0 0 0 0 0 0 0 
0
TEXT
8
DBLAYERS
10
0
20
-539.496
40
1.778
1
Layer_177:=177 0 0 0 0 0 0 0 0 0 0 2 0 0 3.2999999523 0 1 1 0 -1 -1 -1 -1 0 0 0 0 0 0 0 
0
TEXT
8
DBLAYERS
10
0
20
-542.544
40
1.778
1
Layer_178:=178 0 0 0 0 0 0 0 0 0 0 2 0 0 3.2999999523 0 1 1 0 -1 -1 -1 -1 0 0 0 0 0 0 0 
0
TEXT
8
DBLAYERS
10
0
20
-545.592
40
1.778
1
Layer_179:=179 0 0 0 0 0 0 0 0 0 0 2 0 0 3.2999999523 0 1 1 0 -1 -1 -1 -1 0 0 0 0 0 0 0 
0
TEXT
8
DBLAYERS
10
0
20
-548.64
40
1.778
1
Layer_180:=180 0 0 0 0 0 0 0 0 0 0 2 0 0 3.2999999523 0 1 1 0 -1 -1 -1 -1 0 0 0 0 0 0 0 
0
TEXT
8
DBLAYERS
10
0
20
-551.688
40
1.778
1
Layer_181:=181 0 0 0 0 0 0 0 0 0 0 2 0 0 3.2999999523 0 1 1 0 -1 -1 -1 -1 0 0 0 0 0 0 0 
0
TEXT
8
DBLAYERS
10
0
20
-554.736
40
1.778
1
Layer_182:=182 0 0 0 0 0 0 0 0 0 0 2 0 0 3.2999999523 0 1 1 0 -1 -1 -1 -1 0 0 0 0 0 0 0 
0
TEXT
8
DBLAYERS
10
0
20
-557.784
40
1.778
1
Layer_183:=183 0 0 0 0 0 0 0 0 0 0 2 0 0 3.2999999523 0 1 1 0 -1 -1 -1 -1 0 0 0 0 0 0 0 
0
TEXT
8
DBLAYERS
10
0
20
-560.832
40
1.778
1
Layer_184:=184 0 0 0 0 0 0 0 0 0 0 2 0 0 3.2999999523 0 1 1 0 -1 -1 -1 -1 0 0 0 0 0 0 0 
0
TEXT
8
DBLAYERS
10
0
20
-563.88
40
1.778
1
Layer_185:=185 0 0 0 0 0 0 0 0 0 0 2 0 0 3.2999999523 0 1 1 0 -1 -1 -1 -1 0 0 0 0 0 0 0 
0
TEXT
8
DBLAYERS
10
0
20
-566.928
40
1.778
1
Layer_186:=186 0 0 0 0 0 0 0 0 0 0 2 0 0 3.2999999523 0 1 1 0 -1 -1 -1 -1 0 0 0 0 0 0 0 
0
TEXT
8
DBLAYERS
10
0
20
-569.976
40
1.778
1
Layer_187:=187 0 0 0 0 0 0 0 0 0 0 2 0 0 3.2999999523 0 1 1 0 -1 -1 -1 -1 0 0 0 0 0 0 0 
0
TEXT
8
DBLAYERS
10
0
20
-573.024
40
1.778
1
Layer_188:=188 0 0 0 0 0 0 0 0 0 0 2 0 0 3.2999999523 0 1 1 0 -1 -1 -1 -1 0 0 0 0 0 0 0 
0
TEXT
8
DBLAYERS
10
0
20
-576.072
40
1.778
1
Layer_189:=189 0 0 0 0 0 0 0 0 0 0 2 0 0 3.2999999523 0 1 1 0 -1 -1 -1 -1 0 0 0 0 0 0 0 
0
TEXT
8
DBLAYERS
10
0
20
-579.12
40
1.778
1
Layer_190:=190 0 0 0 0 0 0 0 0 0 0 2 0 0 3.2999999523 0 1 1 0 -1 -1 -1 -1 0 0 0 0 0 0 0 
0
TEXT
8
DBLAYERS
10
0
20
-582.168
40
1.778
1
Layer_191:=191 0 0 0 0 0 0 0 0 0 0 2 0 0 3.2999999523 0 1 1 0 -1 -1 -1 -1 0 0 0 0 0 0 0 
0
TEXT
8
DBLAYERS
10
0
20
-585.216
40
1.778
1
Layer_192:=192 0 0 0 0 0 0 0 0 0 0 2 0 0 3.2999999523 0 1 1 0 -1 -1 -1 -1 0 0 0 0 0 0 0 
0
TEXT
8
DBLAYERS
10
0
20
-588.264
40
1.778
1
Layer_193:=193 0 0 0 0 0 0 0 0 0 0 2 0 0 3.2999999523 0 1 1 0 -1 -1 -1 -1 0 0 0 0 0 0 0 
0
TEXT
8
DBLAYERS
10
0
20
-591.312
40
1.778
1
Layer_194:=194 0 0 0 0 0 0 0 0 0 0 2 0 0 3.2999999523 0 1 1 0 -1 -1 -1 -1 0 0 0 0 0 0 0 
0
TEXT
8
DBLAYERS
10
0
20
-594.36
40
1.778
1
Layer_195:=195 0 0 0 0 0 0 0 0 0 0 2 0 0 3.2999999523 0 1 1 0 -1 -1 -1 -1 0 0 0 0 0 0 0 
0
TEXT
8
DBLAYERS
10
0
20
-597.408
40
1.778
1
Layer_196:=196 0 0 0 0 0 0 0 0 0 0 2 0 0 3.2999999523 0 1 1 0 -1 -1 -1 -1 0 0 0 0 0 0 0 
0
TEXT
8
DBLAYERS
10
0
20
-600.456
40
1.778
1
Layer_197:=197 0 0 0 0 0 0 0 0 0 0 2 0 0 3.2999999523 0 1 1 0 -1 -1 -1 -1 0 0 0 0 0 0 0 
0
TEXT
8
DBLAYERS
10
0
20
-603.504
40
1.778
1
Layer_198:=198 0 0 0 0 0 0 0 0 0 0 2 0 0 3.2999999523 0 1 1 0 -1 -1 -1 -1 0 0 0 0 0 0 0 
0
TEXT
8
DBLAYERS
10
0
20
-606.552
40
1.778
1
Layer_199:=199 0 0 0 0 0 0 0 0 0 0 2 0 0 3.2999999523 0 1 1 0 -1 -1 -1 -1 0 0 0 0 0 0 0 
0
TEXT
8
DBLAYERS
10
0
20
-609.6
40
1.778
1
Layer_200:=200 0 0 0 0 0 0 0 0 0 0 2 0 0 3.2999999523 0 1 1 0 -1 -1 -1 -1 0 0 0 0 0 0 0 
0
TEXT
8
DBLAYERS
10
0
20
-612.648
40
1.778
1
Layer_201:=201 0 0 0 0 0 0 0 0 0 0 2 0 0 3.2999999523 0 1 1 0 -1 -1 -1 -1 0 0 0 0 0 0 0 
0
TEXT
8
DBLAYERS
10
0
20
-615.696
40
1.778
1
Layer_202:=202 0 0 0 0 0 0 0 0 0 0 2 0 0 3.2999999523 0 1 1 0 -1 -1 -1 -1 0 0 0 0 0 0 0 
0
TEXT
8
DBLAYERS
10
0
20
-618.744
40
1.778
1
Layer_203:=203 0 0 0 0 0 0 0 0 0 0 2 0 0 3.2999999523 0 1 1 0 -1 -1 -1 -1 0 0 0 0 0 0 0 
0
TEXT
8
DBLAYERS
10
0
20
-621.792
40
1.778
1
Layer_204:=204 0 0 0 0 0 0 0 0 0 0 2 0 0 3.2999999523 0 1 1 0 -1 -1 -1 -1 0 0 0 0 0 0 0 
0
TEXT
8
DBLAYERS
10
0
20
-624.84
40
1.778
1
Layer_205:=205 0 0 0 0 0 0 0 0 0 0 2 0 0 3.2999999523 0 1 1 0 -1 -1 -1 -1 0 0 0 0 0 0 0 
0
TEXT
8
DBLAYERS
10
0
20
-627.888
40
1.778
1
Layer_206:=206 0 0 0 0 0 0 0 0 0 0 2 0 0 3.2999999523 0 1 1 0 -1 -1 -1 -1 0 0 0 0 0 0 0 
0
TEXT
8
DBLAYERS
10
0
20
-630.936
40
1.778
1
Layer_207:=207 0 0 0 0 0 0 0 0 0 0 2 0 0 3.2999999523 0 1 1 0 -1 -1 -1 -1 0 0 0 0 0 0 0 
0
TEXT
8
DBLAYERS
10
0
20
-633.984
40
1.778
1
Layer_208:=208 0 0 0 0 0 0 0 0 0 0 2 0 0 3.2999999523 0 1 1 0 -1 -1 -1 -1 0 0 0 0 0 0 0 
0
TEXT
8
DBLAYERS
10
0
20
-637.032
40
1.778
1
Layer_209:=209 0 0 0 0 0 0 0 0 0 0 2 0 0 3.2999999523 0 1 1 0 -1 -1 -1 -1 0 0 0 0 0 0 0 
0
TEXT
8
DBLAYERS
10
0
20
-640.08
40
1.778
1
Layer_210:=210 0 0 0 0 0 0 0 0 0 0 2 0 0 3.2999999523 0 1 1 0 -1 -1 -1 -1 0 0 0 0 0 0 0 
0
TEXT
8
DBLAYERS
10
0
20
-643.128
40
1.778
1
Layer_211:=211 0 0 0 0 0 0 0 0 0 0 2 0 0 3.2999999523 0 1 1 0 -1 -1 -1 -1 0 0 0 0 0 0 0 
0
TEXT
8
DBLAYERS
10
0
20
-646.176
40
1.778
1
Layer_212:=212 0 0 0 0 0 0 0 0 0 0 2 0 0 3.2999999523 0 1 1 0 -1 -1 -1 -1 0 0 0 0 0 0 0 
0
TEXT
8
DBLAYERS
10
0
20
-649.224
40
1.778
1
Layer_213:=213 0 0 0 0 0 0 0 0 0 0 2 0 0 3.2999999523 0 1 1 0 -1 -1 -1 -1 0 0 0 0 0 0 0 
0
TEXT
8
DBLAYERS
10
0
20
-652.272
40
1.778
1
Layer_214:=214 0 0 0 0 0 0 0 0 0 0 2 0 0 3.2999999523 0 1 1 0 -1 -1 -1 -1 0 0 0 0 0 0 0 
0
TEXT
8
DBLAYERS
10
0
20
-655.32
40
1.778
1
Layer_215:=215 0 0 0 0 0 0 0 0 0 0 2 0 0 3.2999999523 0 1 1 0 -1 -1 -1 -1 0 0 0 0 0 0 0 
0
TEXT
8
DBLAYERS
10
0
20
-658.368
40
1.778
1
Layer_216:=216 0 0 0 0 0 0 0 0 0 0 2 0 0 3.2999999523 0 1 1 0 -1 -1 -1 -1 0 0 0 0 0 0 0 
0
TEXT
8
DBLAYERS
10
0
20
-661.416
40
1.778
1
Layer_217:=217 0 0 0 0 0 0 0 0 0 0 2 0 0 3.2999999523 0 1 1 0 -1 -1 -1 -1 0 0 0 0 0 0 0 
0
TEXT
8
DBLAYERS
10
0
20
-664.464
40
1.778
1
Layer_218:=218 0 0 0 0 0 0 0 0 0 0 2 0 0 3.2999999523 0 1 1 0 -1 -1 -1 -1 0 0 0 0 0 0 0 
0
TEXT
8
DBLAYERS
10
0
20
-667.512
40
1.778
1
Layer_219:=219 0 0 0 0 0 0 0 0 0 0 2 0 0 3.2999999523 0 1 1 0 -1 -1 -1 -1 0 0 0 0 0 0 0 
0
TEXT
8
DBLAYERS
10
0
20
-670.56
40
1.778
1
Layer_220:=220 0 0 0 0 0 0 0 0 0 0 2 0 0 3.2999999523 0 1 1 0 -1 -1 -1 -1 0 0 0 0 0 0 0 
0
TEXT
8
DBLAYERS
10
0
20
-673.608
40
1.778
1
Layer_221:=221 0 0 0 0 0 0 0 0 0 0 2 0 0 3.2999999523 0 1 1 0 -1 -1 -1 -1 0 0 0 0 0 0 0 
0
TEXT
8
DBLAYERS
10
0
20
-676.656
40
1.778
1
Layer_222:=222 0 0 0 0 0 0 0 0 0 0 2 0 0 3.2999999523 0 1 1 0 -1 -1 -1 -1 0 0 0 0 0 0 0 
0
TEXT
8
DBLAYERS
10
0
20
-679.704
40
1.778
1
Layer_223:=223 0 0 0 0 0 0 0 0 0 0 2 0 0 3.2999999523 0 1 1 0 -1 -1 -1 -1 0 0 0 0 0 0 0 
0
TEXT
8
DBLAYERS
10
0
20
-682.752
40
1.778
1
Layer_224:=224 0 0 0 0 0 0 0 0 0 0 2 0 0 3.2999999523 0 1 1 0 -1 -1 -1 -1 0 0 0 0 0 0 0 
0
TEXT
8
DBLAYERS
10
0
20
-685.8
40
1.778
1
Layer_225:=225 0 0 0 0 0 0 0 0 0 0 2 0 0 3.2999999523 0 1 1 0 -1 -1 -1 -1 0 0 0 0 0 0 0 
0
TEXT
8
DBLAYERS
10
0
20
-688.848
40
1.778
1
Layer_226:=226 0 0 0 0 0 0 0 0 0 0 2 0 0 3.2999999523 0 1 1 0 -1 -1 -1 -1 0 0 0 0 0 0 0 
0
TEXT
8
DBLAYERS
10
0
20
-691.896
40
1.778
1
Layer_227:=227 0 0 0 0 0 0 0 0 0 0 2 0 0 3.2999999523 0 1 1 0 -1 -1 -1 -1 0 0 0 0 0 0 0 
0
TEXT
8
DBLAYERS
10
0
20
-694.944
40
1.778
1
Layer_228:=228 0 0 0 0 0 0 0 0 0 0 2 0 0 3.2999999523 0 1 1 0 -1 -1 -1 -1 0 0 0 0 0 0 0 
0
TEXT
8
DBLAYERS
10
0
20
-697.992
40
1.778
1
Layer_229:=229 0 0 0 0 0 0 0 0 0 0 2 0 0 3.2999999523 0 1 1 0 -1 -1 -1 -1 0 0 0 0 0 0 0 
0
TEXT
8
DBLAYERS
10
0
20
-701.04
40
1.778
1
Layer_230:=230 0 0 0 0 0 0 0 0 0 0 2 0 0 3.2999999523 0 1 1 0 -1 -1 -1 -1 0 0 0 0 0 0 0 
0
TEXT
8
DBLAYERS
10
0
20
-704.088
40
1.778
1
Layer_231:=231 0 0 0 0 0 0 0 0 0 0 2 0 0 3.2999999523 0 1 1 0 -1 -1 -1 -1 0 0 0 0 0 0 0 
0
TEXT
8
DBLAYERS
10
0
20
-707.136
40
1.778
1
Layer_232:=232 0 0 0 0 0 0 0 0 0 0 2 0 0 3.2999999523 0 1 1 0 -1 -1 -1 -1 0 0 0 0 0 0 0 
0
TEXT
8
DBLAYERS
10
0
20
-710.184
40
1.778
1
Layer_233:=233 0 0 0 0 0 0 0 0 0 0 2 0 0 3.2999999523 0 1 1 0 -1 -1 -1 -1 0 0 0 0 0 0 0 
0
TEXT
8
DBLAYERS
10
0
20
-713.232
40
1.778
1
Layer_234:=234 0 0 0 0 0 0 0 0 0 0 2 0 0 3.2999999523 0 1 1 0 -1 -1 -1 -1 0 0 0 0 0 0 0 
0
TEXT
8
DBLAYERS
10
0
20
-716.28
40
1.778
1
Layer_235:=235 0 0 0 0 0 0 0 0 0 0 2 0 0 3.2999999523 0 1 1 0 -1 -1 -1 -1 0 0 0 0 0 0 0 
0
TEXT
8
DBLAYERS
10
0
20
-719.328
40
1.778
1
Layer_236:=236 0 0 0 0 0 0 0 0 0 0 2 0 0 3.2999999523 0 1 1 0 -1 -1 -1 -1 0 0 0 0 0 0 0 
0
TEXT
8
DBLAYERS
10
0
20
-722.376
40
1.778
1
Layer_237:=237 0 0 0 0 0 0 0 0 0 0 2 0 0 3.2999999523 0 1 1 0 -1 -1 -1 -1 0 0 0 0 0 0 0 
0
TEXT
8
DBLAYERS
10
0
20
-725.424
40
1.778
1
Layer_238:=238 0 0 0 0 0 0 0 0 0 0 2 0 0 3.2999999523 0 1 1 0 -1 -1 -1 -1 0 0 0 0 0 0 0 
0
TEXT
8
DBLAYERS
10
0
20
-728.472
40
1.778
1
Layer_239:=239 0 0 0 0 0 0 0 0 0 0 2 0 0 3.2999999523 0 1 1 0 -1 -1 -1 -1 0 0 0 0 0 0 0 
0
TEXT
8
DBLAYERS
10
0
20
-731.52
40
1.778
1
Layer_240:=240 0 0 0 0 0 0 0 0 0 0 2 0 0 3.2999999523 0 1 1 0 -1 -1 -1 -1 0 0 0 0 0 0 0 
0
TEXT
8
DBLAYERS
10
0
20
-734.568
40
1.778
1
Layer_241:=241 0 0 0 0 0 0 0 0 0 0 2 0 0 3.2999999523 0 1 1 0 -1 -1 -1 -1 0 0 0 0 0 0 0 
0
TEXT
8
DBLAYERS
10
0
20
-737.616
40
1.778
1
Layer_242:=242 0 0 0 0 0 0 0 0 0 0 2 0 0 3.2999999523 0 1 1 0 -1 -1 -1 -1 0 0 0 0 0 0 0 
0
TEXT
8
DBLAYERS
10
0
20
-740.664
40
1.778
1
Layer_243:=243 0 0 0 0 0 0 0 0 0 0 2 0 0 3.2999999523 0 1 1 0 -1 -1 -1 -1 0 0 0 0 0 0 0 
0
TEXT
8
DBLAYERS
10
0
20
-743.712
40
1.778
1
Layer_244:=244 0 0 0 0 0 0 0 0 0 0 2 0 0 3.2999999523 0 1 1 0 -1 -1 -1 -1 0 0 0 0 0 0 0 
0
TEXT
8
DBLAYERS
10
0
20
-746.76
40
1.778
1
Layer_245:=245 0 0 0 0 0 0 0 0 0 0 2 0 0 3.2999999523 0 1 1 0 -1 -1 -1 -1 0 0 0 0 0 0 0 
0
TEXT
8
DBLAYERS
10
0
20
-749.808
40
1.778
1
Layer_246:=246 0 0 0 0 0 0 0 0 0 0 2 0 0 3.2999999523 0 1 1 0 -1 -1 -1 -1 0 0 0 0 0 0 0 
0
TEXT
8
DBLAYERS
10
0
20
-752.856
40
1.778
1
Layer_247:=247 0 0 0 0 0 0 0 0 0 0 2 0 0 3.2999999523 0 1 1 0 -1 -1 -1 -1 0 0 0 0 0 0 0 
0
TEXT
8
DBLAYERS
10
0
20
-755.904
40
1.778
1
Layer_248:=248 0 0 0 0 0 0 0 0 0 0 2 0 0 3.2999999523 0 1 1 0 -1 -1 -1 -1 0 0 0 0 0 0 0 
0
TEXT
8
DBLAYERS
10
0
20
-758.952
40
1.778
1
Layer_249:=249 0 0 0 0 0 0 0 0 0 0 2 0 0 3.2999999523 0 1 1 0 -1 -1 -1 -1 0 0 0 0 0 0 0 
0
TEXT
8
DBLAYERS
10
0
20
-762
40
1.778
1
Layer_250:=250 0 0 0 0 0 0 0 0 0 0 2 0 0 3.2999999523 0 1 1 0 -1 -1 -1 -1 0 0 0 0 0 0 0 
0
ENDBLK
999
*** POWERPCB  BOARD ***
0
BLOCK
2
BOARD_21
8
0
10
0
20
0
3
BOARD_21
70
64
0
POLYLINE
8
BOARD_OUTLINE_00
66
1
40
0.0254
41
0.0254
70
1
0
VERTEX
8
BOARD_OUTLINE_00
10
0
20
0
0
VERTEX
8
BOARD_OUTLINE_00
10
32.0548
20
0
0
VERTEX
8
BOARD_OUTLINE_00
10
32.0548
20
8.3058
0
VERTEX
8
BOARD_OUTLINE_00
10
33.02
20
8.3058
42
1.0229506315
0
VERTEX
8
BOARD_OUTLINE_00
10
33.02
20
12.7254
0
VERTEX
8
BOARD_OUTLINE_00
10
32.0548
20
12.7254
0
VERTEX
8
BOARD_OUTLINE_00
10
32.0548
20
21.0058
0
VERTEX
8
BOARD_OUTLINE_00
10
0
20
21.0058
0
VERTEX
8
BOARD_OUTLINE_00
10
0
20
12.7254
0
VERTEX
8
BOARD_OUTLINE_00
10
-1.0668
20
12.7254
42
0.9775642824
0
VERTEX
8
BOARD_OUTLINE_00
10
-1.0668
20
8.3058
0
VERTEX
8
BOARD_OUTLINE_00
10
0
20
8.3058
0
SEQEND
0
INSERT
2
SMOOTH_0$0254
8
BOARD_OUTLINE_00
10
0
20
0
0
INSERT
2
SMOOTH_0$0254
8
BOARD_OUTLINE_00
10
32.0548
20
0
0
INSERT
2
SMOOTH_0$0254
8
BOARD_OUTLINE_00
10
32.0548
20
8.3058
0
INSERT
2
SMOOTH_0$0254
8
BOARD_OUTLINE_00
10
33.02
20
8.3058
0
INSERT
2
SMOOTH_0$0254
8
BOARD_OUTLINE_00
10
33.02
20
12.7254
0
INSERT
2
SMOOTH_0$0254
8
BOARD_OUTLINE_00
10
32.0548
20
12.7254
0
INSERT
2
SMOOTH_0$0254
8
BOARD_OUTLINE_00
10
32.0548
20
21.0058
0
INSERT
2
SMOOTH_0$0254
8
BOARD_OUTLINE_00
10
0
20
21.0058
0
INSERT
2
SMOOTH_0$0254
8
BOARD_OUTLINE_00
10
0
20
12.7254
0
INSERT
2
SMOOTH_0$0254
8
BOARD_OUTLINE_00
10
-1.0668
20
12.7254
0
INSERT
2
SMOOTH_0$0254
8
BOARD_OUTLINE_00
10
-1.0668
20
8.3058
0
INSERT
2
SMOOTH_0$0254
8
BOARD_OUTLINE_00
10
0
20
8.3058
0
POLYLINE
8
BOARD_CUTOUT_00
66
1
40
0.0254
41
0.0254
70
1
0
VERTEX
8
BOARD_CUTOUT_00
10
-2.032
20
10.5156
42
1
0
VERTEX
8
BOARD_CUTOUT_00
10
0
20
10.5156
42
1
0
SEQEND
0
POLYLINE
8
BOARD_CUTOUT_00
66
1
40
0.0254
41
0.0254
70
1
0
VERTEX
8
BOARD_CUTOUT_00
10
32.0548
20
10.5156
42
1
0
VERTEX
8
BOARD_CUTOUT_00
10
34.0868
20
10.5156
42
1
0
SEQEND
0
ENDBLK
999
*** POWERPCB  2DLINE ***
0
BLOCK
2
D_1dfeghi_25
8
0
10
0
20
0
3
D_1dfeghi_25
70
64
0
ENDBLK
0
BLOCK
2
D_2dfeghi_26
8
0
10
0
20
0
3
D_2dfeghi_26
70
64
0
ENDBLK
999
*** POWERPCB  COMPONENT ***
0
BLOCK
2
PART_TOP_0
8
0
10
0
20
0
3
PART_TOP_0
70
64
0
INSERT
2
SYM_TOP_18
8
0
10
0
20
0
0
INSERT
2
PKG_10
8
0
10
0
20
0
0
TEXT
8
LABEL_INFO
10
0.1269993333
20
0.1016
40
0.5334
1
0 324000000 0 0 0 1
50
180
41
0.75
7
W0$0762
0
TEXT
8
LABEL_ATTRIBUTE
10
0.1269993333
20
0.1016
40
0.5334
1
Ref.Des.
50
180
41
0.75
7
W0$0762
0
TEXT
8
PART_NAME_01
10
0.1269993333
20
0.1016
40
0.5334
1
U3
50
180
41
0.75
7
W0$0762
0
TEXT
8
LABEL_INFO
10
-1.905
20
6.604
40
1.778
1
0 0 0 2 0 1
73
2
11
-1.905
21
6.604
41
0.75
7
W0$254
0
TEXT
8
LABEL_ATTRIBUTE
10
-1.905
20
6.604
40
1.778
1
PartType
73
2
11
-1.905
21
6.604
41
0.75
7
W0$254
0
TEXT
8
PART_TYPE_01
10
-1.905
20
6.604
40
1.778
1
SSOP20-2
73
3
11
-1.905
21
6.604
41
0.75
7
W0$254
0
TEXT
8
PART_INFO
10
-1.905
20
4.064
40
1.778
1
000000
73
3
11
-1.905
21
4.064
41
0.75
7
W0$254
0
TEXT
8
PART_PTS
10
-1.905
20
1.524
40
1.778
1
1 2 3 4 5 6 7 8 9 10 11 12 13 14 15 16 17 18 19 20 
73
3
11
-1.905
21
1.524
41
0.75
7
W0$254
0
ENDBLK
0
BLOCK
2
PART_TOP_1
8
0
10
0
20
0
3
PART_TOP_1
70
64
0
INSERT
2
SYM_TOP_9
8
0
10
0
20
0
0
INSERT
2
PKG_0
8
0
10
0
20
0
0
TEXT
8
LABEL_INFO
10
0
20
0
40
0.49
1
1 0 1 1 0 1
72
1
73
1
11
0
21
0
41
0.75
7
W0$07
0
TEXT
8
LABEL_ATTRIBUTE
10
0
20
0
40
0.49
1
Ref.Des.
72
1
73
1
11
0
21
0
41
0.75
7
W0$07
0
TEXT
8
PART_NAME_126
10
0
20
0
40
0.49
1
R27
72
1
73
2
11
0
21
0
41
0.75
7
W0$07
0
TEXT
8
PART_TYPE_TOP
10
0
20
-0.7
40
0.49
1
R_5
72
1
73
2
11
0
21
-0.7
41
0.75
7
W0$07
0
TEXT
8
PART_INFO
10
0
20
-1.4
40
0.49
1
000000
72
1
73
2
11
0
21
-1.4
41
0.75
7
W0$07
0
TEXT
8
PART_PTS
10
0
20
-2.1
40
0.49
1
1 2 
72
1
73
2
11
0
21
-2.1
41
0.75
7
W0$07
0
ENDBLK
0
BLOCK
2
PART_TOP_2
8
0
10
0
20
0
3
PART_TOP_2
70
64
0
INSERT
2
SYM_TOP_9
8
0
10
0
20
0
0
INSERT
2
PKG_0
8
0
10
0
20
0
0
TEXT
8
LABEL_INFO
10
0
20
0
40
0.49
1
1 0 1 1 0 1
72
1
73
1
11
0
21
0
41
0.75
7
W0$07
0
TEXT
8
LABEL_ATTRIBUTE
10
0
20
0
40
0.49
1
Ref.Des.
72
1
73
1
11
0
21
0
41
0.75
7
W0$07
0
TEXT
8
PART_NAME_126
10
0
20
0
40
0.49
1
R13
72
1
73
2
11
0
21
0
50
-180
41
0.75
7
W0$07
0
TEXT
8
PART_TYPE_TOP
10
0
20
-0.7
40
0.49
1
R_5
72
1
73
2
11
0
21
-0.7
50
-180
41
0.75
7
W0$07
0
TEXT
8
PART_INFO
10
0
20
-1.4
40
0.49
1
000000
72
1
73
2
11
0
21
-1.4
50
-180
41
0.75
7
W0$07
0
TEXT
8
PART_PTS
10
0
20
-2.1
40
0.49
1
1 2 
72
1
73
2
11
0
21
-2.1
50
-180
41
0.75
7
W0$07
0
ENDBLK
0
BLOCK
2
PART_TOP_3
8
0
10
0
20
0
3
PART_TOP_3
70
64
0
INSERT
2
SYM_TOP_9
8
0
10
0
20
0
0
INSERT
2
PKG_0
8
0
10
0
20
0
0
TEXT
8
LABEL_INFO
10
0
20
0
40
0.49
1
1 0 1 1 0 1
72
1
73
1
11
0
21
0
41
0.75
7
W0$07
0
TEXT
8
LABEL_ATTRIBUTE
10
0
20
0
40
0.49
1
Ref.Des.
72
1
73
1
11
0
21
0
41
0.75
7
W0$07
0
TEXT
8
PART_NAME_126
10
0
20
0
40
0.49
1
R26
72
1
73
2
11
0
21
0
41
0.75
7
W0$07
0
TEXT
8
PART_TYPE_TOP
10
0
20
-0.7
40
0.49
1
R_5
72
1
73
2
11
0
21
-0.7
41
0.75
7
W0$07
0
TEXT
8
PART_INFO
10
0
20
-1.4
40
0.49
1
000000
72
1
73
2
11
0
21
-1.4
41
0.75
7
W0$07
0
TEXT
8
PART_PTS
10
0
20
-2.1
40
0.49
1
1 2 
72
1
73
2
11
0
21
-2.1
41
0.75
7
W0$07
0
ENDBLK
0
BLOCK
2
PART_TOP_4
8
0
10
0
20
0
3
PART_TOP_4
70
64
0
INSERT
2
SYM_TOP_9
8
0
10
0
20
0
0
INSERT
2
PKG_0
8
0
10
0
20
0
0
TEXT
8
LABEL_INFO
10
-0.473
20
0
40
0.49
1
1 0 1 1 0 1
72
1
73
1
11
-0.473
21
0
41
0.75
7
W0$07
0
TEXT
8
LABEL_ATTRIBUTE
10
-0.473
20
0
40
0.49
1
Ref.Des.
72
1
73
1
11
-0.473
21
0
41
0.75
7
W0$07
0
TEXT
8
PART_NAME_126
10
-0.473
20
0
40
0.49
1
R3
72
1
73
2
11
-0.473
21
0
41
0.75
7
W0$07
0
TEXT
8
PART_TYPE_TOP
10
-0.473
20
-0.7
40
0.49
1
R_5
72
1
73
2
11
-0.473
21
-0.7
41
0.75
7
W0$07
0
TEXT
8
PART_INFO
10
-0.473
20
-1.4
40
0.49
1
000000
72
1
73
2
11
-0.473
21
-1.4
41
0.75
7
W0$07
0
TEXT
8
PART_PTS
10
-0.473
20
-2.1
40
0.49
1
1 2 
72
1
73
2
11
-0.473
21
-2.1
41
0.75
7
W0$07
0
ENDBLK
0
BLOCK
2
PART_TOP_5
8
0
10
0
20
0
3
PART_TOP_5
70
64
0
INSERT
2
SYM_TOP_8
8
0
10
0
20
0
0
INSERT
2
PKG_1
8
0
10
0
20
0
0
TEXT
8
LABEL_INFO
10
0
20
0
40
0.49
1
1 0 1 1 0 1
72
1
73
1
11
0
21
0
41
0.75
7
W0$07
0
TEXT
8
LABEL_ATTRIBUTE
10
0
20
0
40
0.49
1
Ref.Des.
72
1
73
1
11
0
21
0
41
0.75
7
W0$07
0
TEXT
8
PART_NAME_126
10
0
20
0
40
0.49
1
C10
72
1
73
2
11
0
21
0
50
-180
41
0.75
7
W0$07
0
TEXT
8
PART_TYPE_TOP
10
0
20
-0.7
40
0.49
1
CAPACITOR_0_6
72
1
73
2
11
0
21
-0.7
50
-180
41
0.75
7
W0$07
0
TEXT
8
PART_INFO
10
0
20
-1.4
40
0.49
1
000000
72
1
73
2
11
0
21
-1.4
50
-180
41
0.75
7
W0$07
0
TEXT
8
PART_PTS
10
0
20
-2.1
40
0.49
1
1 2 
72
1
73
2
11
0
21
-2.1
50
-180
41
0.75
7
W0$07
0
ENDBLK
0
BLOCK
2
PART_TOP_6
8
0
10
0
20
0
3
PART_TOP_6
70
64
0
INSERT
2
SYM_TOP_8
8
0
10
0
20
0
0
INSERT
2
PKG_1
8
0
10
0
20
0
0
TEXT
8
LABEL_INFO
10
0
20
0
40
0.49
1
1 0 1 1 0 1
72
1
73
1
11
0
21
0
41
0.75
7
W0$07
0
TEXT
8
LABEL_ATTRIBUTE
10
0
20
0
40
0.49
1
Ref.Des.
72
1
73
1
11
0
21
0
41
0.75
7
W0$07
0
TEXT
8
PART_NAME_126
10
0
20
0
40
0.49
1
C47
72
1
73
2
11
0
21
0
41
0.75
7
W0$07
0
TEXT
8
PART_TYPE_TOP
10
0
20
-0.7
40
0.49
1
CAPACITOR_0_6
72
1
73
2
11
0
21
-0.7
41
0.75
7
W0$07
0
TEXT
8
PART_INFO
10
0
20
-1.4
40
0.49
1
000000
72
1
73
2
11
0
21
-1.4
41
0.75
7
W0$07
0
TEXT
8
PART_PTS
10
0
20
-2.1
40
0.49
1
1 2 
72
1
73
2
11
0
21
-2.1
41
0.75
7
W0$07
0
ENDBLK
0
BLOCK
2
PART_TOP_7
8
0
10
0
20
0
3
PART_TOP_7
70
64
0
INSERT
2
SYM_TOP_8
8
0
10
0
20
0
0
INSERT
2
PKG_1
8
0
10
0
20
0
0
TEXT
8
LABEL_INFO
10
0
20
0
40
0.49
1
1 0 1 1 0 1
72
1
73
1
11
0
21
0
41
0.75
7
W0$07
0
TEXT
8
LABEL_ATTRIBUTE
10
0
20
0
40
0.49
1
Ref.Des.
72
1
73
1
11
0
21
0
41
0.75
7
W0$07
0
TEXT
8
PART_NAME_126
10
0
20
0
40
0.49
1
C12
72
1
73
2
11
0
21
0
41
0.75
7
W0$07
0
TEXT
8
PART_TYPE_TOP
10
0
20
-0.7
40
0.49
1
CAPACITOR_0_6
72
1
73
2
11
0
21
-0.7
41
0.75
7
W0$07
0
TEXT
8
PART_INFO
10
0
20
-1.4
40
0.49
1
000000
72
1
73
2
11
0
21
-1.4
41
0.75
7
W0$07
0
TEXT
8
PART_PTS
10
0
20
-2.1
40
0.49
1
1 2 
72
1
73
2
11
0
21
-2.1
41
0.75
7
W0$07
0
ENDBLK
0
BLOCK
2
PART_TOP_8
8
0
10
0
20
0
3
PART_TOP_8
70
64
0
INSERT
2
SYM_TOP_9
8
0
10
0
20
0
0
INSERT
2
PKG_0
8
0
10
0
20
0
0
TEXT
8
LABEL_INFO
10
-0.473
20
0
40
0.49
1
1 0 1 1 0 1
72
1
73
1
11
-0.473
21
0
41
0.75
7
W0$07
0
TEXT
8
LABEL_ATTRIBUTE
10
-0.473
20
0
40
0.49
1
Ref.Des.
72
1
73
1
11
-0.473
21
0
41
0.75
7
W0$07
0
TEXT
8
PART_NAME_126
10
-0.473
20
0
40
0.49
1
R11
72
1
73
2
11
-0.473
21
0
41
0.75
7
W0$07
0
TEXT
8
PART_TYPE_TOP
10
-0.473
20
-0.7
40
0.49
1
R_5
72
1
73
2
11
-0.473
21
-0.7
41
0.75
7
W0$07
0
TEXT
8
PART_INFO
10
-0.473
20
-1.4
40
0.49
1
000000
72
1
73
2
11
-0.473
21
-1.4
41
0.75
7
W0$07
0
TEXT
8
PART_PTS
10
-0.473
20
-2.1
40
0.49
1
1 2 
72
1
73
2
11
-0.473
21
-2.1
41
0.75
7
W0$07
0
ENDBLK
0
BLOCK
2
PART_TOP_9
8
0
10
0
20
0
3
PART_TOP_9
70
64
0
INSERT
2
SYM_TOP_9
8
0
10
0
20
0
0
INSERT
2
PKG_0
8
0
10
0
20
0
0
TEXT
8
LABEL_INFO
10
-0.346
20
-0.0254
40
0.49
1
1 0 1 1 0 1
72
1
73
1
11
-0.346
21
-0.0254
41
0.75
7
W0$07
0
TEXT
8
LABEL_ATTRIBUTE
10
-0.346
20
-0.0254
40
0.49
1
Ref.Des.
72
1
73
1
11
-0.346
21
-0.0254
41
0.75
7
W0$07
0
TEXT
8
PART_NAME_126
10
-0.346
20
-0.0254
40
0.49
1
R23
72
1
73
2
11
-0.346
21
-0.0254
41
0.75
7
W0$07
0
TEXT
8
PART_TYPE_TOP
10
-0.346
20
-0.7254
40
0.49
1
R_5
72
1
73
2
11
-0.346
21
-0.7254
41
0.75
7
W0$07
0
TEXT
8
PART_INFO
10
-0.346
20
-1.4254
40
0.49
1
000000
72
1
73
2
11
-0.346
21
-1.4254
41
0.75
7
W0$07
0
TEXT
8
PART_PTS
10
-0.346
20
-2.1254
40
0.49
1
1 2 
72
1
73
2
11
-0.346
21
-2.1254
41
0.75
7
W0$07
0
ENDBLK
0
BLOCK
2
PART_TOP_10
8
0
10
0
20
0
3
PART_TOP_10
70
64
0
INSERT
2
SYM_TOP_14
8
0
10
0
20
0
0
INSERT
2
PKG_6
8
0
10
0
20
0
0
TEXT
8
LABEL_INFO
10
0.1611333333
20
0.0013406667
40
0.49
1
1 0 1 1 0 1
72
1
73
1
11
0.1611333333
21
0.0013406667
41
0.75
7
W0$07
0
TEXT
8
LABEL_ATTRIBUTE
10
0.1611333333
20
0.0013406667
40
0.49
1
Ref.Des.
72
1
73
1
11
0.1611333333
21
0.0013406667
41
0.75
7
W0$07
0
TEXT
8
PART_NAME_126
10
0.1611333333
20
0.0013406667
40
0.49
1
D1
72
1
73
2
11
0.1611333333
21
0.0013406667
41
0.75
7
W0$07
0
TEXT
8
PART_TYPE_TOP
10
0.1611333333
20
-0.6986593333
40
0.49
1
LED
72
1
73
2
11
0.1611333333
21
-0.6986593333
41
0.75
7
W0$07
0
TEXT
8
PART_INFO
10
0.1611333333
20
-1.3986593333
40
0.49
1
000000
72
1
73
2
11
0.1611333333
21
-1.3986593333
41
0.75
7
W0$07
0
TEXT
8
PART_PTS
10
0.1611333333
20
-2.0986593333
40
0.49
1
1 2 
72
1
73
2
11
0.1611333333
21
-2.0986593333
41
0.75
7
W0$07
0
ENDBLK
0
BLOCK
2
PART_TOP_11
8
0
10
0
20
0
3
PART_TOP_11
70
64
0
INSERT
2
SYM_TOP_11
8
0
10
0
20
0
0
INSERT
2
PKG_1
8
0
10
0
20
0
0
TEXT
8
LABEL_INFO
10
-0.9048
20
0
40
0.49
1
1 162000000 1 1 0 1
72
1
73
1
11
-0.9048
21
0
50
90
41
0.75
7
W0$07
0
TEXT
8
LABEL_ATTRIBUTE
10
-0.9048
20
0
40
0.49
1
Ref.Des.
72
1
73
1
11
-0.9048
21
0
50
90
41
0.75
7
W0$07
0
TEXT
8
PART_NAME_126
10
-0.9048
20
0
40
0.49
1
C24
72
1
73
2
11
-0.9048
21
0
50
-90
41
0.75
7
W0$07
0
TEXT
8
PART_TYPE_TOP
10
-0.9048
20
-0.7
40
0.49
1
CAPACITOR_0_6
72
1
73
2
11
-0.9048
21
-0.7
50
-90
41
0.75
7
W0$07
0
TEXT
8
PART_INFO
10
-0.9048
20
-1.4
40
0.49
1
000100
72
1
73
2
11
-0.9048
21
-1.4
50
-90
41
0.75
7
W0$07
0
TEXT
8
PART_PTS
10
-0.9048
20
-2.1
40
0.49
1
1 2 
72
1
73
2
11
-0.9048
21
-2.1
50
-90
41
0.75
7
W0$07
0
ENDBLK
0
BLOCK
2
PART_TOP_12
8
0
10
0
20
0
3
PART_TOP_12
70
64
0
INSERT
2
SYM_TOP_9
8
0
10
0
20
0
0
INSERT
2
PKG_0
8
0
10
0
20
0
0
TEXT
8
LABEL_INFO
10
0.543
20
0
40
0.49
1
1 0 1 1 0 1
72
1
73
1
11
0.543
21
0
41
0.75
7
W0$07
0
TEXT
8
LABEL_ATTRIBUTE
10
0.543
20
0
40
0.49
1
Ref.Des.
72
1
73
1
11
0.543
21
0
41
0.75
7
W0$07
0
TEXT
8
PART_NAME_126
10
0.543
20
0
40
0.49
1
R2
72
1
73
2
11
0.543
21
0
50
-180
41
0.75
7
W0$07
0
TEXT
8
PART_TYPE_TOP
10
0.543
20
-0.7
40
0.49
1
R_5
72
1
73
2
11
0.543
21
-0.7
50
-180
41
0.75
7
W0$07
0
TEXT
8
PART_INFO
10
0.543
20
-1.4
40
0.49
1
000000
72
1
73
2
11
0.543
21
-1.4
50
-180
41
0.75
7
W0$07
0
TEXT
8
PART_PTS
10
0.543
20
-2.1
40
0.49
1
1 2 
72
1
73
2
11
0.543
21
-2.1
50
-180
41
0.75
7
W0$07
0
ENDBLK
0
BLOCK
2
PART_TOP_13
8
0
10
0
20
0
3
PART_TOP_13
70
64
0
INSERT
2
SYM_TOP_8
8
0
10
0
20
0
0
INSERT
2
PKG_1
8
0
10
0
20
0
0
TEXT
8
LABEL_INFO
10
0
20
0
40
0.49
1
1 0 1 1 0 1
72
1
73
1
11
0
21
0
41
0.75
7
W0$07
0
TEXT
8
LABEL_ATTRIBUTE
10
0
20
0
40
0.49
1
Ref.Des.
72
1
73
1
11
0
21
0
41
0.75
7
W0$07
0
TEXT
8
PART_NAME_126
10
0
20
0
40
0.49
1
C7
72
1
73
2
11
0
21
0
41
0.75
7
W0$07
0
TEXT
8
PART_TYPE_TOP
10
0
20
-0.7
40
0.49
1
CAPACITOR_0_6
72
1
73
2
11
0
21
-0.7
41
0.75
7
W0$07
0
TEXT
8
PART_INFO
10
0
20
-1.4
40
0.49
1
000000
72
1
73
2
11
0
21
-1.4
41
0.75
7
W0$07
0
TEXT
8
PART_PTS
10
0
20
-2.1
40
0.49
1
1 2 
72
1
73
2
11
0
21
-2.1
41
0.75
7
W0$07
0
ENDBLK
0
BLOCK
2
PART_TOP_14
8
0
10
0
20
0
3
PART_TOP_14
70
64
0
INSERT
2
SYM_TOP_9
8
0
10
0
20
0
0
INSERT
2
PKG_0
8
0
10
0
20
0
0
TEXT
8
LABEL_INFO
10
0.5684
20
-0.0253993333
40
0.49
1
1 0 1 1 0 1
72
1
73
1
11
0.5684
21
-0.0253993333
41
0.75
7
W0$07
0
TEXT
8
LABEL_ATTRIBUTE
10
0.5684
20
-0.0253993333
40
0.49
1
Ref.Des.
72
1
73
1
11
0.5684
21
-0.0253993333
41
0.75
7
W0$07
0
TEXT
8
PART_NAME_126
10
0.5684
20
-0.0253993333
40
0.49
1
R1
72
1
73
2
11
0.5684
21
-0.0253993333
50
-180
41
0.75
7
W0$07
0
TEXT
8
PART_TYPE_TOP
10
0.5684
20
-0.7253993333
40
0.49
1
R_5
72
1
73
2
11
0.5684
21
-0.7253993333
50
-180
41
0.75
7
W0$07
0
TEXT
8
PART_INFO
10
0.5684
20
-1.4253993333
40
0.49
1
000000
72
1
73
2
11
0.5684
21
-1.4253993333
50
-180
41
0.75
7
W0$07
0
TEXT
8
PART_PTS
10
0.5684
20
-2.1253993333
40
0.49
1
1 2 
72
1
73
2
11
0.5684
21
-2.1253993333
50
-180
41
0.75
7
W0$07
0
ENDBLK
0
BLOCK
2
PART_TOP_15
8
0
10
0
20
0
3
PART_TOP_15
70
64
0
INSERT
2
SYM_TOP_8
8
0
10
0
20
0
0
INSERT
2
PKG_1
8
0
10
0
20
0
0
TEXT
8
LABEL_INFO
10
0
20
0
40
0.49
1
1 0 1 1 0 1
72
1
73
1
11
0
21
0
41
0.75
7
W0$07
0
TEXT
8
LABEL_ATTRIBUTE
10
0
20
0
40
0.49
1
Ref.Des.
72
1
73
1
11
0
21
0
41
0.75
7
W0$07
0
TEXT
8
PART_NAME_126
10
0
20
0
40
0.49
1
C15
72
1
73
2
11
0
21
0
50
-180
41
0.75
7
W0$07
0
TEXT
8
PART_TYPE_TOP
10
0
20
-0.7
40
0.49
1
CAPACITOR_0_6
72
1
73
2
11
0
21
-0.7
50
-180
41
0.75
7
W0$07
0
TEXT
8
PART_INFO
10
0
20
-1.4
40
0.49
1
000000
72
1
73
2
11
0
21
-1.4
50
-180
41
0.75
7
W0$07
0
TEXT
8
PART_PTS
10
0
20
-2.1
40
0.49
1
1 2 
72
1
73
2
11
0
21
-2.1
50
-180
41
0.75
7
W0$07
0
ENDBLK
0
BLOCK
2
PART_TOP_16
8
0
10
0
20
0
3
PART_TOP_16
70
64
0
INSERT
2
SYM_TOP_8
8
0
10
0
20
0
0
INSERT
2
PKG_1
8
0
10
0
20
0
0
TEXT
8
LABEL_INFO
10
0
20
0
40
0.49
1
1 0 1 1 0 1
72
1
73
1
11
0
21
0
41
0.75
7
W0$07
0
TEXT
8
LABEL_ATTRIBUTE
10
0
20
0
40
0.49
1
Ref.Des.
72
1
73
1
11
0
21
0
41
0.75
7
W0$07
0
TEXT
8
PART_NAME_126
10
0
20
0
40
0.49
1
C26
72
1
73
2
11
0
21
0
50
-180
41
0.75
7
W0$07
0
TEXT
8
PART_TYPE_TOP
10
0
20
-0.7
40
0.49
1
CAPACITOR_0_6
72
1
73
2
11
0
21
-0.7
50
-180
41
0.75
7
W0$07
0
TEXT
8
PART_INFO
10
0
20
-1.4
40
0.49
1
000000
72
1
73
2
11
0
21
-1.4
50
-180
41
0.75
7
W0$07
0
TEXT
8
PART_PTS
10
0
20
-2.1
40
0.49
1
1 2 
72
1
73
2
11
0
21
-2.1
50
-180
41
0.75
7
W0$07
0
ENDBLK
0
BLOCK
2
PART_TOP_17
8
0
10
0
20
0
3
PART_TOP_17
70
64
0
INSERT
2
SYM_TOP_9
8
0
10
0
20
0
0
INSERT
2
PKG_0
8
0
10
0
20
0
0
TEXT
8
LABEL_INFO
10
0
20
0
40
0.49
1
1 0 1 1 0 1
72
1
73
1
11
0
21
0
41
0.75
7
W0$07
0
TEXT
8
LABEL_ATTRIBUTE
10
0
20
0
40
0.49
1
Ref.Des.
72
1
73
1
11
0
21
0
41
0.75
7
W0$07
0
TEXT
8
PART_NAME_126
10
0
20
0
40
0.49
1
R64
72
1
73
2
11
0
21
0
41
0.75
7
W0$07
0
TEXT
8
PART_TYPE_TOP
10
0
20
-0.7
40
0.49
1
R_5
72
1
73
2
11
0
21
-0.7
41
0.75
7
W0$07
0
TEXT
8
PART_INFO
10
0
20
-1.4
40
0.49
1
000000
72
1
73
2
11
0
21
-1.4
41
0.75
7
W0$07
0
TEXT
8
PART_PTS
10
0
20
-2.1
40
0.49
1
1 2 
72
1
73
2
11
0
21
-2.1
41
0.75
7
W0$07
0
ENDBLK
0
BLOCK
2
PART_TOP_18
8
0
10
0
20
0
3
PART_TOP_18
70
64
0
INSERT
2
SYM_TOP_10
8
0
10
0
20
0
0
INSERT
2
PKG_8
8
0
10
0
20
0
0
TEXT
8
LABEL_INFO
10
0.0096
20
0.0254
40
0.49
1
1 0 1 1 0 1
72
1
73
1
11
0.0096
21
0.0254
41
0.75
7
W0$07
0
TEXT
8
LABEL_ATTRIBUTE
10
0.0096
20
0.0254
40
0.49
1
Ref.Des.
72
1
73
1
11
0.0096
21
0.0254
41
0.75
7
W0$07
0
TEXT
8
PART_NAME_126
10
0.0096
20
0.0254
40
0.49
1
R15
72
1
73
2
11
0.0096
21
0.0254
41
0.75
7
W0$07
0
TEXT
8
PART_TYPE_TOP
10
0.0096
20
-0.6746
40
0.49
1
R0603
72
1
73
2
11
0.0096
21
-0.6746
41
0.75
7
W0$07
0
TEXT
8
PART_INFO
10
0.0096
20
-1.3746
40
0.49
1
000000
72
1
73
2
11
0.0096
21
-1.3746
41
0.75
7
W0$07
0
TEXT
8
PART_PTS
10
0.0096
20
-2.0746
40
0.49
1
1 2 
72
1
73
2
11
0.0096
21
-2.0746
41
0.75
7
W0$07
0
ENDBLK
0
BLOCK
2
PART_TOP_19
8
0
10
0
20
0
3
PART_TOP_19
70
64
0
INSERT
2
SYM_TOP_9
8
0
10
0
20
0
0
INSERT
2
PKG_0
8
0
10
0
20
0
0
TEXT
8
LABEL_INFO
10
0
20
0
40
0.49
1
1 0 1 1 0 1
72
1
73
1
11
0
21
0
41
0.75
7
W0$07
0
TEXT
8
LABEL_ATTRIBUTE
10
0
20
0
40
0.49
1
Ref.Des.
72
1
73
1
11
0
21
0
41
0.75
7
W0$07
0
TEXT
8
PART_NAME_126
10
0
20
0
40
0.49
1
R20
72
1
73
2
11
0
21
0
50
-180
41
0.75
7
W0$07
0
TEXT
8
PART_TYPE_TOP
10
0
20
-0.7
40
0.49
1
R_5
72
1
73
2
11
0
21
-0.7
50
-180
41
0.75
7
W0$07
0
TEXT
8
PART_INFO
10
0
20
-1.4
40
0.49
1
000000
72
1
73
2
11
0
21
-1.4
50
-180
41
0.75
7
W0$07
0
TEXT
8
PART_PTS
10
0
20
-2.1
40
0.49
1
1 2 
72
1
73
2
11
0
21
-2.1
50
-180
41
0.75
7
W0$07
0
ENDBLK
0
BLOCK
2
PART_TOP_20
8
0
10
0
20
0
3
PART_TOP_20
70
64
0
INSERT
2
SYM_TOP_19
8
0
10
0
20
0
0
INSERT
2
PKG_11
8
0
10
0
20
0
0
TEXT
8
LABEL_INFO
10
-4.8768
20
0.4318
40
0.5334
1
0 0 0 0 0 1
41
0.75
7
W0$0762
0
TEXT
8
LABEL_ATTRIBUTE
10
-4.8768
20
0.4318
40
0.5334
1
Ref.Des.
41
0.75
7
W0$0762
0
TEXT
8
PART_NAME_01
10
-4.8768
20
0.4318
40
0.5334
1
U2
41
0.75
7
W0$0762
0
TEXT
8
LABEL_INFO
10
0
20
0
40
1.778
1
0 0 0 2 0 1
73
2
11
0
21
0
41
0.75
7
W0$254
0
TEXT
8
LABEL_ATTRIBUTE
10
0
20
0
40
1.778
1
PartType
73
2
11
0
21
0
41
0.75
7
W0$254
0
TEXT
8
PART_TYPE_01
10
0
20
0
40
1.778
1
SO18
73
3
11
0
21
0
41
0.75
7
W0$254
0
TEXT
8
PART_INFO
10
0
20
-2.54
40
1.778
1
000000
73
3
11
0
21
-2.54
41
0.75
7
W0$254
0
TEXT
8
PART_PTS
10
0
20
-5.08
40
1.778
1
1 2 3 4 5 6 7 8 9 10 11 12 13 14 15 16 17 18 
73
3
11
0
21
-5.08
41
0.75
7
W0$254
0
ENDBLK
0
BLOCK
2
PART_TOP_21
8
0
10
0
20
0
3
PART_TOP_21
70
64
0
INSERT
2
SYM_TOP_17
8
0
10
0
20
0
0
INSERT
2
PKG_9
8
0
10
0
20
0
0
TEXT
8
LABEL_INFO
10
-0.1331
20
0.1016
40
0.49
1
1 0 1 1 0 1
72
1
73
1
11
-0.1331
21
0.1016
41
0.75
7
W0$07
0
TEXT
8
LABEL_ATTRIBUTE
10
-0.1331
20
0.1016
40
0.49
1
Ref.Des.
72
1
73
1
11
-0.1331
21
0.1016
41
0.75
7
W0$07
0
TEXT
8
PART_NAME_126
10
-0.1331
20
0.1016
40
0.49
1
BZ1
72
1
73
2
11
-0.1331
21
0.1016
50
-180
41
0.75
7
W0$07
0
TEXT
8
PART_TYPE_TOP
10
-0.1331
20
-0.5984
40
0.49
1
BZ_0904
72
1
73
2
11
-0.1331
21
-0.5984
50
-180
41
0.75
7
W0$07
0
TEXT
8
PART_INFO
10
-0.1331
20
-1.2984
40
0.49
1
000000
72
1
73
2
11
-0.1331
21
-1.2984
50
-180
41
0.75
7
W0$07
0
TEXT
8
PART_PTS
10
-0.1331
20
-1.9984
40
0.49
1
1 2 
72
1
73
2
11
-0.1331
21
-1.9984
50
-180
41
0.75
7
W0$07
0
ENDBLK
0
BLOCK
2
PART_TOP_22
8
0
10
0
20
0
3
PART_TOP_22
70
64
0
INSERT
2
SYM_TOP_8
8
0
10
0
20
0
0
INSERT
2
PKG_1
8
0
10
0
20
0
0
TEXT
8
LABEL_INFO
10
0
20
0
40
0.49
1
1 0 1 1 0 1
72
1
73
1
11
0
21
0
41
0.75
7
W0$07
0
TEXT
8
LABEL_ATTRIBUTE
10
0
20
0
40
0.49
1
Ref.Des.
72
1
73
1
11
0
21
0
41
0.75
7
W0$07
0
TEXT
8
PART_NAME_126
10
0
20
0
40
0.49
1
C20
72
1
73
2
11
0
21
0
41
0.75
7
W0$07
0
TEXT
8
PART_TYPE_TOP
10
0
20
-0.7
40
0.49
1
CAPACITOR_0_6
72
1
73
2
11
0
21
-0.7
41
0.75
7
W0$07
0
TEXT
8
PART_INFO
10
0
20
-1.4
40
0.49
1
000000
72
1
73
2
11
0
21
-1.4
41
0.75
7
W0$07
0
TEXT
8
PART_PTS
10
0
20
-2.1
40
0.49
1
1 2 
72
1
73
2
11
0
21
-2.1
41
0.75
7
W0$07
0
ENDBLK
0
BLOCK
2
PART_TOP_23
8
0
10
0
20
0
3
PART_TOP_23
70
64
0
INSERT
2
SYM_TOP_16
8
0
10
0
20
0
0
INSERT
2
PKG_7
8
0
10
0
20
0
0
TEXT
8
LABEL_INFO
10
0
20
0.1143
40
0.49
1
1 0 1 1 0 1
72
1
73
1
11
0
21
0.1143
41
0.75
7
W0$07
0
TEXT
8
LABEL_ATTRIBUTE
10
0
20
0.1143
40
0.49
1
Ref.Des.
72
1
73
1
11
0
21
0.1143
41
0.75
7
W0$07
0
TEXT
8
PART_NAME_126
10
0
20
0.1143
40
0.49
1
Q1
72
1
73
2
11
0
21
0.1143
41
0.75
7
W0$07
0
TEXT
8
PART_TYPE_TOP
10
0
20
-0.5857
40
0.49
1
NPN_2
72
1
73
2
11
0
21
-0.5857
41
0.75
7
W0$07
0
TEXT
8
PART_INFO
10
0
20
-1.2857
40
0.49
1
000000
72
1
73
2
11
0
21
-1.2857
41
0.75
7
W0$07
0
TEXT
8
PART_PTS
10
0
20
-1.9857
40
0.49
1
1 2 3 
72
1
73
2
11
0
21
-1.9857
41
0.75
7
W0$07
0
ENDBLK
0
BLOCK
2
PART_TOP_24
8
0
10
0
20
0
3
PART_TOP_24
70
64
0
INSERT
2
SYM_TOP_9
8
0
10
0
20
0
0
INSERT
2
PKG_0
8
0
10
0
20
0
0
TEXT
8
LABEL_INFO
10
0
20
0
40
0.49
1
1 0 1 1 0 1
72
1
73
1
11
0
21
0
41
0.75
7
W0$07
0
TEXT
8
LABEL_ATTRIBUTE
10
0
20
0
40
0.49
1
Ref.Des.
72
1
73
1
11
0
21
0
41
0.75
7
W0$07
0
TEXT
8
PART_NAME_126
10
0
20
0
40
0.49
1
R22
72
1
73
2
11
0
21
0
41
0.75
7
W0$07
0
TEXT
8
PART_TYPE_TOP
10
0
20
-0.7
40
0.49
1
R_5
72
1
73
2
11
0
21
-0.7
41
0.75
7
W0$07
0
TEXT
8
PART_INFO
10
0
20
-1.4
40
0.49
1
000000
72
1
73
2
11
0
21
-1.4
41
0.75
7
W0$07
0
TEXT
8
PART_PTS
10
0
20
-2.1
40
0.49
1
1 2 
72
1
73
2
11
0
21
-2.1
41
0.75
7
W0$07
0
ENDBLK
0
BLOCK
2
PART_TOP_25
8
0
10
0
20
0
3
PART_TOP_25
70
64
0
INSERT
2
SYM_TOP_8
8
0
10
0
20
0
0
INSERT
2
PKG_1
8
0
10
0
20
0
0
TEXT
8
LABEL_INFO
10
0
20
0
40
0.49
1
1 0 1 1 0 1
72
1
73
1
11
0
21
0
41
0.75
7
W0$07
0
TEXT
8
LABEL_ATTRIBUTE
10
0
20
0
40
0.49
1
Ref.Des.
72
1
73
1
11
0
21
0
41
0.75
7
W0$07
0
TEXT
8
PART_NAME_126
10
0
20
0
40
0.49
1
C27
72
1
73
2
11
0
21
0
41
0.75
7
W0$07
0
TEXT
8
PART_TYPE_TOP
10
0
20
-0.7
40
0.49
1
CAPACITOR_0_6
72
1
73
2
11
0
21
-0.7
41
0.75
7
W0$07
0
TEXT
8
PART_INFO
10
0
20
-1.4
40
0.49
1
000000
72
1
73
2
11
0
21
-1.4
41
0.75
7
W0$07
0
TEXT
8
PART_PTS
10
0
20
-2.1
40
0.49
1
1 2 
72
1
73
2
11
0
21
-2.1
41
0.75
7
W0$07
0
ENDBLK
0
BLOCK
2
PART_TOP_26
8
0
10
0
20
0
3
PART_TOP_26
70
64
0
INSERT
2
SYM_TOP_8
8
0
10
0
20
0
0
INSERT
2
PKG_1
8
0
10
0
20
0
0
TEXT
8
LABEL_INFO
10
0
20
0
40
0.49
1
1 0 1 1 0 1
72
1
73
1
11
0
21
0
41
0.75
7
W0$07
0
TEXT
8
LABEL_ATTRIBUTE
10
0
20
0
40
0.49
1
Ref.Des.
72
1
73
1
11
0
21
0
41
0.75
7
W0$07
0
TEXT
8
PART_NAME_126
10
0
20
0
40
0.49
1
C9
72
1
73
2
11
0
21
0
41
0.75
7
W0$07
0
TEXT
8
PART_TYPE_TOP
10
0
20
-0.7
40
0.49
1
CAPACITOR_0_6
72
1
73
2
11
0
21
-0.7
41
0.75
7
W0$07
0
TEXT
8
PART_INFO
10
0
20
-1.4
40
0.49
1
000000
72
1
73
2
11
0
21
-1.4
41
0.75
7
W0$07
0
TEXT
8
PART_PTS
10
0
20
-2.1
40
0.49
1
1 2 
72
1
73
2
11
0
21
-2.1
41
0.75
7
W0$07
0
ENDBLK
0
BLOCK
2
PART_TOP_27
8
0
10
0
20
0
3
PART_TOP_27
70
64
0
INSERT
2
SYM_TOP_8
8
0
10
0
20
0
0
INSERT
2
PKG_1
8
0
10
0
20
0
0
TEXT
8
LABEL_INFO
10
0
20
0
40
0.49
1
1 0 1 1 0 1
72
1
73
1
11
0
21
0
41
0.75
7
W0$07
0
TEXT
8
LABEL_ATTRIBUTE
10
0
20
0
40
0.49
1
Ref.Des.
72
1
73
1
11
0
21
0
41
0.75
7
W0$07
0
TEXT
8
PART_NAME_126
10
0
20
0
40
0.49
1
C14
72
1
73
2
11
0
21
0
50
-180
41
0.75
7
W0$07
0
TEXT
8
PART_TYPE_TOP
10
0
20
-0.7
40
0.49
1
CAPACITOR_0_6
72
1
73
2
11
0
21
-0.7
50
-180
41
0.75
7
W0$07
0
TEXT
8
PART_INFO
10
0
20
-1.4
40
0.49
1
000000
72
1
73
2
11
0
21
-1.4
50
-180
41
0.75
7
W0$07
0
TEXT
8
PART_PTS
10
0
20
-2.1
40
0.49
1
1 2 
72
1
73
2
11
0
21
-2.1
50
-180
41
0.75
7
W0$07
0
ENDBLK
0
BLOCK
2
PART_TOP_28
8
0
10
0
20
0
3
PART_TOP_28
70
64
0
INSERT
2
SYM_TOP_8
8
0
10
0
20
0
0
INSERT
2
PKG_2
8
0
10
0
20
0
0
TEXT
8
LABEL_INFO
10
0
20
0
40
0.49
1
1 0 1 1 0 1
72
1
73
1
11
0
21
0
41
0.75
7
W0$07
0
TEXT
8
LABEL_ATTRIBUTE
10
0
20
0
40
0.49
1
Ref.Des.
72
1
73
1
11
0
21
0
41
0.75
7
W0$07
0
TEXT
8
PART_NAME_126
10
0
20
0
40
0.49
1
C13
72
1
73
2
11
0
21
0
50
-180
41
0.75
7
W0$07
0
TEXT
8
PART_TYPE_TOP
10
0
20
-0.7
40
0.49
1
CAPACITOR_1
72
1
73
2
11
0
21
-0.7
50
-180
41
0.75
7
W0$07
0
TEXT
8
PART_INFO
10
0
20
-1.4
40
0.49
1
000000
72
1
73
2
11
0
21
-1.4
50
-180
41
0.75
7
W0$07
0
TEXT
8
PART_PTS
10
0
20
-2.1
40
0.49
1
1 2 
72
1
73
2
11
0
21
-2.1
50
-180
41
0.75
7
W0$07
0
ENDBLK
0
BLOCK
2
PART_TOP_29
8
0
10
0
20
0
3
PART_TOP_29
70
64
0
INSERT
2
SYM_TOP_8
8
0
10
0
20
0
0
INSERT
2
PKG_4
8
0
10
0
20
0
0
TEXT
8
LABEL_INFO
10
0
20
0
40
0.49
1
1 0 1 1 0 1
72
1
73
1
11
0
21
0
41
0.75
7
W0$07
0
TEXT
8
LABEL_ATTRIBUTE
10
0
20
0
40
0.49
1
Ref.Des.
72
1
73
1
11
0
21
0
41
0.75
7
W0$07
0
TEXT
8
PART_NAME_126
10
0
20
0
40
0.49
1
C38
72
1
73
2
11
0
21
0
41
0.75
7
W0$07
0
TEXT
8
PART_TYPE_TOP
10
0
20
-0.7
40
0.49
1
C0603
72
1
73
2
11
0
21
-0.7
41
0.75
7
W0$07
0
TEXT
8
PART_INFO
10
0
20
-1.4
40
0.49
1
000000
72
1
73
2
11
0
21
-1.4
41
0.75
7
W0$07
0
TEXT
8
PART_PTS
10
0
20
-2.1
40
0.49
1
1 2 
72
1
73
2
11
0
21
-2.1
41
0.75
7
W0$07
0
ENDBLK
0
BLOCK
2
PART_TOP_30
8
0
10
0
20
0
3
PART_TOP_30
70
64
0
INSERT
2
SYM_TOP_8
8
0
10
0
20
0
0
INSERT
2
PKG_1
8
0
10
0
20
0
0
TEXT
8
LABEL_INFO
10
0
20
0
40
0.49
1
1 0 1 1 0 1
72
1
73
1
11
0
21
0
41
0.75
7
W0$07
0
TEXT
8
LABEL_ATTRIBUTE
10
0
20
0
40
0.49
1
Ref.Des.
72
1
73
1
11
0
21
0
41
0.75
7
W0$07
0
TEXT
8
PART_NAME_126
10
0
20
0
40
0.49
1
C11
72
1
73
2
11
0
21
0
41
0.75
7
W0$07
0
TEXT
8
PART_TYPE_TOP
10
0
20
-0.7
40
0.49
1
CAPACITOR_0_6
72
1
73
2
11
0
21
-0.7
41
0.75
7
W0$07
0
TEXT
8
PART_INFO
10
0
20
-1.4
40
0.49
1
000000
72
1
73
2
11
0
21
-1.4
41
0.75
7
W0$07
0
TEXT
8
PART_PTS
10
0
20
-2.1
40
0.49
1
1 2 
72
1
73
2
11
0
21
-2.1
41
0.75
7
W0$07
0
ENDBLK
0
BLOCK
2
PART_TOP_31
8
0
10
0
20
0
3
PART_TOP_31
70
64
0
INSERT
2
SYM_TOP_12
8
0
10
0
20
0
0
INSERT
2
PKG_3
8
0
10
0
20
0
0
TEXT
8
LABEL_INFO
10
1.0764
20
-0.7365993333
40
0.49
1
1 0 1 1 0 1
72
1
73
1
11
1.0764
21
-0.7365993333
41
0.75
7
W0$07
0
TEXT
8
LABEL_ATTRIBUTE
10
1.0764
20
-0.7365993333
40
0.49
1
Ref.Des.
72
1
73
1
11
1.0764
21
-0.7365993333
41
0.75
7
W0$07
0
TEXT
8
PART_NAME_126
10
1.0764
20
-0.7365993333
40
0.49
1
X1
72
1
73
2
11
1.0764
21
-0.7365993333
50
-180
41
0.75
7
W0$07
0
TEXT
8
PART_TYPE_TOP
10
1.0764
20
-1.4365993333
40
0.49
1
CRYSTAL_4
72
1
73
2
11
1.0764
21
-1.4365993333
50
-180
41
0.75
7
W0$07
0
TEXT
8
PART_INFO
10
1.0764
20
-2.1365993333
40
0.49
1
000000
72
1
73
2
11
1.0764
21
-2.1365993333
50
-180
41
0.75
7
W0$07
0
TEXT
8
PART_PTS
10
1.0764
20
-2.8365993333
40
0.49
1
1 2 3 4 
72
1
73
2
11
1.0764
21
-2.8365993333
50
-180
41
0.75
7
W0$07
0
ENDBLK
0
BLOCK
2
PART_TOP_32
8
0
10
0
20
0
3
PART_TOP_32
70
64
0
INSERT
2
SYM_TOP_8
8
0
10
0
20
0
0
INSERT
2
PKG_4
8
0
10
0
20
0
0
TEXT
8
LABEL_INFO
10
0
20
0
40
0.49
1
1 0 1 1 0 1
72
1
73
1
11
0
21
0
41
0.75
7
W0$07
0
TEXT
8
LABEL_ATTRIBUTE
10
0
20
0
40
0.49
1
Ref.Des.
72
1
73
1
11
0
21
0
41
0.75
7
W0$07
0
TEXT
8
PART_NAME_126
10
0
20
0
40
0.49
1
C37
72
1
73
2
11
0
21
0
50
-180
41
0.75
7
W0$07
0
TEXT
8
PART_TYPE_TOP
10
0
20
-0.7
40
0.49
1
C0603
72
1
73
2
11
0
21
-0.7
50
-180
41
0.75
7
W0$07
0
TEXT
8
PART_INFO
10
0
20
-1.4
40
0.49
1
000000
72
1
73
2
11
0
21
-1.4
50
-180
41
0.75
7
W0$07
0
TEXT
8
PART_PTS
10
0
20
-2.1
40
0.49
1
1 2 
72
1
73
2
11
0
21
-2.1
50
-180
41
0.75
7
W0$07
0
ENDBLK
0
BLOCK
2
PART_TOP_33
8
0
10
0
20
0
3
PART_TOP_33
70
64
0
INSERT
2
SYM_TOP_7
8
0
10
0
20
0
0
INSERT
2
PKG_5
8
0
10
0
20
0
0
TEXT
8
LABEL_INFO
10
2.6766
20
-1.5493993333
40
0.49
1
1 162000000 1 1 0 1
72
1
73
1
11
2.6766
21
-1.5493993333
50
90
41
0.75
7
W0$07
0
TEXT
8
LABEL_ATTRIBUTE
10
2.6766
20
-1.5493993333
40
0.49
1
Ref.Des.
72
1
73
1
11
2.6766
21
-1.5493993333
50
90
41
0.75
7
W0$07
0
TEXT
8
PART_NAME_126
10
2.6766
20
-1.5493993333
40
0.49
1
U1
72
1
73
2
11
2.6766
21
-1.5493993333
50
-270
41
0.75
7
W0$07
0
TEXT
8
PART_TYPE_TOP
10
2.6766
20
-2.2493993333
40
0.49
1
RC522-QFN32
72
1
73
2
11
2.6766
21
-2.2493993333
50
-270
41
0.75
7
W0$07
0
TEXT
8
PART_INFO
10
2.6766
20
-2.9493993333
40
0.49
1
000000
72
1
73
2
11
2.6766
21
-2.9493993333
50
-270
41
0.75
7
W0$07
0
TEXT
8
PART_PTS
10
2.6766
20
-3.6493993333
40
0.49
1
1 2 3 4 5 6 7 8 9 10 11 12 13 14 15 16 17 18 19 20 21 22 23 24 25 26 27 28 29 30 31 32 33 
72
1
73
2
11
2.6766
21
-3.6493993333
50
-270
41
0.75
7
W0$07
0
ENDBLK
0
BLOCK
2
PART_TOP_34
8
0
10
0
20
0
3
PART_TOP_34
70
64
0
INSERT
2
SYM_TOP_8
8
0
10
0
20
0
0
INSERT
2
PKG_2
8
0
10
0
20
0
0
TEXT
8
LABEL_INFO
10
0
20
0
40
0.49
1
1 0 1 1 0 1
72
1
73
1
11
0
21
0
41
0.75
7
W0$07
0
TEXT
8
LABEL_ATTRIBUTE
10
0
20
0
40
0.49
1
Ref.Des.
72
1
73
1
11
0
21
0
41
0.75
7
W0$07
0
TEXT
8
PART_NAME_126
10
0
20
0
40
0.49
1
C21
72
1
73
2
11
0
21
0
50
-180
41
0.75
7
W0$07
0
TEXT
8
PART_TYPE_TOP
10
0
20
-0.7
40
0.49
1
CAPACITOR_1
72
1
73
2
11
0
21
-0.7
50
-180
41
0.75
7
W0$07
0
TEXT
8
PART_INFO
10
0
20
-1.4
40
0.49
1
000000
72
1
73
2
11
0
21
-1.4
50
-180
41
0.75
7
W0$07
0
TEXT
8
PART_PTS
10
0
20
-2.1
40
0.49
1
1 2 
72
1
73
2
11
0
21
-2.1
50
-180
41
0.75
7
W0$07
0
ENDBLK
0
BLOCK
2
PART_TOP_35
8
0
10
0
20
0
3
PART_TOP_35
70
64
0
INSERT
2
SYM_TOP_11
8
0
10
0
20
0
0
INSERT
2
PKG_1
8
0
10
0
20
0
0
TEXT
8
LABEL_INFO
10
-0.981
20
0
40
0.49
1
1 162000000 1 1 0 1
72
1
73
1
11
-0.981
21
0
50
90
41
0.75
7
W0$07
0
TEXT
8
LABEL_ATTRIBUTE
10
-0.981
20
0
40
0.49
1
Ref.Des.
72
1
73
1
11
-0.981
21
0
50
90
41
0.75
7
W0$07
0
TEXT
8
PART_NAME_126
10
-0.981
20
0
40
0.49
1
C8
72
1
73
2
11
-0.981
21
0
50
-90
41
0.75
7
W0$07
0
TEXT
8
PART_TYPE_TOP
10
-0.981
20
-0.7
40
0.49
1
CAPACITOR_0_6
72
1
73
2
11
-0.981
21
-0.7
50
-90
41
0.75
7
W0$07
0
TEXT
8
PART_INFO
10
-0.981
20
-1.4
40
0.49
1
000100
72
1
73
2
11
-0.981
21
-1.4
50
-90
41
0.75
7
W0$07
0
TEXT
8
PART_PTS
10
-0.981
20
-2.1
40
0.49
1
1 2 
72
1
73
2
11
-0.981
21
-2.1
50
-90
41
0.75
7
W0$07
0
ENDBLK
0
BLOCK
2
PART_TOP_36
8
0
10
0
20
0
3
PART_TOP_36
70
64
0
INSERT
2
SYM_TOP_22
8
0
10
0
20
0
0
INSERT
2
PKG_14
8
0
10
0
20
0
0
TEXT
8
LABEL_INFO
10
1.7622
20
0.0508
40
0.49
1
1 0 1 1 0 1
72
1
73
1
11
1.7622
21
0.0508
41
0.75
7
W0$07
0
TEXT
8
LABEL_ATTRIBUTE
10
1.7622
20
0.0508
40
0.49
1
Ref.Des.
72
1
73
1
11
1.7622
21
0.0508
41
0.75
7
W0$07
0
TEXT
8
PART_NAME_126
10
1.7622
20
0.0508
40
0.49
1
L2
72
1
73
2
11
1.7622
21
0.0508
41
0.75
7
W0$07
0
TEXT
8
PART_TYPE_TOP
10
1.7622
20
-0.6492
40
0.49
1
L-T
72
1
73
2
11
1.7622
21
-0.6492
41
0.75
7
W0$07
0
TEXT
8
PART_INFO
10
1.7622
20
-1.3492
40
0.49
1
000000
72
1
73
2
11
1.7622
21
-1.3492
41
0.75
7
W0$07
0
TEXT
8
PART_PTS
10
1.7622
20
-2.0492
40
0.49
1
1 2 
72
1
73
2
11
1.7622
21
-2.0492
41
0.75
7
W0$07
0
ENDBLK
0
BLOCK
2
PART_TOP_37
8
0
10
0
20
0
3
PART_TOP_37
70
64
0
INSERT
2
SYM_TOP_22
8
0
10
0
20
0
0
INSERT
2
PKG_14
8
0
10
0
20
0
0
TEXT
8
LABEL_INFO
10
1.6352
20
-0.0254
40
0.49
1
1 0 1 1 0 1
72
1
73
1
11
1.6352
21
-0.0254
41
0.75
7
W0$07
0
TEXT
8
LABEL_ATTRIBUTE
10
1.6352
20
-0.0254
40
0.49
1
Ref.Des.
72
1
73
1
11
1.6352
21
-0.0254
41
0.75
7
W0$07
0
TEXT
8
PART_NAME_126
10
1.6352
20
-0.0254
40
0.49
1
L1
72
1
73
2
11
1.6352
21
-0.0254
41
0.75
7
W0$07
0
TEXT
8
PART_TYPE_TOP
10
1.6352
20
-0.7254
40
0.49
1
L-T
72
1
73
2
11
1.6352
21
-0.7254
41
0.75
7
W0$07
0
TEXT
8
PART_INFO
10
1.6352
20
-1.4254
40
0.49
1
000000
72
1
73
2
11
1.6352
21
-1.4254
41
0.75
7
W0$07
0
TEXT
8
PART_PTS
10
1.6352
20
-2.1254
40
0.49
1
1 2 
72
1
73
2
11
1.6352
21
-2.1254
41
0.75
7
W0$07
0
ENDBLK
0
BLOCK
2
PART_TOP_38
8
0
10
0
20
0
3
PART_TOP_38
70
64
0
INSERT
2
SYM_TOP_21
8
0
10
0
20
0
0
INSERT
2
PKG_13
8
0
10
0
20
0
0
TEXT
8
LABEL_INFO
10
2.0305
20
0.7550106667
40
0.889
1
0 0 0 2 0 1
73
2
11
2.0305
21
0.7550106667
41
0.75
7
W0$5
0
TEXT
8
LABEL_ATTRIBUTE
10
2.0305
20
0.7550106667
40
0.889
1
PartType
73
2
11
2.0305
21
0.7550106667
41
0.75
7
W0$5
0
TEXT
8
PART_TYPE_01
10
2.0305
20
0.7550106667
40
0.889
1
RT9293B_0
73
3
11
2.0305
21
0.7550106667
41
0.75
7
W0$5
0
TEXT
8
LABEL_INFO
10
0.9905993333
20
1.5748
40
0.5334
1
0 486000000 0 0 0 1
50
270
41
0.75
7
W0$0762
0
TEXT
8
LABEL_ATTRIBUTE
10
0.9905993333
20
1.5748
40
0.5334
1
Ref.Des.
50
270
41
0.75
7
W0$0762
0
TEXT
8
PART_NAME_01
10
0.9905993333
20
1.5748
40
0.5334
1
U5
50
270
41
0.75
7
W0$0762
0
TEXT
8
PART_INFO
10
0.9905993333
20
0.8128
40
0.5334
1
000000
50
270
41
0.75
7
W0$0762
0
TEXT
8
PART_PTS
10
0.9905993333
20
0.0508
40
0.5334
1
1 2 3 4 5 
50
270
41
0.75
7
W0$0762
0
ENDBLK
0
BLOCK
2
PART_TOP_39
8
0
10
0
20
0
3
PART_TOP_39
70
64
0
INSERT
2
SYM_TOP_8
8
0
10
0
20
0
0
INSERT
2
PKG_1
8
0
10
0
20
0
0
TEXT
8
LABEL_INFO
10
0
20
0
40
0.49
1
1 0 1 1 0 1
72
1
73
1
11
0
21
0
41
0.75
7
W0$07
0
TEXT
8
LABEL_ATTRIBUTE
10
0
20
0
40
0.49
1
Ref.Des.
72
1
73
1
11
0
21
0
41
0.75
7
W0$07
0
TEXT
8
PART_NAME_126
10
0
20
0
40
0.49
1
C23
72
1
73
2
11
0
21
0
50
-180
41
0.75
7
W0$07
0
TEXT
8
PART_TYPE_TOP
10
0
20
-0.7
40
0.49
1
CAPACITOR_0_6
72
1
73
2
11
0
21
-0.7
50
-180
41
0.75
7
W0$07
0
TEXT
8
PART_INFO
10
0
20
-1.4
40
0.49
1
000000
72
1
73
2
11
0
21
-1.4
50
-180
41
0.75
7
W0$07
0
TEXT
8
PART_PTS
10
0
20
-2.1
40
0.49
1
1 2 
72
1
73
2
11
0
21
-2.1
50
-180
41
0.75
7
W0$07
0
ENDBLK
0
BLOCK
2
PART_TOP_40
8
0
10
0
20
0
3
PART_TOP_40
70
64
0
INSERT
2
SYM_TOP_9
8
0
10
0
20
0
0
INSERT
2
PKG_0
8
0
10
0
20
0
0
TEXT
8
LABEL_INFO
10
-0.4476
20
0.0254
40
0.49
1
1 0 1 1 0 1
72
1
73
1
11
-0.4476
21
0.0254
41
0.75
7
W0$07
0
TEXT
8
LABEL_ATTRIBUTE
10
-0.4476
20
0.0254
40
0.49
1
Ref.Des.
72
1
73
1
11
-0.4476
21
0.0254
41
0.75
7
W0$07
0
TEXT
8
PART_NAME_126
10
-0.4476
20
0.0254
40
0.49
1
R4
72
1
73
2
11
-0.4476
21
0.0254
41
0.75
7
W0$07
0
TEXT
8
PART_TYPE_TOP
10
-0.4476
20
-0.6746
40
0.49
1
R_5
72
1
73
2
11
-0.4476
21
-0.6746
41
0.75
7
W0$07
0
TEXT
8
PART_INFO
10
-0.4476
20
-1.3746
40
0.49
1
000000
72
1
73
2
11
-0.4476
21
-1.3746
41
0.75
7
W0$07
0
TEXT
8
PART_PTS
10
-0.4476
20
-2.0746
40
0.49
1
1 2 
72
1
73
2
11
-0.4476
21
-2.0746
41
0.75
7
W0$07
0
ENDBLK
0
BLOCK
2
PART_TOP_41
8
0
10
0
20
0
3
PART_TOP_41
70
64
0
INSERT
2
SYM_TOP_8
8
0
10
0
20
0
0
INSERT
2
PKG_2
8
0
10
0
20
0
0
TEXT
8
LABEL_INFO
10
0
20
0
40
0.49
1
1 0 1 1 0 1
72
1
73
1
11
0
21
0
41
0.75
7
W0$07
0
TEXT
8
LABEL_ATTRIBUTE
10
0
20
0
40
0.49
1
Ref.Des.
72
1
73
1
11
0
21
0
41
0.75
7
W0$07
0
TEXT
8
PART_NAME_126
10
0
20
0
40
0.49
1
C16
72
1
73
2
11
0
21
0
50
-180
41
0.75
7
W0$07
0
TEXT
8
PART_TYPE_TOP
10
0
20
-0.7
40
0.49
1
CAPACITOR_1
72
1
73
2
11
0
21
-0.7
50
-180
41
0.75
7
W0$07
0
TEXT
8
PART_INFO
10
0
20
-1.4
40
0.49
1
000000
72
1
73
2
11
0
21
-1.4
50
-180
41
0.75
7
W0$07
0
TEXT
8
PART_PTS
10
0
20
-2.1
40
0.49
1
1 2 
72
1
73
2
11
0
21
-2.1
50
-180
41
0.75
7
W0$07
0
ENDBLK
0
BLOCK
2
PART_TOP_42
8
0
10
0
20
0
3
PART_TOP_42
70
64
0
INSERT
2
SYM_TOP_8
8
0
10
0
20
0
0
INSERT
2
PKG_2
8
0
10
0
20
0
0
TEXT
8
LABEL_INFO
10
0
20
0
40
0.49
1
1 0 1 1 0 1
72
1
73
1
11
0
21
0
41
0.75
7
W0$07
0
TEXT
8
LABEL_ATTRIBUTE
10
0
20
0
40
0.49
1
Ref.Des.
72
1
73
1
11
0
21
0
41
0.75
7
W0$07
0
TEXT
8
PART_NAME_126
10
0
20
0
40
0.49
1
C17
72
1
73
2
11
0
21
0
50
-180
41
0.75
7
W0$07
0
TEXT
8
PART_TYPE_TOP
10
0
20
-0.7
40
0.49
1
CAPACITOR_1
72
1
73
2
11
0
21
-0.7
50
-180
41
0.75
7
W0$07
0
TEXT
8
PART_INFO
10
0
20
-1.4
40
0.49
1
000000
72
1
73
2
11
0
21
-1.4
50
-180
41
0.75
7
W0$07
0
TEXT
8
PART_PTS
10
0
20
-2.1
40
0.49
1
1 2 
72
1
73
2
11
0
21
-2.1
50
-180
41
0.75
7
W0$07
0
ENDBLK
0
BLOCK
2
PART_TOP_43
8
0
10
0
20
0
3
PART_TOP_43
70
64
0
INSERT
2
SYM_TOP_8
8
0
10
0
20
0
0
INSERT
2
PKG_1
8
0
10
0
20
0
0
TEXT
8
LABEL_INFO
10
0
20
0
40
0.49
1
1 0 1 1 0 1
72
1
73
1
11
0
21
0
41
0.75
7
W0$07
0
TEXT
8
LABEL_ATTRIBUTE
10
0
20
0
40
0.49
1
Ref.Des.
72
1
73
1
11
0
21
0
41
0.75
7
W0$07
0
TEXT
8
PART_NAME_126
10
0
20
0
40
0.49
1
C4
72
1
73
2
11
0
21
0
50
-180
41
0.75
7
W0$07
0
TEXT
8
PART_TYPE_TOP
10
0
20
-0.7
40
0.49
1
CAPACITOR_0_6
72
1
73
2
11
0
21
-0.7
50
-180
41
0.75
7
W0$07
0
TEXT
8
PART_INFO
10
0
20
-1.4
40
0.49
1
000000
72
1
73
2
11
0
21
-1.4
50
-180
41
0.75
7
W0$07
0
TEXT
8
PART_PTS
10
0
20
-2.1
40
0.49
1
1 2 
72
1
73
2
11
0
21
-2.1
50
-180
41
0.75
7
W0$07
0
ENDBLK
0
BLOCK
2
PART_TOP_44
8
0
10
0
20
0
3
PART_TOP_44
70
64
0
INSERT
2
SYM_TOP_8
8
0
10
0
20
0
0
INSERT
2
PKG_2
8
0
10
0
20
0
0
TEXT
8
LABEL_INFO
10
0
20
0
40
0.49
1
1 0 1 1 0 1
72
1
73
1
11
0
21
0
41
0.75
7
W0$07
0
TEXT
8
LABEL_ATTRIBUTE
10
0
20
0
40
0.49
1
Ref.Des.
72
1
73
1
11
0
21
0
41
0.75
7
W0$07
0
TEXT
8
PART_NAME_126
10
0
20
0
40
0.49
1
C6
72
1
73
2
11
0
21
0
41
0.75
7
W0$07
0
TEXT
8
PART_TYPE_TOP
10
0
20
-0.7
40
0.49
1
CAPACITOR_1
72
1
73
2
11
0
21
-0.7
41
0.75
7
W0$07
0
TEXT
8
PART_INFO
10
0
20
-1.4
40
0.49
1
000000
72
1
73
2
11
0
21
-1.4
41
0.75
7
W0$07
0
TEXT
8
PART_PTS
10
0
20
-2.1
40
0.49
1
1 2 
72
1
73
2
11
0
21
-2.1
41
0.75
7
W0$07
0
ENDBLK
0
BLOCK
2
PART_TOP_45
8
0
10
0
20
0
3
PART_TOP_45
70
64
0
INSERT
2
SYM_TOP_8
8
0
10
0
20
0
0
INSERT
2
PKG_2
8
0
10
0
20
0
0
TEXT
8
LABEL_INFO
10
0
20
0
40
0.49
1
1 0 1 1 0 1
72
1
73
1
11
0
21
0
41
0.75
7
W0$07
0
TEXT
8
LABEL_ATTRIBUTE
10
0
20
0
40
0.49
1
Ref.Des.
72
1
73
1
11
0
21
0
41
0.75
7
W0$07
0
TEXT
8
PART_NAME_126
10
0
20
0
40
0.49
1
C1
72
1
73
2
11
0
21
0
50
-180
41
0.75
7
W0$07
0
TEXT
8
PART_TYPE_TOP
10
0
20
-0.7
40
0.49
1
CAPACITOR_1
72
1
73
2
11
0
21
-0.7
50
-180
41
0.75
7
W0$07
0
TEXT
8
PART_INFO
10
0
20
-1.4
40
0.49
1
000000
72
1
73
2
11
0
21
-1.4
50
-180
41
0.75
7
W0$07
0
TEXT
8
PART_PTS
10
0
20
-2.1
40
0.49
1
1 2 
72
1
73
2
11
0
21
-2.1
50
-180
41
0.75
7
W0$07
0
ENDBLK
0
BLOCK
2
PART_TOP_46
8
0
10
0
20
0
3
PART_TOP_46
70
64
0
INSERT
2
SYM_TOP_8
8
0
10
0
20
0
0
INSERT
2
PKG_1
8
0
10
0
20
0
0
TEXT
8
LABEL_INFO
10
0
20
0
40
0.49
1
1 0 1 1 0 1
72
1
73
1
11
0
21
0
41
0.75
7
W0$07
0
TEXT
8
LABEL_ATTRIBUTE
10
0
20
0
40
0.49
1
Ref.Des.
72
1
73
1
11
0
21
0
41
0.75
7
W0$07
0
TEXT
8
PART_NAME_126
10
0
20
0
40
0.49
1
C2
72
1
73
2
11
0
21
0
50
-180
41
0.75
7
W0$07
0
TEXT
8
PART_TYPE_TOP
10
0
20
-0.7
40
0.49
1
CAPACITOR_0_6
72
1
73
2
11
0
21
-0.7
50
-180
41
0.75
7
W0$07
0
TEXT
8
PART_INFO
10
0
20
-1.4
40
0.49
1
000000
72
1
73
2
11
0
21
-1.4
50
-180
41
0.75
7
W0$07
0
TEXT
8
PART_PTS
10
0
20
-2.1
40
0.49
1
1 2 
72
1
73
2
11
0
21
-2.1
50
-180
41
0.75
7
W0$07
0
ENDBLK
0
BLOCK
2
PART_TOP_47
8
0
10
0
20
0
3
PART_TOP_47
70
64
0
INSERT
2
SYM_TOP_8
8
0
10
0
20
0
0
INSERT
2
PKG_2
8
0
10
0
20
0
0
TEXT
8
LABEL_INFO
10
0
20
0
40
0.49
1
1 0 1 1 0 1
72
1
73
1
11
0
21
0
41
0.75
7
W0$07
0
TEXT
8
LABEL_ATTRIBUTE
10
0
20
0
40
0.49
1
Ref.Des.
72
1
73
1
11
0
21
0
41
0.75
7
W0$07
0
TEXT
8
PART_NAME_126
10
0
20
0
40
0.49
1
C18
72
1
73
2
11
0
21
0
41
0.75
7
W0$07
0
TEXT
8
PART_TYPE_TOP
10
0
20
-0.7
40
0.49
1
CAPACITOR_1
72
1
73
2
11
0
21
-0.7
41
0.75
7
W0$07
0
TEXT
8
PART_INFO
10
0
20
-1.4
40
0.49
1
000000
72
1
73
2
11
0
21
-1.4
41
0.75
7
W0$07
0
TEXT
8
PART_PTS
10
0
20
-2.1
40
0.49
1
1 2 
72
1
73
2
11
0
21
-2.1
41
0.75
7
W0$07
0
ENDBLK
0
BLOCK
2
PART_TOP_48
8
0
10
0
20
0
3
PART_TOP_48
70
64
0
INSERT
2
SYM_TOP_8
8
0
10
0
20
0
0
INSERT
2
PKG_2
8
0
10
0
20
0
0
TEXT
8
LABEL_INFO
10
0
20
0
40
0.49
1
1 0 1 1 0 1
72
1
73
1
11
0
21
0
41
0.75
7
W0$07
0
TEXT
8
LABEL_ATTRIBUTE
10
0
20
0
40
0.49
1
Ref.Des.
72
1
73
1
11
0
21
0
41
0.75
7
W0$07
0
TEXT
8
PART_NAME_126
10
0
20
0
40
0.49
1
C19
72
1
73
2
11
0
21
0
41
0.75
7
W0$07
0
TEXT
8
PART_TYPE_TOP
10
0
20
-0.7
40
0.49
1
CAPACITOR_1
72
1
73
2
11
0
21
-0.7
41
0.75
7
W0$07
0
TEXT
8
PART_INFO
10
0
20
-1.4
40
0.49
1
000000
72
1
73
2
11
0
21
-1.4
41
0.75
7
W0$07
0
TEXT
8
PART_PTS
10
0
20
-2.1
40
0.49
1
1 2 
72
1
73
2
11
0
21
-2.1
41
0.75
7
W0$07
0
ENDBLK
0
BLOCK
2
PART_TOP_49
8
0
10
0
20
0
3
PART_TOP_49
70
64
0
INSERT
2
SYM_TOP_9
8
0
10
0
20
0
0
INSERT
2
PKG_0
8
0
10
0
20
0
0
TEXT
8
LABEL_INFO
10
0.5176
20
0
40
0.49
1
1 0 1 1 0 1
72
1
73
1
11
0.5176
21
0
41
0.75
7
W0$07
0
TEXT
8
LABEL_ATTRIBUTE
10
0.5176
20
0
40
0.49
1
Ref.Des.
72
1
73
1
11
0.5176
21
0
41
0.75
7
W0$07
0
TEXT
8
PART_NAME_126
10
0.5176
20
0
40
0.49
1
R5
72
1
73
2
11
0.5176
21
0
50
-180
41
0.75
7
W0$07
0
TEXT
8
PART_TYPE_TOP
10
0.5176
20
-0.7
40
0.49
1
R_5
72
1
73
2
11
0.5176
21
-0.7
50
-180
41
0.75
7
W0$07
0
TEXT
8
PART_INFO
10
0.5176
20
-1.4
40
0.49
1
000000
72
1
73
2
11
0.5176
21
-1.4
50
-180
41
0.75
7
W0$07
0
TEXT
8
PART_PTS
10
0.5176
20
-2.1
40
0.49
1
1 2 
72
1
73
2
11
0.5176
21
-2.1
50
-180
41
0.75
7
W0$07
0
ENDBLK
0
BLOCK
2
PART_TOP_50
8
0
10
0
20
0
3
PART_TOP_50
70
64
0
INSERT
2
SYM_TOP_8
8
0
10
0
20
0
0
INSERT
2
PKG_1
8
0
10
0
20
0
0
TEXT
8
LABEL_INFO
10
0
20
0
40
0.49
1
1 0 1 1 0 1
72
1
73
1
11
0
21
0
41
0.75
7
W0$07
0
TEXT
8
LABEL_ATTRIBUTE
10
0
20
0
40
0.49
1
Ref.Des.
72
1
73
1
11
0
21
0
41
0.75
7
W0$07
0
TEXT
8
PART_NAME_126
10
0
20
0
40
0.49
1
C25
72
1
73
2
11
0
21
0
41
0.75
7
W0$07
0
TEXT
8
PART_TYPE_TOP
10
0
20
-0.7
40
0.49
1
CAPACITOR_0_6
72
1
73
2
11
0
21
-0.7
41
0.75
7
W0$07
0
TEXT
8
PART_INFO
10
0
20
-1.4
40
0.49
1
000000
72
1
73
2
11
0
21
-1.4
41
0.75
7
W0$07
0
TEXT
8
PART_PTS
10
0
20
-2.1
40
0.49
1
1 2 
72
1
73
2
11
0
21
-2.1
41
0.75
7
W0$07
0
ENDBLK
0
BLOCK
2
PART_TOP_52
8
0
10
0
20
0
3
PART_TOP_52
70
64
0
INSERT
2
SYM_TOP_23
8
0
10
0
20
0
0
INSERT
2
PKG_15
8
0
10
0
20
0
0
TEXT
8
LABEL_INFO
10
0.762
20
3.0734
40
0.889
1
0 0 0 2 0 1
73
2
11
0.762
21
3.0734
41
0.75
7
W0$127
0
TEXT
8
LABEL_ATTRIBUTE
10
0.762
20
3.0734
40
0.889
1
PartType
73
2
11
0.762
21
3.0734
41
0.75
7
W0$127
0
TEXT
8
PART_TYPE_01
10
0.762
20
3.0734
40
0.889
1
CONSMT_P4_1.25MM
73
3
11
0.762
21
3.0734
41
0.75
7
W0$127
0
TEXT
8
LABEL_INFO
10
2.3367993333
20
3.2512
40
0.889
1
0 324000000 0 0 0 1
50
180
41
0.75
7
W0$127
0
TEXT
8
LABEL_ATTRIBUTE
10
2.3367993333
20
3.2512
40
0.889
1
Ref.Des.
50
180
41
0.75
7
W0$127
0
TEXT
8
PART_NAME_01
10
2.3367993333
20
3.2512
40
0.889
1
J1
50
180
41
0.75
7
W0$127
0
TEXT
8
PART_INFO
10
2.3367993333
20
1.9812
40
0.889
1
000000
50
180
41
0.75
7
W0$127
0
TEXT
8
PART_PTS
10
2.3367993333
20
0.7112
40
0.889
1
1 2 3 4 5 6 
50
180
41
0.75
7
W0$127
0
ENDBLK
0
BLOCK
2
PART_TOP_53
8
0
10
0
20
0
3
PART_TOP_53
70
64
0
INSERT
2
SYM_TOP_11
8
0
10
0
20
0
0
INSERT
2
PKG_1
8
0
10
0
20
0
0
TEXT
8
LABEL_INFO
10
-0.981
20
0
40
0.49
1
1 162000000 1 1 0 1
72
1
73
1
11
-0.981
21
0
50
90
41
0.75
7
W0$07
0
TEXT
8
LABEL_ATTRIBUTE
10
-0.981
20
0
40
0.49
1
Ref.Des.
72
1
73
1
11
-0.981
21
0
50
90
41
0.75
7
W0$07
0
TEXT
8
PART_NAME_126
10
-0.981
20
0
40
0.49
1
C5
72
1
73
2
11
-0.981
21
0
50
-270
41
0.75
7
W0$07
0
TEXT
8
PART_TYPE_TOP
10
-0.981
20
-0.7
40
0.49
1
CAPACITOR_0_6
72
1
73
2
11
-0.981
21
-0.7
50
-270
41
0.75
7
W0$07
0
TEXT
8
PART_INFO
10
-0.981
20
-1.4
40
0.49
1
000001
72
1
73
2
11
-0.981
21
-1.4
50
-270
41
0.75
7
W0$07
0
TEXT
8
PART_PTS
10
-0.981
20
-2.1
40
0.49
1
1 2 
72
1
73
2
11
-0.981
21
-2.1
50
-270
41
0.75
7
W0$07
0
ENDBLK
0
BLOCK
2
PART_TOP_54
8
0
10
0
20
0
3
PART_TOP_54
70
64
0
INSERT
2
SYM_TOP_24
8
0
10
0
20
0
0
INSERT
2
PKG_16
8
0
10
0
20
0
0
TEXT
8
LABEL_INFO
10
-0.8636
20
0.2031993333
40
0.5334
1
0 324000000 0 0 0 1
50
180
41
0.75
7
W0$0762
0
TEXT
8
LABEL_ATTRIBUTE
10
-0.8636
20
0.2031993333
40
0.5334
1
Ref.Des.
50
180
41
0.75
7
W0$0762
0
TEXT
8
PART_NAME_01
10
-0.8636
20
0.2031993333
40
0.5334
1
U4
50
180
41
0.75
7
W0$0762
0
TEXT
8
PART_TYPE_TOP
10
-0.8636
20
-0.5588006667
40
0.5334
1
LM258_SOP8
50
180
41
0.75
7
W0$0762
0
TEXT
8
PART_INFO
10
-0.8636
20
-1.3208006667
40
0.5334
1
000000
50
180
41
0.75
7
W0$0762
0
TEXT
8
PART_PTS
10
-0.8636
20
-2.0828006667
40
0.5334
1
1 2 3 4 5 6 7 8 
50
180
41
0.75
7
W0$0762
0
ENDBLK
0
BLOCK
2
SYM_TOP_18
8
0
10
0
20
0
3
SYM_TOP_18
70
64
0
TEXT
8
SYM_NAME
10
0
20
0
40
1.778
1
SSOP20-2
41
0.75
0
TEXT
8
SYM_PART_TYPE_01
10
-1.905
20
6.604
40
1.778
1
 
73
2
11
-1.905
21
6.604
41
0.75
7
W0$254R0
0
TEXT
8
SYM_PART_NAME_01
10
-1.905
20
6.604
40
1.778
1
 
41
0.75
7
W0$254R0
0
INSERT
2
PART_BODY_TOP_16
8
0
10
0
20
0
0
INSERT
2
STK_TOP_224
8
0
10
-2.921
20
2.92608
0
TEXT
8
SYM_TERMINAL
10
0
20
-3.048
40
1.778
1
1
0
INSERT
2
STK_TOP_224
8
0
10
-2.921
20
2.27584
0
TEXT
8
SYM_TERMINAL
10
0
20
-6.096
40
1.778
1
2
0
INSERT
2
STK_TOP_224
8
0
10
-2.921
20
1.6256
0
TEXT
8
SYM_TERMINAL
10
0
20
-9.144
40
1.778
1
3
0
INSERT
2
STK_TOP_224
8
0
10
-2.921
20
0.97536
0
TEXT
8
SYM_TERMINAL
10
0
20
-12.192
40
1.778
1
4
0
INSERT
2
STK_TOP_224
8
0
10
-2.921
20
0.32512
0
TEXT
8
SYM_TERMINAL
10
0
20
-15.24
40
1.778
1
5
0
INSERT
2
STK_TOP_224
8
0
10
-2.921
20
-0.32512
0
TEXT
8
SYM_TERMINAL
10
0
20
-18.288
40
1.778
1
6
0
INSERT
2
STK_TOP_224
8
0
10
-2.921
20
-0.97536
0
TEXT
8
SYM_TERMINAL
10
0
20
-21.336
40
1.778
1
7
0
INSERT
2
STK_TOP_224
8
0
10
-2.921
20
-1.6256
0
TEXT
8
SYM_TERMINAL
10
0
20
-24.384
40
1.778
1
8
0
INSERT
2
STK_TOP_224
8
0
10
-2.921
20
-2.27584
0
TEXT
8
SYM_TERMINAL
10
0
20
-27.432
40
1.778
1
9
0
INSERT
2
STK_TOP_224
8
0
10
-2.921
20
-2.92608
0
TEXT
8
SYM_TERMINAL
10
0
20
-30.48
40
1.778
1
10
0
INSERT
2
STK_TOP_224
8
0
10
2.921
20
-2.92608
0
TEXT
8
SYM_TERMINAL
10
0
20
-33.528
40
1.778
1
11
0
INSERT
2
STK_TOP_224
8
0
10
2.921
20
-2.27584
0
TEXT
8
SYM_TERMINAL
10
0
20
-36.576
40
1.778
1
12
0
INSERT
2
STK_TOP_224
8
0
10
2.921
20
-1.6256
0
TEXT
8
SYM_TERMINAL
10
0
20
-39.624
40
1.778
1
13
0
INSERT
2
STK_TOP_224
8
0
10
2.921
20
-0.97536
0
TEXT
8
SYM_TERMINAL
10
0
20
-42.672
40
1.778
1
14
0
INSERT
2
STK_TOP_224
8
0
10
2.921
20
-0.32512
0
TEXT
8
SYM_TERMINAL
10
0
20
-45.72
40
1.778
1
15
0
INSERT
2
STK_TOP_224
8
0
10
2.921
20
0.32512
0
TEXT
8
SYM_TERMINAL
10
0
20
-48.768
40
1.778
1
16
0
INSERT
2
STK_TOP_224
8
0
10
2.921
20
0.97536
0
TEXT
8
SYM_TERMINAL
10
0
20
-51.816
40
1.778
1
17
0
INSERT
2
STK_TOP_224
8
0
10
2.921
20
1.6256
0
TEXT
8
SYM_TERMINAL
10
0
20
-54.864
40
1.778
1
18
0
INSERT
2
STK_TOP_224
8
0
10
2.921
20
2.27584
0
TEXT
8
SYM_TERMINAL
10
0
20
-57.912
40
1.778
1
19
0
INSERT
2
STK_TOP_224
8
0
10
2.921
20
2.92608
0
TEXT
8
SYM_TERMINAL
10
0
20
-60.96
40
1.778
1
20
0
ENDBLK
0
BLOCK
2
PKG_10
8
0
10
0
20
0
3
PKG_10
70
64
0
TEXT
8
PKG_INFO
10
0
20
0
40
1.778
1
*SYM:= 18
0
TEXT
8
PKG_INFO
10
0
20
-3.048
40
1.778
1
*PKG:= 0 SSOP20-2 SSO
0
ENDBLK
0
BLOCK
2
SYM_TOP_9
8
0
10
0
20
0
3
SYM_TOP_9
70
64
0
TEXT
8
SYM_NAME
10
0
20
0
40
1.778
1
R0402
41
0.75
0
TEXT
8
SYM_PART_NAME_01
10
0
20
0
40
0.889
1
 
41
0.75
7
W0$127R0
0
TEXT
8
SYM_PART_TYPE_01
10
0
20
0
40
0.889
1
 
73
2
11
0
21
0
41
0.75
7
W0$127R0
0
INSERT
2
PART_BODY_TOP_6
8
0
10
0
20
0
0
INSERT
2
STK_TOP_15
8
0
10
-0.508
20
0
0
TEXT
8
SYM_TERMINAL
10
0
20
-3.048
40
1.778
1
1
0
INSERT
2
STK_TOP_15
8
0
10
0.508
20
0
0
TEXT
8
SYM_TERMINAL
10
0
20
-6.096
40
1.778
1
2
0
ENDBLK
0
BLOCK
2
PKG_0
8
0
10
0
20
0
3
PKG_0
70
64
0
TEXT
8
PKG_INFO
10
0
20
0
40
1.778
1
*SYM:= 9 10
0
TEXT
8
PKG_INFO
10
0
20
-3.048
40
1.778
1
*PKG:= 0 R_5 UND
0
ENDBLK
0
BLOCK
2
SYM_TOP_8
8
0
10
0
20
0
3
SYM_TOP_8
70
64
0
TEXT
8
SYM_NAME
10
0
20
0
40
1.778
1
C0402
41
0.75
0
TEXT
8
SYM_PART_TYPE_01
10
0
20
0
40
0.889
1
 
73
2
11
0
21
0
41
0.75
7
W0$127R0
0
TEXT
8
SYM_PART_NAME_01
10
0
20
0
40
0.889
1
 
41
0.75
7
W0$127R0
0
INSERT
2
PART_BODY_TOP_5
8
0
10
0
20
0
0
INSERT
2
STK_TOP_15
8
0
10
-0.508
20
0
0
TEXT
8
SYM_TERMINAL
10
0
20
-3.048
40
1.778
1
1
0
INSERT
2
STK_TOP_15
8
0
10
0.508
20
0
0
TEXT
8
SYM_TERMINAL
10
0
20
-6.096
40
1.778
1
2
0
ENDBLK
0
BLOCK
2
PKG_1
8
0
10
0
20
0
3
PKG_1
70
64
0
TEXT
8
PKG_INFO
10
0
20
0
40
1.778
1
*SYM:= 8 11 13
0
TEXT
8
PKG_INFO
10
0
20
-3.048
40
1.778
1
*PKG:= 0 CAPACITOR_0_6 UND
0
ENDBLK
0
BLOCK
2
SYM_TOP_14
8
0
10
0
20
0
3
SYM_TOP_14
70
64
0
TEXT
8
SYM_NAME
10
0
20
0
40
1.778
1
LED_0603
41
0.75
0
TEXT
8
SYM_ATTRIBUTE_01
10
-1.39319
20
-0.313944
40
0.7112
1
Value
41
0.75
7
W0$1016R0
0
TEXT
8
SYM_PART_NAME_01
10
-1.245108
20
0.883158
40
0.7112
1
 
41
0.75
7
W0$1016R0
0
TEXT
8
SYM_PART_NAME_01
10
-1.245108
20
-0.132842
40
0.889
1
 
41
0.75
7
W0$127R0
0
TEXT
8
SYM_ATTRIBUTE_01
10
-1.245108
20
-1.402842
40
0.889
1
Value
41
0.75
7
W0$127R0
0
INSERT
2
PART_BODY_TOP_12
8
0
10
0
20
0
0
INSERT
2
STK_TOP_47
8
0
10
-0.762
20
0
0
TEXT
8
SYM_TERMINAL
10
0
20
-3.048
40
1.778
1
1
0
INSERT
2
STK_TOP_47
8
0
10
0.762
20
0
0
TEXT
8
SYM_TERMINAL
10
0
20
-6.096
40
1.778
1
2
0
ENDBLK
0
BLOCK
2
PKG_6
8
0
10
0
20
0
3
PKG_6
70
64
0
TEXT
8
PKG_INFO
10
0
20
0
40
1.778
1
*SYM:= 14
0
TEXT
8
PKG_INFO
10
0
20
-3.048
40
1.778
1
*PKG:= 0 LED UND
0
ENDBLK
0
BLOCK
2
SYM_TOP_11
8
0
10
0
20
0
3
SYM_TOP_11
70
64
0
TEXT
8
SYM_NAME
10
0
20
0
40
1.778
1
C0805
41
0.75
0
TEXT
8
SYM_ATTRIBUTE_01
10
-1.70434
20
0.483362
40
0.7112
1
Value
73
2
11
-1.70434
21
0.483362
41
0.75
7
W0$1016R0
0
TEXT
8
SYM_PART_NAME_01
10
-1.574546
20
-0.263398
40
0.39116
1
 
41
0.75
7
W0$0508R0
0
INSERT
2
PART_BODY_TOP_8
8
0
10
0
20
0
0
INSERT
2
STK_TOP_24
8
0
10
-0.999998
20
0
0
TEXT
8
SYM_TERMINAL
10
0
20
-3.048
40
1.778
1
1
0
INSERT
2
STK_TOP_24
8
0
10
0.999998
20
0
0
TEXT
8
SYM_TERMINAL
10
0
20
-6.096
40
1.778
1
2
0
ENDBLK
0
BLOCK
2
SYM_TOP_10
8
0
10
0
20
0
3
SYM_TOP_10
70
64
0
TEXT
8
SYM_NAME
10
0
20
0
40
1.778
1
R0603
41
0.75
0
TEXT
8
SYM_PART_NAME_01
10
-0.889
20
0
40
0.889
1
 
41
0.75
7
W0$127R0
0
TEXT
8
SYM_PART_TYPE_01
10
-0.889
20
0.3889386667
40
0.889
1
 
73
2
11
-0.889
21
0.3889386667
41
0.75
7
W0$127R0
0
INSERT
2
PART_BODY_TOP_7
8
0
10
0
20
0
0
INSERT
2
STK_TOP_22
8
0
10
0
20
0
0
TEXT
8
SYM_TERMINAL
10
0
20
-3.048
40
1.778
1
1
0
INSERT
2
STK_TOP_22
8
0
10
1.6002
20
0
0
TEXT
8
SYM_TERMINAL
10
0
20
-6.096
40
1.778
1
2
0
ENDBLK
0
BLOCK
2
PKG_8
8
0
10
0
20
0
3
PKG_8
70
64
0
TEXT
8
PKG_INFO
10
0
20
0
40
1.778
1
*SYM:= 10
0
TEXT
8
PKG_INFO
10
0
20
-3.048
40
1.778
1
*PKG:= 0 R0603 UND
0
ENDBLK
0
BLOCK
2
SYM_TOP_19
8
0
10
0
20
0
3
SYM_TOP_19
70
64
0
TEXT
8
SYM_NAME
10
0
20
0
40
1.778
1
SO18
41
0.75
0
TEXT
8
SYM_PART_TYPE_01
10
0
20
0
40
1.778
1
 
73
2
11
0
21
0
41
0.75
7
W0$254R0
0
TEXT
8
SYM_PART_NAME_01
10
0
20
0
40
1.778
1
 
41
0.75
7
W0$254R0
0
INSERT
2
PART_BODY_TOP_17
8
0
10
0
20
0
0
INSERT
2
STK_TOP_21
8
0
10
-4.445
20
-2.794
0
TEXT
8
SYM_TERMINAL
10
0
20
-3.048
40
1.778
1
1
0
INSERT
2
STK_TOP_21
8
0
10
-3.175
20
-2.794
0
TEXT
8
SYM_TERMINAL
10
0
20
-6.096
40
1.778
1
2
0
INSERT
2
STK_TOP_21
8
0
10
-1.905
20
-2.794
0
TEXT
8
SYM_TERMINAL
10
0
20
-9.144
40
1.778
1
3
0
INSERT
2
STK_TOP_21
8
0
10
-0.635
20
-2.794
0
TEXT
8
SYM_TERMINAL
10
0
20
-12.192
40
1.778
1
4
0
INSERT
2
STK_TOP_21
8
0
10
0.635
20
-2.794
0
TEXT
8
SYM_TERMINAL
10
0
20
-15.24
40
1.778
1
5
0
INSERT
2
STK_TOP_21
8
0
10
1.905
20
-2.794
0
TEXT
8
SYM_TERMINAL
10
0
20
-18.288
40
1.778
1
6
0
INSERT
2
STK_TOP_21
8
0
10
3.175
20
-2.794
0
TEXT
8
SYM_TERMINAL
10
0
20
-21.336
40
1.778
1
7
0
INSERT
2
STK_TOP_21
8
0
10
4.445
20
-2.794
0
TEXT
8
SYM_TERMINAL
10
0
20
-24.384
40
1.778
1
8
0
INSERT
2
STK_TOP_21
8
0
10
5.715
20
-2.794
0
TEXT
8
SYM_TERMINAL
10
0
20
-27.432
40
1.778
1
9
0
INSERT
2
STK_TOP_21
8
0
10
5.715
20
2.794
0
TEXT
8
SYM_TERMINAL
10
0
20
-30.48
40
1.778
1
10
0
INSERT
2
STK_TOP_21
8
0
10
4.445
20
2.794
0
TEXT
8
SYM_TERMINAL
10
0
20
-33.528
40
1.778
1
11
0
INSERT
2
STK_TOP_21
8
0
10
3.175
20
2.794
0
TEXT
8
SYM_TERMINAL
10
0
20
-36.576
40
1.778
1
12
0
INSERT
2
STK_TOP_21
8
0
10
1.905
20
2.794
0
TEXT
8
SYM_TERMINAL
10
0
20
-39.624
40
1.778
1
13
0
INSERT
2
STK_TOP_21
8
0
10
0.635
20
2.794
0
TEXT
8
SYM_TERMINAL
10
0
20
-42.672
40
1.778
1
14
0
INSERT
2
STK_TOP_21
8
0
10
-0.635
20
2.794
0
TEXT
8
SYM_TERMINAL
10
0
20
-45.72
40
1.778
1
15
0
INSERT
2
STK_TOP_21
8
0
10
-1.905
20
2.794
0
TEXT
8
SYM_TERMINAL
10
0
20
-48.768
40
1.778
1
16
0
INSERT
2
STK_TOP_21
8
0
10
-3.175
20
2.794
0
TEXT
8
SYM_TERMINAL
10
0
20
-51.816
40
1.778
1
17
0
INSERT
2
STK_TOP_21
8
0
10
-4.445
20
2.794
0
TEXT
8
SYM_TERMINAL
10
0
20
-54.864
40
1.778
1
18
0
ENDBLK
0
BLOCK
2
PKG_11
8
0
10
0
20
0
3
PKG_11
70
64
0
TEXT
8
PKG_INFO
10
0
20
0
40
1.778
1
*SYM:= 19
0
TEXT
8
PKG_INFO
10
0
20
-3.048
40
1.778
1
*PKG:= 0 SO18 UND
0
ENDBLK
0
BLOCK
2
SYM_TOP_17
8
0
10
0
20
0
3
SYM_TOP_17
70
64
0
TEXT
8
SYM_NAME
10
0
20
0
40
1.778
1
BZ_0904
41
0.75
0
TEXT
8
SYM_PART_NAME_01
10
-5.4864
20
2.0574
40
0.889
1
 
41
0.75
7
W0$127R0
0
TEXT
8
SYM_PART_TYPE_01
10
-5.4864
20
2.0574
40
0.889
1
 
73
2
11
-5.4864
21
2.0574
41
0.75
7
W0$127R0
0
INSERT
2
PART_BODY_TOP_15
8
0
10
0
20
0
0
INSERT
2
STK_TOP_105
8
0
10
-2.4892
20
0.1016
0
TEXT
8
SYM_TERMINAL
10
0
20
-3.048
40
1.778
1
1
0
INSERT
2
STK_TOP_105
8
0
10
1.5146
20
0.1016
0
TEXT
8
SYM_TERMINAL
10
0
20
-6.096
40
1.778
1
2
0
ENDBLK
0
BLOCK
2
PKG_9
8
0
10
0
20
0
3
PKG_9
70
64
0
TEXT
8
PKG_INFO
10
0
20
0
40
1.778
1
*SYM:= 17
0
TEXT
8
PKG_INFO
10
0
20
-3.048
40
1.778
1
*PKG:= 0 BZ_0904 UND
0
ENDBLK
0
BLOCK
2
SYM_TOP_16
8
0
10
0
20
0
3
SYM_TOP_16
70
64
0
TEXT
8
SYM_NAME
10
0
20
0
40
1.778
1
SOT23
41
0.75
0
TEXT
8
SYM_PART_TYPE_01
10
-1.524
20
5.3086
40
1.778
1
 
73
2
11
-1.524
21
5.3086
41
0.75
7
W0$254R0
0
TEXT
8
SYM_PART_NAME_01
10
-1.524
20
5.3086
40
1.778
1
 
41
0.75
7
W0$254R0
0
INSERT
2
PART_BODY_TOP_14
8
0
10
0
20
0
0
INSERT
2
STK_TOP_106
8
0
10
-0.9525
20
-0.9906
0
TEXT
8
SYM_TERMINAL
10
0
20
-3.048
40
1.778
1
1
0
INSERT
2
STK_TOP_106
8
0
10
0.9525
20
-0.9906
0
TEXT
8
SYM_TERMINAL
10
0
20
-6.096
40
1.778
1
2
0
INSERT
2
STK_TOP_107
8
0
10
0
20
1.0414
0
TEXT
8
SYM_TERMINAL
10
0
20
-9.144
40
1.778
1
3
0
ENDBLK
0
BLOCK
2
PKG_7
8
0
10
0
20
0
3
PKG_7
70
64
0
TEXT
8
PKG_INFO
10
0
20
0
40
1.778
1
*SYM:= 16
0
TEXT
8
PKG_INFO
10
0
20
-3.048
40
1.778
1
*PKG:= 0 NPN_2 UND
0
ENDBLK
0
BLOCK
2
PKG_2
8
0
10
0
20
0
3
PKG_2
70
64
0
TEXT
8
PKG_INFO
10
0
20
0
40
1.778
1
*SYM:= 8 13 15
0
TEXT
8
PKG_INFO
10
0
20
-3.048
40
1.778
1
*PKG:= 0 CAPACITOR_1 UND
0
ENDBLK
0
BLOCK
2
PKG_4
8
0
10
0
20
0
3
PKG_4
70
64
0
TEXT
8
PKG_INFO
10
0
20
0
40
1.778
1
*SYM:= 8 13
0
TEXT
8
PKG_INFO
10
0
20
-3.048
40
1.778
1
*PKG:= 0 C0603 UND
0
ENDBLK
0
BLOCK
2
SYM_TOP_12
8
0
10
0
20
0
3
SYM_TOP_12
70
64
0
TEXT
8
SYM_NAME
10
0
20
0
40
1.778
1
3225
41
0.75
0
TEXT
8
SYM_PART_TYPE_01
10
-0.127
20
0
40
1.778
1
 
41
0.75
7
W0$254R0
0
TEXT
8
SYM_PART_NAME_01
10
-0.127
20
0
40
1.778
1
 
41
0.75
7
W0$254R0
0
INSERT
2
PART_BODY_TOP_9
8
0
10
0
20
0
0
INSERT
2
STK_TOP_19
8
0
10
1.15
20
0.95
0
TEXT
8
SYM_TERMINAL
10
0
20
-3.048
40
1.778
1
1
0
INSERT
2
STK_TOP_19
8
0
10
-1.15
20
0.95
0
TEXT
8
SYM_TERMINAL
10
0
20
-6.096
40
1.778
1
2
0
INSERT
2
STK_TOP_19
8
0
10
-1.15
20
-0.95
0
TEXT
8
SYM_TERMINAL
10
0
20
-9.144
40
1.778
1
3
0
INSERT
2
STK_TOP_19
8
0
10
1.15
20
-0.95
0
TEXT
8
SYM_TERMINAL
10
0
20
-12.192
40
1.778
1
4
0
ENDBLK
0
BLOCK
2
PKG_3
8
0
10
0
20
0
3
PKG_3
70
64
0
TEXT
8
PKG_INFO
10
0
20
0
40
1.778
1
*SYM:= 12
0
TEXT
8
PKG_INFO
10
0
20
-3.048
40
1.778
1
*PKG:= 0 CRYSTAL_4 UND
0
ENDBLK
0
BLOCK
2
SYM_TOP_7
8
0
10
0
20
0
3
SYM_TOP_7
70
64
0
TEXT
8
SYM_NAME
10
0
20
0
40
1.778
1
MF522
41
0.75
0
TEXT
8
SYM_ATTRIBUTE_126
10
-0.4999993333
20
1.45321
40
0.889
1
Comment
41
0.75
7
W0$127R0
0
TEXT
8
SYM_PART_NAME_126
10
-0.4999993333
20
2.72321
40
0.889
1
 
41
0.75
7
W0$127R0
0
INSERT
2
PART_BODY_TOP_11
8
0
10
0
20
0
0
INSERT
2
STK_TOP_43
8
0
10
0
20
0
0
TEXT
8
SYM_TERMINAL
10
0
20
-3.048
40
1.778
1
1
0
INSERT
2
STK_TOP_43
8
0
10
0
20
-0.4999986667
0
TEXT
8
SYM_TERMINAL
10
0
20
-6.096
40
1.778
1
2
0
INSERT
2
STK_TOP_43
8
0
10
0
20
-0.9999973333
0
TEXT
8
SYM_TERMINAL
10
0
20
-9.144
40
1.778
1
3
0
INSERT
2
STK_TOP_43
8
0
10
0
20
-1.4999966667
0
TEXT
8
SYM_TERMINAL
10
0
20
-12.192
40
1.778
1
4
0
INSERT
2
STK_TOP_43
8
0
10
0
20
-1.999996
0
TEXT
8
SYM_TERMINAL
10
0
20
-15.24
40
1.778
1
5
0
INSERT
2
STK_TOP_43
8
0
10
0
20
-2.4999946667
0
TEXT
8
SYM_TERMINAL
10
0
20
-18.288
40
1.778
1
6
0
INSERT
2
STK_TOP_116
8
0
10
0
20
-2.999994
0
TEXT
8
SYM_TERMINAL
10
0
20
-21.336
40
1.778
1
7
0
INSERT
2
STK_TOP_116
8
0
10
0
20
-3.499866
0
TEXT
8
SYM_TERMINAL
10
0
20
-24.384
40
1.778
1
8
0
INSERT
2
STK_TOP_227
8
0
10
0.75001
20
-4.24998
0
TEXT
8
SYM_TERMINAL
10
0
20
-27.432
40
1.778
1
9
0
INSERT
2
STK_TOP_44
8
0
10
1.25001
20
-4.2499786667
0
TEXT
8
SYM_TERMINAL
10
0
20
-30.48
40
1.778
1
10
0
INSERT
2
STK_TOP_44
8
0
10
1.7500086667
20
-4.2499786667
0
TEXT
8
SYM_TERMINAL
10
0
20
-33.528
40
1.778
1
11
0
INSERT
2
STK_TOP_44
8
0
10
2.250008
20
-4.2499786667
0
TEXT
8
SYM_TERMINAL
10
0
20
-36.576
40
1.778
1
12
0
INSERT
2
STK_TOP_44
8
0
10
2.7500066667
20
-4.2499786667
0
TEXT
8
SYM_TERMINAL
10
0
20
-39.624
40
1.778
1
13
0
INSERT
2
STK_TOP_44
8
0
10
3.250006
20
-4.2499786667
0
TEXT
8
SYM_TERMINAL
10
0
20
-42.672
40
1.778
1
14
0
INSERT
2
STK_TOP_44
8
0
10
3.7500046667
20
-4.2499786667
0
TEXT
8
SYM_TERMINAL
10
0
20
-45.72
40
1.778
1
15
0
INSERT
2
STK_TOP_44
8
0
10
4.250004
20
-4.2499786667
0
TEXT
8
SYM_TERMINAL
10
0
20
-48.768
40
1.778
1
16
0
INSERT
2
STK_TOP_43
8
0
10
5.0000153333
20
-3.4999926667
0
TEXT
8
SYM_TERMINAL
10
0
20
-51.816
40
1.778
1
17
0
INSERT
2
STK_TOP_43
8
0
10
5.0000153333
20
-2.999994
0
TEXT
8
SYM_TERMINAL
10
0
20
-54.864
40
1.778
1
18
0
INSERT
2
STK_TOP_43
8
0
10
5.0000153333
20
-2.4999946667
0
TEXT
8
SYM_TERMINAL
10
0
20
-57.912
40
1.778
1
19
0
INSERT
2
STK_TOP_43
8
0
10
5.0000153333
20
-1.999996
0
TEXT
8
SYM_TERMINAL
10
0
20
-60.96
40
1.778
1
20
0
INSERT
2
STK_TOP_43
8
0
10
5.0000153333
20
-1.4999966667
0
TEXT
8
SYM_TERMINAL
10
0
20
-64.008
40
1.778
1
21
0
INSERT
2
STK_TOP_43
8
0
10
5.0000153333
20
-0.9999973333
0
TEXT
8
SYM_TERMINAL
10
0
20
-67.056
40
1.778
1
22
0
INSERT
2
STK_TOP_43
8
0
10
5.0000153333
20
-0.4999986667
0
TEXT
8
SYM_TERMINAL
10
0
20
-70.104
40
1.778
1
23
0
INSERT
2
STK_TOP_43
8
0
10
5.0000153333
20
0
0
TEXT
8
SYM_TERMINAL
10
0
20
-73.152
40
1.778
1
24
0
INSERT
2
STK_TOP_116
8
0
10
4.250004
20
0.7500106667
0
TEXT
8
SYM_TERMINAL
10
0
20
-76.2
40
1.778
1
25
0
INSERT
2
STK_TOP_116
8
0
10
3.750056
20
0.750062
0
TEXT
8
SYM_TERMINAL
10
0
20
-79.248
40
1.778
1
26
0
INSERT
2
STK_TOP_116
8
0
10
3.250006
20
0.7500106667
0
TEXT
8
SYM_TERMINAL
10
0
20
-82.296
40
1.778
1
27
0
INSERT
2
STK_TOP_116
8
0
10
2.750058
20
0.750062
0
TEXT
8
SYM_TERMINAL
10
0
20
-85.344
40
1.778
1
28
0
INSERT
2
STK_TOP_44
8
0
10
2.250008
20
0.7500106667
0
TEXT
8
SYM_TERMINAL
10
0
20
-88.392
40
1.778
1
29
0
INSERT
2
STK_TOP_44
8
0
10
1.7500086667
20
0.7500106667
0
TEXT
8
SYM_TERMINAL
10
0
20
-91.44
40
1.778
1
30
0
INSERT
2
STK_TOP_44
8
0
10
1.25001
20
0.7500106667
0
TEXT
8
SYM_TERMINAL
10
0
20
-94.488
40
1.778
1
31
0
INSERT
2
STK_TOP_208
8
0
10
0.750062
20
0.750062
0
TEXT
8
SYM_TERMINAL
10
0
20
-97.536
40
1.778
1
32
0
INSERT
2
STK_TOP_117
8
0
10
2.4892
20
-1.7526
0
TEXT
8
SYM_TERMINAL
10
0
20
-100.584
40
1.778
1
33
0
ENDBLK
0
BLOCK
2
PKG_5
8
0
10
0
20
0
3
PKG_5
70
64
0
TEXT
8
PKG_INFO
10
0
20
0
40
1.778
1
*SYM:= 7
0
TEXT
8
PKG_INFO
10
0
20
-3.048
40
1.778
1
*PKG:= 0 RC522-QFN32 UND
0
ENDBLK
0
BLOCK
2
SYM_TOP_22
8
0
10
0
20
0
3
SYM_TOP_22
70
64
0
TEXT
8
SYM_NAME
10
0
20
0
40
1.778
1
L-T
41
0.75
0
TEXT
8
SYM_PART_NAME_01
10
-1.905
20
3.6322
40
0.889
1
 
41
0.75
7
W0$127R0
0
TEXT
8
SYM_PART_TYPE_01
10
-1.8034
20
3.4544
40
0.889
1
 
73
2
11
-1.8034
21
3.4544
41
0.75
7
W0$127R0
0
INSERT
2
PART_BODY_TOP_20
8
0
10
0
20
0
0
INSERT
2
STK_TOP_262
8
0
10
0
20
0
0
TEXT
8
SYM_TERMINAL
10
0
20
-3.048
40
1.778
1
1
0
INSERT
2
STK_TOP_262
8
0
10
3.2
20
0
0
TEXT
8
SYM_TERMINAL
10
0
20
-6.096
40
1.778
1
2
0
ENDBLK
0
BLOCK
2
PKG_14
8
0
10
0
20
0
3
PKG_14
70
64
0
TEXT
8
PKG_INFO
10
0
20
0
40
1.778
1
*SYM:= 22
0
TEXT
8
PKG_INFO
10
0
20
-3.048
40
1.778
1
*PKG:= 0 L-T UND
0
TEXT
8
PKG_INFO
10
0
20
-6.096
40
1.778
1
*GATE:=0
0
TEXT
8
PKG_INFO
10
0
20
-9.144
40
1.778
1
*GATEPIN:= 0 9 1 <>
0
TEXT
8
PKG_INFO
10
0
20
-12.192
40
1.778
1
*GATEPIN:= 0 9 2 <>
0
ENDBLK
0
BLOCK
2
SYM_TOP_21
8
0
10
0
20
0
3
SYM_TOP_21
70
64
0
TEXT
8
SYM_NAME
10
0
20
0
40
1.778
1
SOT23-5
41
0.75
0
TEXT
8
SYM_PART_NAME_01
10
1.8808333333
20
1.05
40
0.889
1
 
41
0.75
7
W0$5R0
0
TEXT
8
SYM_PART_TYPE_01
10
2.0305
20
0.7550106667
40
0.889
1
 
73
2
11
2.0305
21
0.7550106667
41
0.75
7
W0$5R0
0
INSERT
2
PART_BODY_TOP_19
8
0
10
0
20
0
0
INSERT
2
STK_TOP_20
8
0
10
0
20
-0.1
0
TEXT
8
SYM_TERMINAL
10
0
20
-3.048
40
1.778
1
1
0
INSERT
2
STK_TOP_20
8
0
10
0.95
20
-0.1
0
TEXT
8
SYM_TERMINAL
10
0
20
-6.096
40
1.778
1
2
0
INSERT
2
STK_TOP_20
8
0
10
1.9
20
-0.1
0
TEXT
8
SYM_TERMINAL
10
0
20
-9.144
40
1.778
1
3
0
INSERT
2
STK_TOP_20
8
0
10
1.9
20
2.45
0
TEXT
8
SYM_TERMINAL
10
0
20
-12.192
40
1.778
1
4
0
INSERT
2
STK_TOP_20
8
0
10
0
20
2.45
0
TEXT
8
SYM_TERMINAL
10
0
20
-15.24
40
1.778
1
5
0
ENDBLK
0
BLOCK
2
PKG_13
8
0
10
0
20
0
3
PKG_13
70
64
0
TEXT
8
PKG_INFO
10
0
20
0
40
1.778
1
*SYM:= 21
0
TEXT
8
PKG_INFO
10
0
20
-3.048
40
1.778
1
*PKG:= 0 RT9293B_0 UND
0
ENDBLK
0
BLOCK
2
SYM_TOP_23
8
0
10
0
20
0
3
SYM_TOP_23
70
64
0
TEXT
8
SYM_NAME
10
0
20
0
40
1.778
1
CONSMT_P4_1.25MM
41
0.75
0
TEXT
8
SYM_PART_TYPE_01
10
0.762
20
3.0734
40
0.889
1
 
73
2
11
0.762
21
3.0734
41
0.75
7
W0$127R0
0
TEXT
8
SYM_PART_NAME_01
10
0.762
20
3.0734
40
0.889
1
 
41
0.75
7
W0$127R0
0
INSERT
2
PART_BODY_TOP_23
8
0
10
0
20
0
0
INSERT
2
STK_TOP_294
8
0
10
0
20
0
0
TEXT
8
SYM_TERMINAL
10
0
20
-3.048
40
1.778
1
1
0
INSERT
2
STK_TOP_294
8
0
10
1.27
20
0
0
TEXT
8
SYM_TERMINAL
10
0
20
-6.096
40
1.778
1
2
0
INSERT
2
STK_TOP_295
8
0
10
2.54
20
0
0
TEXT
8
SYM_TERMINAL
10
0
20
-9.144
40
1.778
1
3
0
INSERT
2
STK_TOP_296
8
0
10
3.81
20
0
0
TEXT
8
SYM_TERMINAL
10
0
20
-12.192
40
1.778
1
4
0
INSERT
2
STK_TOP_300
8
0
10
-2.667
20
2.6162
0
TEXT
8
SYM_TERMINAL
10
0
20
-15.24
40
1.778
1
11
0
INSERT
2
STK_TOP_300
8
0
10
6.2484
20
2.6162
0
TEXT
8
SYM_TERMINAL
10
0
20
-18.288
40
1.778
1
12
0
ENDBLK
0
BLOCK
2
PKG_15
8
0
10
0
20
0
3
PKG_15
70
64
0
TEXT
8
PKG_INFO
10
0
20
0
40
1.778
1
*SYM:= 23
0
TEXT
8
PKG_INFO
10
0
20
-3.048
40
1.778
1
*PKG:= 0 CONSMT_P4_1.25MM UND
0
ENDBLK
0
BLOCK
2
SYM_TOP_24
8
0
10
0
20
0
3
SYM_TOP_24
70
64
0
TEXT
8
SYM_NAME
10
0
20
0
40
1.778
1
SOP8
41
0.75
0
INSERT
2
PART_BODY_TOP_24
8
0
10
0
20
0
0
INSERT
2
STK_TOP_21
8
0
10
-1.905
20
-2.794
0
TEXT
8
SYM_TERMINAL
10
0
20
-3.048
40
1.778
1
1
0
INSERT
2
STK_TOP_21
8
0
10
-0.635
20
-2.794
0
TEXT
8
SYM_TERMINAL
10
0
20
-6.096
40
1.778
1
2
0
INSERT
2
STK_TOP_21
8
0
10
0.635
20
-2.794
0
TEXT
8
SYM_TERMINAL
10
0
20
-9.144
40
1.778
1
3
0
INSERT
2
STK_TOP_21
8
0
10
1.905
20
-2.794
0
TEXT
8
SYM_TERMINAL
10
0
20
-12.192
40
1.778
1
4
0
INSERT
2
STK_TOP_21
8
0
10
1.905
20
2.794
0
TEXT
8
SYM_TERMINAL
10
0
20
-15.24
40
1.778
1
5
0
INSERT
2
STK_TOP_21
8
0
10
0.635
20
2.794
0
TEXT
8
SYM_TERMINAL
10
0
20
-18.288
40
1.778
1
6
0
INSERT
2
STK_TOP_21
8
0
10
-0.635
20
2.794
0
TEXT
8
SYM_TERMINAL
10
0
20
-21.336
40
1.778
1
7
0
INSERT
2
STK_TOP_21
8
0
10
-1.905
20
2.794
0
TEXT
8
SYM_TERMINAL
10
0
20
-24.384
40
1.778
1
8
0
ENDBLK
0
BLOCK
2
PKG_16
8
0
10
0
20
0
3
PKG_16
70
64
0
TEXT
8
PKG_INFO
10
0
20
0
40
1.778
1
*SYM:= 24
0
TEXT
8
PKG_INFO
10
0
20
-3.048
40
1.778
1
*PKG:= 0 LM258_SOP8 UND
0
TEXT
8
PKG_INFO
10
0
20
-6.096
40
1.778
1
*GATE:=0
0
TEXT
8
PKG_INFO
10
0
20
-9.144
40
1.778
1
*GATEPIN:= 0 9 1 OUT
0
TEXT
8
PKG_INFO
10
0
20
-12.192
40
1.778
1
*GATEPIN:= 0 9 2 1IN-
0
TEXT
8
PKG_INFO
10
0
20
-15.24
40
1.778
1
*GATEPIN:= 0 9 4 GND
0
TEXT
8
PKG_INFO
10
0
20
-18.288
40
1.778
1
*GATEPIN:= 0 9 3 1IN+
0
TEXT
8
PKG_INFO
10
0
20
-21.336
40
1.778
1
*GATEPIN:= 0 9 6 2IN-
0
TEXT
8
PKG_INFO
10
0
20
-24.384
40
1.778
1
*GATEPIN:= 0 9 5 2IN+
0
TEXT
8
PKG_INFO
10
0
20
-27.432
40
1.778
1
*GATEPIN:= 0 9 7 2OUT
0
TEXT
8
PKG_INFO
10
0
20
-30.48
40
1.778
1
*GATEPIN:= 0 9 8 VCC
0
ENDBLK
0
BLOCK
2
PART_BODY_TOP_16
8
0
10
0
20
0
3
PART_BODY_TOP_16
70
64
0
POLYLINE
8
PART_TOP_2DLINE_00
66
1
40
0.254
41
0.254
70
1
0
VERTEX
8
PART_TOP_2DLINE_00
10
-1.8288
20
-3.302
0
VERTEX
8
PART_TOP_2DLINE_00
10
-1.8288
20
3.302
0
VERTEX
8
PART_TOP_2DLINE_00
10
-0.366896
20
3.302
42
1
0
VERTEX
8
PART_TOP_2DLINE_00
10
0.395104
20
3.302
0
VERTEX
8
PART_TOP_2DLINE_00
10
1.8034
20
3.302
0
VERTEX
8
PART_TOP_2DLINE_00
10
1.8034
20
-3.302
0
SEQEND
0
INSERT
2
SMOOTH_0$254
8
PART_TOP_2DLINE_00
10
-1.8288
20
-3.302
0
INSERT
2
SMOOTH_0$254
8
PART_TOP_2DLINE_00
10
-1.8288
20
3.302
0
INSERT
2
SMOOTH_0$254
8
PART_TOP_2DLINE_00
10
-0.366896
20
3.302
0
INSERT
2
SMOOTH_0$254
8
PART_TOP_2DLINE_00
10
0.395104
20
3.302
0
INSERT
2
SMOOTH_0$254
8
PART_TOP_2DLINE_00
10
1.8034
20
3.302
0
INSERT
2
SMOOTH_0$254
8
PART_TOP_2DLINE_00
10
1.8034
20
-3.302
0
ENDBLK
0
BLOCK
2
STK_TOP_224
8
0
10
0
20
0
3
STK_TOP_224
70
64
0
INSERT
2
DRIL_HOLE_0
8
DRIL_PLTE_THRU_01
10
0
20
0
0
INSERT
2
DRIL_HOLE_0
8
DRIL_PLTE_THRU_02
10
0
20
0
0
INSERT
2
PAD_0
8
PADS_INNER
10
0
20
0
0
INSERT
2
PAD_0
8
PADS_BOT
10
0
20
0
0
INSERT
2
PAD_1
8
PADS_TOP
10
0
20
0
0
ENDBLK
0
BLOCK
2
PART_BODY_TOP_6
8
0
10
0
20
0
3
PART_BODY_TOP_6
70
64
0
POLYLINE
8
PART_TOP_2DLINE_00
66
1
40
0.127
41
0.127
0
VERTEX
8
PART_TOP_2DLINE_00
10
-0.2032
20
0.508
0
VERTEX
8
PART_TOP_2DLINE_00
10
-1.016
20
0.508
0
VERTEX
8
PART_TOP_2DLINE_00
10
-1.016
20
-0.508
0
VERTEX
8
PART_TOP_2DLINE_00
10
-0.2032
20
-0.508
0
SEQEND
0
INSERT
2
SMOOTH_0$127
8
PART_TOP_2DLINE_00
10
-0.2032
20
0.508
0
INSERT
2
SMOOTH_0$127
8
PART_TOP_2DLINE_00
10
-1.016
20
0.508
0
INSERT
2
SMOOTH_0$127
8
PART_TOP_2DLINE_00
10
-1.016
20
-0.508
0
INSERT
2
SMOOTH_0$127
8
PART_TOP_2DLINE_00
10
-0.2032
20
-0.508
0
POLYLINE
8
PART_TOP_2DLINE_00
66
1
40
0.127
41
0.127
0
VERTEX
8
PART_TOP_2DLINE_00
10
0.2032
20
0.508
0
VERTEX
8
PART_TOP_2DLINE_00
10
1.016
20
0.508
0
VERTEX
8
PART_TOP_2DLINE_00
10
1.016
20
-0.508
0
VERTEX
8
PART_TOP_2DLINE_00
10
0.2032
20
-0.508
0
SEQEND
0
INSERT
2
SMOOTH_0$127
8
PART_TOP_2DLINE_00
10
0.2032
20
0.508
0
INSERT
2
SMOOTH_0$127
8
PART_TOP_2DLINE_00
10
1.016
20
0.508
0
INSERT
2
SMOOTH_0$127
8
PART_TOP_2DLINE_00
10
1.016
20
-0.508
0
INSERT
2
SMOOTH_0$127
8
PART_TOP_2DLINE_00
10
0.2032
20
-0.508
0
POLYLINE
8
PART_TOP_2DLINE_00
66
1
40
0.127
41
0.127
0
VERTEX
8
PART_TOP_2DLINE_00
10
0.1016
20
0.4826
0
VERTEX
8
PART_TOP_2DLINE_00
10
-0.127
20
0.254
0
VERTEX
8
PART_TOP_2DLINE_00
10
0.127
20
0
0
VERTEX
8
PART_TOP_2DLINE_00
10
-0.127
20
-0.254
0
VERTEX
8
PART_TOP_2DLINE_00
10
0.1016
20
-0.4826
0
SEQEND
0
INSERT
2
SMOOTH_0$127
8
PART_TOP_2DLINE_00
10
0.1016
20
0.4826
0
INSERT
2
SMOOTH_0$127
8
PART_TOP_2DLINE_00
10
-0.127
20
0.254
0
INSERT
2
SMOOTH_0$127
8
PART_TOP_2DLINE_00
10
0.127
20
0
0
INSERT
2
SMOOTH_0$127
8
PART_TOP_2DLINE_00
10
-0.127
20
-0.254
0
INSERT
2
SMOOTH_0$127
8
PART_TOP_2DLINE_00
10
0.1016
20
-0.4826
0
ENDBLK
0
BLOCK
2
STK_TOP_15
8
0
10
0
20
0
3
STK_TOP_15
70
64
0
INSERT
2
DRIL_HOLE_0
8
DRIL_PLTE_THRU_01
10
0
20
0
0
INSERT
2
DRIL_HOLE_0
8
DRIL_PLTE_THRU_02
10
0
20
0
0
INSERT
2
PAD_0
8
PADS_INNER
10
0
20
0
0
INSERT
2
PAD_0
8
PADS_BOT
10
0
20
0
0
INSERT
2
PAD_2
8
PADS_TOP
10
0
20
0
0
ENDBLK
0
BLOCK
2
PART_BODY_TOP_5
8
0
10
0
20
0
3
PART_BODY_TOP_5
70
64
0
POLYLINE
8
PART_TOP_2DLINE_00
66
1
40
0.127
41
0.127
0
VERTEX
8
PART_TOP_2DLINE_00
10
-0.2032
20
0.508
0
VERTEX
8
PART_TOP_2DLINE_00
10
-0.762
20
0.508
42
0.4142135624
0
VERTEX
8
PART_TOP_2DLINE_00
10
-1.016
20
0.254
0
VERTEX
8
PART_TOP_2DLINE_00
10
-1.016
20
-0.254
42
0.4142135624
0
VERTEX
8
PART_TOP_2DLINE_00
10
-0.762
20
-0.508
0
VERTEX
8
PART_TOP_2DLINE_00
10
-0.2032
20
-0.508
0
SEQEND
0
INSERT
2
SMOOTH_0$127
8
PART_TOP_2DLINE_00
10
-0.2032
20
0.508
0
INSERT
2
SMOOTH_0$127
8
PART_TOP_2DLINE_00
10
-0.762
20
0.508
0
POLYLINE
8
PART_TOP_2DLINE_00
66
1
40
0.127
41
0.127
0
VERTEX
8
PART_TOP_2DLINE_00
10
0.2032
20
-0.508
0
VERTEX
8
PART_TOP_2DLINE_00
10
0.762
20
-0.508
42
0.4142135624
0
VERTEX
8
PART_TOP_2DLINE_00
10
1.016
20
-0.254
0
VERTEX
8
PART_TOP_2DLINE_00
10
1.016
20
0.254
42
0.4142135624
0
VERTEX
8
PART_TOP_2DLINE_00
10
0.762
20
0.508
0
VERTEX
8
PART_TOP_2DLINE_00
10
0.2032
20
0.508
0
SEQEND
0
INSERT
2
SMOOTH_0$127
8
PART_TOP_2DLINE_00
10
0.2032
20
-0.508
0
INSERT
2
SMOOTH_0$127
8
PART_TOP_2DLINE_00
10
0.762
20
-0.508
0
ENDBLK
0
BLOCK
2
SYM_TOP_13
8
0
10
0
20
0
3
SYM_TOP_13
70
64
0
TEXT
8
SYM_NAME
10
0
20
0
40
1.778
1
C0603
41
0.75
0
TEXT
8
SYM_PART_TYPE_01
10
-0.635
20
0.2778133333
40
0.889
1
 
73
2
11
-0.635
21
0.2778133333
41
0.75
7
W0$127R0
0
TEXT
8
SYM_PART_NAME_01
10
-0.635
20
0
40
0.889
1
 
41
0.75
7
W0$127R0
0
INSERT
2
PART_BODY_TOP_10
8
0
10
0
20
0
0
INSERT
2
STK_TOP_22
8
0
10
0
20
0
0
TEXT
8
SYM_TERMINAL
10
0
20
-3.048
40
1.778
1
1
0
INSERT
2
STK_TOP_22
8
0
10
1.6002
20
0
0
TEXT
8
SYM_TERMINAL
10
0
20
-6.096
40
1.778
1
2
0
ENDBLK
0
BLOCK
2
PART_BODY_TOP_12
8
0
10
0
20
0
3
PART_BODY_TOP_12
70
64
0
POLYLINE
8
PART_TOP_2DLINE_00
66
1
40
0.1524
41
0.1524
70
1
0
VERTEX
8
PART_TOP_2DLINE_00
10
1.18618
20
-0.649986
42
0.5796797245
0
VERTEX
8
PART_TOP_2DLINE_00
10
1.18618
20
0.649986
0
VERTEX
8
PART_TOP_2DLINE_00
10
-1.4224
20
0.649986
0
VERTEX
8
PART_TOP_2DLINE_00
10
-1.4224
20
-0.649986
0
SEQEND
0
INSERT
2
SMOOTH_0$1524
8
PART_TOP_2DLINE_00
10
1.18618
20
-0.649986
0
INSERT
2
SMOOTH_0$1524
8
PART_TOP_2DLINE_00
10
1.18618
20
0.649986
0
INSERT
2
SMOOTH_0$1524
8
PART_TOP_2DLINE_00
10
-1.4224
20
0.649986
0
INSERT
2
SMOOTH_0$1524
8
PART_TOP_2DLINE_00
10
-1.4224
20
-0.649986
0
POLYLINE
8
PART_TOP_2DLINE_00
66
1
40
0.1524
41
0.1524
0
VERTEX
8
PART_TOP_2DLINE_00
10
1.7446666667
20
0.6526666667
0
VERTEX
8
PART_TOP_2DLINE_00
10
1.7446666667
20
-0.6475593333
0
SEQEND
0
INSERT
2
SMOOTH_0$1524
8
PART_TOP_2DLINE_00
10
1.7446666667
20
0.6526666667
0
INSERT
2
SMOOTH_0$1524
8
PART_TOP_2DLINE_00
10
1.7446666667
20
-0.6475593333
0
ENDBLK
0
BLOCK
2
STK_TOP_47
8
0
10
0
20
0
3
STK_TOP_47
70
64
0
INSERT
2
DRIL_HOLE_0
8
DRIL_NPLTE_THRU_01
10
0
20
0
0
INSERT
2
DRIL_HOLE_0
8
DRIL_NPLTE_THRU_02
10
0
20
0
0
INSERT
2
PAD_0
8
PADS_INNER
10
0
20
0
0
INSERT
2
PAD_0
8
PADS_BOT
10
0
20
0
0
INSERT
2
PAD_3
8
PADS_TOP
10
0
20
0
0
ENDBLK
0
BLOCK
2
PART_BODY_TOP_8
8
0
10
0
20
0
3
PART_BODY_TOP_8
70
64
0
POLYLINE
8
PART_TOP_2DLINE_00
66
1
40
0.1524
41
0.1524
0
VERTEX
8
PART_TOP_2DLINE_00
10
-0.2032
20
0.508
0
VERTEX
8
PART_TOP_2DLINE_00
10
-0.2032
20
-0.508
0
SEQEND
0
INSERT
2
SMOOTH_0$1524
8
PART_TOP_2DLINE_00
10
-0.2032
20
0.508
0
INSERT
2
SMOOTH_0$1524
8
PART_TOP_2DLINE_00
10
-0.2032
20
-0.508
0
POLYLINE
8
PART_TOP_2DLINE_00
66
1
40
0.1524
41
0.1524
0
VERTEX
8
PART_TOP_2DLINE_00
10
0.2032
20
0.508
0
VERTEX
8
PART_TOP_2DLINE_00
10
0.2032
20
-0.508
0
SEQEND
0
INSERT
2
SMOOTH_0$1524
8
PART_TOP_2DLINE_00
10
0.2032
20
0.508
0
INSERT
2
SMOOTH_0$1524
8
PART_TOP_2DLINE_00
10
0.2032
20
-0.508
0
POLYLINE
8
PART_TOP_2DLINE_00
66
1
40
0.1524
41
0.1524
0
VERTEX
8
PART_TOP_2DLINE_00
10
-0.3
20
0.9
0
VERTEX
8
PART_TOP_2DLINE_00
10
-1.5
20
0.9
0
VERTEX
8
PART_TOP_2DLINE_00
10
-1.8
20
0.6
0
VERTEX
8
PART_TOP_2DLINE_00
10
-1.8
20
-0.6
0
VERTEX
8
PART_TOP_2DLINE_00
10
-1.5
20
-0.9
0
VERTEX
8
PART_TOP_2DLINE_00
10
-0.3
20
-0.9
0
SEQEND
0
INSERT
2
SMOOTH_0$1524
8
PART_TOP_2DLINE_00
10
-0.3
20
0.9
0
INSERT
2
SMOOTH_0$1524
8
PART_TOP_2DLINE_00
10
-1.5
20
0.9
0
INSERT
2
SMOOTH_0$1524
8
PART_TOP_2DLINE_00
10
-1.8
20
0.6
0
INSERT
2
SMOOTH_0$1524
8
PART_TOP_2DLINE_00
10
-1.8
20
-0.6
0
INSERT
2
SMOOTH_0$1524
8
PART_TOP_2DLINE_00
10
-1.5
20
-0.9
0
INSERT
2
SMOOTH_0$1524
8
PART_TOP_2DLINE_00
10
-0.3
20
-0.9
0
POLYLINE
8
PART_TOP_2DLINE_00
66
1
40
0.1524
41
0.1524
0
VERTEX
8
PART_TOP_2DLINE_00
10
0.3
20
0.9
0
VERTEX
8
PART_TOP_2DLINE_00
10
1.5
20
0.9
0
VERTEX
8
PART_TOP_2DLINE_00
10
1.8
20
0.6
0
VERTEX
8
PART_TOP_2DLINE_00
10
1.8
20
-0.6
0
VERTEX
8
PART_TOP_2DLINE_00
10
1.5
20
-0.9
0
VERTEX
8
PART_TOP_2DLINE_00
10
0.3
20
-0.9
0
SEQEND
0
INSERT
2
SMOOTH_0$1524
8
PART_TOP_2DLINE_00
10
0.3
20
0.9
0
INSERT
2
SMOOTH_0$1524
8
PART_TOP_2DLINE_00
10
1.5
20
0.9
0
INSERT
2
SMOOTH_0$1524
8
PART_TOP_2DLINE_00
10
1.8
20
0.6
0
INSERT
2
SMOOTH_0$1524
8
PART_TOP_2DLINE_00
10
1.8
20
-0.6
0
INSERT
2
SMOOTH_0$1524
8
PART_TOP_2DLINE_00
10
1.5
20
-0.9
0
INSERT
2
SMOOTH_0$1524
8
PART_TOP_2DLINE_00
10
0.3
20
-0.9
0
ENDBLK
0
BLOCK
2
STK_TOP_24
8
0
10
0
20
0
3
STK_TOP_24
70
64
0
INSERT
2
DRIL_HOLE_0
8
DRIL_PLTE_THRU_01
10
0
20
0
0
INSERT
2
DRIL_HOLE_0
8
DRIL_PLTE_THRU_02
10
0
20
0
0
INSERT
2
PAD_0
8
PADS_INNER
10
0
20
0
0
INSERT
2
PAD_0
8
PADS_BOT
10
0
20
0
0
INSERT
2
PAD_4
8
PADS_TOP
10
0
20
0
50
90
0
ENDBLK
0
BLOCK
2
PART_BODY_TOP_7
8
0
10
0
20
0
3
PART_BODY_TOP_7
70
64
0
POLYLINE
8
PART_TOP_2DLINE_00
66
1
40
0.1524
41
0.1524
39
1.45009
70
1
0
VERTEX
8
PART_TOP_2DLINE_00
10
-0.6858
20
0.6604
0
VERTEX
8
PART_TOP_2DLINE_00
10
2.286
20
0.6604
0
VERTEX
8
PART_TOP_2DLINE_00
10
2.286
20
-0.6604
0
VERTEX
8
PART_TOP_2DLINE_00
10
-0.6858
20
-0.6604
0
SEQEND
0
INSERT
2
SMOOTH_0$1524
8
PART_TOP_2DLINE_00
10
-0.6858
20
0.6604
0
INSERT
2
SMOOTH_0$1524
8
PART_TOP_2DLINE_00
10
2.286
20
0.6604
0
INSERT
2
SMOOTH_0$1524
8
PART_TOP_2DLINE_00
10
2.286
20
-0.6604
0
INSERT
2
SMOOTH_0$1524
8
PART_TOP_2DLINE_00
10
-0.6858
20
-0.6604
0
POLYLINE
8
PART_TOP_2DLINE_00
66
1
40
0.1524
41
0.1524
39
1.45009
0
VERTEX
8
PART_TOP_2DLINE_00
10
0.5334
20
0
0
VERTEX
8
PART_TOP_2DLINE_00
10
1.0668
20
0
0
SEQEND
0
INSERT
2
SMOOTH_0$1524
8
PART_TOP_2DLINE_00
10
0.5334
20
0
0
INSERT
2
SMOOTH_0$1524
8
PART_TOP_2DLINE_00
10
1.0668
20
0
0
ENDBLK
0
BLOCK
2
STK_TOP_22
8
0
10
0
20
0
3
STK_TOP_22
70
64
0
INSERT
2
DRIL_HOLE_0
8
DRIL_PLTE_THRU_01
10
0
20
0
0
INSERT
2
DRIL_HOLE_0
8
DRIL_PLTE_THRU_02
10
0
20
0
0
INSERT
2
PAD_0
8
PADS_INNER
10
0
20
0
0
INSERT
2
PAD_0
8
PADS_BOT
10
0
20
0
0
INSERT
2
PAD_5
8
PADS_TOP
10
0
20
0
0
ENDBLK
0
BLOCK
2
PART_BODY_TOP_17
8
0
10
0
20
0
3
PART_BODY_TOP_17
70
64
0
POLYLINE
8
PART_TOP_2DLINE_00
66
1
40
0.254
41
0.254
70
1
0
VERTEX
8
PART_TOP_2DLINE_00
10
-5.08
20
-1.27
0
VERTEX
8
PART_TOP_2DLINE_00
10
-5.08
20
-0.15875
0
VERTEX
8
PART_TOP_2DLINE_00
10
-4.445
20
-0.15875
0
VERTEX
8
PART_TOP_2DLINE_00
10
-4.445
20
0.15875
0
VERTEX
8
PART_TOP_2DLINE_00
10
-5.08
20
0.15875
0
VERTEX
8
PART_TOP_2DLINE_00
10
-5.08
20
1.27
0
VERTEX
8
PART_TOP_2DLINE_00
10
6.35
20
1.27
0
VERTEX
8
PART_TOP_2DLINE_00
10
6.35
20
-1.27
0
SEQEND
0
INSERT
2
SMOOTH_0$254
8
PART_TOP_2DLINE_00
10
-5.08
20
-1.27
0
INSERT
2
SMOOTH_0$254
8
PART_TOP_2DLINE_00
10
-5.08
20
-0.15875
0
INSERT
2
SMOOTH_0$254
8
PART_TOP_2DLINE_00
10
-4.445
20
-0.15875
0
INSERT
2
SMOOTH_0$254
8
PART_TOP_2DLINE_00
10
-4.445
20
0.15875
0
INSERT
2
SMOOTH_0$254
8
PART_TOP_2DLINE_00
10
-5.08
20
0.15875
0
INSERT
2
SMOOTH_0$254
8
PART_TOP_2DLINE_00
10
-5.08
20
1.27
0
INSERT
2
SMOOTH_0$254
8
PART_TOP_2DLINE_00
10
6.35
20
1.27
0
INSERT
2
SMOOTH_0$254
8
PART_TOP_2DLINE_00
10
6.35
20
-1.27
0
ENDBLK
0
BLOCK
2
STK_TOP_21
8
0
10
0
20
0
3
STK_TOP_21
70
64
0
INSERT
2
DRIL_HOLE_0
8
DRIL_NPLTE_THRU_01
10
0
20
0
0
INSERT
2
DRIL_HOLE_0
8
DRIL_NPLTE_THRU_02
10
0
20
0
0
INSERT
2
PAD_0
8
PADS_INNER
10
0
20
0
0
INSERT
2
PAD_0
8
PADS_BOT
10
0
20
0
0
INSERT
2
PAD_6
8
PADS_TOP
10
0
20
0
50
90
0
ENDBLK
0
BLOCK
2
PART_BODY_TOP_15
8
0
10
0
20
0
3
PART_BODY_TOP_15
70
64
0
POLYLINE
8
PART_TOP_2DLINE_00
66
1
40
0.127
41
0.127
70
1
0
VERTEX
8
PART_TOP_2DLINE_00
10
-4.4196
20
-0.3302
42
1
0
VERTEX
8
PART_TOP_2DLINE_00
10
-4.4196
20
-0.2032
42
1
0
SEQEND
0
POLYLINE
8
PART_TOP_2DLINE_00
66
1
40
0.254
41
0.254
0
VERTEX
8
PART_TOP_2DLINE_00
10
-4.802396
20
0.0852986667
0
VERTEX
8
PART_TOP_2DLINE_00
10
-4.0675993333
20
0.0852986667
0
SEQEND
0
INSERT
2
SMOOTH_0$254
8
PART_TOP_2DLINE_00
10
-4.802396
20
0.0852986667
0
INSERT
2
SMOOTH_0$254
8
PART_TOP_2DLINE_00
10
-4.0675993333
20
0.0852986667
0
POLYLINE
8
PART_TOP_2DLINE_00
66
1
40
0.127
41
0.127
70
1
0
VERTEX
8
PART_TOP_2DLINE_00
10
-4.0675993333
20
0.0217986667
42
1
0
VERTEX
8
PART_TOP_2DLINE_00
10
-4.0675993333
20
0.1487986667
42
1
0
SEQEND
0
POLYLINE
8
PART_TOP_2DLINE_00
66
1
40
0.254
41
0.254
0
VERTEX
8
PART_TOP_2DLINE_00
10
-4.4196
20
-0.2667
0
VERTEX
8
PART_TOP_2DLINE_00
10
-4.4196
20
0.4680966667
0
SEQEND
0
INSERT
2
SMOOTH_0$254
8
PART_TOP_2DLINE_00
10
-4.4196
20
-0.2667
0
INSERT
2
SMOOTH_0$254
8
PART_TOP_2DLINE_00
10
-4.4196
20
0.4680966667
0
POLYLINE
8
PART_TOP_2DLINE_00
66
1
40
0.254
41
0.254
0
VERTEX
8
PART_TOP_2DLINE_00
10
2.7853986667
20
0
0
VERTEX
8
PART_TOP_2DLINE_00
10
3.520196
20
0
0
SEQEND
0
INSERT
2
SMOOTH_0$254
8
PART_TOP_2DLINE_00
10
2.7853986667
20
0
0
INSERT
2
SMOOTH_0$254
8
PART_TOP_2DLINE_00
10
3.520196
20
0
0
ENDBLK
0
BLOCK
2
STK_TOP_105
8
0
10
0
20
0
3
STK_TOP_105
70
64
0
INSERT
2
DRIL_HOLE_0$9
8
DRIL_PLTE_THRU_01
10
0
20
0
0
INSERT
2
DRIL_HOLE_0$9
8
DRIL_PLTE_THRU_02
10
0
20
0
0
INSERT
2
PAD_7
8
PADS_INNER
10
0
20
0
0
INSERT
2
PAD_7
8
PADS_BOT
10
0
20
0
0
INSERT
2
PAD_7
8
PADS_TOP
10
0
20
0
0
ENDBLK
0
BLOCK
2
PART_BODY_TOP_14
8
0
10
0
20
0
3
PART_BODY_TOP_14
70
64
0
POLYLINE
8
PART_TOP_2DLINE_00
66
1
40
0.254
41
0.254
0
VERTEX
8
PART_TOP_2DLINE_00
10
-0.762
20
1.016
0
VERTEX
8
PART_TOP_2DLINE_00
10
-1.397
20
1.016
0
VERTEX
8
PART_TOP_2DLINE_00
10
-1.397
20
-0.254
0
SEQEND
0
INSERT
2
SMOOTH_0$254
8
PART_TOP_2DLINE_00
10
-0.762
20
1.016
0
INSERT
2
SMOOTH_0$254
8
PART_TOP_2DLINE_00
10
-1.397
20
1.016
0
INSERT
2
SMOOTH_0$254
8
PART_TOP_2DLINE_00
10
-1.397
20
-0.254
0
POLYLINE
8
PART_TOP_2DLINE_00
66
1
40
0.254
41
0.254
0
VERTEX
8
PART_TOP_2DLINE_00
10
0.762
20
1.016
0
VERTEX
8
PART_TOP_2DLINE_00
10
1.397
20
1.016
0
VERTEX
8
PART_TOP_2DLINE_00
10
1.397
20
-0.254
0
SEQEND
0
INSERT
2
SMOOTH_0$254
8
PART_TOP_2DLINE_00
10
0.762
20
1.016
0
INSERT
2
SMOOTH_0$254
8
PART_TOP_2DLINE_00
10
1.397
20
1.016
0
INSERT
2
SMOOTH_0$254
8
PART_TOP_2DLINE_00
10
1.397
20
-0.254
0
POLYLINE
8
PART_TOP_2DLINE_00
66
1
40
0.254
41
0.254
0
VERTEX
8
PART_TOP_2DLINE_00
10
-0.127
20
-1.27
0
VERTEX
8
PART_TOP_2DLINE_00
10
0.127
20
-1.27
0
SEQEND
0
INSERT
2
SMOOTH_0$254
8
PART_TOP_2DLINE_00
10
-0.127
20
-1.27
0
INSERT
2
SMOOTH_0$254
8
PART_TOP_2DLINE_00
10
0.127
20
-1.27
0
ENDBLK
0
BLOCK
2
STK_TOP_106
8
0
10
0
20
0
3
STK_TOP_106
70
64
0
INSERT
2
DRIL_HOLE_0
8
DRIL_PLTE_THRU_01
10
0
20
0
0
INSERT
2
DRIL_HOLE_0
8
DRIL_PLTE_THRU_02
10
0
20
0
0
INSERT
2
PAD_0
8
PADS_INNER
10
0
20
0
0
INSERT
2
PAD_0
8
PADS_BOT
10
0
20
0
0
INSERT
2
PAD_8
8
PADS_TOP
10
0
20
0
0
ENDBLK
0
BLOCK
2
STK_TOP_107
8
0
10
0
20
0
3
STK_TOP_107
70
64
0
INSERT
2
DRIL_HOLE_0
8
DRIL_PLTE_THRU_01
10
0
20
0
0
INSERT
2
DRIL_HOLE_0
8
DRIL_PLTE_THRU_02
10
0
20
0
0
INSERT
2
PAD_0
8
PADS_INNER
10
0
20
0
0
INSERT
2
PAD_0
8
PADS_BOT
10
0
20
0
0
INSERT
2
PAD_9
8
PADS_TOP
10
0
20
0
50
90
0
ENDBLK
0
BLOCK
2
SYM_TOP_15
8
0
10
0
20
0
3
SYM_TOP_15
70
64
0
TEXT
8
SYM_NAME
10
0
20
0
40
1.778
1
C0603A
41
0.75
0
TEXT
8
SYM_PART_TYPE_01
10
-0.635
20
0.2778133333
40
0.889
1
 
73
2
11
-0.635
21
0.2778133333
41
0.75
7
W0$127R0
0
TEXT
8
SYM_PART_NAME_01
10
-0.635
20
0
40
0.889
1
 
41
0.75
7
W0$127R0
0
INSERT
2
PART_BODY_TOP_13
8
0
10
0
20
0
0
INSERT
2
STK_TOP_22
8
0
10
0
20
0
0
TEXT
8
SYM_TERMINAL
10
0
20
-3.048
40
1.778
1
1
0
INSERT
2
STK_TOP_22
8
0
10
1.6002
20
0
0
TEXT
8
SYM_TERMINAL
10
0
20
-6.096
40
1.778
1
2
0
ENDBLK
0
BLOCK
2
PART_BODY_TOP_9
8
0
10
0
20
0
3
PART_BODY_TOP_9
70
64
0
POLYLINE
8
PART_TOP_2DLINE_00
66
1
40
0.1524
41
0.1524
0
VERTEX
8
PART_TOP_2DLINE_00
10
-0.199898
20
-0.40005
0
VERTEX
8
PART_TOP_2DLINE_00
10
-0.199898
20
0.40005
0
SEQEND
0
INSERT
2
SMOOTH_0$1524
8
PART_TOP_2DLINE_00
10
-0.199898
20
-0.40005
0
INSERT
2
SMOOTH_0$1524
8
PART_TOP_2DLINE_00
10
-0.199898
20
0.40005
0
POLYLINE
8
PART_TOP_2DLINE_00
66
1
40
0.1524
41
0.1524
0
VERTEX
8
PART_TOP_2DLINE_00
10
0.199898
20
-0.40005
0
VERTEX
8
PART_TOP_2DLINE_00
10
-0.199898
20
-0.40005
0
SEQEND
0
INSERT
2
SMOOTH_0$1524
8
PART_TOP_2DLINE_00
10
0.199898
20
-0.40005
0
INSERT
2
SMOOTH_0$1524
8
PART_TOP_2DLINE_00
10
-0.199898
20
-0.40005
0
POLYLINE
8
PART_TOP_2DLINE_00
66
1
40
0.1524
41
0.1524
0
VERTEX
8
PART_TOP_2DLINE_00
10
0.199898
20
0.40005
0
VERTEX
8
PART_TOP_2DLINE_00
10
0.199898
20
-0.40005
0
SEQEND
0
INSERT
2
SMOOTH_0$1524
8
PART_TOP_2DLINE_00
10
0.199898
20
0.40005
0
INSERT
2
SMOOTH_0$1524
8
PART_TOP_2DLINE_00
10
0.199898
20
-0.40005
0
POLYLINE
8
PART_TOP_2DLINE_00
66
1
40
0.1524
41
0.1524
0
VERTEX
8
PART_TOP_2DLINE_00
10
-0.199898
20
0.40005
0
VERTEX
8
PART_TOP_2DLINE_00
10
0.199898
20
0.40005
0
SEQEND
0
INSERT
2
SMOOTH_0$1524
8
PART_TOP_2DLINE_00
10
-0.199898
20
0.40005
0
INSERT
2
SMOOTH_0$1524
8
PART_TOP_2DLINE_00
10
0.199898
20
0.40005
0
POLYLINE
8
PART_TOP_2DLINE_00
66
1
40
0.1524
41
0.1524
0
VERTEX
8
PART_TOP_2DLINE_00
10
1.100074
20
0
0
VERTEX
8
PART_TOP_2DLINE_00
10
1.100074
20
0.8001
0
SEQEND
0
INSERT
2
SMOOTH_0$1524
8
PART_TOP_2DLINE_00
10
1.100074
20
0
0
INSERT
2
SMOOTH_0$1524
8
PART_TOP_2DLINE_00
10
1.100074
20
0.8001
0
POLYLINE
8
PART_TOP_2DLINE_00
66
1
40
0.1524
41
0.1524
0
VERTEX
8
PART_TOP_2DLINE_00
10
0.40005
20
0
0
VERTEX
8
PART_TOP_2DLINE_00
10
1.100074
20
0
0
SEQEND
0
INSERT
2
SMOOTH_0$1524
8
PART_TOP_2DLINE_00
10
0.40005
20
0
0
INSERT
2
SMOOTH_0$1524
8
PART_TOP_2DLINE_00
10
1.100074
20
0
0
POLYLINE
8
PART_TOP_2DLINE_00
66
1
40
0.1524
41
0.1524
0
VERTEX
8
PART_TOP_2DLINE_00
10
0.40005
20
0.500126
0
VERTEX
8
PART_TOP_2DLINE_00
10
0.40005
20
-0.500126
0
SEQEND
0
INSERT
2
SMOOTH_0$1524
8
PART_TOP_2DLINE_00
10
0.40005
20
0.500126
0
INSERT
2
SMOOTH_0$1524
8
PART_TOP_2DLINE_00
10
0.40005
20
-0.500126
0
POLYLINE
8
PART_TOP_2DLINE_00
66
1
40
0.1524
41
0.1524
0
VERTEX
8
PART_TOP_2DLINE_00
10
-0.40005
20
0.500126
0
VERTEX
8
PART_TOP_2DLINE_00
10
-0.40005
20
-0.500126
0
SEQEND
0
INSERT
2
SMOOTH_0$1524
8
PART_TOP_2DLINE_00
10
-0.40005
20
0.500126
0
INSERT
2
SMOOTH_0$1524
8
PART_TOP_2DLINE_00
10
-0.40005
20
-0.500126
0
POLYLINE
8
PART_TOP_2DLINE_00
66
1
40
0.1524
41
0.1524
0
VERTEX
8
PART_TOP_2DLINE_00
10
-1.100074
20
0
0
VERTEX
8
PART_TOP_2DLINE_00
10
-0.40005
20
0
0
SEQEND
0
INSERT
2
SMOOTH_0$1524
8
PART_TOP_2DLINE_00
10
-1.100074
20
0
0
INSERT
2
SMOOTH_0$1524
8
PART_TOP_2DLINE_00
10
-0.40005
20
0
0
POLYLINE
8
PART_TOP_2DLINE_00
66
1
40
0.1524
41
0.1524
0
VERTEX
8
PART_TOP_2DLINE_00
10
-1.100074
20
-0.8001
0
VERTEX
8
PART_TOP_2DLINE_00
10
-1.100074
20
0
0
SEQEND
0
INSERT
2
SMOOTH_0$1524
8
PART_TOP_2DLINE_00
10
-1.100074
20
-0.8001
0
INSERT
2
SMOOTH_0$1524
8
PART_TOP_2DLINE_00
10
-1.100074
20
0
0
POLYLINE
8
PART_TOP_2DLINE_00
66
1
40
0.1524
41
0.1524
70
1
0
VERTEX
8
PART_TOP_2DLINE_00
10
-1.75
20
-1.35
0
VERTEX
8
PART_TOP_2DLINE_00
10
-1.75
20
1.35
0
VERTEX
8
PART_TOP_2DLINE_00
10
1.75
20
1.35
0
VERTEX
8
PART_TOP_2DLINE_00
10
1.75
20
-1.35
0
SEQEND
0
INSERT
2
SMOOTH_0$1524
8
PART_TOP_2DLINE_00
10
-1.75
20
-1.35
0
INSERT
2
SMOOTH_0$1524
8
PART_TOP_2DLINE_00
10
-1.75
20
1.35
0
INSERT
2
SMOOTH_0$1524
8
PART_TOP_2DLINE_00
10
1.75
20
1.35
0
INSERT
2
SMOOTH_0$1524
8
PART_TOP_2DLINE_00
10
1.75
20
-1.35
0
POLYLINE
8
PART_TOP_2DLINE_01
66
1
40
0.1524
41
0.1524
70
1
0
VERTEX
8
PART_TOP_2DLINE_01
10
1.48
20
1.53
42
1
0
VERTEX
8
PART_TOP_2DLINE_01
10
1.7
20
1.53
42
1
0
SEQEND
0
ENDBLK
0
BLOCK
2
STK_TOP_19
8
0
10
0
20
0
3
STK_TOP_19
70
64
0
INSERT
2
DRIL_HOLE_0
8
DRIL_NPLTE_THRU_01
10
0
20
0
0
INSERT
2
DRIL_HOLE_0
8
DRIL_NPLTE_THRU_02
10
0
20
0
0
INSERT
2
PAD_0
8
PADS_INNER
10
0
20
0
0
INSERT
2
PAD_0
8
PADS_BOT
10
0
20
0
0
INSERT
2
PAD_10
8
PADS_TOP
10
0
20
0
0
ENDBLK
0
BLOCK
2
PART_BODY_TOP_11
8
0
10
0
20
0
3
PART_BODY_TOP_11
70
64
0
POLYLINE
8
PART_TOP_2DLINE_126
66
1
40
0.2032
41
0.2032
0
VERTEX
8
PART_TOP_2DLINE_126
10
0
20
0.250012
0
VERTEX
8
PART_TOP_2DLINE_126
10
0.4999986667
20
0.7500106667
0
SEQEND
0
INSERT
2
SMOOTH_0$2032
8
PART_TOP_2DLINE_126
10
0
20
0.250012
0
INSERT
2
SMOOTH_0$2032
8
PART_TOP_2DLINE_126
10
0.4999986667
20
0.7500106667
0
POLYLINE
8
PART_TOP_2DLINE_126
66
1
40
0.2032
41
0.2032
0
VERTEX
8
PART_TOP_2DLINE_126
10
4.500016
20
0.7500106667
0
VERTEX
8
PART_TOP_2DLINE_126
10
5.0000153333
20
0.7500106667
0
VERTEX
8
PART_TOP_2DLINE_126
10
5.0000153333
20
0.250012
0
SEQEND
0
INSERT
2
SMOOTH_0$2032
8
PART_TOP_2DLINE_126
10
4.500016
20
0.7500106667
0
INSERT
2
SMOOTH_0$2032
8
PART_TOP_2DLINE_126
10
5.0000153333
20
0.7500106667
0
INSERT
2
SMOOTH_0$2032
8
PART_TOP_2DLINE_126
10
5.0000153333
20
0.250012
0
POLYLINE
8
PART_TOP_2DLINE_126
66
1
40
0.2032
41
0.2032
0
VERTEX
8
PART_TOP_2DLINE_126
10
4.500016
20
-4.2499786667
0
VERTEX
8
PART_TOP_2DLINE_126
10
5.0000153333
20
-4.2499786667
0
VERTEX
8
PART_TOP_2DLINE_126
10
5.0000153333
20
-3.7499793333
0
SEQEND
0
INSERT
2
SMOOTH_0$2032
8
PART_TOP_2DLINE_126
10
4.500016
20
-4.2499786667
0
INSERT
2
SMOOTH_0$2032
8
PART_TOP_2DLINE_126
10
5.0000153333
20
-4.2499786667
0
INSERT
2
SMOOTH_0$2032
8
PART_TOP_2DLINE_126
10
5.0000153333
20
-3.7499793333
0
POLYLINE
8
PART_TOP_2DLINE_126
66
1
40
0.2032
41
0.2032
0
VERTEX
8
PART_TOP_2DLINE_126
10
0.4999986667
20
-4.2499786667
0
VERTEX
8
PART_TOP_2DLINE_126
10
0
20
-4.2499786667
0
VERTEX
8
PART_TOP_2DLINE_126
10
0
20
-3.7499793333
0
SEQEND
0
INSERT
2
SMOOTH_0$2032
8
PART_TOP_2DLINE_126
10
0.4999986667
20
-4.2499786667
0
INSERT
2
SMOOTH_0$2032
8
PART_TOP_2DLINE_126
10
0
20
-4.2499786667
0
INSERT
2
SMOOTH_0$2032
8
PART_TOP_2DLINE_126
10
0
20
-3.7499793333
0
ENDBLK
0
BLOCK
2
STK_TOP_43
8
0
10
0
20
0
3
STK_TOP_43
70
64
0
INSERT
2
DRIL_HOLE_0
8
DRIL_PLTE_THRU_01
10
0
20
0
0
INSERT
2
DRIL_HOLE_0
8
DRIL_PLTE_THRU_02
10
0
20
0
0
INSERT
2
PAD_0
8
PADS_INNER
10
0
20
0
0
INSERT
2
PAD_0
8
PADS_BOT
10
0
20
0
0
INSERT
2
PAD_11
8
PADS_TOP
10
0
20
0
0
ENDBLK
0
BLOCK
2
STK_TOP_116
8
0
10
0
20
0
3
STK_TOP_116
70
64
0
INSERT
2
DRIL_HOLE_0
8
DRIL_PLTE_THRU_01
10
0
20
0
0
INSERT
2
DRIL_HOLE_0
8
DRIL_PLTE_THRU_02
10
0
20
0
0
INSERT
2
PAD_0
8
PADS_INNER
10
0
20
0
0
INSERT
2
PAD_0
8
PADS_BOT
10
0
20
0
0
INSERT
2
PAD_0
8
PADS_TOP
10
0
20
0
0
ENDBLK
0
BLOCK
2
STK_TOP_227
8
0
10
0
20
0
3
STK_TOP_227
70
64
0
INSERT
2
DRIL_HOLE_0
8
DRIL_PLTE_THRU_01
10
0
20
0
0
INSERT
2
DRIL_HOLE_0
8
DRIL_PLTE_THRU_02
10
0
20
0
0
INSERT
2
PAD_0
8
PADS_INNER
10
0
20
0
0
INSERT
2
PAD_0
8
PADS_BOT
10
0
20
0
0
INSERT
2
PAD_11
8
PADS_TOP
10
0
20
0
50
90
0
ENDBLK
0
BLOCK
2
STK_TOP_44
8
0
10
0
20
0
3
STK_TOP_44
70
64
0
INSERT
2
DRIL_HOLE_0
8
DRIL_PLTE_THRU_01
10
0
20
0
0
INSERT
2
DRIL_HOLE_0
8
DRIL_PLTE_THRU_02
10
0
20
0
0
INSERT
2
PAD_0
8
PADS_INNER
10
0
20
0
0
INSERT
2
PAD_0
8
PADS_BOT
10
0
20
0
0
INSERT
2
PAD_11
8
PADS_TOP
10
0
20
0
50
90
0
ENDBLK
0
BLOCK
2
STK_TOP_208
8
0
10
0
20
0
3
STK_TOP_208
70
64
0
INSERT
2
DRIL_HOLE_0
8
DRIL_PLTE_THRU_01
10
0
20
0
0
INSERT
2
DRIL_HOLE_0
8
DRIL_PLTE_THRU_02
10
0
20
0
0
INSERT
2
PAD_0
8
PADS_INNER
10
0
20
0
0
INSERT
2
PAD_0
8
PADS_BOT
10
0
20
0
0
INSERT
2
PAD_12
8
PADS_TOP
10
0
20
0
50
90
0
ENDBLK
0
BLOCK
2
STK_TOP_117
8
0
10
0
20
0
3
STK_TOP_117
70
64
0
INSERT
2
DRIL_HOLE_0
8
DRIL_PLTE_THRU_01
10
0
20
0
0
INSERT
2
DRIL_HOLE_0
8
DRIL_PLTE_THRU_02
10
0
20
0
0
INSERT
2
PAD_0
8
PADS_INNER
10
0
20
0
0
INSERT
2
PAD_0
8
PADS_BOT
10
0
20
0
0
INSERT
2
PAD_13
8
PADS_TOP
10
0
20
0
0
ENDBLK
0
BLOCK
2
PART_BODY_TOP_20
8
0
10
0
20
0
3
PART_BODY_TOP_20
70
64
0
POLYLINE
8
PART_TOP_2DLINE_01
66
1
40
0.3
41
0.3
70
1
0
VERTEX
8
PART_TOP_2DLINE_01
10
0
20
-1.27
0
VERTEX
8
PART_TOP_2DLINE_01
10
3.2258
20
-1.27
0
VERTEX
8
PART_TOP_2DLINE_01
10
3.2258
20
1.2446
0
VERTEX
8
PART_TOP_2DLINE_01
10
0
20
1.2446
0
SEQEND
0
INSERT
2
SMOOTH_0$3
8
PART_TOP_2DLINE_01
10
0
20
-1.27
0
INSERT
2
SMOOTH_0$3
8
PART_TOP_2DLINE_01
10
3.2258
20
-1.27
0
INSERT
2
SMOOTH_0$3
8
PART_TOP_2DLINE_01
10
3.2258
20
1.2446
0
INSERT
2
SMOOTH_0$3
8
PART_TOP_2DLINE_01
10
0
20
1.2446
0
ENDBLK
0
BLOCK
2
STK_TOP_262
8
0
10
0
20
0
3
STK_TOP_262
70
64
0
INSERT
2
DRIL_HOLE_0
8
DRIL_PLTE_THRU_01
10
0
20
0
0
INSERT
2
DRIL_HOLE_0
8
DRIL_PLTE_THRU_02
10
0
20
0
0
INSERT
2
PAD_0
8
PADS_INNER
10
0
20
0
0
INSERT
2
PAD_0
8
PADS_BOT
10
0
20
0
0
INSERT
2
PAD_14
8
PADS_TOP
10
0
20
0
50
90
0
ENDBLK
0
BLOCK
2
PART_BODY_TOP_19
8
0
10
0
20
0
3
PART_BODY_TOP_19
70
64
0
POLYLINE
8
PART_TOP_2DLINE_00
66
1
40
0.1524
41
0.1524
70
1
0
VERTEX
8
PART_TOP_2DLINE_00
10
-0.54575
20
2.18711
0
VERTEX
8
PART_TOP_2DLINE_00
10
2.454246
20
2.1871093333
0
VERTEX
8
PART_TOP_2DLINE_00
10
2.454246
20
0.1871093333
0
VERTEX
8
PART_TOP_2DLINE_00
10
-0.54575
20
0.18711
0
VERTEX
8
PART_TOP_2DLINE_00
10
-0.54575
20
0.78711
42
0.5698117828
0
VERTEX
8
PART_TOP_2DLINE_00
10
-0.54575
20
1.58711
0
SEQEND
0
INSERT
2
SMOOTH_0$1524
8
PART_TOP_2DLINE_00
10
-0.54575
20
2.18711
0
INSERT
2
SMOOTH_0$1524
8
PART_TOP_2DLINE_00
10
2.454246
20
2.1871093333
0
INSERT
2
SMOOTH_0$1524
8
PART_TOP_2DLINE_00
10
2.454246
20
0.1871093333
0
INSERT
2
SMOOTH_0$1524
8
PART_TOP_2DLINE_00
10
-0.54575
20
0.18711
0
INSERT
2
SMOOTH_0$1524
8
PART_TOP_2DLINE_00
10
-0.54575
20
0.78711
0
INSERT
2
SMOOTH_0$1524
8
PART_TOP_2DLINE_00
10
-0.54575
20
1.58711
0
POLYLINE
8
PART_TOP_2DLINE_00
66
1
40
0.1524
41
0.1524
70
1
0
VERTEX
8
PART_TOP_2DLINE_00
10
-0.2584706667
20
0.632
42
1
0
VERTEX
8
PART_TOP_2DLINE_00
10
0.167804
20
0.632
42
1
0
SEQEND
0
ENDBLK
0
BLOCK
2
STK_TOP_20
8
0
10
0
20
0
3
STK_TOP_20
70
64
0
INSERT
2
DRIL_HOLE_0
8
DRIL_NPLTE_THRU_01
10
0
20
0
0
INSERT
2
DRIL_HOLE_0
8
DRIL_NPLTE_THRU_02
10
0
20
0
0
INSERT
2
PAD_0
8
PADS_INNER
10
0
20
0
0
INSERT
2
PAD_0
8
PADS_BOT
10
0
20
0
0
INSERT
2
PAD_15
8
PADS_TOP
10
0
20
0
50
90
0
ENDBLK
0
BLOCK
2
PART_BODY_TOP_23
8
0
10
0
20
0
3
PART_BODY_TOP_23
70
64
0
POLYLINE
8
PART_TOP_2DLINE_00
66
1
40
0.127
41
0.127
70
1
0
VERTEX
8
PART_TOP_2DLINE_00
10
-2.8868906667
20
0.4973953333
42
1
0
VERTEX
8
PART_TOP_2DLINE_00
10
-3.0138906667
20
0.4973953333
42
1
0
SEQEND
0
POLYLINE
8
PART_TOP_2DLINE_00
66
1
40
0.127
41
0.127
70
1
0
VERTEX
8
PART_TOP_2DLINE_00
10
6.8661073333
20
0.5003953333
42
1
0
VERTEX
8
PART_TOP_2DLINE_00
10
6.7391073333
20
0.5003953333
42
1
0
SEQEND
0
POLYLINE
8
PART_TOP_2DLINE_00
66
1
40
0.254
41
0.254
0
VERTEX
8
PART_TOP_2DLINE_00
10
-3.3782
20
4.5974
0
VERTEX
8
PART_TOP_2DLINE_00
10
7.0612
20
4.5974
0
SEQEND
0
INSERT
2
SMOOTH_0$254
8
PART_TOP_2DLINE_00
10
-3.3782
20
4.5974
0
INSERT
2
SMOOTH_0$254
8
PART_TOP_2DLINE_00
10
7.0612
20
4.5974
0
POLYLINE
8
PART_TOP_2DLINE_00
66
1
40
0.254
41
0.254
0
VERTEX
8
PART_TOP_2DLINE_00
10
4.5496073333
20
0.5003953333
0
VERTEX
8
PART_TOP_2DLINE_00
10
7.112
20
0.5003953333
0
SEQEND
0
INSERT
2
SMOOTH_0$254
8
PART_TOP_2DLINE_00
10
4.5496073333
20
0.5003953333
0
INSERT
2
SMOOTH_0$254
8
PART_TOP_2DLINE_00
10
7.112
20
0.5003953333
0
POLYLINE
8
PART_TOP_2DLINE_00
66
1
40
0.127
41
0.127
70
1
0
VERTEX
8
PART_TOP_2DLINE_00
10
4.6131073333
20
0.5003953333
42
1
0
VERTEX
8
PART_TOP_2DLINE_00
10
4.4861073333
20
0.5003953333
42
1
0
SEQEND
0
POLYLINE
8
PART_TOP_2DLINE_00
66
1
40
0.254
41
0.254
0
VERTEX
8
PART_TOP_2DLINE_00
10
4.5496073333
20
0.5003953333
0
VERTEX
8
PART_TOP_2DLINE_00
10
4.5496073333
20
-1.4196066667
0
SEQEND
0
INSERT
2
SMOOTH_0$254
8
PART_TOP_2DLINE_00
10
4.5496073333
20
0.5003953333
0
INSERT
2
SMOOTH_0$254
8
PART_TOP_2DLINE_00
10
4.5496073333
20
-1.4196066667
0
POLYLINE
8
PART_TOP_2DLINE_00
66
1
40
0.127
41
0.127
70
1
0
VERTEX
8
PART_TOP_2DLINE_00
10
4.6131073333
20
0.5003953333
42
1
0
VERTEX
8
PART_TOP_2DLINE_00
10
4.4861073333
20
0.5003953333
42
1
0
SEQEND
0
POLYLINE
8
PART_TOP_2DLINE_00
66
1
40
0.254
41
0.254
0
VERTEX
8
PART_TOP_2DLINE_00
10
7.0866
20
4.572
0
VERTEX
8
PART_TOP_2DLINE_00
10
7.0866
20
0.5003953333
0
SEQEND
0
INSERT
2
SMOOTH_0$254
8
PART_TOP_2DLINE_00
10
7.0866
20
4.572
0
INSERT
2
SMOOTH_0$254
8
PART_TOP_2DLINE_00
10
7.0866
20
0.5003953333
0
POLYLINE
8
PART_TOP_2DLINE_00
66
1
40
0.254
41
0.254
0
VERTEX
8
PART_TOP_2DLINE_00
10
-3.3782
20
0.5003953333
0
VERTEX
8
PART_TOP_2DLINE_00
10
-0.7003926667
20
0.5003953333
0
SEQEND
0
INSERT
2
SMOOTH_0$254
8
PART_TOP_2DLINE_00
10
-3.3782
20
0.5003953333
0
INSERT
2
SMOOTH_0$254
8
PART_TOP_2DLINE_00
10
-0.7003926667
20
0.5003953333
0
POLYLINE
8
PART_TOP_2DLINE_00
66
1
40
0.127
41
0.127
70
1
0
VERTEX
8
PART_TOP_2DLINE_00
10
-0.6368926667
20
0.5003953333
42
1
0
VERTEX
8
PART_TOP_2DLINE_00
10
-0.7638926667
20
0.5003953333
42
1
0
SEQEND
0
POLYLINE
8
PART_TOP_2DLINE_00
66
1
40
0.254
41
0.254
0
VERTEX
8
PART_TOP_2DLINE_00
10
-0.7003926667
20
0.5003953333
0
VERTEX
8
PART_TOP_2DLINE_00
10
-0.7003926667
20
-1.4196066667
0
SEQEND
0
INSERT
2
SMOOTH_0$254
8
PART_TOP_2DLINE_00
10
-0.7003926667
20
0.5003953333
0
INSERT
2
SMOOTH_0$254
8
PART_TOP_2DLINE_00
10
-0.7003926667
20
-1.4196066667
0
POLYLINE
8
PART_TOP_2DLINE_00
66
1
40
0.127
41
0.127
70
1
0
VERTEX
8
PART_TOP_2DLINE_00
10
-0.6368926667
20
0.5003953333
42
1
0
VERTEX
8
PART_TOP_2DLINE_00
10
-0.7638926667
20
0.5003953333
42
1
0
SEQEND
0
POLYLINE
8
PART_TOP_2DLINE_00
66
1
40
0.254
41
0.254
0
VERTEX
8
PART_TOP_2DLINE_00
10
-3.3782
20
4.5974
0
VERTEX
8
PART_TOP_2DLINE_00
10
-3.3782
20
0.5003953333
0
SEQEND
0
INSERT
2
SMOOTH_0$254
8
PART_TOP_2DLINE_00
10
-3.3782
20
4.5974
0
INSERT
2
SMOOTH_0$254
8
PART_TOP_2DLINE_00
10
-3.3782
20
0.5003953333
0
POLYLINE
8
PART_TOP_2DLINE_00
66
1
40
0.254
41
0.254
0
VERTEX
8
PART_TOP_2DLINE_00
10
-0.7003926667
20
-1.4196066667
0
VERTEX
8
PART_TOP_2DLINE_00
10
4.5496073333
20
-1.4196066667
0
SEQEND
0
INSERT
2
SMOOTH_0$254
8
PART_TOP_2DLINE_00
10
-0.7003926667
20
-1.4196066667
0
INSERT
2
SMOOTH_0$254
8
PART_TOP_2DLINE_00
10
4.5496073333
20
-1.4196066667
0
POLYLINE
8
PART_TOP_2DLINE_00
66
1
40
0.127
41
0.127
70
1
0
VERTEX
8
PART_TOP_2DLINE_00
10
-0.6368926667
20
-1.4196066667
42
1
0
VERTEX
8
PART_TOP_2DLINE_00
10
-0.7638926667
20
-1.4196066667
42
1
0
SEQEND
0
POLYLINE
8
PART_TOP_2DLINE_00
66
1
40
0.127
41
0.127
70
1
0
VERTEX
8
PART_TOP_2DLINE_00
10
4.6131073333
20
-1.4196066667
42
1
0
VERTEX
8
PART_TOP_2DLINE_00
10
4.4861073333
20
-1.4196066667
42
1
0
SEQEND
0
POLYLINE
8
PART_TOP_2DLINE_00
66
1
40
0.127
41
0.127
70
1
0
VERTEX
8
PART_TOP_2DLINE_00
10
4.6131073333
20
-1.4196066667
42
1
0
VERTEX
8
PART_TOP_2DLINE_00
10
4.4861073333
20
-1.4196066667
42
1
0
SEQEND
0
POLYLINE
8
PART_TOP_2DLINE_00
66
1
40
0.127
41
0.127
70
1
0
VERTEX
8
PART_TOP_2DLINE_00
10
-0.6368926667
20
-1.4196066667
42
1
0
VERTEX
8
PART_TOP_2DLINE_00
10
-0.7638926667
20
-1.4196066667
42
1
0
SEQEND
0
ENDBLK
0
BLOCK
2
STK_TOP_294
8
0
10
0
20
0
3
STK_TOP_294
70
64
0
INSERT
2
DRIL_HOLE_0
8
DRIL_PLTE_THRU_01
10
0
20
0
0
INSERT
2
DRIL_HOLE_0
8
DRIL_PLTE_THRU_02
10
0
20
0
0
INSERT
2
PAD_0
8
PADS_INNER
10
0
20
0
0
INSERT
2
PAD_0
8
PADS_BOT
10
0
20
0
0
INSERT
2
PAD_16
8
PADS_TOP
10
0
20
0
50
90
0
ENDBLK
0
BLOCK
2
STK_TOP_295
8
0
10
0
20
0
3
STK_TOP_295
70
64
0
INSERT
2
DRIL_HOLE_0
8
DRIL_PLTE_THRU_01
10
0
20
0
0
INSERT
2
DRIL_HOLE_0
8
DRIL_PLTE_THRU_02
10
0
20
0
0
INSERT
2
PAD_0
8
PADS_INNER
10
0
20
0
0
INSERT
2
PAD_0
8
PADS_BOT
10
0
20
0
0
INSERT
2
PAD_17
8
PADS_TOP
10
0
20
0
50
90
0
ENDBLK
0
BLOCK
2
STK_TOP_296
8
0
10
0
20
0
3
STK_TOP_296
70
64
0
INSERT
2
DRIL_HOLE_0
8
DRIL_PLTE_THRU_01
10
0
20
0
0
INSERT
2
DRIL_HOLE_0
8
DRIL_PLTE_THRU_02
10
0
20
0
0
INSERT
2
PAD_0
8
PADS_INNER
10
0
20
0
0
INSERT
2
PAD_0
8
PADS_BOT
10
0
20
0
0
INSERT
2
PAD_18
8
PADS_TOP
10
0
20
0
50
90
0
ENDBLK
0
BLOCK
2
STK_TOP_300
8
0
10
0
20
0
3
STK_TOP_300
70
64
0
INSERT
2
DRIL_HOLE_0
8
DRIL_PLTE_THRU_01
10
0
20
0
0
INSERT
2
DRIL_HOLE_0
8
DRIL_PLTE_THRU_02
10
0
20
0
0
INSERT
2
PAD_0
8
PADS_INNER
10
0
20
0
0
INSERT
2
PAD_0
8
PADS_BOT
10
0
20
0
0
INSERT
2
PAD_19
8
PADS_TOP
10
0
20
0
50
90
0
ENDBLK
0
BLOCK
2
PART_BODY_TOP_24
8
0
10
0
20
0
3
PART_BODY_TOP_24
70
64
0
POLYLINE
8
PART_TOP_2DLINE_00
66
1
40
0.254
41
0.254
70
1
0
VERTEX
8
PART_TOP_2DLINE_00
10
-2.54
20
-1.27
0
VERTEX
8
PART_TOP_2DLINE_00
10
-2.54
20
-0.15875
0
VERTEX
8
PART_TOP_2DLINE_00
10
-1.905
20
-0.15875
0
VERTEX
8
PART_TOP_2DLINE_00
10
-1.905
20
0.15875
0
VERTEX
8
PART_TOP_2DLINE_00
10
-2.54
20
0.15875
0
VERTEX
8
PART_TOP_2DLINE_00
10
-2.54
20
1.27
0
VERTEX
8
PART_TOP_2DLINE_00
10
2.54
20
1.27
0
VERTEX
8
PART_TOP_2DLINE_00
10
2.54
20
-1.27
0
SEQEND
0
INSERT
2
SMOOTH_0$254
8
PART_TOP_2DLINE_00
10
-2.54
20
-1.27
0
INSERT
2
SMOOTH_0$254
8
PART_TOP_2DLINE_00
10
-2.54
20
-0.15875
0
INSERT
2
SMOOTH_0$254
8
PART_TOP_2DLINE_00
10
-1.905
20
-0.15875
0
INSERT
2
SMOOTH_0$254
8
PART_TOP_2DLINE_00
10
-1.905
20
0.15875
0
INSERT
2
SMOOTH_0$254
8
PART_TOP_2DLINE_00
10
-2.54
20
0.15875
0
INSERT
2
SMOOTH_0$254
8
PART_TOP_2DLINE_00
10
-2.54
20
1.27
0
INSERT
2
SMOOTH_0$254
8
PART_TOP_2DLINE_00
10
2.54
20
1.27
0
INSERT
2
SMOOTH_0$254
8
PART_TOP_2DLINE_00
10
2.54
20
-1.27
0
ENDBLK
0
BLOCK
2
PART_BODY_TOP_10
8
0
10
0
20
0
3
PART_BODY_TOP_10
70
64
0
POLYLINE
8
PART_TOP_2DLINE_00
66
1
40
0.1524
41
0.1524
70
1
0
VERTEX
8
PART_TOP_2DLINE_00
10
-0.6858
20
0.6604
0
VERTEX
8
PART_TOP_2DLINE_00
10
2.286
20
0.6604
0
VERTEX
8
PART_TOP_2DLINE_00
10
2.286
20
-0.6604
0
VERTEX
8
PART_TOP_2DLINE_00
10
-0.6858
20
-0.6604
0
SEQEND
0
INSERT
2
SMOOTH_0$1524
8
PART_TOP_2DLINE_00
10
-0.6858
20
0.6604
0
INSERT
2
SMOOTH_0$1524
8
PART_TOP_2DLINE_00
10
2.286
20
0.6604
0
INSERT
2
SMOOTH_0$1524
8
PART_TOP_2DLINE_00
10
2.286
20
-0.6604
0
INSERT
2
SMOOTH_0$1524
8
PART_TOP_2DLINE_00
10
-0.6858
20
-0.6604
0
POLYLINE
8
PART_TOP_2DLINE_00
66
1
40
0.1524
41
0.1524
0
VERTEX
8
PART_TOP_2DLINE_00
10
0.5842
20
0.4318
0
VERTEX
8
PART_TOP_2DLINE_00
10
0.5842
20
-0.4318
0
SEQEND
0
INSERT
2
SMOOTH_0$1524
8
PART_TOP_2DLINE_00
10
0.5842
20
0.4318
0
INSERT
2
SMOOTH_0$1524
8
PART_TOP_2DLINE_00
10
0.5842
20
-0.4318
0
POLYLINE
8
PART_TOP_2DLINE_00
66
1
40
0.1524
41
0.1524
0
VERTEX
8
PART_TOP_2DLINE_00
10
0.9906
20
0.4318
0
VERTEX
8
PART_TOP_2DLINE_00
10
0.9906
20
-0.4318
0
SEQEND
0
INSERT
2
SMOOTH_0$1524
8
PART_TOP_2DLINE_00
10
0.9906
20
0.4318
0
INSERT
2
SMOOTH_0$1524
8
PART_TOP_2DLINE_00
10
0.9906
20
-0.4318
0
ENDBLK
0
BLOCK
2
PART_BODY_TOP_13
8
0
10
0
20
0
3
PART_BODY_TOP_13
70
64
0
POLYLINE
8
PART_TOP_2DLINE_00
66
1
40
0.1524
41
0.1524
70
1
0
VERTEX
8
PART_TOP_2DLINE_00
10
-0.6858
20
0.6604
0
VERTEX
8
PART_TOP_2DLINE_00
10
2.286
20
0.6604
0
VERTEX
8
PART_TOP_2DLINE_00
10
2.286
20
-0.6604
0
VERTEX
8
PART_TOP_2DLINE_00
10
-0.6858
20
-0.6604
0
SEQEND
0
INSERT
2
SMOOTH_0$1524
8
PART_TOP_2DLINE_00
10
-0.6858
20
0.6604
0
INSERT
2
SMOOTH_0$1524
8
PART_TOP_2DLINE_00
10
2.286
20
0.6604
0
INSERT
2
SMOOTH_0$1524
8
PART_TOP_2DLINE_00
10
2.286
20
-0.6604
0
INSERT
2
SMOOTH_0$1524
8
PART_TOP_2DLINE_00
10
-0.6858
20
-0.6604
0
POLYLINE
8
PART_TOP_2DLINE_00
66
1
40
0.1524
41
0.1524
0
VERTEX
8
PART_TOP_2DLINE_00
10
0.5842
20
0.4318
0
VERTEX
8
PART_TOP_2DLINE_00
10
0.5842
20
-0.4318
0
SEQEND
0
INSERT
2
SMOOTH_0$1524
8
PART_TOP_2DLINE_00
10
0.5842
20
0.4318
0
INSERT
2
SMOOTH_0$1524
8
PART_TOP_2DLINE_00
10
0.5842
20
-0.4318
0
POLYLINE
8
PART_TOP_2DLINE_00
66
1
40
0.1524
41
0.1524
0
VERTEX
8
PART_TOP_2DLINE_00
10
0.9906
20
0.4318
0
VERTEX
8
PART_TOP_2DLINE_00
10
0.9906
20
-0.4318
0
SEQEND
0
INSERT
2
SMOOTH_0$1524
8
PART_TOP_2DLINE_00
10
0.9906
20
0.4318
0
INSERT
2
SMOOTH_0$1524
8
PART_TOP_2DLINE_00
10
0.9906
20
-0.4318
0
ENDBLK
999
*** POWERPCB  PCB PARAMETER ***
0
BLOCK
2
PCB_PARAMS
8
0
10
0
20
0
3
PCB_PARAMS
70
64
999
 *  1.Job name           2.Backupfile name       3.CursorType
999
 *  4.TearDropFlag       5.HighlighNetsFlag      6.HatchDisplayFlag
999
 *  7.PadsFlag           8.TracksFlag            9.ViasFlag
999
 * 10.CopperFlag        11.LinesFlag            12.TextFlag
999
 * 13.TopComponentFlag  14.BottomComponentFlag  16.ObjectSnapFlags
0
TEXT
8
PCB_PARAMS
10
0
20
-3.048
40
1.778
1
A:=HH522_RFID_V2.2.pcb <> 5 0 0 0 1 1 1 1 1 1 1 1 0 502 0
999
 *  1.RefDesHeight       2.RefDesWidth           3.DefaultWidth
999
 *  4.VGX                5.VGY                   6.OVR
999
 *  7.HatchGrid          8.ObjectSnapRadius
0
TEXT
8
PCB_PARAMS
10
0
20
-6.096
40
1.778
1
B:=2.54 0.254 0.254 0.0254 0.0254 0.0762 0.0254 0.0254
999
 *  1.ScaleFactor        2.NetAttributeFlags     3.BackupInterval
999
 *  4.WorkingLevel       5.HatchMode             6.HatchDirection
999
 *  7.ConnectionColor    8.BackgroundColor       9.ForegroundColor
999
 * 10.BoardOutlineColor
0
TEXT
8
PCB_PARAMS
10
0
20
-9.144
40
1.778
1
C:=9.9756317139 10002 20 1 0 0 0 0 13 13
999
 * MitreAngle0 - MitreAngle6
0
TEXT
8
PCB_PARAMS
10
0
20
-12.192
40
1.778
1
D:=324000000 324000000 324000000 324000000 324000000 324000000 324000000
999
 * Hatch & Keepout Parameters
0
TEXT
8
PCB_PARAMS
10
0
20
-15.24
40
1.778
1
E:=0.5 0 0 2.54 0 1
999
 * Fanout Parameters
0
TEXT
8
PCB_PARAMS
10
0
20
-18.288
40
1.778
1
F:=0.0254 0.0254 6.35 1 2 0 1 1 0 0 1 1 1 1
999
 * Pad Entry Parameters
0
TEXT
8
PCB_PARAMS
10
0
20
-21.336
40
1.778
1
P:= 1 1 1 1
999
 * DFF Parameters
0
TEXT
8
PCB_PARAMS
10
0
20
-24.384
40
1.778
1
Q:=89.9999 3967 114300 114300 114300 5 4 114300 114300 114300 114300 1 114300 1 114300 1 114300 0
0
ENDBLK
0
BLOCK
2
DRIL_SYMBOL_0
8
0
10
0
20
0
3
DRIL_SYMBOL_0
70
64
0
ENDBLK
0
BLOCK
2
DRIL_SYMBOL_0$9
8
0
10
0
20
0
3
DRIL_SYMBOL_0$9
70
64
0
POLYLINE
8
DRIL_SYMBOL
66
1
40
0.0508
41
0.0508
0
VERTEX
8
DRIL_SYMBOL
10
0
20
-0.254
0
VERTEX
8
DRIL_SYMBOL
10
0
20
0.254
0
SEQEND
0
POLYLINE
8
DRIL_SYMBOL
66
1
40
0.0508
41
0.0508
0
VERTEX
8
DRIL_SYMBOL
10
-0.254
20
0
0
VERTEX
8
DRIL_SYMBOL
10
0.254
20
0
0
SEQEND
0
ENDBLK
999
*** POWERPCB  SMOOTH CIRCLE ***
0
BLOCK
2
SMOOTH_0$0254
8
0
10
0
20
0
3
SMOOTH_0$0254
70
64
0
POLYLINE
8
0
66
1
40
0.0127
41
0.0127
70
1
0
VERTEX
8
0
10
-0.00635
20
0
42
1
0
VERTEX
8
0
10
0.00635
20
0
42
1
0
SEQEND
0
ENDBLK
0
BLOCK
2
SMOOTH_0$254
8
0
10
0
20
0
3
SMOOTH_0$254
70
64
0
POLYLINE
8
0
66
1
40
0.127
41
0.127
70
1
0
VERTEX
8
0
10
-0.0635
20
0
42
1
0
VERTEX
8
0
10
0.0635
20
0
42
1
0
SEQEND
0
ENDBLK
0
BLOCK
2
SMOOTH_0$127
8
0
10
0
20
0
3
SMOOTH_0$127
70
64
0
POLYLINE
8
0
66
1
40
0.0635
41
0.0635
70
1
0
VERTEX
8
0
10
-0.03175
20
0
42
1
0
VERTEX
8
0
10
0.03175
20
0
42
1
0
SEQEND
0
ENDBLK
0
BLOCK
2
SMOOTH_0$1524
8
0
10
0
20
0
3
SMOOTH_0$1524
70
64
0
POLYLINE
8
0
66
1
40
0.0762
41
0.0762
70
1
0
VERTEX
8
0
10
-0.0381
20
0
42
1
0
VERTEX
8
0
10
0.0381
20
0
42
1
0
SEQEND
0
ENDBLK
0
BLOCK
2
SMOOTH_0$2032
8
0
10
0
20
0
3
SMOOTH_0$2032
70
64
0
POLYLINE
8
0
66
1
40
0.1016
41
0.1016
70
1
0
VERTEX
8
0
10
-0.0508
20
0
42
1
0
VERTEX
8
0
10
0.0508
20
0
42
1
0
SEQEND
0
ENDBLK
0
BLOCK
2
SMOOTH_0$3
8
0
10
0
20
0
3
SMOOTH_0$3
70
64
0
POLYLINE
8
0
66
1
40
0.15
41
0.15
70
1
0
VERTEX
8
0
10
-0.075
20
0
42
1
0
VERTEX
8
0
10
0.075
20
0
42
1
0
SEQEND
0
ENDBLK
0
BLOCK
2
PAD_0
8
0
10
0
20
0
3
PAD_0
70
64
0
POLYLINE
8
0
70
1
66
1
0
VERTEX
8
0
10
0
20
0
42
1
0
VERTEX
8
0
10
0
20
0
42
1
0
SEQEND
0
ENDBLK
0
BLOCK
2
PAD_1
8
0
10
0
20
0
3
PAD_1
70
64
0
POLYLINE
8
0
70
1
66
1
40
0.1651
41
0.1651
0
VERTEX
8
0
10
-0.5969
20
-0.08255
0
VERTEX
8
0
10
0.5969
20
-0.08255
42
1
0
VERTEX
8
0
10
0.5969
20
0.08255
0
VERTEX
8
0
10
-0.5969
20
0.08255
42
1
0
SEQEND
0
ENDBLK
0
BLOCK
2
PAD_2
8
0
10
0
20
0
3
PAD_2
70
64
0
POLYLINE
8
0
66
1
40
0.5588
41
0.5588
0
VERTEX
8
0
10
-0.2794
20
0
0
VERTEX
8
0
10
0.2794
20
0
0
SEQEND
0
ENDBLK
0
BLOCK
2
PAD_3
8
0
10
0
20
0
3
PAD_3
70
64
0
POLYLINE
8
0
66
1
40
0.8128
41
0.8128
0
VERTEX
8
0
10
-0.4064
20
0
0
VERTEX
8
0
10
0.4064
20
0
0
SEQEND
0
ENDBLK
0
BLOCK
2
PAD_4
8
0
10
0
20
0
3
PAD_4
70
64
0
POLYLINE
8
0
66
1
40
1.016
41
1.016
0
VERTEX
8
0
10
-0.635
20
0
0
VERTEX
8
0
10
0.635
20
0
0
SEQEND
0
ENDBLK
0
BLOCK
2
PAD_5
8
0
10
0
20
0
3
PAD_5
70
64
0
POLYLINE
8
0
66
1
40
0.8382
41
0.8382
0
VERTEX
8
0
10
-0.4191
20
0
0
VERTEX
8
0
10
0.4191
20
0
0
SEQEND
0
ENDBLK
0
BLOCK
2
PAD_6
8
0
10
0
20
0
3
PAD_6
70
64
0
POLYLINE
8
0
70
1
66
1
40
0.3048
41
0.3048
0
VERTEX
8
0
10
-0.635
20
-0.1524
0
VERTEX
8
0
10
0.635
20
-0.1524
42
1
0
VERTEX
8
0
10
0.635
20
0.1524
0
VERTEX
8
0
10
-0.635
20
0.1524
42
1
0
SEQEND
0
ENDBLK
0
BLOCK
2
PAD_7
8
0
10
0
20
0
3
PAD_7
70
64
0
POLYLINE
8
0
70
1
66
1
40
0.85
41
0.85
0
VERTEX
8
0
10
0
20
-0.425
42
1
0
VERTEX
8
0
10
0
20
0.425
42
1
0
SEQEND
0
ENDBLK
0
BLOCK
2
PAD_8
8
0
10
0
20
0
3
PAD_8
70
64
0
POLYLINE
8
0
66
1
40
0.9144
41
0.9144
0
VERTEX
8
0
10
-0.4572
20
0
0
VERTEX
8
0
10
0.4572
20
0
0
SEQEND
0
ENDBLK
0
BLOCK
2
PAD_9
8
0
10
0
20
0
3
PAD_9
70
64
0
POLYLINE
8
0
66
1
40
0.9144
41
0.9144
0
VERTEX
8
0
10
-0.635
20
0
0
VERTEX
8
0
10
0.635
20
0
0
SEQEND
0
ENDBLK
0
BLOCK
2
PAD_10
8
0
10
0
20
0
3
PAD_10
70
64
0
POLYLINE
8
0
66
1
40
1.1
41
1.1
0
VERTEX
8
0
10
-0.65
20
0
0
VERTEX
8
0
10
0.65
20
0
0
SEQEND
0
ENDBLK
0
BLOCK
2
PAD_11
8
0
10
0
20
0
3
PAD_11
70
64
0
POLYLINE
8
0
66
1
40
0.349986
41
0.349986
0
VERTEX
8
0
10
-0.4999986667
20
0
0
VERTEX
8
0
10
0.4999986667
20
0
0
SEQEND
0
ENDBLK
0
BLOCK
2
PAD_12
8
0
10
0
20
0
3
PAD_12
70
64
0
POLYLINE
8
0
66
1
40
0.3556
41
0.3556
0
VERTEX
8
0
10
-0.4953
20
0
0
VERTEX
8
0
10
0.4953
20
0
0
SEQEND
0
ENDBLK
0
BLOCK
2
PAD_13
8
0
10
0
20
0
3
PAD_13
70
64
0
POLYLINE
8
0
66
1
40
2.286
41
2.286
0
VERTEX
8
0
10
-1.143
20
0
0
VERTEX
8
0
10
1.143
20
0
0
SEQEND
0
ENDBLK
0
BLOCK
2
PAD_14
8
0
10
0
20
0
3
PAD_14
70
64
0
POLYLINE
8
0
66
1
40
1.2
41
1.2
0
VERTEX
8
0
10
-1
20
0
0
VERTEX
8
0
10
1
20
0
0
SEQEND
0
ENDBLK
0
BLOCK
2
PAD_15
8
0
10
0
20
0
3
PAD_15
70
64
0
POLYLINE
8
0
66
1
40
0.5
41
0.5
0
VERTEX
8
0
10
-0.5
20
0
0
VERTEX
8
0
10
0.5
20
0
0
SEQEND
0
ENDBLK
0
BLOCK
2
PAD_16
8
0
10
0
20
0
3
PAD_16
70
64
0
POLYLINE
8
0
70
1
66
1
40
0.3
41
0.3
0
VERTEX
8
0
10
-0.6906
20
-0.15
0
VERTEX
8
0
10
0.6906
20
-0.15
42
1
0
VERTEX
8
0
10
0.6906
20
0.15
0
VERTEX
8
0
10
-0.6906
20
0.15
42
1
0
SEQEND
0
ENDBLK
0
BLOCK
2
PAD_17
8
0
10
0
20
0
3
PAD_17
70
64
0
POLYLINE
8
0
70
1
66
1
40
0.3
41
0.3
0
VERTEX
8
0
10
-0.6652
20
-0.15
0
VERTEX
8
0
10
0.6652
20
-0.15
42
1
0
VERTEX
8
0
10
0.6652
20
0.15
0
VERTEX
8
0
10
-0.6652
20
0.15
42
1
0
SEQEND
0
ENDBLK
0
BLOCK
2
PAD_18
8
0
10
0
20
0
3
PAD_18
70
64
0
POLYLINE
8
0
66
1
40
0.6
41
0.6
0
VERTEX
8
0
10
-0.9906
20
0
0
VERTEX
8
0
10
0.9906
20
0
0
SEQEND
0
ENDBLK
0
BLOCK
2
PAD_19
8
0
10
0
20
0
3
PAD_19
70
64
0
POLYLINE
8
0
66
1
40
1.27
41
1.27
0
VERTEX
8
0
10
-1.778
20
0
0
VERTEX
8
0
10
1.778
20
0
0
SEQEND
0
ENDBLK
999
*** POWERPCB  DRILL HOLE ***
0
BLOCK
2
DRIL_HOLE_0
8
0
10
0
20
0
3
DRIL_HOLE_0
70
64
0
POLYLINE
8
0
66
1
70
1
0
VERTEX
8
0
10
0
20
0
42
1
0
VERTEX
8
0
10
0
20
0
42
1
0
SEQEND
0
INSERT
2
DRIL_SYMBOL_0
8
0
10
0
20
0
0
ENDBLK
0
BLOCK
2
DRIL_HOLE_0$9
8
0
10
0
20
0
3
DRIL_HOLE_0$9
70
64
0
POLYLINE
8
0
66
1
40
0.45
41
0.45
70
1
0
VERTEX
8
0
10
-0.225
20
0
42
1
0
VERTEX
8
0
10
0.225
20
0
42
1
0
SEQEND
0
INSERT
2
DRIL_SYMBOL_0$9
8
0
10
0
20
0
0
ENDBLK
0
ENDSEC
0
SECTION
2
ENTITIES
999
*** POWERPCB  DBLAYER ***
0
INSERT
2
DBLAYERS
8
0
10
0
20
0
999
*** POWERPCB  BOARD ***
0
INSERT
2
BOARD_21
8
0
10
0
20
0
999
*** POWERPCB  2DLINE ***
0
INSERT
2
D_1dfeghi_25
8
0
10
-1.0668
20
10.5156
0
INSERT
2
D_2dfeghi_26
8
0
10
31.9786
20
0
999
*** POWERPCB  FREE TEXT ***
0
TEXT
8
TEXT_129
10
28.2448
20
18.3388
40
1.4224
1
HH522_TTL/232/485_V2.2
71
2
41
0.75
7
W0$2032
0
TEXT
8
TEXT_129
10
25.654
20
8.4074
40
1.778
1
+
71
2
41
0.75
7
W0$254
0
TEXT
8
TEXT_129
10
21.59
20
8.255
40
1.778
1
-
71
2
41
0.75
7
W0$254
0
TEXT
8
TEXT_129
10
20.0914
20
15.0114
40
1.2446
1
3v3
71
2
50
90
41
0.75
7
W0$1778
0
TEXT
8
TEXT_129
10
22.098
20
14.986
40
1.2446
1
RX
71
2
50
90
41
0.75
7
W0$1778
0
TEXT
8
TEXT_129
10
24.1554
20
14.9606
40
1.2446
1
TX
71
2
50
90
41
0.75
7
W0$1778
0
TEXT
8
TEXT_129
10
26.3144
20
14.9606
40
1.2446
1
P12
71
2
50
90
41
0.75
7
W0$1778
0
TEXT
8
TEXT_129
10
28.2956
20
14.986
40
1.2446
1
GND
71
2
50
90
41
0.75
7
W0$1778
999
*** POWERPCB  COMPONENT ***
0
INSERT
2
PART_TOP_0
8
0
10
21.463
20
15.8242
50
180
0
INSERT
2
PART_TOP_1
8
0
10
24.638
20
6.1722
50
90
0
INSERT
2
PART_TOP_2
8
0
10
23.4442
20
6.1722
50
270
0
INSERT
2
PART_TOP_3
8
0
10
22.225
20
6.1722
50
90
0
INSERT
2
PART_TOP_4
8
0
10
26.7208
20
0.9144
0
INSERT
2
PART_TOP_5
8
0
10
22.5044
20
0.9144
50
180
0
INSERT
2
PART_TOP_6
8
0
10
20.4216
20
0.9144
0
INSERT
2
PART_TOP_7
8
0
10
24.6126
20
0.9144
0
INSERT
2
PART_TOP_8
8
0
10
28.7782
20
0.9144
0
INSERT
2
PART_TOP_9
8
0
10
30.8864
20
0.9144
0
INSERT
2
PART_TOP_10
8
0
10
27.6606
20
19.1262
0
INSERT
2
PART_TOP_11
8
0
10
3.8608
20
3.7592
50
90
0
INSERT
2
PART_TOP_12
8
0
10
5.6134
20
10.3632
50
180
0
INSERT
2
PART_TOP_13
8
0
10
5.6134
20
11.7094
0
INSERT
2
PART_TOP_14
8
0
10
7.8994
20
10.3632
50
180
0
INSERT
2
PART_TOP_15
8
0
10
7.8994
20
11.7094
50
180
0
INSERT
2
PART_TOP_16
8
0
10
10.2362
20
9.6774
50
180
0
INSERT
2
PART_TOP_17
8
0
10
27.7368
20
17.5768
0
INSERT
2
PART_TOP_18
8
0
10
27.2796
20
12.4714
0
INSERT
2
PART_TOP_19
8
0
10
21.0058
20
6.1722
50
270
0
INSERT
2
PART_TOP_20
8
0
10
24.6126
20
6.1976
0
INSERT
2
PART_TOP_21
8
0
10
22.606
20
11.3284
50
180
0
INSERT
2
PART_TOP_22
8
0
10
28.829
20
15.8242
50
90
0
INSERT
2
PART_TOP_23
8
0
10
17.7038
20
9.4488
0
INSERT
2
PART_TOP_24
8
0
10
17.9324
20
6.3754
0
INSERT
2
PART_TOP_25
8
0
10
17.9324
20
5.3594
0
INSERT
2
PART_TOP_26
8
0
10
17.9324
20
4.1656
0
INSERT
2
PART_TOP_27
8
0
10
17.9324
20
3.1496
50
180
0
INSERT
2
PART_TOP_28
8
0
10
16.1544
20
19.4056
50
180
0
INSERT
2
PART_TOP_29
8
0
10
14.8844
20
11.0744
0
INSERT
2
PART_TOP_30
8
0
10
13.5382
20
19.4056
0
INSERT
2
PART_TOP_31
8
0
10
13.6398
20
8.7884
50
180
0
INSERT
2
PART_TOP_32
8
0
10
12.6492
20
11.0744
50
180
0
INSERT
2
PART_TOP_33
8
0
10
15.2654
20
17.7546
50
270
0
INSERT
2
PART_TOP_34
8
0
10
10.9728
20
19.3802
50
180
0
INSERT
2
PART_TOP_35
8
0
10
9.271
20
8.0772
50
180
0
INSERT
2
PART_TOP_36
8
0
10
5.2578
20
14.1478
0
INSERT
2
PART_TOP_37
8
0
10
5.2578
20
16.891
0
INSERT
2
PART_TOP_38
8
0
10
6.731
20
6.5532
50
90
0
INSERT
2
PART_TOP_39
8
0
10
2.413
20
7.874
50
180
0
INSERT
2
PART_TOP_40
8
0
10
2.7178
20
19.7612
0
INSERT
2
PART_TOP_41
8
0
10
2.7178
20
18.7452
50
180
0
INSERT
2
PART_TOP_42
8
0
10
2.7178
20
17.7292
50
180
0
INSERT
2
PART_TOP_43
8
0
10
2.7178
20
16.7132
50
180
0
INSERT
2
PART_TOP_44
8
0
10
2.7178
20
15.6972
0
INSERT
2
PART_TOP_45
8
0
10
2.7178
20
13.7922
50
180
0
INSERT
2
PART_TOP_46
8
0
10
2.7178
20
12.7508
50
180
0
INSERT
2
PART_TOP_47
8
0
10
2.7178
20
11.7348
0
INSERT
2
PART_TOP_48
8
0
10
2.7178
20
10.6934
0
INSERT
2
PART_TOP_49
8
0
10
2.7178
20
9.652
50
180
0
INSERT
2
PART_TOP_50
8
0
10
2.413
20
6.5024
0
INSERT
2
PART_TOP_52
8
0
10
12.7
20
5.4356
50
180
0
INSERT
2
PART_TOP_53
8
0
10
27.2288
20
15.0876
50
270
0
INSERT
2
PART_TOP_54
8
0
10
28.4226
20
6.1976
50
180
999
*** POWERPCB  PCB PARAMETER ***
0
INSERT
2
PCB_PARAMS
8
0
10
0
20
0
0
ENDSEC
0
EOF
