0
SECTION
2
HEADER
999
*** POWERPCB  HEADER ***
9
$EXTMIN
10
0.6825693333
20
0.6666946667
9
$EXTMAX
10
62.9158633333
20
30.6959633333
9
$FILLMODE
70
0
9
$GRIDMODE
70
1
9
$GRIDUNIT
10
0.127
20
0.127
9
$INSBASE
10
205.955186
20
44.705394
9
$LIMCHECK
70
0
9
$PLINEWID
40
0.0254
9
$SNAPMODE
70
1
9
$SNAPUNIT
10
0.0254
20
0.0254
9
$TEXTSIZE
40
2.54
9
$TEXTSTYLE
7
W0$254
9
$USERI1
70
101
9
$USERI2
70
1
9
$USERI5
70
150
9
$VIEWCTR
10
39.9804026667
20
18.593618
0
ENDSEC
0
SECTION
2
TABLES
999
*** POWERPCB  LTYPE ***
0
TABLE
2
LTYPE
70
2
0
LTYPE
2
CONTINUOUS
70
64
3
---
72
65
73
0
40
0
0
LTYPE
2
TRMIDX_0
70
64
3
---
72
65
73
2
40
2
49
1
49
1
0
LTYPE
2
TRMIDX_1
70
64
3
---
72
65
73
2
40
2
49
1
49
1
0
ENDTAB
999
*** POWERPCB  LAYER ***
0
TABLE
2
LAYER
70
35
0
LAYER
2
DBLAYERS
70
1
62
-6
6
CONTINUOUS
0
LAYER
2
BOARD_OUTLINE_00
70
0
62
6
6
CONTINUOUS
0
LAYER
2
BOARD_CUTOUT_00
70
0
62
6
6
CONTINUOUS
0
LAYER
2
LABEL_INFO
70
1
62
-6
6
CONTINUOUS
0
LAYER
2
LABEL_ATTRIBUTE
70
1
62
-6
6
CONTINUOUS
0
LAYER
2
PART_NAME_126
70
0
62
2
6
CONTINUOUS
0
LAYER
2
ATTRIBUTE_126
70
1
62
-2
6
CONTINUOUS
0
LAYER
2
PART_TYPE_TOP
70
1
62
-250
6
CONTINUOUS
0
LAYER
2
PART_INFO
70
1
62
-6
6
CONTINUOUS
0
LAYER
2
PART_PTS
70
1
62
-6
6
CONTINUOUS
0
LAYER
2
PART_NAME_01
70
0
62
254
6
CONTINUOUS
0
LAYER
2
PART_TYPE_01
70
1
62
-1
6
CONTINUOUS
0
LAYER
2
ATTRIBUTE_01
70
1
62
-1
6
CONTINUOUS
0
LAYER
2
PART_NAME_TOP
70
1
62
-250
6
CONTINUOUS
0
LAYER
2
SYM_NAME
70
1
62
-6
6
CONTINUOUS
0
LAYER
2
SYM_PART_TYPE_01
70
1
62
-6
6
CONTINUOUS
0
LAYER
2
SYM_PART_NAME_01
70
1
62
-6
6
CONTINUOUS
0
LAYER
2
SYM_TERMINAL
70
1
62
-6
6
CONTINUOUS
0
LAYER
2
PKG_INFO
70
1
62
-6
6
CONTINUOUS
0
LAYER
2
SYM_ATTRIBUTE_01
70
1
62
-6
6
CONTINUOUS
0
LAYER
2
SYM_ATTRIBUTE_126
70
1
62
-6
6
CONTINUOUS
0
LAYER
2
SYM_PART_NAME_126
70
1
62
-6
6
CONTINUOUS
0
LAYER
2
PART_TOP_2DLINE_00
70
0
62
96
6
CONTINUOUS
0
LAYER
2
DRIL_PLTE_THRU_01
70
0
62
16
6
CONTINUOUS
0
LAYER
2
DRIL_PLTE_THRU_02
70
0
62
176
6
CONTINUOUS
0
LAYER
2
PADS_INNER
70
0
62
1
6
CONTINUOUS
0
LAYER
2
PADS_BOT
70
0
62
5
6
CONTINUOUS
0
LAYER
2
PADS_TOP
70
0
62
1
6
CONTINUOUS
0
LAYER
2
PART_TOP_2DLINE_01
70
0
62
96
6
CONTINUOUS
0
LAYER
2
DRIL_NPLTE_THRU_01
70
0
62
16
6
CONTINUOUS
0
LAYER
2
DRIL_NPLTE_THRU_02
70
0
62
176
6
CONTINUOUS
0
LAYER
2
PART_TOP_COPPER_01
70
0
62
96
6
CONTINUOUS
0
LAYER
2
PART_TOP_2DLINE_126
70
0
62
96
6
CONTINUOUS
0
LAYER
2
PCB_PARAMS
70
1
62
-6
6
CONTINUOUS
0
LAYER
2
DRIL_SYMBOL
70
0
62
6
6
CONTINUOUS
0
ENDTAB
999
*** POWERPCB  TEXT STYLE ***
0
TABLE
2
STYLE
70
9
0
STYLE
2
W0$127
70
64
40
0
41
0.75
42
0
50
0
71
0
3
simplex
0
STYLE
2
W0$1016
70
64
40
0
41
0.75
42
0
50
0
71
0
3
simplex
0
STYLE
2
W0$254
70
64
40
0
41
0.75
42
0
50
0
71
0
3
simplex
0
STYLE
2
W0$5
70
64
40
0
41
0.75
42
0
50
0
71
0
3
simplex
0
STYLE
2
W0$127R0
70
64
40
0
41
0.75
42
0
50
0
71
0
3
simplex
0
STYLE
2
W0$1016R0
70
64
40
0
41
0.75
42
0
50
0
71
0
3
simplex
0
STYLE
2
W0$254R0
70
64
40
0
41
0.75
42
0
50
0
71
0
3
simplex
0
STYLE
2
W0$0508R0
70
64
40
0
41
0.75
42
0
50
0
71
0
3
simplex
0
STYLE
2
W0$5R0
70
64
40
0
41
0.75
42
0
50
0
71
0
3
simplex
0
ENDTAB
0
ENDSEC
0
SECTION
2
BLOCKS
999
*** POWERPCB  DBLAYER ***
0
BLOCK
2
DBLAYERS
8
0
10
0
20
0
3
DBLAYERS
70
64
0
TEXT
8
DBLAYERS
10
0
20
-3.048
40
1.778
1
__It__Is__Job__Name__:=ZX522_V2.3.pcb
999
 *  1.Number             2.Type                  3.RouteColor
999
 *  4.ViaColor           5.PadColor              6.CopperColor
999
 *  7.2DLineColor        8.TextColor             9.ErrorColor
999
 * 10.TopComponentColor 11.BottomComponentColor 12.RoutingDirection
999
 * 13.LayerThickness    14.CopperThickness      15.Dielectric
999
 * 16.IsRouteable       17.IsVisible            18.IsSelectable
999
 * 19.IsPrepreg         20.AssSilkScreen        21.AssPasteMask
999
 * 22.AssSolderMask     23.AssAssembly
0
TEXT
8
DBLAYERS
10
0
20
-6.096
40
1.778
1
Top:=1 1 12 12 12 12 11 12 15 2 0 0 0 53340 4.8000001907 1 1 1 0 126 123 121 -1 0 0 1 8 12 12 12 
0
TEXT
8
DBLAYERS
10
0
20
-9.144
40
1.778
1
Silkscreen Top:=126 3 14 14 14 14 14 14 14 2 14 2 0 0 3.2999999523 0 1 1 0 -1 -1 -1 -1 0 0 0 14 14 14 14 
0
ENDBLK
999
*** POWERPCB  BOARD ***
0
BLOCK
2
BOARD_373
8
0
10
0
20
0
3
BOARD_373
70
64
0
POLYLINE
8
BOARD_OUTLINE_00
66
1
40
0.0254
41
0.0254
70
1
0
VERTEX
8
BOARD_OUTLINE_00
10
-0.0158746667
20
0
0
VERTEX
8
BOARD_OUTLINE_00
10
55.0164
20
0
42
-0.4177964721
0
VERTEX
8
BOARD_OUTLINE_00
10
58.6105
20
-3.5941
0
VERTEX
8
BOARD_OUTLINE_00
10
58.6105
20
-26.4668
42
-0.4167718538
0
VERTEX
8
BOARD_OUTLINE_00
10
55.07355
20
-30.00375
0
VERTEX
8
BOARD_OUTLINE_00
10
0
20
-30.00375
42
-0.4172840697
0
VERTEX
8
BOARD_OUTLINE_00
10
-3.5972753333
20
-26.4064753333
0
VERTEX
8
BOARD_OUTLINE_00
10
-3.5972753333
20
-3.5814
42
-0.4142135624
0
SEQEND
0
INSERT
2
SMOOTH_0$0254
8
BOARD_OUTLINE_00
10
-0.0158746667
20
0
0
INSERT
2
SMOOTH_0$0254
8
BOARD_OUTLINE_00
10
55.0164
20
0
0
POLYLINE
8
BOARD_CUTOUT_00
66
1
40
0.0254
41
0.0254
70
1
0
VERTEX
8
BOARD_CUTOUT_00
10
2.8407426667
20
-7.0104
42
1
0
VERTEX
8
BOARD_CUTOUT_00
10
5.3888573333
20
-7.0104
42
1
0
SEQEND
0
POLYLINE
8
BOARD_CUTOUT_00
66
1
40
0.0254
41
0.0254
70
1
0
VERTEX
8
BOARD_CUTOUT_00
10
2.8407426667
20
-23.0124
42
1
0
VERTEX
8
BOARD_CUTOUT_00
10
5.3888573333
20
-23.0124
42
1
0
SEQEND
0
POLYLINE
8
BOARD_CUTOUT_00
66
1
40
0.0254
41
0.0254
70
1
0
VERTEX
8
BOARD_CUTOUT_00
10
49.8307426667
20
-23.0124
42
1
0
VERTEX
8
BOARD_CUTOUT_00
10
52.3788573333
20
-23.0124
42
1
0
SEQEND
0
POLYLINE
8
BOARD_CUTOUT_00
66
1
40
0.0254
41
0.0254
70
1
0
VERTEX
8
BOARD_CUTOUT_00
10
49.8307426667
20
-6.985
42
1
0
VERTEX
8
BOARD_CUTOUT_00
10
52.3788573333
20
-6.985
42
1
0
SEQEND
0
ENDBLK
999
*** POWERPCB  COMPONENT ***
0
BLOCK
2
PART_TOP_0
8
0
10
0
20
0
3
PART_TOP_0
70
64
0
INSERT
2
SYM_TOP_15
8
0
10
0
20
0
0
INSERT
2
PKG_1
8
0
10
0
20
0
0
TEXT
8
LABEL_INFO
10
1.1684
20
0.4826
40
0.889
1
0 324000000 0 0 0 1
50
180
41
0.75
7
W0$127
0
TEXT
8
LABEL_ATTRIBUTE
10
1.1684
20
0.4826
40
0.889
1
Ref.Des.
50
180
41
0.75
7
W0$127
0
TEXT
8
PART_NAME_126
10
1.1684
20
0.4826
40
0.889
1
C1
50
180
41
0.75
7
W0$127
0
TEXT
8
LABEL_INFO
10
-1.1731746667
20
2.0614126667
40
0.6223
1
0 0 0 0 0 0
41
0.75
7
W0$127
0
TEXT
8
LABEL_ATTRIBUTE
10
-1.1731746667
20
2.0614126667
40
0.6223
1
Comment
41
0.75
7
W0$127
0
TEXT
8
ATTRIBUTE_126
10
-1.1731746667
20
2.0614126667
40
0.6223
1
 
41
0.75
7
W0$127
0
TEXT
8
PART_TYPE_TOP
10
-1.1731746667
20
1.1724126667
40
0.6223
1
CAP_NP_2
41
0.75
7
W0$127
0
TEXT
8
PART_INFO
10
-1.1731746667
20
0.2834126667
40
0.6223
1
000100
41
0.75
7
W0$127
0
TEXT
8
PART_PTS
10
-1.1731746667
20
-0.6055873333
40
0.6223
1
1 2 
41
0.75
7
W0$127
0
ENDBLK
0
BLOCK
2
PART_TOP_1
8
0
10
0
20
0
3
PART_TOP_1
70
64
0
INSERT
2
SYM_TOP_21
8
0
10
0
20
0
0
INSERT
2
PKG_14
8
0
10
0
20
0
0
TEXT
8
LABEL_INFO
10
-0.4826
20
1.27
40
0.889
1
0 0 0 0 0 1
41
0.75
7
W0$127
0
TEXT
8
LABEL_ATTRIBUTE
10
-0.4826
20
1.27
40
0.889
1
Ref.Des.
41
0.75
7
W0$127
0
TEXT
8
PART_NAME_01
10
-0.4826
20
1.27
40
0.889
1
BZ1
41
0.75
7
W0$127
0
TEXT
8
LABEL_INFO
10
-5.4864
20
2.0574
40
0.889
1
0 0 0 2 0 1
73
2
11
-5.4864
21
2.0574
41
0.75
7
W0$127
0
TEXT
8
LABEL_ATTRIBUTE
10
-5.4864
20
2.0574
40
0.889
1
PartType
73
2
11
-5.4864
21
2.0574
41
0.75
7
W0$127
0
TEXT
8
PART_TYPE_01
10
-5.4864
20
2.0574
40
0.889
1
BZ_0905
73
3
11
-5.4864
21
2.0574
41
0.75
7
W0$127
0
TEXT
8
PART_INFO
10
-5.4864
20
0.7874
40
0.889
1
000000
73
3
11
-5.4864
21
0.7874
41
0.75
7
W0$127
0
TEXT
8
PART_PTS
10
-5.4864
20
-0.4826
40
0.889
1
1 2 
73
3
11
-5.4864
21
-0.4826
41
0.75
7
W0$127
0
ENDBLK
0
BLOCK
2
PART_TOP_2
8
0
10
0
20
0
3
PART_TOP_2
70
64
0
INSERT
2
SYM_TOP_11
8
0
10
0
20
0
0
INSERT
2
PKG_2
8
0
10
0
20
0
0
TEXT
8
LABEL_INFO
10
0
20
0
40
0.889
1
0 0 0 2 0 1
73
2
11
0
21
0
41
0.75
7
W0$127
0
TEXT
8
LABEL_ATTRIBUTE
10
0
20
0
40
0.889
1
PartType
73
2
11
0
21
0
41
0.75
7
W0$127
0
TEXT
8
PART_TYPE_01
10
0
20
0
40
0.889
1
R_5
73
3
11
0
21
0
41
0.75
7
W0$127
0
TEXT
8
LABEL_INFO
10
0.381
20
-0.381
40
0.889
1
0 0 0 0 0 1
41
0.75
7
W0$127
0
TEXT
8
LABEL_ATTRIBUTE
10
0.381
20
-0.381
40
0.889
1
Ref.Des.
41
0.75
7
W0$127
0
TEXT
8
PART_NAME_01
10
0.381
20
-0.381
40
0.889
1
R14
41
0.75
7
W0$127
0
TEXT
8
PART_INFO
10
0.381
20
-1.651
40
0.889
1
000001
41
0.75
7
W0$127
0
TEXT
8
PART_PTS
10
0.381
20
-2.921
40
0.889
1
1 2 
41
0.75
7
W0$127
0
ENDBLK
0
BLOCK
2
PART_TOP_3
8
0
10
0
20
0
3
PART_TOP_3
70
64
0
INSERT
2
SYM_TOP_11
8
0
10
0
20
0
0
INSERT
2
PKG_2
8
0
10
0
20
0
0
TEXT
8
LABEL_INFO
10
0.381
20
-0.381
40
0.889
1
0 0 0 0 0 1
41
0.75
7
W0$127
0
TEXT
8
LABEL_ATTRIBUTE
10
0.381
20
-0.381
40
0.889
1
Ref.Des.
41
0.75
7
W0$127
0
TEXT
8
PART_NAME_01
10
0.381
20
-0.381
40
0.889
1
R15
41
0.75
7
W0$127
0
TEXT
8
LABEL_INFO
10
0
20
0
40
0.889
1
0 0 0 2 0 1
73
2
11
0
21
0
41
0.75
7
W0$127
0
TEXT
8
LABEL_ATTRIBUTE
10
0
20
0
40
0.889
1
PartType
73
2
11
0
21
0
41
0.75
7
W0$127
0
TEXT
8
PART_TYPE_01
10
0
20
0
40
0.889
1
R_5
73
3
11
0
21
0
41
0.75
7
W0$127
0
TEXT
8
PART_INFO
10
0
20
-1.27
40
0.889
1
000001
73
3
11
0
21
-1.27
41
0.75
7
W0$127
0
TEXT
8
PART_PTS
10
0
20
-2.54
40
0.889
1
1 2 
73
3
11
0
21
-2.54
41
0.75
7
W0$127
0
ENDBLK
0
BLOCK
2
PART_TOP_4
8
0
10
0
20
0
3
PART_TOP_4
70
64
0
INSERT
2
SYM_TOP_20
8
0
10
0
20
0
0
INSERT
2
PKG_13
8
0
10
0
20
0
0
TEXT
8
LABEL_INFO
10
-0.91948
20
-0.613664
40
0.7112
1
0 0 0 0 0 1
41
0.75
7
W0$1016
0
TEXT
8
LABEL_ATTRIBUTE
10
-0.91948
20
-0.613664
40
0.7112
1
Ref.Des.
41
0.75
7
W0$1016
0
TEXT
8
PART_NAME_01
10
-0.91948
20
-0.613664
40
0.7112
1
Q1
41
0.75
7
W0$1016
0
TEXT
8
LABEL_INFO
10
-0.925068
20
0.42037
40
0.7112
1
0 0 0 2 0 1
73
2
11
-0.925068
21
0.42037
41
0.75
7
W0$1016
0
TEXT
8
LABEL_ATTRIBUTE
10
-0.925068
20
0.42037
40
0.7112
1
Value
73
2
11
-0.925068
21
0.42037
41
0.75
7
W0$1016
0
TEXT
8
ATTRIBUTE_01
10
-0.925068
20
0.42037
40
0.7112
1
 
73
3
11
-0.925068
21
0.42037
41
0.75
7
W0$1016
0
TEXT
8
PART_TYPE_TOP
10
-0.925068
20
-0.59563
40
0.7112
1
SOT-23
73
3
11
-0.925068
21
-0.59563
41
0.75
7
W0$1016
0
TEXT
8
PART_INFO
10
-0.925068
20
-1.61163
40
0.7112
1
000000
73
3
11
-0.925068
21
-1.61163
41
0.75
7
W0$1016
0
TEXT
8
PART_PTS
10
-0.925068
20
-2.62763
40
0.7112
1
1 2 3 
73
3
11
-0.925068
21
-2.62763
41
0.75
7
W0$1016
0
ENDBLK
0
BLOCK
2
PART_TOP_5
8
0
10
0
20
0
3
PART_TOP_5
70
64
0
INSERT
2
SYM_TOP_8
8
0
10
0
20
0
0
INSERT
2
PKG_0
8
0
10
0
20
0
0
TEXT
8
LABEL_INFO
10
-0.4064
20
-0.4064
40
0.889
1
0 0 0 0 0 1
41
0.75
7
W0$127
0
TEXT
8
LABEL_ATTRIBUTE
10
-0.4064
20
-0.4064
40
0.889
1
Ref.Des.
41
0.75
7
W0$127
0
TEXT
8
PART_NAME_01
10
-0.4064
20
-0.4064
40
0.889
1
U11
41
0.75
7
W0$127
0
TEXT
8
LABEL_INFO
10
0
20
0
40
1.778
1
0 0 0 2 0 1
73
2
11
0
21
0
41
0.75
7
W0$254
0
TEXT
8
LABEL_ATTRIBUTE
10
0
20
0
40
1.778
1
PartType
73
2
11
0
21
0
41
0.75
7
W0$254
0
TEXT
8
PART_TYPE_01
10
0
20
0
40
1.778
1
STC15W204S-SOP16
73
3
11
0
21
0
41
0.75
7
W0$254
0
TEXT
8
PART_INFO
10
0
20
-2.54
40
1.778
1
000000
73
3
11
0
21
-2.54
41
0.75
7
W0$254
0
TEXT
8
PART_PTS
10
0
20
-5.08
40
1.778
1
1 2 3 4 5 6 7 8 9 10 11 12 13 14 15 16 
73
3
11
0
21
-5.08
41
0.75
7
W0$254
0
ENDBLK
0
BLOCK
2
PART_TOP_6
8
0
10
0
20
0
3
PART_TOP_6
70
64
0
INSERT
2
SYM_TOP_15
8
0
10
0
20
0
0
INSERT
2
PKG_3
8
0
10
0
20
0
0
TEXT
8
LABEL_INFO
10
0
20
0
40
0.889
1
0 0 0 2 0 1
73
2
11
0
21
0
41
0.75
7
W0$127
0
TEXT
8
LABEL_ATTRIBUTE
10
0
20
0
40
0.889
1
PartType
73
2
11
0
21
0
41
0.75
7
W0$127
0
TEXT
8
PART_TYPE_01
10
0
20
0
40
0.889
1
CAPACITOR_0_6
73
3
11
0
21
0
41
0.75
7
W0$127
0
TEXT
8
LABEL_INFO
10
1.5494
20
0.3556
40
0.889
1
0 324000000 0 0 0 1
50
180
41
0.75
7
W0$127
0
TEXT
8
LABEL_ATTRIBUTE
10
1.5494
20
0.3556
40
0.889
1
Ref.Des.
50
180
41
0.75
7
W0$127
0
TEXT
8
PART_NAME_01
10
1.5494
20
0.3556
40
0.889
1
C14
50
180
41
0.75
7
W0$127
0
TEXT
8
PART_INFO
10
1.5494
20
-0.9144
40
0.889
1
000100
50
180
41
0.75
7
W0$127
0
TEXT
8
PART_PTS
10
1.5494
20
-2.1844
40
0.889
1
1 2 
50
180
41
0.75
7
W0$127
0
ENDBLK
0
BLOCK
2
PART_TOP_7
8
0
10
0
20
0
3
PART_TOP_7
70
64
0
INSERT
2
SYM_TOP_15
8
0
10
0
20
0
0
INSERT
2
PKG_3
8
0
10
0
20
0
0
TEXT
8
LABEL_INFO
10
0
20
0
40
0.889
1
0 0 0 2 0 1
73
2
11
0
21
0
41
0.75
7
W0$127
0
TEXT
8
LABEL_ATTRIBUTE
10
0
20
0
40
0.889
1
PartType
73
2
11
0
21
0
41
0.75
7
W0$127
0
TEXT
8
PART_TYPE_01
10
0
20
0
40
0.889
1
CAPACITOR_0_6
73
3
11
0
21
0
41
0.75
7
W0$127
0
TEXT
8
LABEL_INFO
10
1.5748
20
0.3556
40
0.889
1
0 324000000 0 0 0 1
50
180
41
0.75
7
W0$127
0
TEXT
8
LABEL_ATTRIBUTE
10
1.5748
20
0.3556
40
0.889
1
Ref.Des.
50
180
41
0.75
7
W0$127
0
TEXT
8
PART_NAME_01
10
1.5748
20
0.3556
40
0.889
1
C90
50
180
41
0.75
7
W0$127
0
TEXT
8
PART_INFO
10
1.5748
20
-0.9144
40
0.889
1
000100
50
180
41
0.75
7
W0$127
0
TEXT
8
PART_PTS
10
1.5748
20
-2.1844
40
0.889
1
1 2 
50
180
41
0.75
7
W0$127
0
ENDBLK
0
BLOCK
2
PART_TOP_8
8
0
10
0
20
0
3
PART_TOP_8
70
64
0
INSERT
2
SYM_TOP_11
8
0
10
0
20
0
0
INSERT
2
PKG_2
8
0
10
0
20
0
0
TEXT
8
LABEL_INFO
10
0
20
0
40
0.889
1
0 0 0 2 0 1
73
2
11
0
21
0
41
0.75
7
W0$127
0
TEXT
8
LABEL_ATTRIBUTE
10
0
20
0
40
0.889
1
PartType
73
2
11
0
21
0
41
0.75
7
W0$127
0
TEXT
8
PART_TYPE_01
10
0
20
0
40
0.889
1
R_5
73
3
11
0
21
0
41
0.75
7
W0$127
0
TEXT
8
LABEL_INFO
10
0.381
20
-0.381
40
0.889
1
0 0 0 0 0 1
41
0.75
7
W0$127
0
TEXT
8
LABEL_ATTRIBUTE
10
0.381
20
-0.381
40
0.889
1
Ref.Des.
41
0.75
7
W0$127
0
TEXT
8
PART_NAME_01
10
0.381
20
-0.381
40
0.889
1
R16
41
0.75
7
W0$127
0
TEXT
8
PART_INFO
10
0.381
20
-1.651
40
0.889
1
000001
41
0.75
7
W0$127
0
TEXT
8
PART_PTS
10
0.381
20
-2.921
40
0.889
1
1 2 
41
0.75
7
W0$127
0
ENDBLK
0
BLOCK
2
PART_TOP_9
8
0
10
0
20
0
3
PART_TOP_9
70
64
0
INSERT
2
SYM_TOP_22
8
0
10
0
20
0
0
INSERT
2
PKG_15
8
0
10
0
20
0
0
TEXT
8
PART_NAME_TOP
10
0
20
0
40
1.778
1
R18
41
0.75
7
W0$254
0
TEXT
8
PART_TYPE_TOP
10
0
20
-2.54
40
1.778
1
JUMP-C
41
0.75
7
W0$254
0
TEXT
8
PART_INFO
10
0
20
-5.08
40
1.778
1
000000
41
0.75
7
W0$254
0
TEXT
8
PART_PTS
10
0
20
-7.62
40
1.778
1
1 2 
41
0.75
7
W0$254
0
ENDBLK
0
BLOCK
2
PART_TOP_10
8
0
10
0
20
0
3
PART_TOP_10
70
64
0
INSERT
2
SYM_TOP_22
8
0
10
0
20
0
0
INSERT
2
PKG_15
8
0
10
0
20
0
0
TEXT
8
PART_NAME_TOP
10
0
20
0
40
1.778
1
R19
41
0.75
7
W0$254
0
TEXT
8
PART_TYPE_TOP
10
0
20
-2.54
40
1.778
1
JUMP-C
41
0.75
7
W0$254
0
TEXT
8
PART_INFO
10
0
20
-5.08
40
1.778
1
000000
41
0.75
7
W0$254
0
TEXT
8
PART_PTS
10
0
20
-7.62
40
1.778
1
1 2 
41
0.75
7
W0$254
0
ENDBLK
0
BLOCK
2
PART_TOP_11
8
0
10
0
20
0
3
PART_TOP_11
70
64
0
INSERT
2
SYM_TOP_23
8
0
10
0
20
0
0
INSERT
2
PKG_9
8
0
10
0
20
0
0
TEXT
8
LABEL_INFO
10
-0.4318
20
-0.5588
40
0.889
1
0 0 0 0 0 1
41
0.75
7
W0$127
0
TEXT
8
LABEL_ATTRIBUTE
10
-0.4318
20
-0.5588
40
0.889
1
Ref.Des.
41
0.75
7
W0$127
0
TEXT
8
PART_NAME_01
10
-0.4318
20
-0.5588
40
0.889
1
U2
41
0.75
7
W0$127
0
TEXT
8
LABEL_INFO
10
0
20
0
40
1.778
1
0 0 0 2 0 1
73
2
11
0
21
0
41
0.75
7
W0$254
0
TEXT
8
LABEL_ATTRIBUTE
10
0
20
0
40
1.778
1
PartType
73
2
11
0
21
0
41
0.75
7
W0$254
0
TEXT
8
PART_TYPE_01
10
0
20
0
40
1.778
1
MAX232ESE-SOP16
73
3
11
0
21
0
41
0.75
7
W0$254
0
TEXT
8
PART_INFO
10
0
20
-2.54
40
1.778
1
000100
73
3
11
0
21
-2.54
41
0.75
7
W0$254
0
TEXT
8
PART_PTS
10
0
20
-5.08
40
1.778
1
1 2 3 4 5 6 7 8 9 10 11 12 13 14 15 16 
73
3
11
0
21
-5.08
41
0.75
7
W0$254
0
ENDBLK
0
BLOCK
2
PART_TOP_12
8
0
10
0
20
0
3
PART_TOP_12
70
64
0
INSERT
2
SYM_TOP_15
8
0
10
0
20
0
0
INSERT
2
PKG_7
8
0
10
0
20
0
0
TEXT
8
LABEL_INFO
10
0
20
0
40
0.889
1
0 0 0 2 0 1
73
2
11
0
21
0
41
0.75
7
W0$127
0
TEXT
8
LABEL_ATTRIBUTE
10
0
20
0
40
0.889
1
PartType
73
2
11
0
21
0
41
0.75
7
W0$127
0
TEXT
8
PART_TYPE_01
10
0
20
0
40
0.889
1
C0603
73
3
11
0
21
0
41
0.75
7
W0$127
0
TEXT
8
LABEL_INFO
10
2.0066
20
0.4064
40
0.889
1
0 324000000 0 0 0 1
50
180
41
0.75
7
W0$127
0
TEXT
8
LABEL_ATTRIBUTE
10
2.0066
20
0.4064
40
0.889
1
Ref.Des.
50
180
41
0.75
7
W0$127
0
TEXT
8
PART_NAME_126
10
2.0066
20
0.4064
40
0.889
1
C147
50
180
41
0.75
7
W0$127
0
TEXT
8
PART_INFO
10
2.0066
20
-0.8636
40
0.889
1
000100
50
180
41
0.75
7
W0$127
0
TEXT
8
PART_PTS
10
2.0066
20
-2.1336
40
0.889
1
1 2 
50
180
41
0.75
7
W0$127
0
ENDBLK
0
BLOCK
2
PART_TOP_13
8
0
10
0
20
0
3
PART_TOP_13
70
64
0
INSERT
2
SYM_TOP_15
8
0
10
0
20
0
0
INSERT
2
PKG_7
8
0
10
0
20
0
0
TEXT
8
LABEL_INFO
10
-0.127
20
-0.3048
40
0.889
1
0 0 0 0 0 1
41
0.75
7
W0$127
0
TEXT
8
LABEL_ATTRIBUTE
10
-0.127
20
-0.3048
40
0.889
1
Ref.Des.
41
0.75
7
W0$127
0
TEXT
8
PART_NAME_126
10
-0.127
20
-0.3048
40
0.889
1
C148
41
0.75
7
W0$127
0
TEXT
8
LABEL_INFO
10
-1.1731746667
20
-2.0613873333
40
0.6223
1
0 324000000 0 0 0 0
50
180
41
0.75
7
W0$127
0
TEXT
8
LABEL_ATTRIBUTE
10
-1.1731746667
20
-2.0613873333
40
0.6223
1
Comment
50
180
41
0.75
7
W0$127
0
TEXT
8
ATTRIBUTE_126
10
-1.1731746667
20
-2.0613873333
40
0.6223
1
 
50
180
41
0.75
7
W0$127
0
TEXT
8
PART_TYPE_TOP
10
-1.1731746667
20
-2.9503873333
40
0.6223
1
C0603
50
180
41
0.75
7
W0$127
0
TEXT
8
PART_INFO
10
-1.1731746667
20
-3.8393873333
40
0.6223
1
000100
50
180
41
0.75
7
W0$127
0
TEXT
8
PART_PTS
10
-1.1731746667
20
-4.7283873333
40
0.6223
1
1 2 
50
180
41
0.75
7
W0$127
0
ENDBLK
0
BLOCK
2
PART_TOP_14
8
0
10
0
20
0
3
PART_TOP_14
70
64
0
INSERT
2
SYM_TOP_13
8
0
10
0
20
0
0
INSERT
2
PKG_5
8
0
10
0
20
0
0
TEXT
8
LABEL_INFO
10
0.4572
20
0.3048
40
0.889
1
0 324000000 0 0 0 1
50
180
41
0.75
7
W0$127
0
TEXT
8
LABEL_ATTRIBUTE
10
0.4572
20
0.3048
40
0.889
1
Ref.Des.
50
180
41
0.75
7
W0$127
0
TEXT
8
PART_NAME_126
10
0.4572
20
0.3048
40
0.889
1
X3
50
180
41
0.75
7
W0$127
0
TEXT
8
LABEL_INFO
10
-0.127
20
0
40
1.778
1
0 0 0 0 0 1
41
0.75
7
W0$254
0
TEXT
8
LABEL_ATTRIBUTE
10
-0.127
20
0
40
1.778
1
PartType
41
0.75
7
W0$254
0
TEXT
8
PART_TYPE_01
10
-0.127
20
0
40
1.778
1
CRYSTAL_4
41
0.75
7
W0$254
0
TEXT
8
PART_INFO
10
-0.127
20
-2.54
40
1.778
1
000000
41
0.75
7
W0$254
0
TEXT
8
PART_PTS
10
-0.127
20
-5.08
40
1.778
1
1 2 3 4 
41
0.75
7
W0$254
0
ENDBLK
0
BLOCK
2
PART_TOP_15
8
0
10
0
20
0
3
PART_TOP_15
70
64
0
INSERT
2
SYM_TOP_15
8
0
10
0
20
0
0
INSERT
2
PKG_1
8
0
10
0
20
0
0
TEXT
8
LABEL_INFO
10
0.254
20
-0.5334
40
0.889
1
0 0 0 0 0 1
41
0.75
7
W0$127
0
TEXT
8
LABEL_ATTRIBUTE
10
0.254
20
-0.5334
40
0.889
1
Ref.Des.
41
0.75
7
W0$127
0
TEXT
8
PART_NAME_01
10
0.254
20
-0.5334
40
0.889
1
C16
41
0.75
7
W0$127
0
TEXT
8
LABEL_INFO
10
-0.635
20
0.2778133333
40
0.889
1
0 0 0 2 0 1
73
2
11
-0.635
21
0.2778133333
41
0.75
7
W0$127
0
TEXT
8
LABEL_ATTRIBUTE
10
-0.635
20
0.2778133333
40
0.889
1
PartType
73
2
11
-0.635
21
0.2778133333
41
0.75
7
W0$127
0
TEXT
8
PART_TYPE_01
10
-0.635
20
0.2778133333
40
0.889
1
CAP_NP_2
73
3
11
-0.635
21
0.2778133333
41
0.75
7
W0$127
0
TEXT
8
PART_INFO
10
-0.635
20
-0.9921866667
40
0.889
1
000001
73
3
11
-0.635
21
-0.9921866667
41
0.75
7
W0$127
0
TEXT
8
PART_PTS
10
-0.635
20
-2.2621866667
40
0.889
1
1 2 
73
3
11
-0.635
21
-2.2621866667
41
0.75
7
W0$127
0
ENDBLK
0
BLOCK
2
PART_TOP_16
8
0
10
0
20
0
3
PART_TOP_16
70
64
0
INSERT
2
SYM_TOP_18
8
0
10
0
20
0
0
INSERT
2
PKG_11
8
0
10
0
20
0
0
TEXT
8
LABEL_INFO
10
-1.1732
20
-2.6964126667
40
0.6223
1
0 324000000 0 0 0 0
50
180
41
0.75
7
W0$127
0
TEXT
8
LABEL_ATTRIBUTE
10
-1.1732
20
-2.6964126667
40
0.6223
1
Comment
50
180
41
0.75
7
W0$127
0
TEXT
8
ATTRIBUTE_126
10
-1.1732
20
-2.6964126667
40
0.6223
1
 
50
180
41
0.75
7
W0$127
0
TEXT
8
LABEL_INFO
10
1.3208
20
0.381
40
0.889
1
0 486000000 0 0 0 1
50
270
41
0.75
7
W0$127
0
TEXT
8
LABEL_ATTRIBUTE
10
1.3208
20
0.381
40
0.889
1
Ref.Des.
50
270
41
0.75
7
W0$127
0
TEXT
8
PART_NAME_126
10
1.3208
20
0.381
40
0.889
1
L1
50
270
41
0.75
7
W0$127
0
TEXT
8
PART_TYPE_TOP
10
1.3208
20
-0.889
40
0.889
1
L-T
50
270
41
0.75
7
W0$127
0
TEXT
8
PART_INFO
10
1.3208
20
-2.159
40
0.889
1
000000
50
270
41
0.75
7
W0$127
0
TEXT
8
PART_PTS
10
1.3208
20
-3.429
40
0.889
1
1 2 
50
270
41
0.75
7
W0$127
0
ENDBLK
0
BLOCK
2
PART_TOP_17
8
0
10
0
20
0
3
PART_TOP_17
70
64
0
INSERT
2
SYM_TOP_18
8
0
10
0
20
0
0
INSERT
2
PKG_11
8
0
10
0
20
0
0
TEXT
8
LABEL_INFO
10
1.1938
20
0.889
40
0.889
1
0 486000000 0 0 0 1
50
270
41
0.75
7
W0$127
0
TEXT
8
LABEL_ATTRIBUTE
10
1.1938
20
0.889
40
0.889
1
Ref.Des.
50
270
41
0.75
7
W0$127
0
TEXT
8
PART_NAME_126
10
1.1938
20
0.889
40
0.889
1
L20
50
270
41
0.75
7
W0$127
0
TEXT
8
LABEL_INFO
10
-0.976198
20
0.6793986667
40
0.889
1
0 0 0 0 0 1
41
0.75
7
W0$127
0
TEXT
8
LABEL_ATTRIBUTE
10
-0.976198
20
0.6793986667
40
0.889
1
Comment
41
0.75
7
W0$127
0
TEXT
8
ATTRIBUTE_126
10
-0.976198
20
0.6793986667
40
0.889
1
 
41
0.75
7
W0$127
0
TEXT
8
PART_TYPE_TOP
10
-0.976198
20
-0.5906013333
40
0.889
1
L-T
41
0.75
7
W0$127
0
TEXT
8
PART_INFO
10
-0.976198
20
-1.8606013333
40
0.889
1
000000
41
0.75
7
W0$127
0
TEXT
8
PART_PTS
10
-0.976198
20
-3.1306013333
40
0.889
1
1 2 
41
0.75
7
W0$127
0
ENDBLK
0
BLOCK
2
PART_TOP_18
8
0
10
0
20
0
3
PART_TOP_18
70
64
0
INSERT
2
SYM_TOP_11
8
0
10
0
20
0
0
INSERT
2
PKG_2
8
0
10
0
20
0
0
TEXT
8
LABEL_INFO
10
0
20
0
40
0.889
1
0 0 0 2 0 1
73
2
11
0
21
0
41
0.75
7
W0$127
0
TEXT
8
LABEL_ATTRIBUTE
10
0
20
0
40
0.889
1
PartType
73
2
11
0
21
0
41
0.75
7
W0$127
0
TEXT
8
PART_TYPE_01
10
0
20
0
40
0.889
1
R_5
73
3
11
0
21
0
41
0.75
7
W0$127
0
TEXT
8
LABEL_INFO
10
0
20
-0.381
40
0.889
1
0 0 0 0 0 1
41
0.75
7
W0$127
0
TEXT
8
LABEL_ATTRIBUTE
10
0
20
-0.381
40
0.889
1
Ref.Des.
41
0.75
7
W0$127
0
TEXT
8
PART_NAME_126
10
0
20
-0.381
40
0.889
1
R13
41
0.75
7
W0$127
0
TEXT
8
PART_INFO
10
0
20
-1.651
40
0.889
1
000001
41
0.75
7
W0$127
0
TEXT
8
PART_PTS
10
0
20
-2.921
40
0.889
1
1 2 
41
0.75
7
W0$127
0
ENDBLK
0
BLOCK
2
PART_TOP_19
8
0
10
0
20
0
3
PART_TOP_19
70
64
0
INSERT
2
SYM_TOP_12
8
0
10
0
20
0
0
INSERT
2
PKG_3
8
0
10
0
20
0
0
TEXT
8
LABEL_INFO
10
1.2699993333
20
0.5334
40
0.889
1
0 324000000 0 0 0 1
50
180
41
0.75
7
W0$127
0
TEXT
8
LABEL_ATTRIBUTE
10
1.2699993333
20
0.5334
40
0.889
1
Ref.Des.
50
180
41
0.75
7
W0$127
0
TEXT
8
PART_NAME_126
10
1.2699993333
20
0.5334
40
0.889
1
C24
50
180
41
0.75
7
W0$127
0
TEXT
8
LABEL_INFO
10
-1.70434
20
0.483362
40
0.7112
1
0 0 0 2 0 1
73
2
11
-1.70434
21
0.483362
41
0.75
7
W0$1016
0
TEXT
8
LABEL_ATTRIBUTE
10
-1.70434
20
0.483362
40
0.7112
1
Value
73
2
11
-1.70434
21
0.483362
41
0.75
7
W0$1016
0
TEXT
8
ATTRIBUTE_01
10
-1.70434
20
0.483362
40
0.7112
1
10uF
73
3
11
-1.70434
21
0.483362
41
0.75
7
W0$1016
0
TEXT
8
PART_TYPE_TOP
10
-1.70434
20
-0.532638
40
0.7112
1
CAPACITOR_0_6
73
3
11
-1.70434
21
-0.532638
41
0.75
7
W0$1016
0
TEXT
8
PART_INFO
10
-1.70434
20
-1.548638
40
0.7112
1
000100
73
3
11
-1.70434
21
-1.548638
41
0.75
7
W0$1016
0
TEXT
8
PART_PTS
10
-1.70434
20
-2.564638
40
0.7112
1
1 2 
73
3
11
-1.70434
21
-2.564638
41
0.75
7
W0$1016
0
ENDBLK
0
BLOCK
2
PART_TOP_20
8
0
10
0
20
0
3
PART_TOP_20
70
64
0
INSERT
2
SYM_TOP_12
8
0
10
0
20
0
0
INSERT
2
PKG_3
8
0
10
0
20
0
0
TEXT
8
LABEL_INFO
10
-0.5333993333
20
-0.5334
40
0.889
1
0 162000000 0 0 0 1
50
90
41
0.75
7
W0$127
0
TEXT
8
LABEL_ATTRIBUTE
10
-0.5333993333
20
-0.5334
40
0.889
1
Ref.Des.
50
90
41
0.75
7
W0$127
0
TEXT
8
PART_NAME_126
10
-0.5333993333
20
-0.5334
40
0.889
1
C8
50
90
41
0.75
7
W0$127
0
TEXT
8
LABEL_INFO
10
-1.70434
20
0.483362
40
0.7112
1
0 0 0 2 0 1
73
2
11
-1.70434
21
0.483362
41
0.75
7
W0$1016
0
TEXT
8
LABEL_ATTRIBUTE
10
-1.70434
20
0.483362
40
0.7112
1
Value
73
2
11
-1.70434
21
0.483362
41
0.75
7
W0$1016
0
TEXT
8
ATTRIBUTE_01
10
-1.70434
20
0.483362
40
0.7112
1
10uF
73
3
11
-1.70434
21
0.483362
41
0.75
7
W0$1016
0
TEXT
8
PART_TYPE_TOP
10
-1.70434
20
-0.532638
40
0.7112
1
CAPACITOR_0_6
73
3
11
-1.70434
21
-0.532638
41
0.75
7
W0$1016
0
TEXT
8
PART_INFO
10
-1.70434
20
-1.548638
40
0.7112
1
000100
73
3
11
-1.70434
21
-1.548638
41
0.75
7
W0$1016
0
TEXT
8
PART_PTS
10
-1.70434
20
-2.564638
40
0.7112
1
1 2 
73
3
11
-1.70434
21
-2.564638
41
0.75
7
W0$1016
0
ENDBLK
0
BLOCK
2
PART_TOP_21
8
0
10
0
20
0
3
PART_TOP_21
70
64
0
INSERT
2
SYM_TOP_12
8
0
10
0
20
0
0
INSERT
2
PKG_3
8
0
10
0
20
0
0
TEXT
8
LABEL_INFO
10
0.5842
20
0.5334
40
0.889
1
0 486000000 0 0 0 1
50
270
41
0.75
7
W0$127
0
TEXT
8
LABEL_ATTRIBUTE
10
0.5842
20
0.5334
40
0.889
1
Ref.Des.
50
270
41
0.75
7
W0$127
0
TEXT
8
PART_NAME_126
10
0.5842
20
0.5334
40
0.889
1
C9
50
270
41
0.75
7
W0$127
0
TEXT
8
LABEL_INFO
10
-1.70434
20
0.483362
40
0.7112
1
0 0 0 2 0 1
73
2
11
-1.70434
21
0.483362
41
0.75
7
W0$1016
0
TEXT
8
LABEL_ATTRIBUTE
10
-1.70434
20
0.483362
40
0.7112
1
Value
73
2
11
-1.70434
21
0.483362
41
0.75
7
W0$1016
0
TEXT
8
ATTRIBUTE_01
10
-1.70434
20
0.483362
40
0.7112
1
10uF
73
3
11
-1.70434
21
0.483362
41
0.75
7
W0$1016
0
TEXT
8
PART_TYPE_TOP
10
-1.70434
20
-0.532638
40
0.7112
1
CAPACITOR_0_6
73
3
11
-1.70434
21
-0.532638
41
0.75
7
W0$1016
0
TEXT
8
PART_INFO
10
-1.70434
20
-1.548638
40
0.7112
1
000100
73
3
11
-1.70434
21
-1.548638
41
0.75
7
W0$1016
0
TEXT
8
PART_PTS
10
-1.70434
20
-2.564638
40
0.7112
1
1 2 
73
3
11
-1.70434
21
-2.564638
41
0.75
7
W0$1016
0
ENDBLK
0
BLOCK
2
PART_TOP_22
8
0
10
0
20
0
3
PART_TOP_22
70
64
0
INSERT
2
SYM_TOP_14
8
0
10
0
20
0
0
INSERT
2
PKG_6
8
0
10
0
20
0
0
TEXT
8
LABEL_INFO
10
0.8889993333
20
1.9558
40
0.889
1
0 486000000 0 0 0 1
50
270
41
0.75
7
W0$127
0
TEXT
8
LABEL_ATTRIBUTE
10
0.8889993333
20
1.9558
40
0.889
1
Ref.Des.
50
270
41
0.75
7
W0$127
0
TEXT
8
PART_NAME_126
10
0.8889993333
20
1.9558
40
0.889
1
U29
50
270
41
0.75
7
W0$127
0
TEXT
8
LABEL_INFO
10
2.0305
20
0.7550106667
40
0.889
1
0 0 0 2 0 1
73
2
11
2.0305
21
0.7550106667
41
0.75
7
W0$5
0
TEXT
8
LABEL_ATTRIBUTE
10
2.0305
20
0.7550106667
40
0.889
1
PartType
73
2
11
2.0305
21
0.7550106667
41
0.75
7
W0$5
0
TEXT
8
PART_TYPE_01
10
2.0305
20
0.7550106667
40
0.889
1
RT9293B_0
73
3
11
2.0305
21
0.7550106667
41
0.75
7
W0$5
0
TEXT
8
PART_INFO
10
2.0305
20
-0.5149893333
40
0.889
1
000000
73
3
11
2.0305
21
-0.5149893333
41
0.75
7
W0$5
0
TEXT
8
PART_PTS
10
2.0305
20
-1.7849893333
40
0.889
1
1 2 3 4 5 
73
3
11
2.0305
21
-1.7849893333
41
0.75
7
W0$5
0
ENDBLK
0
BLOCK
2
PART_TOP_23
8
0
10
0
20
0
3
PART_TOP_23
70
64
0
INSERT
2
SYM_TOP_15
8
0
10
0
20
0
0
INSERT
2
PKG_1
8
0
10
0
20
0
0
TEXT
8
LABEL_INFO
10
0
20
0
40
0.889
1
0 0 0 2 0 1
73
2
11
0
21
0
41
0.75
7
W0$127
0
TEXT
8
LABEL_ATTRIBUTE
10
0
20
0
40
0.889
1
PartType
73
2
11
0
21
0
41
0.75
7
W0$127
0
TEXT
8
PART_TYPE_01
10
0
20
0
40
0.889
1
CAP_NP_2
73
3
11
0
21
0
41
0.75
7
W0$127
0
TEXT
8
LABEL_INFO
10
0.2286
20
-0.4826
40
0.889
1
0 0 0 0 0 1
41
0.75
7
W0$127
0
TEXT
8
LABEL_ATTRIBUTE
10
0.2286
20
-0.4826
40
0.889
1
Ref.Des.
41
0.75
7
W0$127
0
TEXT
8
PART_NAME_126
10
0.2286
20
-0.4826
40
0.889
1
C2
41
0.75
7
W0$127
0
TEXT
8
PART_INFO
10
0.2286
20
-1.7526
40
0.889
1
000100
41
0.75
7
W0$127
0
TEXT
8
PART_PTS
10
0.2286
20
-3.0226
40
0.889
1
1 2 
41
0.75
7
W0$127
0
ENDBLK
0
BLOCK
2
PART_TOP_24
8
0
10
0
20
0
3
PART_TOP_24
70
64
0
INSERT
2
SYM_TOP_15
8
0
10
0
20
0
0
INSERT
2
PKG_1
8
0
10
0
20
0
0
TEXT
8
LABEL_INFO
10
1.2192
20
0.4826
40
0.889
1
0 324000000 0 0 0 1
50
180
41
0.75
7
W0$127
0
TEXT
8
LABEL_ATTRIBUTE
10
1.2192
20
0.4826
40
0.889
1
Ref.Des.
50
180
41
0.75
7
W0$127
0
TEXT
8
PART_NAME_126
10
1.2192
20
0.4826
40
0.889
1
C4
50
180
41
0.75
7
W0$127
0
TEXT
8
LABEL_INFO
10
-1.1731746667
20
2.0614126667
40
0.6223
1
0 0 0 0 0 0
41
0.75
7
W0$127
0
TEXT
8
LABEL_ATTRIBUTE
10
-1.1731746667
20
2.0614126667
40
0.6223
1
Comment
41
0.75
7
W0$127
0
TEXT
8
ATTRIBUTE_126
10
-1.1731746667
20
2.0614126667
40
0.6223
1
 
41
0.75
7
W0$127
0
TEXT
8
PART_TYPE_TOP
10
-1.1731746667
20
1.1724126667
40
0.6223
1
CAP_NP_2
41
0.75
7
W0$127
0
TEXT
8
PART_INFO
10
-1.1731746667
20
0.2834126667
40
0.6223
1
000100
41
0.75
7
W0$127
0
TEXT
8
PART_PTS
10
-1.1731746667
20
-0.6055873333
40
0.6223
1
1 2 
41
0.75
7
W0$127
0
ENDBLK
0
BLOCK
2
PART_TOP_25
8
0
10
0
20
0
3
PART_TOP_25
70
64
0
INSERT
2
SYM_TOP_15
8
0
10
0
20
0
0
INSERT
2
PKG_1
8
0
10
0
20
0
0
TEXT
8
LABEL_INFO
10
0.2794
20
-0.4826
40
0.889
1
0 0 0 0 0 1
41
0.75
7
W0$127
0
TEXT
8
LABEL_ATTRIBUTE
10
0.2794
20
-0.4826
40
0.889
1
Ref.Des.
41
0.75
7
W0$127
0
TEXT
8
PART_NAME_126
10
0.2794
20
-0.4826
40
0.889
1
C6
41
0.75
7
W0$127
0
TEXT
8
LABEL_INFO
10
-1.1732
20
-2.0613873333
40
0.6223
1
0 324000000 0 0 0 0
50
180
41
0.75
7
W0$127
0
TEXT
8
LABEL_ATTRIBUTE
10
-1.1732
20
-2.0613873333
40
0.6223
1
Comment
50
180
41
0.75
7
W0$127
0
TEXT
8
ATTRIBUTE_126
10
-1.1732
20
-2.0613873333
40
0.6223
1
 
50
180
41
0.75
7
W0$127
0
TEXT
8
PART_TYPE_TOP
10
-1.1732
20
-2.9503873333
40
0.6223
1
CAP_NP_2
50
180
41
0.75
7
W0$127
0
TEXT
8
PART_INFO
10
-1.1732
20
-3.8393873333
40
0.6223
1
000100
50
180
41
0.75
7
W0$127
0
TEXT
8
PART_PTS
10
-1.1732
20
-4.7283873333
40
0.6223
1
1 2 
50
180
41
0.75
7
W0$127
0
ENDBLK
0
BLOCK
2
PART_TOP_26
8
0
10
0
20
0
3
PART_TOP_26
70
64
0
INSERT
2
SYM_TOP_15
8
0
10
0
20
0
0
INSERT
2
PKG_1
8
0
10
0
20
0
0
TEXT
8
LABEL_INFO
10
0
20
0
40
0.889
1
0 0 0 2 0 1
73
2
11
0
21
0
41
0.75
7
W0$127
0
TEXT
8
LABEL_ATTRIBUTE
10
0
20
0
40
0.889
1
PartType
73
2
11
0
21
0
41
0.75
7
W0$127
0
TEXT
8
PART_TYPE_01
10
0
20
0
40
0.889
1
CAP_NP_2
73
3
11
0
21
0
41
0.75
7
W0$127
0
TEXT
8
LABEL_INFO
10
0.3302
20
-0.508
40
0.889
1
0 0 0 0 0 1
41
0.75
7
W0$127
0
TEXT
8
LABEL_ATTRIBUTE
10
0.3302
20
-0.508
40
0.889
1
Ref.Des.
41
0.75
7
W0$127
0
TEXT
8
PART_NAME_126
10
0.3302
20
-0.508
40
0.889
1
C7
41
0.75
7
W0$127
0
TEXT
8
PART_INFO
10
0.3302
20
-1.778
40
0.889
1
000100
41
0.75
7
W0$127
0
TEXT
8
PART_PTS
10
0.3302
20
-3.048
40
0.889
1
1 2 
41
0.75
7
W0$127
0
ENDBLK
0
BLOCK
2
PART_TOP_27
8
0
10
0
20
0
3
PART_TOP_27
70
64
0
INSERT
2
SYM_TOP_11
8
0
10
0
20
0
0
INSERT
2
PKG_2
8
0
10
0
20
0
0
TEXT
8
LABEL_INFO
10
1.143
20
0.4318
40
0.889
1
0 324000000 0 0 0 1
50
180
41
0.75
7
W0$127
0
TEXT
8
LABEL_ATTRIBUTE
10
1.143
20
0.4318
40
0.889
1
Ref.Des.
50
180
41
0.75
7
W0$127
0
TEXT
8
PART_NAME_126
10
1.143
20
0.4318
40
0.889
1
R2
50
180
41
0.75
7
W0$127
0
TEXT
8
LABEL_INFO
10
-1.1731746667
20
2.0614126667
40
0.6223
1
0 0 0 0 0 0
41
0.75
7
W0$127
0
TEXT
8
LABEL_ATTRIBUTE
10
-1.1731746667
20
2.0614126667
40
0.6223
1
Comment
41
0.75
7
W0$127
0
TEXT
8
ATTRIBUTE_126
10
-1.1731746667
20
2.0614126667
40
0.6223
1
 
41
0.75
7
W0$127
0
TEXT
8
PART_TYPE_TOP
10
-1.1731746667
20
1.1724126667
40
0.6223
1
R_5
41
0.75
7
W0$127
0
TEXT
8
PART_INFO
10
-1.1731746667
20
0.2834126667
40
0.6223
1
000001
41
0.75
7
W0$127
0
TEXT
8
PART_PTS
10
-1.1731746667
20
-0.6055873333
40
0.6223
1
1 2 
41
0.75
7
W0$127
0
ENDBLK
0
BLOCK
2
PART_TOP_28
8
0
10
0
20
0
3
PART_TOP_28
70
64
0
INSERT
2
SYM_TOP_11
8
0
10
0
20
0
0
INSERT
2
PKG_2
8
0
10
0
20
0
0
TEXT
8
LABEL_INFO
10
0.381
20
-0.4826
40
0.889
1
0 0 0 0 0 1
41
0.75
7
W0$127
0
TEXT
8
LABEL_ATTRIBUTE
10
0.381
20
-0.4826
40
0.889
1
Ref.Des.
41
0.75
7
W0$127
0
TEXT
8
PART_NAME_126
10
0.381
20
-0.4826
40
0.889
1
R1
41
0.75
7
W0$127
0
TEXT
8
LABEL_INFO
10
-1.524
20
1.2700253333
40
0.6223
1
0 0 0 0 0 0
41
0.75
7
W0$127
0
TEXT
8
LABEL_ATTRIBUTE
10
-1.524
20
1.2700253333
40
0.6223
1
Comment
41
0.75
7
W0$127
0
TEXT
8
ATTRIBUTE_126
10
-1.524
20
1.2700253333
40
0.6223
1
 
41
0.75
7
W0$127
0
TEXT
8
PART_TYPE_TOP
10
-1.524
20
0.3810253333
40
0.6223
1
R_5
41
0.75
7
W0$127
0
TEXT
8
PART_INFO
10
-1.524
20
-0.5079746667
40
0.6223
1
000001
41
0.75
7
W0$127
0
TEXT
8
PART_PTS
10
-1.524
20
-1.3969746667
40
0.6223
1
1 2 
41
0.75
7
W0$127
0
ENDBLK
0
BLOCK
2
PART_TOP_29
8
0
10
0
20
0
3
PART_TOP_29
70
64
0
INSERT
2
SYM_TOP_15
8
0
10
0
20
0
0
INSERT
2
PKG_3
8
0
10
0
20
0
0
TEXT
8
LABEL_INFO
10
0
20
0
40
0.889
1
0 0 0 2 0 1
73
2
11
0
21
0
41
0.75
7
W0$127
0
TEXT
8
LABEL_ATTRIBUTE
10
0
20
0
40
0.889
1
PartType
73
2
11
0
21
0
41
0.75
7
W0$127
0
TEXT
8
PART_TYPE_01
10
0
20
0
40
0.889
1
CAPACITOR_0_6
73
3
11
0
21
0
41
0.75
7
W0$127
0
TEXT
8
LABEL_INFO
10
1.524
20
0.4318
40
0.889
1
0 324000000 0 0 0 1
50
180
41
0.75
7
W0$127
0
TEXT
8
LABEL_ATTRIBUTE
10
1.524
20
0.4318
40
0.889
1
Ref.Des.
50
180
41
0.75
7
W0$127
0
TEXT
8
PART_NAME_01
10
1.524
20
0.4318
40
0.889
1
C10
50
180
41
0.75
7
W0$127
0
TEXT
8
PART_INFO
10
1.524
20
-0.8382
40
0.889
1
000100
50
180
41
0.75
7
W0$127
0
TEXT
8
PART_PTS
10
1.524
20
-2.1082
40
0.889
1
1 2 
50
180
41
0.75
7
W0$127
0
ENDBLK
0
BLOCK
2
PART_TOP_30
8
0
10
0
20
0
3
PART_TOP_30
70
64
0
INSERT
2
SYM_TOP_15
8
0
10
0
20
0
0
INSERT
2
PKG_3
8
0
10
0
20
0
0
TEXT
8
LABEL_INFO
10
0
20
0
40
0.889
1
0 0 0 2 0 1
73
2
11
0
21
0
41
0.75
7
W0$127
0
TEXT
8
LABEL_ATTRIBUTE
10
0
20
0
40
0.889
1
PartType
73
2
11
0
21
0
41
0.75
7
W0$127
0
TEXT
8
PART_TYPE_01
10
0
20
0
40
0.889
1
CAPACITOR_0_6
73
3
11
0
21
0
41
0.75
7
W0$127
0
TEXT
8
LABEL_INFO
10
1.524
20
0.4064
40
0.889
1
0 324000000 0 0 0 1
50
180
41
0.75
7
W0$127
0
TEXT
8
LABEL_ATTRIBUTE
10
1.524
20
0.4064
40
0.889
1
Ref.Des.
50
180
41
0.75
7
W0$127
0
TEXT
8
PART_NAME_01
10
1.524
20
0.4064
40
0.889
1
C12
50
180
41
0.75
7
W0$127
0
TEXT
8
PART_INFO
10
1.524
20
-0.8636
40
0.889
1
000100
50
180
41
0.75
7
W0$127
0
TEXT
8
PART_PTS
10
1.524
20
-2.1336
40
0.889
1
1 2 
50
180
41
0.75
7
W0$127
0
ENDBLK
0
BLOCK
2
PART_TOP_31
8
0
10
0
20
0
3
PART_TOP_31
70
64
0
INSERT
2
SYM_TOP_15
8
0
10
0
20
0
0
INSERT
2
PKG_3
8
0
10
0
20
0
0
TEXT
8
LABEL_INFO
10
0
20
0
40
0.889
1
0 0 0 2 0 1
73
2
11
0
21
0
41
0.75
7
W0$127
0
TEXT
8
LABEL_ATTRIBUTE
10
0
20
0
40
0.889
1
PartType
73
2
11
0
21
0
41
0.75
7
W0$127
0
TEXT
8
PART_TYPE_01
10
0
20
0
40
0.889
1
CAPACITOR_0_6
73
3
11
0
21
0
41
0.75
7
W0$127
0
TEXT
8
LABEL_INFO
10
1.5748
20
0.4318
40
0.889
1
0 324000000 0 0 0 1
50
180
41
0.75
7
W0$127
0
TEXT
8
LABEL_ATTRIBUTE
10
1.5748
20
0.4318
40
0.889
1
Ref.Des.
50
180
41
0.75
7
W0$127
0
TEXT
8
PART_NAME_01
10
1.5748
20
0.4318
40
0.889
1
C47
50
180
41
0.75
7
W0$127
0
TEXT
8
PART_INFO
10
1.5748
20
-0.8382
40
0.889
1
000100
50
180
41
0.75
7
W0$127
0
TEXT
8
PART_PTS
10
1.5748
20
-2.1082
40
0.889
1
1 2 
50
180
41
0.75
7
W0$127
0
ENDBLK
0
BLOCK
2
PART_TOP_32
8
0
10
0
20
0
3
PART_TOP_32
70
64
0
INSERT
2
SYM_TOP_15
8
0
10
0
20
0
0
INSERT
2
PKG_4
8
0
10
0
20
0
0
TEXT
8
LABEL_INFO
10
0.1016
20
-0.3556
40
0.889
1
0 0 0 0 0 1
41
0.75
7
W0$127
0
TEXT
8
LABEL_ATTRIBUTE
10
0.1016
20
-0.3556
40
0.889
1
Ref.Des.
41
0.75
7
W0$127
0
TEXT
8
PART_NAME_01
10
0.1016
20
-0.3556
40
0.889
1
C11
41
0.75
7
W0$127
0
TEXT
8
LABEL_INFO
10
0
20
0
40
0.889
1
0 0 0 2 0 1
73
2
11
0
21
0
41
0.75
7
W0$127
0
TEXT
8
LABEL_ATTRIBUTE
10
0
20
0
40
0.889
1
PartType
73
2
11
0
21
0
41
0.75
7
W0$127
0
TEXT
8
PART_TYPE_01
10
0
20
0
40
0.889
1
CAPACITOR_1
73
3
11
0
21
0
41
0.75
7
W0$127
0
TEXT
8
PART_INFO
10
0
20
-1.27
40
0.889
1
000100
73
3
11
0
21
-1.27
41
0.75
7
W0$127
0
TEXT
8
PART_PTS
10
0
20
-2.54
40
0.889
1
1 2 
73
3
11
0
21
-2.54
41
0.75
7
W0$127
0
ENDBLK
0
BLOCK
2
PART_TOP_33
8
0
10
0
20
0
3
PART_TOP_33
70
64
0
INSERT
2
SYM_TOP_15
8
0
10
0
20
0
0
INSERT
2
PKG_4
8
0
10
0
20
0
0
TEXT
8
LABEL_INFO
10
0
20
0
40
0.889
1
0 0 0 2 0 1
73
2
11
0
21
0
41
0.75
7
W0$127
0
TEXT
8
LABEL_ATTRIBUTE
10
0
20
0
40
0.889
1
PartType
73
2
11
0
21
0
41
0.75
7
W0$127
0
TEXT
8
PART_TYPE_01
10
0
20
0
40
0.889
1
CAPACITOR_1
73
3
11
0
21
0
41
0.75
7
W0$127
0
TEXT
8
LABEL_INFO
10
1.4224
20
0.4064
40
0.889
1
0 324000000 0 0 0 1
50
180
41
0.75
7
W0$127
0
TEXT
8
LABEL_ATTRIBUTE
10
1.4224
20
0.4064
40
0.889
1
Ref.Des.
50
180
41
0.75
7
W0$127
0
TEXT
8
PART_NAME_126
10
1.4224
20
0.4064
40
0.889
1
C13
50
180
41
0.75
7
W0$127
0
TEXT
8
PART_INFO
10
1.4224
20
-0.8636
40
0.889
1
000100
50
180
41
0.75
7
W0$127
0
TEXT
8
PART_PTS
10
1.4224
20
-2.1336
40
0.889
1
1 2 
50
180
41
0.75
7
W0$127
0
ENDBLK
0
BLOCK
2
PART_TOP_34
8
0
10
0
20
0
3
PART_TOP_34
70
64
0
INSERT
2
SYM_TOP_15
8
0
10
0
20
0
0
INSERT
2
PKG_4
8
0
10
0
20
0
0
TEXT
8
LABEL_INFO
10
0
20
0
40
0.889
1
0 0 0 2 0 1
73
2
11
0
21
0
41
0.75
7
W0$127
0
TEXT
8
LABEL_ATTRIBUTE
10
0
20
0
40
0.889
1
PartType
73
2
11
0
21
0
41
0.75
7
W0$127
0
TEXT
8
PART_TYPE_01
10
0
20
0
40
0.889
1
CAPACITOR_1
73
3
11
0
21
0
41
0.75
7
W0$127
0
TEXT
8
LABEL_INFO
10
1.8034
20
0.4572
40
0.889
1
0 324000000 0 0 0 1
50
180
41
0.75
7
W0$127
0
TEXT
8
LABEL_ATTRIBUTE
10
1.8034
20
0.4572
40
0.889
1
Ref.Des.
50
180
41
0.75
7
W0$127
0
TEXT
8
PART_NAME_126
10
1.8034
20
0.4572
40
0.889
1
C165
50
180
41
0.75
7
W0$127
0
TEXT
8
PART_INFO
10
1.8034
20
-0.8128
40
0.889
1
000100
50
180
41
0.75
7
W0$127
0
TEXT
8
PART_PTS
10
1.8034
20
-2.0828
40
0.889
1
1 2 
50
180
41
0.75
7
W0$127
0
ENDBLK
0
BLOCK
2
PART_TOP_35
8
0
10
0
20
0
3
PART_TOP_35
70
64
0
INSERT
2
SYM_TOP_11
8
0
10
0
20
0
0
INSERT
2
PKG_2
8
0
10
0
20
0
0
TEXT
8
LABEL_INFO
10
0.127
20
-0.4318
40
0.889
1
0 0 0 0 0 1
41
0.75
7
W0$127
0
TEXT
8
LABEL_ATTRIBUTE
10
0.127
20
-0.4318
40
0.889
1
Ref.Des.
41
0.75
7
W0$127
0
TEXT
8
PART_NAME_126
10
0.127
20
-0.4318
40
0.889
1
R10
41
0.75
7
W0$127
0
TEXT
8
LABEL_INFO
10
0
20
0
40
0.889
1
0 0 0 2 0 1
73
2
11
0
21
0
41
0.75
7
W0$127
0
TEXT
8
LABEL_ATTRIBUTE
10
0
20
0
40
0.889
1
PartType
73
2
11
0
21
0
41
0.75
7
W0$127
0
TEXT
8
PART_TYPE_01
10
0
20
0
40
0.889
1
R_5
73
3
11
0
21
0
41
0.75
7
W0$127
0
TEXT
8
PART_INFO
10
0
20
-1.27
40
0.889
1
000001
73
3
11
0
21
-1.27
41
0.75
7
W0$127
0
TEXT
8
PART_PTS
10
0
20
-2.54
40
0.889
1
1 2 
73
3
11
0
21
-2.54
41
0.75
7
W0$127
0
ENDBLK
0
BLOCK
2
PART_TOP_36
8
0
10
0
20
0
3
PART_TOP_36
70
64
0
INSERT
2
SYM_TOP_11
8
0
10
0
20
0
0
INSERT
2
PKG_2
8
0
10
0
20
0
0
TEXT
8
LABEL_INFO
10
0.1016
20
-0.2794
40
0.889
1
0 0 0 0 0 1
41
0.75
7
W0$127
0
TEXT
8
LABEL_ATTRIBUTE
10
0.1016
20
-0.2794
40
0.889
1
Ref.Des.
41
0.75
7
W0$127
0
TEXT
8
PART_NAME_126
10
0.1016
20
-0.2794
40
0.889
1
R11
41
0.75
7
W0$127
0
TEXT
8
LABEL_INFO
10
0
20
0
40
0.889
1
0 0 0 2 0 1
73
2
11
0
21
0
41
0.75
7
W0$127
0
TEXT
8
LABEL_ATTRIBUTE
10
0
20
0
40
0.889
1
PartType
73
2
11
0
21
0
41
0.75
7
W0$127
0
TEXT
8
PART_TYPE_01
10
0
20
0
40
0.889
1
R_5
73
3
11
0
21
0
41
0.75
7
W0$127
0
TEXT
8
PART_INFO
10
0
20
-1.27
40
0.889
1
000001
73
3
11
0
21
-1.27
41
0.75
7
W0$127
0
TEXT
8
PART_PTS
10
0
20
-2.54
40
0.889
1
1 2 
73
3
11
0
21
-2.54
41
0.75
7
W0$127
0
ENDBLK
0
BLOCK
2
PART_TOP_37
8
0
10
0
20
0
3
PART_TOP_37
70
64
0
INSERT
2
SYM_TOP_11
8
0
10
0
20
0
0
INSERT
2
PKG_2
8
0
10
0
20
0
0
TEXT
8
LABEL_INFO
10
1.3208
20
0.381
40
0.889
1
0 324000000 0 0 0 1
50
180
41
0.75
7
W0$127
0
TEXT
8
LABEL_ATTRIBUTE
10
1.3208
20
0.381
40
0.889
1
Ref.Des.
50
180
41
0.75
7
W0$127
0
TEXT
8
PART_NAME_01
10
1.3208
20
0.381
40
0.889
1
R3
50
180
41
0.75
7
W0$127
0
TEXT
8
LABEL_INFO
10
0
20
0
40
0.889
1
0 0 0 2 0 1
73
2
11
0
21
0
41
0.75
7
W0$127
0
TEXT
8
LABEL_ATTRIBUTE
10
0
20
0
40
0.889
1
PartType
73
2
11
0
21
0
41
0.75
7
W0$127
0
TEXT
8
PART_TYPE_01
10
0
20
0
40
0.889
1
R_5
73
3
11
0
21
0
41
0.75
7
W0$127
0
TEXT
8
PART_INFO
10
0
20
-1.27
40
0.889
1
000001
73
3
11
0
21
-1.27
41
0.75
7
W0$127
0
TEXT
8
PART_PTS
10
0
20
-2.54
40
0.889
1
1 2 
73
3
11
0
21
-2.54
41
0.75
7
W0$127
0
ENDBLK
0
BLOCK
2
PART_TOP_38
8
0
10
0
20
0
3
PART_TOP_38
70
64
0
INSERT
2
SYM_TOP_11
8
0
10
0
20
0
0
INSERT
2
PKG_2
8
0
10
0
20
0
0
TEXT
8
LABEL_INFO
10
0.381
20
-0.381
40
0.889
1
0 0 0 0 0 1
41
0.75
7
W0$127
0
TEXT
8
LABEL_ATTRIBUTE
10
0.381
20
-0.381
40
0.889
1
Ref.Des.
41
0.75
7
W0$127
0
TEXT
8
PART_NAME_01
10
0.381
20
-0.381
40
0.889
1
R4
41
0.75
7
W0$127
0
TEXT
8
LABEL_INFO
10
0
20
0
40
0.889
1
0 0 0 2 0 1
73
2
11
0
21
0
41
0.75
7
W0$127
0
TEXT
8
LABEL_ATTRIBUTE
10
0
20
0
40
0.889
1
PartType
73
2
11
0
21
0
41
0.75
7
W0$127
0
TEXT
8
PART_TYPE_01
10
0
20
0
40
0.889
1
R_5
73
3
11
0
21
0
41
0.75
7
W0$127
0
TEXT
8
PART_INFO
10
0
20
-1.27
40
0.889
1
000001
73
3
11
0
21
-1.27
41
0.75
7
W0$127
0
TEXT
8
PART_PTS
10
0
20
-2.54
40
0.889
1
1 2 
73
3
11
0
21
-2.54
41
0.75
7
W0$127
0
ENDBLK
0
BLOCK
2
PART_TOP_39
8
0
10
0
20
0
3
PART_TOP_39
70
64
0
INSERT
2
SYM_TOP_11
8
0
10
0
20
0
0
INSERT
2
PKG_2
8
0
10
0
20
0
0
TEXT
8
LABEL_INFO
10
1.2192
20
-0.5587993333
40
0.889
1
0 162000000 0 0 0 1
50
90
41
0.75
7
W0$127
0
TEXT
8
LABEL_ATTRIBUTE
10
1.2192
20
-0.5587993333
40
0.889
1
Ref.Des.
50
90
41
0.75
7
W0$127
0
TEXT
8
PART_NAME_126
10
1.2192
20
-0.5587993333
40
0.889
1
R5
50
90
41
0.75
7
W0$127
0
TEXT
8
LABEL_INFO
10
0
20
0
40
0.889
1
0 0 0 2 0 1
73
2
11
0
21
0
41
0.75
7
W0$127
0
TEXT
8
LABEL_ATTRIBUTE
10
0
20
0
40
0.889
1
PartType
73
2
11
0
21
0
41
0.75
7
W0$127
0
TEXT
8
PART_TYPE_01
10
0
20
0
40
0.889
1
R_5
73
3
11
0
21
0
41
0.75
7
W0$127
0
TEXT
8
PART_INFO
10
0
20
-1.27
40
0.889
1
000001
73
3
11
0
21
-1.27
41
0.75
7
W0$127
0
TEXT
8
PART_PTS
10
0
20
-2.54
40
0.889
1
1 2 
73
3
11
0
21
-2.54
41
0.75
7
W0$127
0
ENDBLK
0
BLOCK
2
PART_TOP_40
8
0
10
0
20
0
3
PART_TOP_40
70
64
0
INSERT
2
SYM_TOP_11
8
0
10
0
20
0
0
INSERT
2
PKG_2
8
0
10
0
20
0
0
TEXT
8
LABEL_INFO
10
1.6002
20
0.3556
40
0.889
1
0 324000000 0 0 0 1
50
180
41
0.75
7
W0$127
0
TEXT
8
LABEL_ATTRIBUTE
10
1.6002
20
0.3556
40
0.889
1
Ref.Des.
50
180
41
0.75
7
W0$127
0
TEXT
8
PART_NAME_126
10
1.6002
20
0.3556
40
0.889
1
R59
50
180
41
0.75
7
W0$127
0
TEXT
8
LABEL_INFO
10
0
20
0
40
0.889
1
0 0 0 2 0 1
73
2
11
0
21
0
41
0.75
7
W0$127
0
TEXT
8
LABEL_ATTRIBUTE
10
0
20
0
40
0.889
1
PartType
73
2
11
0
21
0
41
0.75
7
W0$127
0
TEXT
8
PART_TYPE_01
10
0
20
0
40
0.889
1
R_5
73
3
11
0
21
0
41
0.75
7
W0$127
0
TEXT
8
PART_INFO
10
0
20
-1.27
40
0.889
1
000001
73
3
11
0
21
-1.27
41
0.75
7
W0$127
0
TEXT
8
PART_PTS
10
0
20
-2.54
40
0.889
1
1 2 
73
3
11
0
21
-2.54
41
0.75
7
W0$127
0
ENDBLK
0
BLOCK
2
PART_TOP_41
8
0
10
0
20
0
3
PART_TOP_41
70
64
0
INSERT
2
SYM_TOP_11
8
0
10
0
20
0
0
INSERT
2
PKG_2
8
0
10
0
20
0
0
TEXT
8
LABEL_INFO
10
0.381
20
0.5334
40
0.889
1
0 486000000 0 0 0 1
50
270
41
0.75
7
W0$127
0
TEXT
8
LABEL_ATTRIBUTE
10
0.381
20
0.5334
40
0.889
1
Ref.Des.
50
270
41
0.75
7
W0$127
0
TEXT
8
PART_NAME_126
10
0.381
20
0.5334
40
0.889
1
R6
50
270
41
0.75
7
W0$127
0
TEXT
8
LABEL_INFO
10
0
20
0
40
0.889
1
0 0 0 2 0 1
73
2
11
0
21
0
41
0.75
7
W0$127
0
TEXT
8
LABEL_ATTRIBUTE
10
0
20
0
40
0.889
1
PartType
73
2
11
0
21
0
41
0.75
7
W0$127
0
TEXT
8
PART_TYPE_01
10
0
20
0
40
0.889
1
R_5
73
3
11
0
21
0
41
0.75
7
W0$127
0
TEXT
8
PART_INFO
10
0
20
-1.27
40
0.889
1
000001
73
3
11
0
21
-1.27
41
0.75
7
W0$127
0
TEXT
8
PART_PTS
10
0
20
-2.54
40
0.889
1
1 2 
73
3
11
0
21
-2.54
41
0.75
7
W0$127
0
ENDBLK
0
BLOCK
2
PART_TOP_42
8
0
10
0
20
0
3
PART_TOP_42
70
64
0
INSERT
2
SYM_TOP_11
8
0
10
0
20
0
0
INSERT
2
PKG_2
8
0
10
0
20
0
0
TEXT
8
LABEL_INFO
10
1.651
20
0.381
40
0.889
1
0 324000000 0 0 0 1
50
180
41
0.75
7
W0$127
0
TEXT
8
LABEL_ATTRIBUTE
10
1.651
20
0.381
40
0.889
1
Ref.Des.
50
180
41
0.75
7
W0$127
0
TEXT
8
PART_NAME_126
10
1.651
20
0.381
40
0.889
1
R60
50
180
41
0.75
7
W0$127
0
TEXT
8
LABEL_INFO
10
0
20
0
40
0.889
1
0 0 0 2 0 1
73
2
11
0
21
0
41
0.75
7
W0$127
0
TEXT
8
LABEL_ATTRIBUTE
10
0
20
0
40
0.889
1
PartType
73
2
11
0
21
0
41
0.75
7
W0$127
0
TEXT
8
PART_TYPE_01
10
0
20
0
40
0.889
1
R_5
73
3
11
0
21
0
41
0.75
7
W0$127
0
TEXT
8
PART_INFO
10
0
20
-1.27
40
0.889
1
000001
73
3
11
0
21
-1.27
41
0.75
7
W0$127
0
TEXT
8
PART_PTS
10
0
20
-2.54
40
0.889
1
1 2 
73
3
11
0
21
-2.54
41
0.75
7
W0$127
0
ENDBLK
0
BLOCK
2
PART_TOP_43
8
0
10
0
20
0
3
PART_TOP_43
70
64
0
INSERT
2
SYM_TOP_11
8
0
10
0
20
0
0
INSERT
2
PKG_2
8
0
10
0
20
0
0
TEXT
8
LABEL_INFO
10
1.6256
20
0.4318
40
0.889
1
0 324000000 0 0 0 1
50
180
41
0.75
7
W0$127
0
TEXT
8
LABEL_ATTRIBUTE
10
1.6256
20
0.4318
40
0.889
1
Ref.Des.
50
180
41
0.75
7
W0$127
0
TEXT
8
PART_NAME_126
10
1.6256
20
0.4318
40
0.889
1
R61
50
180
41
0.75
7
W0$127
0
TEXT
8
LABEL_INFO
10
0
20
0
40
0.889
1
0 0 0 2 0 1
73
2
11
0
21
0
41
0.75
7
W0$127
0
TEXT
8
LABEL_ATTRIBUTE
10
0
20
0
40
0.889
1
PartType
73
2
11
0
21
0
41
0.75
7
W0$127
0
TEXT
8
PART_TYPE_01
10
0
20
0
40
0.889
1
R_5
73
3
11
0
21
0
41
0.75
7
W0$127
0
TEXT
8
PART_INFO
10
0
20
-1.27
40
0.889
1
000001
73
3
11
0
21
-1.27
41
0.75
7
W0$127
0
TEXT
8
PART_PTS
10
0
20
-2.54
40
0.889
1
1 2 
73
3
11
0
21
-2.54
41
0.75
7
W0$127
0
ENDBLK
0
BLOCK
2
PART_TOP_44
8
0
10
0
20
0
3
PART_TOP_44
70
64
0
INSERT
2
SYM_TOP_11
8
0
10
0
20
0
0
INSERT
2
PKG_2
8
0
10
0
20
0
0
TEXT
8
LABEL_INFO
10
1.6256
20
0.4064
40
0.889
1
0 324000000 0 0 0 1
50
180
41
0.75
7
W0$127
0
TEXT
8
LABEL_ATTRIBUTE
10
1.6256
20
0.4064
40
0.889
1
Ref.Des.
50
180
41
0.75
7
W0$127
0
TEXT
8
PART_NAME_126
10
1.6256
20
0.4064
40
0.889
1
R62
50
180
41
0.75
7
W0$127
0
TEXT
8
LABEL_INFO
10
0
20
0
40
0.889
1
0 0 0 2 0 1
73
2
11
0
21
0
41
0.75
7
W0$127
0
TEXT
8
LABEL_ATTRIBUTE
10
0
20
0
40
0.889
1
PartType
73
2
11
0
21
0
41
0.75
7
W0$127
0
TEXT
8
PART_TYPE_01
10
0
20
0
40
0.889
1
R_5
73
3
11
0
21
0
41
0.75
7
W0$127
0
TEXT
8
PART_INFO
10
0
20
-1.27
40
0.889
1
000001
73
3
11
0
21
-1.27
41
0.75
7
W0$127
0
TEXT
8
PART_PTS
10
0
20
-2.54
40
0.889
1
1 2 
73
3
11
0
21
-2.54
41
0.75
7
W0$127
0
ENDBLK
0
BLOCK
2
PART_TOP_45
8
0
10
0
20
0
3
PART_TOP_45
70
64
0
INSERT
2
SYM_TOP_11
8
0
10
0
20
0
0
INSERT
2
PKG_2
8
0
10
0
20
0
0
TEXT
8
LABEL_INFO
10
1.651
20
0.4064
40
0.889
1
0 324000000 0 0 0 1
50
180
41
0.75
7
W0$127
0
TEXT
8
LABEL_ATTRIBUTE
10
1.651
20
0.4064
40
0.889
1
Ref.Des.
50
180
41
0.75
7
W0$127
0
TEXT
8
PART_NAME_126
10
1.651
20
0.4064
40
0.889
1
R63
50
180
41
0.75
7
W0$127
0
TEXT
8
LABEL_INFO
10
0
20
0
40
0.889
1
0 0 0 2 0 1
73
2
11
0
21
0
41
0.75
7
W0$127
0
TEXT
8
LABEL_ATTRIBUTE
10
0
20
0
40
0.889
1
PartType
73
2
11
0
21
0
41
0.75
7
W0$127
0
TEXT
8
PART_TYPE_01
10
0
20
0
40
0.889
1
R_5
73
3
11
0
21
0
41
0.75
7
W0$127
0
TEXT
8
PART_INFO
10
0
20
-1.27
40
0.889
1
000001
73
3
11
0
21
-1.27
41
0.75
7
W0$127
0
TEXT
8
PART_PTS
10
0
20
-2.54
40
0.889
1
1 2 
73
3
11
0
21
-2.54
41
0.75
7
W0$127
0
ENDBLK
0
BLOCK
2
PART_TOP_46
8
0
10
0
20
0
3
PART_TOP_46
70
64
0
INSERT
2
SYM_TOP_11
8
0
10
0
20
0
0
INSERT
2
PKG_2
8
0
10
0
20
0
0
TEXT
8
LABEL_INFO
10
1.2192
20
-0.5333993333
40
0.889
1
0 162000000 0 0 0 1
50
90
41
0.75
7
W0$127
0
TEXT
8
LABEL_ATTRIBUTE
10
1.2192
20
-0.5333993333
40
0.889
1
Ref.Des.
50
90
41
0.75
7
W0$127
0
TEXT
8
PART_NAME_126
10
1.2192
20
-0.5333993333
40
0.889
1
R7
50
90
41
0.75
7
W0$127
0
TEXT
8
LABEL_INFO
10
0
20
0
40
0.889
1
0 0 0 2 0 1
73
2
11
0
21
0
41
0.75
7
W0$127
0
TEXT
8
LABEL_ATTRIBUTE
10
0
20
0
40
0.889
1
PartType
73
2
11
0
21
0
41
0.75
7
W0$127
0
TEXT
8
PART_TYPE_01
10
0
20
0
40
0.889
1
R_5
73
3
11
0
21
0
41
0.75
7
W0$127
0
TEXT
8
PART_INFO
10
0
20
-1.27
40
0.889
1
000001
73
3
11
0
21
-1.27
41
0.75
7
W0$127
0
TEXT
8
PART_PTS
10
0
20
-2.54
40
0.889
1
1 2 
73
3
11
0
21
-2.54
41
0.75
7
W0$127
0
ENDBLK
0
BLOCK
2
PART_TOP_47
8
0
10
0
20
0
3
PART_TOP_47
70
64
0
INSERT
2
SYM_TOP_11
8
0
10
0
20
0
0
INSERT
2
PKG_2
8
0
10
0
20
0
0
TEXT
8
LABEL_INFO
10
0.4318
20
0.5588
40
0.889
1
0 486000000 0 0 0 1
50
270
41
0.75
7
W0$127
0
TEXT
8
LABEL_ATTRIBUTE
10
0.4318
20
0.5588
40
0.889
1
Ref.Des.
50
270
41
0.75
7
W0$127
0
TEXT
8
PART_NAME_126
10
0.4318
20
0.5588
40
0.889
1
R8
50
270
41
0.75
7
W0$127
0
TEXT
8
LABEL_INFO
10
0
20
0
40
0.889
1
0 0 0 2 0 1
73
2
11
0
21
0
41
0.75
7
W0$127
0
TEXT
8
LABEL_ATTRIBUTE
10
0
20
0
40
0.889
1
PartType
73
2
11
0
21
0
41
0.75
7
W0$127
0
TEXT
8
PART_TYPE_01
10
0
20
0
40
0.889
1
R_5
73
3
11
0
21
0
41
0.75
7
W0$127
0
TEXT
8
PART_INFO
10
0
20
-1.27
40
0.889
1
000001
73
3
11
0
21
-1.27
41
0.75
7
W0$127
0
TEXT
8
PART_PTS
10
0
20
-2.54
40
0.889
1
1 2 
73
3
11
0
21
-2.54
41
0.75
7
W0$127
0
ENDBLK
0
BLOCK
2
PART_TOP_48
8
0
10
0
20
0
3
PART_TOP_48
70
64
0
INSERT
2
SYM_TOP_11
8
0
10
0
20
0
0
INSERT
2
PKG_2
8
0
10
0
20
0
0
TEXT
8
LABEL_INFO
10
0.4064
20
0.4572
40
0.889
1
0 486000000 0 0 0 1
50
270
41
0.75
7
W0$127
0
TEXT
8
LABEL_ATTRIBUTE
10
0.4064
20
0.4572
40
0.889
1
Ref.Des.
50
270
41
0.75
7
W0$127
0
TEXT
8
PART_NAME_126
10
0.4064
20
0.4572
40
0.889
1
R9
50
270
41
0.75
7
W0$127
0
TEXT
8
LABEL_INFO
10
0
20
0
40
0.889
1
0 0 0 2 0 1
73
2
11
0
21
0
41
0.75
7
W0$127
0
TEXT
8
LABEL_ATTRIBUTE
10
0
20
0
40
0.889
1
PartType
73
2
11
0
21
0
41
0.75
7
W0$127
0
TEXT
8
PART_TYPE_01
10
0
20
0
40
0.889
1
R_5
73
3
11
0
21
0
41
0.75
7
W0$127
0
TEXT
8
PART_INFO
10
0
20
-1.27
40
0.889
1
000001
73
3
11
0
21
-1.27
41
0.75
7
W0$127
0
TEXT
8
PART_PTS
10
0
20
-2.54
40
0.889
1
1 2 
73
3
11
0
21
-2.54
41
0.75
7
W0$127
0
ENDBLK
0
BLOCK
2
PART_TOP_49
8
0
10
0
20
0
3
PART_TOP_49
70
64
0
INSERT
2
SYM_TOP_7
8
0
10
0
20
0
0
INSERT
2
PKG_8
8
0
10
0
20
0
0
TEXT
8
LABEL_INFO
10
3.175
20
-2.2605993333
40
0.889
1
0 162000000 0 0 0 1
50
90
41
0.75
7
W0$127
0
TEXT
8
LABEL_ATTRIBUTE
10
3.175
20
-2.2605993333
40
0.889
1
Ref.Des.
50
90
41
0.75
7
W0$127
0
TEXT
8
PART_NAME_01
10
3.175
20
-2.2605993333
40
0.889
1
U1
50
90
41
0.75
7
W0$127
0
TEXT
8
PART_TYPE_TOP
10
3.175
20
-3.5305993333
40
0.889
1
RC522-QFN32
50
90
41
0.75
7
W0$127
0
TEXT
8
PART_INFO
10
3.175
20
-4.8005993333
40
0.889
1
000000
50
90
41
0.75
7
W0$127
0
TEXT
8
PART_PTS
10
3.175
20
-6.0705993333
40
0.889
1
1 2 3 4 5 6 7 8 9 10 11 12 13 14 15 16 17 18 19 20 21 22 23 24 25 26 27 28 29 30 31 32 33 
50
90
41
0.75
7
W0$127
0
ENDBLK
0
BLOCK
2
PART_TOP_50
8
0
10
0
20
0
3
PART_TOP_50
70
64
0
INSERT
2
SYM_TOP_15
8
0
10
0
20
0
0
INSERT
2
PKG_1
8
0
10
0
20
0
0
TEXT
8
LABEL_INFO
10
1.3208
20
0.508
40
0.889
1
0 324000000 0 0 0 1
50
180
41
0.75
7
W0$127
0
TEXT
8
LABEL_ATTRIBUTE
10
1.3208
20
0.508
40
0.889
1
Ref.Des.
50
180
41
0.75
7
W0$127
0
TEXT
8
PART_NAME_01
10
1.3208
20
0.508
40
0.889
1
C15
50
180
41
0.75
7
W0$127
0
TEXT
8
LABEL_INFO
10
-0.635
20
0.2778133333
40
0.889
1
0 0 0 2 0 1
73
2
11
-0.635
21
0.2778133333
41
0.75
7
W0$127
0
TEXT
8
LABEL_ATTRIBUTE
10
-0.635
20
0.2778133333
40
0.889
1
PartType
73
2
11
-0.635
21
0.2778133333
41
0.75
7
W0$127
0
TEXT
8
PART_TYPE_01
10
-0.635
20
0.2778133333
40
0.889
1
CAP_NP_2
73
3
11
-0.635
21
0.2778133333
41
0.75
7
W0$127
0
TEXT
8
PART_INFO
10
-0.635
20
-0.9921866667
40
0.889
1
000001
73
3
11
-0.635
21
-0.9921866667
41
0.75
7
W0$127
0
TEXT
8
PART_PTS
10
-0.635
20
-2.2621866667
40
0.889
1
1 2 
73
3
11
-0.635
21
-2.2621866667
41
0.75
7
W0$127
0
ENDBLK
0
BLOCK
2
PART_TOP_51
8
0
10
0
20
0
3
PART_TOP_51
70
64
0
INSERT
2
SYM_TOP_15
8
0
10
0
20
0
0
INSERT
2
PKG_1
8
0
10
0
20
0
0
TEXT
8
LABEL_INFO
10
0.2286
20
-0.4826
40
0.889
1
0 0 0 0 0 1
41
0.75
7
W0$127
0
TEXT
8
LABEL_ATTRIBUTE
10
0.2286
20
-0.4826
40
0.889
1
Ref.Des.
41
0.75
7
W0$127
0
TEXT
8
PART_NAME_01
10
0.2286
20
-0.4826
40
0.889
1
C17
41
0.75
7
W0$127
0
TEXT
8
LABEL_INFO
10
-0.635
20
0.2778133333
40
0.889
1
0 0 0 2 0 1
73
2
11
-0.635
21
0.2778133333
41
0.75
7
W0$127
0
TEXT
8
LABEL_ATTRIBUTE
10
-0.635
20
0.2778133333
40
0.889
1
PartType
73
2
11
-0.635
21
0.2778133333
41
0.75
7
W0$127
0
TEXT
8
PART_TYPE_01
10
-0.635
20
0.2778133333
40
0.889
1
CAP_NP_2
73
3
11
-0.635
21
0.2778133333
41
0.75
7
W0$127
0
TEXT
8
PART_INFO
10
-0.635
20
-0.9921866667
40
0.889
1
000001
73
3
11
-0.635
21
-0.9921866667
41
0.75
7
W0$127
0
TEXT
8
PART_PTS
10
-0.635
20
-2.2621866667
40
0.889
1
1 2 
73
3
11
-0.635
21
-2.2621866667
41
0.75
7
W0$127
0
ENDBLK
0
BLOCK
2
PART_TOP_52
8
0
10
0
20
0
3
PART_TOP_52
70
64
0
INSERT
2
SYM_TOP_15
8
0
10
0
20
0
0
INSERT
2
PKG_1
8
0
10
0
20
0
0
TEXT
8
LABEL_INFO
10
1.2954
20
0.5842
40
0.889
1
0 324000000 0 0 0 1
50
180
41
0.75
7
W0$127
0
TEXT
8
LABEL_ATTRIBUTE
10
1.2954
20
0.5842
40
0.889
1
Ref.Des.
50
180
41
0.75
7
W0$127
0
TEXT
8
PART_NAME_01
10
1.2954
20
0.5842
40
0.889
1
C18
50
180
41
0.75
7
W0$127
0
TEXT
8
LABEL_INFO
10
-0.635
20
0.2778133333
40
0.889
1
0 0 0 2 0 1
73
2
11
-0.635
21
0.2778133333
41
0.75
7
W0$127
0
TEXT
8
LABEL_ATTRIBUTE
10
-0.635
20
0.2778133333
40
0.889
1
PartType
73
2
11
-0.635
21
0.2778133333
41
0.75
7
W0$127
0
TEXT
8
PART_TYPE_01
10
-0.635
20
0.2778133333
40
0.889
1
CAP_NP_2
73
3
11
-0.635
21
0.2778133333
41
0.75
7
W0$127
0
TEXT
8
PART_INFO
10
-0.635
20
-0.9921866667
40
0.889
1
000001
73
3
11
-0.635
21
-0.9921866667
41
0.75
7
W0$127
0
TEXT
8
PART_PTS
10
-0.635
20
-2.2621866667
40
0.889
1
1 2 
73
3
11
-0.635
21
-2.2621866667
41
0.75
7
W0$127
0
ENDBLK
0
BLOCK
2
PART_TOP_53
8
0
10
0
20
0
3
PART_TOP_53
70
64
0
INSERT
2
SYM_TOP_15
8
0
10
0
20
0
0
INSERT
2
PKG_1
8
0
10
0
20
0
0
TEXT
8
LABEL_INFO
10
1.2954
20
0.4826
40
0.889
1
0 324000000 0 0 0 1
50
180
41
0.75
7
W0$127
0
TEXT
8
LABEL_ATTRIBUTE
10
1.2954
20
0.4826
40
0.889
1
Ref.Des.
50
180
41
0.75
7
W0$127
0
TEXT
8
PART_NAME_01
10
1.2954
20
0.4826
40
0.889
1
C19
50
180
41
0.75
7
W0$127
0
TEXT
8
LABEL_INFO
10
-0.635
20
0.2778133333
40
0.889
1
0 0 0 2 0 1
73
2
11
-0.635
21
0.2778133333
41
0.75
7
W0$127
0
TEXT
8
LABEL_ATTRIBUTE
10
-0.635
20
0.2778133333
40
0.889
1
PartType
73
2
11
-0.635
21
0.2778133333
41
0.75
7
W0$127
0
TEXT
8
PART_TYPE_01
10
-0.635
20
0.2778133333
40
0.889
1
CAP_NP_2
73
3
11
-0.635
21
0.2778133333
41
0.75
7
W0$127
0
TEXT
8
PART_INFO
10
-0.635
20
-0.9921866667
40
0.889
1
000001
73
3
11
-0.635
21
-0.9921866667
41
0.75
7
W0$127
0
TEXT
8
PART_PTS
10
-0.635
20
-2.2621866667
40
0.889
1
1 2 
73
3
11
-0.635
21
-2.2621866667
41
0.75
7
W0$127
0
ENDBLK
0
BLOCK
2
PART_TOP_54
8
0
10
0
20
0
3
PART_TOP_54
70
64
0
INSERT
2
SYM_TOP_16
8
0
10
0
20
0
0
INSERT
2
PKG_10
8
0
10
0
20
0
0
TEXT
8
LABEL_INFO
10
-1.245108
20
-1.402842
40
0.889
1
0 0 0 0 0 1
41
0.75
7
W0$127
0
TEXT
8
LABEL_ATTRIBUTE
10
-1.245108
20
-1.402842
40
0.889
1
Value
41
0.75
7
W0$127
0
TEXT
8
ATTRIBUTE_01
10
-1.245108
20
-1.402842
40
0.889
1
 0603
41
0.75
7
W0$127
0
TEXT
8
LABEL_INFO
10
0.508
20
0.2794
40
0.7112
1
0 324000000 0 0 0 1
50
180
41
0.75
7
W0$1016
0
TEXT
8
LABEL_ATTRIBUTE
10
0.508
20
0.2794
40
0.7112
1
Ref.Des.
50
180
41
0.75
7
W0$1016
0
TEXT
8
PART_NAME_01
10
0.508
20
0.2794
40
0.7112
1
D1
50
180
41
0.75
7
W0$1016
0
TEXT
8
LABEL_INFO
10
-1.39319
20
-0.313944
40
0.7112
1
0 0 0 0 0 1
41
0.75
7
W0$1016
0
TEXT
8
LABEL_ATTRIBUTE
10
-1.39319
20
-0.313944
40
0.7112
1
Value
41
0.75
7
W0$1016
0
TEXT
8
ATTRIBUTE_01
10
-1.39319
20
-0.313944
40
0.7112
1
 0603
41
0.75
7
W0$1016
0
TEXT
8
PART_TYPE_TOP
10
-1.39319
20
-1.329944
40
0.7112
1
LED
41
0.75
7
W0$1016
0
TEXT
8
PART_INFO
10
-1.39319
20
-2.345944
40
0.7112
1
000000
41
0.75
7
W0$1016
0
TEXT
8
PART_PTS
10
-1.39319
20
-3.361944
40
0.7112
1
1 2 
41
0.75
7
W0$1016
0
ENDBLK
0
BLOCK
2
PART_TOP_55
8
0
10
0
20
0
3
PART_TOP_55
70
64
0
INSERT
2
SYM_TOP_11
8
0
10
0
20
0
0
INSERT
2
PKG_2
8
0
10
0
20
0
0
TEXT
8
LABEL_INFO
10
-0.889
20
0.3889386667
40
0.889
1
0 0 0 2 0 1
73
2
11
-0.889
21
0.3889386667
41
0.75
7
W0$127
0
TEXT
8
LABEL_ATTRIBUTE
10
-0.889
20
0.3889386667
40
0.889
1
PartType
73
2
11
-0.889
21
0.3889386667
41
0.75
7
W0$127
0
TEXT
8
PART_TYPE_01
10
-0.889
20
0.3889386667
40
0.889
1
R_5
73
3
11
-0.889
21
0.3889386667
41
0.75
7
W0$127
0
TEXT
8
LABEL_INFO
10
1.6256
20
0.4318
40
0.889
1
0 324000000 0 0 0 1
50
180
41
0.75
7
W0$127
0
TEXT
8
LABEL_ATTRIBUTE
10
1.6256
20
0.4318
40
0.889
1
Ref.Des.
50
180
41
0.75
7
W0$127
0
TEXT
8
PART_NAME_01
10
1.6256
20
0.4318
40
0.889
1
R64
50
180
41
0.75
7
W0$127
0
TEXT
8
PART_INFO
10
1.6256
20
-0.8382
40
0.889
1
000001
50
180
41
0.75
7
W0$127
0
TEXT
8
PART_PTS
10
1.6256
20
-2.1082
40
0.889
1
1 2 
50
180
41
0.75
7
W0$127
0
ENDBLK
0
BLOCK
2
PART_TOP_56
8
0
10
0
20
0
3
PART_TOP_56
70
64
0
INSERT
2
SYM_TOP_15
8
0
10
0
20
0
0
INSERT
2
PKG_4
8
0
10
0
20
0
0
TEXT
8
LABEL_INFO
10
-0.2793993333
20
-0.381
40
0.889
1
0 0 0 0 0 1
41
0.75
7
W0$127
0
TEXT
8
LABEL_ATTRIBUTE
10
-0.2793993333
20
-0.381
40
0.889
1
Ref.Des.
41
0.75
7
W0$127
0
TEXT
8
PART_NAME_126
10
-0.2793993333
20
-0.381
40
0.889
1
C164
41
0.75
7
W0$127
0
TEXT
8
LABEL_INFO
10
0
20
0
40
0.889
1
0 0 0 2 0 1
73
2
11
0
21
0
41
0.75
7
W0$127
0
TEXT
8
LABEL_ATTRIBUTE
10
0
20
0
40
0.889
1
PartType
73
2
11
0
21
0
41
0.75
7
W0$127
0
TEXT
8
PART_TYPE_01
10
0
20
0
40
0.889
1
CAPACITOR_1
73
3
11
0
21
0
41
0.75
7
W0$127
0
TEXT
8
PART_INFO
10
0
20
-1.27
40
0.889
1
000001
73
3
11
0
21
-1.27
41
0.75
7
W0$127
0
TEXT
8
PART_PTS
10
0
20
-2.54
40
0.889
1
1 2 
73
3
11
0
21
-2.54
41
0.75
7
W0$127
0
ENDBLK
0
BLOCK
2
PART_TOP_57
8
0
10
0
20
0
3
PART_TOP_57
70
64
0
INSERT
2
SYM_TOP_11
8
0
10
0
20
0
0
INSERT
2
PKG_2
8
0
10
0
20
0
0
TEXT
8
LABEL_INFO
10
0
20
0
40
0.889
1
0 0 0 2 0 1
73
2
11
0
21
0
41
0.75
7
W0$127
0
TEXT
8
LABEL_ATTRIBUTE
10
0
20
0
40
0.889
1
PartType
73
2
11
0
21
0
41
0.75
7
W0$127
0
TEXT
8
PART_TYPE_01
10
0
20
0
40
0.889
1
R_5
73
3
11
0
21
0
41
0.75
7
W0$127
0
TEXT
8
LABEL_INFO
10
0.0508
20
-0.4826
40
0.889
1
0 0 0 0 0 1
41
0.75
7
W0$127
0
TEXT
8
LABEL_ATTRIBUTE
10
0.0508
20
-0.4826
40
0.889
1
Ref.Des.
41
0.75
7
W0$127
0
TEXT
8
PART_NAME_126
10
0.0508
20
-0.4826
40
0.889
1
R12
41
0.75
7
W0$127
0
TEXT
8
PART_INFO
10
0.0508
20
-1.7526
40
0.889
1
000001
41
0.75
7
W0$127
0
TEXT
8
PART_PTS
10
0.0508
20
-3.0226
40
0.889
1
1 2 
41
0.75
7
W0$127
0
ENDBLK
0
BLOCK
2
PART_TOP_58
8
0
10
0
20
0
3
PART_TOP_58
70
64
0
INSERT
2
SYM_TOP_19
8
0
10
0
20
0
0
INSERT
2
PKG_12
8
0
10
0
20
0
0
TEXT
8
LABEL_INFO
10
0.762
20
3.0734
40
0.889
1
0 0 0 2 0 1
73
2
11
0.762
21
3.0734
41
0.75
7
W0$127
0
TEXT
8
LABEL_ATTRIBUTE
10
0.762
20
3.0734
40
0.889
1
PartType
73
2
11
0.762
21
3.0734
41
0.75
7
W0$127
0
TEXT
8
PART_TYPE_01
10
0.762
20
3.0734
40
0.889
1
CONSMT_P4_1.25MM
73
3
11
0.762
21
3.0734
41
0.75
7
W0$127
0
TEXT
8
LABEL_INFO
10
0.762
20
3.0734
40
0.889
1
0 0 0 0 0 1
41
0.75
7
W0$127
0
TEXT
8
LABEL_ATTRIBUTE
10
0.762
20
3.0734
40
0.889
1
Ref.Des.
41
0.75
7
W0$127
0
TEXT
8
PART_NAME_01
10
0.762
20
3.0734
40
0.889
1
J2
41
0.75
7
W0$127
0
TEXT
8
PART_INFO
10
0.762
20
1.8034
40
0.889
1
000000
41
0.75
7
W0$127
0
TEXT
8
PART_PTS
10
0.762
20
0.5334
40
0.889
1
1 2 3 4 5 6 
41
0.75
7
W0$127
0
ENDBLK
0
BLOCK
2
PART_TOP_59
8
0
10
0
20
0
3
PART_TOP_59
70
64
0
INSERT
2
SYM_TOP_24
8
0
10
0
20
0
0
INSERT
2
PKG_16
8
0
10
0
20
0
0
TEXT
8
LABEL_INFO
10
-6.858002
20
1.9812
40
0.889
1
0 0 0 0 0 1
41
0.75
7
W0$127
0
TEXT
8
LABEL_ATTRIBUTE
10
-6.858002
20
1.9812
40
0.889
1
Comment
41
0.75
7
W0$127
0
TEXT
8
ATTRIBUTE_126
10
-6.858002
20
1.9812
40
0.889
1
 
41
0.75
7
W0$127
0
TEXT
8
LABEL_INFO
10
-6.858002
20
3.2512
40
0.889
1
0 0 0 0 0 1
41
0.75
7
W0$127
0
TEXT
8
LABEL_ATTRIBUTE
10
-6.858002
20
3.2512
40
0.889
1
Ref.Des.
41
0.75
7
W0$127
0
TEXT
8
PART_NAME_126
10
-6.858002
20
3.2512
40
0.889
1
J1
41
0.75
7
W0$127
0
TEXT
8
PART_TYPE_TOP
10
-6.858002
20
1.9812
40
0.889
1
JA_1X4_2.54MM
41
0.75
7
W0$127
0
TEXT
8
PART_INFO
10
-6.858002
20
0.7112
40
0.889
1
000000
41
0.75
7
W0$127
0
TEXT
8
PART_PTS
10
-6.858002
20
-0.5588
40
0.889
1
1 2 3 4 
41
0.75
7
W0$127
0
ENDBLK
0
BLOCK
2
SYM_TOP_15
8
0
10
0
20
0
3
SYM_TOP_15
70
64
0
TEXT
8
SYM_NAME
10
0
20
0
40
1.778
1
C0603
41
0.75
0
TEXT
8
SYM_PART_TYPE_01
10
-0.635
20
0.2778133333
40
0.889
1
 
73
2
11
-0.635
21
0.2778133333
41
0.75
7
W0$127R0
0
TEXT
8
SYM_PART_NAME_01
10
-0.635
20
0
40
0.889
1
 
41
0.75
7
W0$127R0
0
INSERT
2
PART_BODY_TOP_12
8
0
10
0
20
0
0
INSERT
2
STK_TOP_22
8
0
10
0
20
0
0
TEXT
8
SYM_TERMINAL
10
0
20
-3.048
40
1.778
1
1
0
INSERT
2
STK_TOP_22
8
0
10
1.6002
20
0
0
TEXT
8
SYM_TERMINAL
10
0
20
-6.096
40
1.778
1
2
0
ENDBLK
0
BLOCK
2
PKG_1
8
0
10
0
20
0
3
PKG_1
70
64
0
TEXT
8
PKG_INFO
10
0
20
0
40
1.778
1
*SYM:= 9 15
0
TEXT
8
PKG_INFO
10
0
20
-3.048
40
1.778
1
*PKG:= 0 CAP_NP_2 UND
0
ENDBLK
0
BLOCK
2
SYM_TOP_21
8
0
10
0
20
0
3
SYM_TOP_21
70
64
0
TEXT
8
SYM_NAME
10
0
20
0
40
1.778
1
BZ_0905
41
0.75
0
TEXT
8
SYM_PART_TYPE_01
10
-5.4864
20
2.0574
40
0.889
1
 
73
2
11
-5.4864
21
2.0574
41
0.75
7
W0$127R0
0
TEXT
8
SYM_PART_NAME_01
10
-5.4864
20
2.0574
40
0.889
1
 
41
0.75
7
W0$127R0
0
INSERT
2
PART_BODY_TOP_122
8
0
10
0
20
0
0
INSERT
2
STK_TOP_108
8
0
10
-2.4892
20
0.1016
0
TEXT
8
SYM_TERMINAL
10
0
20
-3.048
40
1.778
1
1
0
INSERT
2
STK_TOP_108
8
0
10
2.5146
20
0.1016
0
TEXT
8
SYM_TERMINAL
10
0
20
-6.096
40
1.778
1
2
0
ENDBLK
0
BLOCK
2
PKG_14
8
0
10
0
20
0
3
PKG_14
70
64
0
TEXT
8
PKG_INFO
10
0
20
0
40
1.778
1
*SYM:= 21
0
TEXT
8
PKG_INFO
10
0
20
-3.048
40
1.778
1
*PKG:= 0 BZ_0905 UND
0
TEXT
8
PKG_INFO
10
0
20
-6.096
40
1.778
1
*GATE:=0
0
TEXT
8
PKG_INFO
10
0
20
-9.144
40
1.778
1
*GATEPIN:= 0 9 1 <>
0
TEXT
8
PKG_INFO
10
0
20
-12.192
40
1.778
1
*GATEPIN:= 0 9 2 <>
0
ENDBLK
0
BLOCK
2
SYM_TOP_11
8
0
10
0
20
0
3
SYM_TOP_11
70
64
0
TEXT
8
SYM_NAME
10
0
20
0
40
1.778
1
R0603
41
0.75
0
TEXT
8
SYM_PART_NAME_01
10
-0.889
20
0
40
0.889
1
 
41
0.75
7
W0$127R0
0
TEXT
8
SYM_PART_TYPE_01
10
-0.889
20
0.3889386667
40
0.889
1
 
73
2
11
-0.889
21
0.3889386667
41
0.75
7
W0$127R0
0
INSERT
2
PART_BODY_TOP_8
8
0
10
0
20
0
0
INSERT
2
STK_TOP_22
8
0
10
0
20
0
0
TEXT
8
SYM_TERMINAL
10
0
20
-3.048
40
1.778
1
1
0
INSERT
2
STK_TOP_22
8
0
10
1.6002
20
0
0
TEXT
8
SYM_TERMINAL
10
0
20
-6.096
40
1.778
1
2
0
ENDBLK
0
BLOCK
2
PKG_2
8
0
10
0
20
0
3
PKG_2
70
64
0
TEXT
8
PKG_INFO
10
0
20
0
40
1.778
1
*SYM:= 10 11
0
TEXT
8
PKG_INFO
10
0
20
-3.048
40
1.778
1
*PKG:= 0 R_5 UND
0
ENDBLK
0
BLOCK
2
SYM_TOP_20
8
0
10
0
20
0
3
SYM_TOP_20
70
64
0
TEXT
8
SYM_NAME
10
0
20
0
40
1.778
1
SOT-23
41
0.75
0
TEXT
8
SYM_ATTRIBUTE_01
10
-0.925068
20
0.42037
40
0.7112
1
Value
73
2
11
-0.925068
21
0.42037
41
0.75
7
W0$1016R0
0
TEXT
8
SYM_PART_NAME_01
10
-0.91948
20
-0.613664
40
0.7112
1
 
41
0.75
7
W0$1016R0
0
INSERT
2
PART_BODY_TOP_121
8
0
10
0
20
0
0
INSERT
2
STK_TOP_101
8
0
10
-0.9525
20
-1.1684
0
TEXT
8
SYM_TERMINAL
10
0
20
-3.048
40
1.778
1
1
0
INSERT
2
STK_TOP_101
8
0
10
0.9525
20
-1.1684
0
TEXT
8
SYM_TERMINAL
10
0
20
-6.096
40
1.778
1
2
0
INSERT
2
STK_TOP_101
8
0
10
0
20
1.0414
0
TEXT
8
SYM_TERMINAL
10
0
20
-9.144
40
1.778
1
3
0
ENDBLK
0
BLOCK
2
PKG_13
8
0
10
0
20
0
3
PKG_13
70
64
0
TEXT
8
PKG_INFO
10
0
20
0
40
1.778
1
*SYM:= 20
0
TEXT
8
PKG_INFO
10
0
20
-3.048
40
1.778
1
*PKG:= 0 SOT-23 UND
0
ENDBLK
0
BLOCK
2
SYM_TOP_8
8
0
10
0
20
0
3
SYM_TOP_8
70
64
0
TEXT
8
SYM_NAME
10
0
20
0
40
1.778
1
SO16
41
0.75
0
TEXT
8
SYM_PART_TYPE_01
10
0
20
0
40
1.778
1
 
73
2
11
0
21
0
41
0.75
7
W0$254R0
0
TEXT
8
SYM_PART_NAME_01
10
0
20
0
40
1.778
1
 
41
0.75
7
W0$254R0
0
INSERT
2
PART_BODY_TOP_5
8
0
10
0
20
0
0
INSERT
2
STK_TOP_21
8
0
10
-4.445
20
-2.794
0
TEXT
8
SYM_TERMINAL
10
0
20
-3.048
40
1.778
1
1
0
INSERT
2
STK_TOP_124
8
0
10
-3.175
20
-2.794
0
TEXT
8
SYM_TERMINAL
10
0
20
-6.096
40
1.778
1
2
0
INSERT
2
STK_TOP_21
8
0
10
-1.905
20
-2.794
0
TEXT
8
SYM_TERMINAL
10
0
20
-9.144
40
1.778
1
3
0
INSERT
2
STK_TOP_21
8
0
10
-0.635
20
-2.794
0
TEXT
8
SYM_TERMINAL
10
0
20
-12.192
40
1.778
1
4
0
INSERT
2
STK_TOP_21
8
0
10
0.635
20
-2.794
0
TEXT
8
SYM_TERMINAL
10
0
20
-15.24
40
1.778
1
5
0
INSERT
2
STK_TOP_21
8
0
10
1.905
20
-2.794
0
TEXT
8
SYM_TERMINAL
10
0
20
-18.288
40
1.778
1
6
0
INSERT
2
STK_TOP_21
8
0
10
3.175
20
-2.794
0
TEXT
8
SYM_TERMINAL
10
0
20
-21.336
40
1.778
1
7
0
INSERT
2
STK_TOP_21
8
0
10
4.445
20
-2.794
0
TEXT
8
SYM_TERMINAL
10
0
20
-24.384
40
1.778
1
8
0
INSERT
2
STK_TOP_21
8
0
10
4.445
20
2.794
0
TEXT
8
SYM_TERMINAL
10
0
20
-27.432
40
1.778
1
9
0
INSERT
2
STK_TOP_21
8
0
10
3.175
20
2.794
0
TEXT
8
SYM_TERMINAL
10
0
20
-30.48
40
1.778
1
10
0
INSERT
2
STK_TOP_21
8
0
10
1.905
20
2.794
0
TEXT
8
SYM_TERMINAL
10
0
20
-33.528
40
1.778
1
11
0
INSERT
2
STK_TOP_21
8
0
10
0.635
20
2.794
0
TEXT
8
SYM_TERMINAL
10
0
20
-36.576
40
1.778
1
12
0
INSERT
2
STK_TOP_21
8
0
10
-0.635
20
2.794
0
TEXT
8
SYM_TERMINAL
10
0
20
-39.624
40
1.778
1
13
0
INSERT
2
STK_TOP_21
8
0
10
-1.905
20
2.794
0
TEXT
8
SYM_TERMINAL
10
0
20
-42.672
40
1.778
1
14
0
INSERT
2
STK_TOP_21
8
0
10
-3.175
20
2.794
0
TEXT
8
SYM_TERMINAL
10
0
20
-45.72
40
1.778
1
15
0
INSERT
2
STK_TOP_21
8
0
10
-4.445
20
2.794
0
TEXT
8
SYM_TERMINAL
10
0
20
-48.768
40
1.778
1
16
0
ENDBLK
0
BLOCK
2
PKG_0
8
0
10
0
20
0
3
PKG_0
70
64
0
TEXT
8
PKG_INFO
10
0
20
0
40
1.778
1
*SYM:= 8
0
TEXT
8
PKG_INFO
10
0
20
-3.048
40
1.778
1
*PKG:= 0 STC15W204S-SOP16 UND
0
ENDBLK
0
BLOCK
2
PKG_3
8
0
10
0
20
0
3
PKG_3
70
64
0
TEXT
8
PKG_INFO
10
0
20
0
40
1.778
1
*SYM:= 9 12 15
0
TEXT
8
PKG_INFO
10
0
20
-3.048
40
1.778
1
*PKG:= 0 CAPACITOR_0_6 UND
0
ENDBLK
0
BLOCK
2
SYM_TOP_22
8
0
10
0
20
0
3
SYM_TOP_22
70
64
0
TEXT
8
SYM_NAME
10
0
20
0
40
1.778
1
JUMP-C
41
0.75
0
INSERT
2
PART_BODY_TOP_123
8
0
10
0
20
0
0
INSERT
2
STK_TOP_119
8
0
10
-0.3048
20
0.1778
0
TEXT
8
SYM_TERMINAL
10
0
20
-3.048
40
1.778
1
1
0
INSERT
2
STK_TOP_118
8
0
10
0.254
20
0.1524
0
TEXT
8
SYM_TERMINAL
10
0
20
-6.096
40
1.778
1
2
0
ENDBLK
0
BLOCK
2
PKG_15
8
0
10
0
20
0
3
PKG_15
70
64
0
TEXT
8
PKG_INFO
10
0
20
0
40
1.778
1
*SYM:= 22
0
TEXT
8
PKG_INFO
10
0
20
-3.048
40
1.778
1
*PKG:= 0 JUMP-C UND
0
ENDBLK
0
BLOCK
2
SYM_TOP_23
8
0
10
0
20
0
3
SYM_TOP_23
70
64
0
TEXT
8
SYM_NAME
10
0
20
0
40
1.778
1
SO16A
41
0.75
0
TEXT
8
SYM_PART_TYPE_01
10
0
20
0
40
1.778
1
 
73
2
11
0
21
0
41
0.75
7
W0$254R0
0
TEXT
8
SYM_PART_NAME_01
10
0
20
0
40
1.778
1
 
41
0.75
7
W0$254R0
0
INSERT
2
PART_BODY_TOP_124
8
0
10
0
20
0
0
INSERT
2
STK_TOP_21
8
0
10
-4.445
20
-2.794
0
TEXT
8
SYM_TERMINAL
10
0
20
-3.048
40
1.778
1
1
0
INSERT
2
STK_TOP_21
8
0
10
-3.175
20
-2.794
0
TEXT
8
SYM_TERMINAL
10
0
20
-6.096
40
1.778
1
2
0
INSERT
2
STK_TOP_21
8
0
10
-1.905
20
-2.794
0
TEXT
8
SYM_TERMINAL
10
0
20
-9.144
40
1.778
1
3
0
INSERT
2
STK_TOP_21
8
0
10
-0.635
20
-2.794
0
TEXT
8
SYM_TERMINAL
10
0
20
-12.192
40
1.778
1
4
0
INSERT
2
STK_TOP_21
8
0
10
0.635
20
-2.794
0
TEXT
8
SYM_TERMINAL
10
0
20
-15.24
40
1.778
1
5
0
INSERT
2
STK_TOP_21
8
0
10
1.905
20
-2.794
0
TEXT
8
SYM_TERMINAL
10
0
20
-18.288
40
1.778
1
6
0
INSERT
2
STK_TOP_21
8
0
10
3.175
20
-2.794
0
TEXT
8
SYM_TERMINAL
10
0
20
-21.336
40
1.778
1
7
0
INSERT
2
STK_TOP_21
8
0
10
4.445
20
-2.794
0
TEXT
8
SYM_TERMINAL
10
0
20
-24.384
40
1.778
1
8
0
INSERT
2
STK_TOP_21
8
0
10
4.445
20
2.794
0
TEXT
8
SYM_TERMINAL
10
0
20
-27.432
40
1.778
1
9
0
INSERT
2
STK_TOP_21
8
0
10
3.175
20
2.794
0
TEXT
8
SYM_TERMINAL
10
0
20
-30.48
40
1.778
1
10
0
INSERT
2
STK_TOP_21
8
0
10
1.905
20
2.794
0
TEXT
8
SYM_TERMINAL
10
0
20
-33.528
40
1.778
1
11
0
INSERT
2
STK_TOP_21
8
0
10
0.635
20
2.794
0
TEXT
8
SYM_TERMINAL
10
0
20
-36.576
40
1.778
1
12
0
INSERT
2
STK_TOP_21
8
0
10
-0.635
20
2.794
0
TEXT
8
SYM_TERMINAL
10
0
20
-39.624
40
1.778
1
13
0
INSERT
2
STK_TOP_21
8
0
10
-1.905
20
2.794
0
TEXT
8
SYM_TERMINAL
10
0
20
-42.672
40
1.778
1
14
0
INSERT
2
STK_TOP_21
8
0
10
-3.175
20
2.794
0
TEXT
8
SYM_TERMINAL
10
0
20
-45.72
40
1.778
1
15
0
INSERT
2
STK_TOP_21
8
0
10
-4.445
20
2.794
0
TEXT
8
SYM_TERMINAL
10
0
20
-48.768
40
1.778
1
16
0
ENDBLK
0
BLOCK
2
PKG_9
8
0
10
0
20
0
3
PKG_9
70
64
0
TEXT
8
PKG_INFO
10
0
20
0
40
1.778
1
*SYM:= 8 23
0
TEXT
8
PKG_INFO
10
0
20
-3.048
40
1.778
1
*PKG:= 0 MAX232ESE-SOP16 UND
0
ENDBLK
0
BLOCK
2
PKG_7
8
0
10
0
20
0
3
PKG_7
70
64
0
TEXT
8
PKG_INFO
10
0
20
0
40
1.778
1
*SYM:= 9 15
0
TEXT
8
PKG_INFO
10
0
20
-3.048
40
1.778
1
*PKG:= 0 C0603 UND
0
ENDBLK
0
BLOCK
2
SYM_TOP_13
8
0
10
0
20
0
3
SYM_TOP_13
70
64
0
TEXT
8
SYM_NAME
10
0
20
0
40
1.778
1
3225
41
0.75
0
TEXT
8
SYM_PART_TYPE_01
10
-0.127
20
0
40
1.778
1
 
41
0.75
7
W0$254R0
0
TEXT
8
SYM_PART_NAME_01
10
-0.127
20
0
40
1.778
1
 
41
0.75
7
W0$254R0
0
INSERT
2
PART_BODY_TOP_10
8
0
10
0
20
0
0
INSERT
2
STK_TOP_19
8
0
10
1.15
20
0.95
0
TEXT
8
SYM_TERMINAL
10
0
20
-3.048
40
1.778
1
1
0
INSERT
2
STK_TOP_19
8
0
10
-1.15
20
0.95
0
TEXT
8
SYM_TERMINAL
10
0
20
-6.096
40
1.778
1
2
0
INSERT
2
STK_TOP_19
8
0
10
-1.15
20
-0.95
0
TEXT
8
SYM_TERMINAL
10
0
20
-9.144
40
1.778
1
3
0
INSERT
2
STK_TOP_19
8
0
10
1.15
20
-0.95
0
TEXT
8
SYM_TERMINAL
10
0
20
-12.192
40
1.778
1
4
0
ENDBLK
0
BLOCK
2
PKG_5
8
0
10
0
20
0
3
PKG_5
70
64
0
TEXT
8
PKG_INFO
10
0
20
0
40
1.778
1
*SYM:= 13
0
TEXT
8
PKG_INFO
10
0
20
-3.048
40
1.778
1
*PKG:= 0 CRYSTAL_4 UND
0
ENDBLK
0
BLOCK
2
SYM_TOP_18
8
0
10
0
20
0
3
SYM_TOP_18
70
64
0
TEXT
8
SYM_NAME
10
0
20
0
40
1.778
1
L-T
41
0.75
0
TEXT
8
SYM_PART_TYPE_01
10
-1.8034
20
3.4544
40
0.889
1
 
73
2
11
-1.8034
21
3.4544
41
0.75
7
W0$127R0
0
TEXT
8
SYM_PART_NAME_01
10
-1.905
20
3.6322
40
0.889
1
 
41
0.75
7
W0$127R0
0
INSERT
2
PART_BODY_TOP_17
8
0
10
0
20
0
0
INSERT
2
STK_TOP_94
8
0
10
0
20
0
0
TEXT
8
SYM_TERMINAL
10
0
20
-3.048
40
1.778
1
1
0
INSERT
2
STK_TOP_94
8
0
10
3.2
20
0
0
TEXT
8
SYM_TERMINAL
10
0
20
-6.096
40
1.778
1
2
0
ENDBLK
0
BLOCK
2
PKG_11
8
0
10
0
20
0
3
PKG_11
70
64
0
TEXT
8
PKG_INFO
10
0
20
0
40
1.778
1
*SYM:= 18
0
TEXT
8
PKG_INFO
10
0
20
-3.048
40
1.778
1
*PKG:= 0 L-T UND
0
TEXT
8
PKG_INFO
10
0
20
-6.096
40
1.778
1
*GATE:=0
0
TEXT
8
PKG_INFO
10
0
20
-9.144
40
1.778
1
*GATEPIN:= 0 9 1 <>
0
TEXT
8
PKG_INFO
10
0
20
-12.192
40
1.778
1
*GATEPIN:= 0 9 2 <>
0
ENDBLK
0
BLOCK
2
SYM_TOP_12
8
0
10
0
20
0
3
SYM_TOP_12
70
64
0
TEXT
8
SYM_NAME
10
0
20
0
40
1.778
1
C0805
41
0.75
0
TEXT
8
SYM_ATTRIBUTE_01
10
-1.70434
20
0.483362
40
0.7112
1
Value
73
2
11
-1.70434
21
0.483362
41
0.75
7
W0$1016R0
0
TEXT
8
SYM_PART_NAME_01
10
-1.574546
20
-0.263398
40
0.39116
1
 
41
0.75
7
W0$0508R0
0
INSERT
2
PART_BODY_TOP_9
8
0
10
0
20
0
0
INSERT
2
STK_TOP_24
8
0
10
-0.999998
20
0
0
TEXT
8
SYM_TERMINAL
10
0
20
-3.048
40
1.778
1
1
0
INSERT
2
STK_TOP_24
8
0
10
0.999998
20
0
0
TEXT
8
SYM_TERMINAL
10
0
20
-6.096
40
1.778
1
2
0
ENDBLK
0
BLOCK
2
SYM_TOP_14
8
0
10
0
20
0
3
SYM_TOP_14
70
64
0
TEXT
8
SYM_NAME
10
0
20
0
40
1.778
1
SOT23-5
41
0.75
0
TEXT
8
SYM_PART_TYPE_01
10
2.0305
20
0.7550106667
40
0.889
1
 
73
2
11
2.0305
21
0.7550106667
41
0.75
7
W0$5R0
0
TEXT
8
SYM_PART_NAME_01
10
1.8808333333
20
1.05
40
0.889
1
 
41
0.75
7
W0$5R0
0
INSERT
2
PART_BODY_TOP_11
8
0
10
0
20
0
0
INSERT
2
STK_TOP_20
8
0
10
0
20
-0.1
0
TEXT
8
SYM_TERMINAL
10
0
20
-3.048
40
1.778
1
1
0
INSERT
2
STK_TOP_20
8
0
10
0.95
20
-0.1
0
TEXT
8
SYM_TERMINAL
10
0
20
-6.096
40
1.778
1
2
0
INSERT
2
STK_TOP_20
8
0
10
1.9
20
-0.1
0
TEXT
8
SYM_TERMINAL
10
0
20
-9.144
40
1.778
1
3
0
INSERT
2
STK_TOP_20
8
0
10
1.9
20
2.45
0
TEXT
8
SYM_TERMINAL
10
0
20
-12.192
40
1.778
1
4
0
INSERT
2
STK_TOP_20
8
0
10
0
20
2.45
0
TEXT
8
SYM_TERMINAL
10
0
20
-15.24
40
1.778
1
5
0
ENDBLK
0
BLOCK
2
PKG_6
8
0
10
0
20
0
3
PKG_6
70
64
0
TEXT
8
PKG_INFO
10
0
20
0
40
1.778
1
*SYM:= 14
0
TEXT
8
PKG_INFO
10
0
20
-3.048
40
1.778
1
*PKG:= 0 RT9293B_0 UND
0
ENDBLK
0
BLOCK
2
PKG_4
8
0
10
0
20
0
3
PKG_4
70
64
0
TEXT
8
PKG_INFO
10
0
20
0
40
1.778
1
*SYM:= 9 15 17
0
TEXT
8
PKG_INFO
10
0
20
-3.048
40
1.778
1
*PKG:= 0 CAPACITOR_1 UND
0
ENDBLK
0
BLOCK
2
SYM_TOP_7
8
0
10
0
20
0
3
SYM_TOP_7
70
64
0
TEXT
8
SYM_NAME
10
0
20
0
40
1.778
1
MF522
41
0.75
0
TEXT
8
SYM_ATTRIBUTE_126
10
-0.4999993333
20
1.45321
40
0.889
1
Comment
41
0.75
7
W0$127R0
0
TEXT
8
SYM_PART_NAME_126
10
-0.4999993333
20
2.72321
40
0.889
1
 
41
0.75
7
W0$127R0
0
INSERT
2
PART_BODY_TOP_13
8
0
10
0
20
0
0
INSERT
2
STK_TOP_43
8
0
10
0
20
0
0
TEXT
8
SYM_TERMINAL
10
0
20
-3.048
40
1.778
1
1
0
INSERT
2
STK_TOP_43
8
0
10
0
20
-0.4999986667
0
TEXT
8
SYM_TERMINAL
10
0
20
-6.096
40
1.778
1
2
0
INSERT
2
STK_TOP_43
8
0
10
0
20
-0.9999973333
0
TEXT
8
SYM_TERMINAL
10
0
20
-9.144
40
1.778
1
3
0
INSERT
2
STK_TOP_43
8
0
10
0
20
-1.4999966667
0
TEXT
8
SYM_TERMINAL
10
0
20
-12.192
40
1.778
1
4
0
INSERT
2
STK_TOP_43
8
0
10
0
20
-1.999996
0
TEXT
8
SYM_TERMINAL
10
0
20
-15.24
40
1.778
1
5
0
INSERT
2
STK_TOP_43
8
0
10
0
20
-2.4999946667
0
TEXT
8
SYM_TERMINAL
10
0
20
-18.288
40
1.778
1
6
0
INSERT
2
STK_TOP_43
8
0
10
0
20
-2.999994
0
TEXT
8
SYM_TERMINAL
10
0
20
-21.336
40
1.778
1
7
0
INSERT
2
STK_TOP_43
8
0
10
0
20
-3.4999926667
0
TEXT
8
SYM_TERMINAL
10
0
20
-24.384
40
1.778
1
8
0
INSERT
2
STK_TOP_44
8
0
10
0.7500106667
20
-4.2499786667
0
TEXT
8
SYM_TERMINAL
10
0
20
-27.432
40
1.778
1
9
0
INSERT
2
STK_TOP_44
8
0
10
1.25001
20
-4.2499786667
0
TEXT
8
SYM_TERMINAL
10
0
20
-30.48
40
1.778
1
10
0
INSERT
2
STK_TOP_44
8
0
10
1.7500086667
20
-4.2499786667
0
TEXT
8
SYM_TERMINAL
10
0
20
-33.528
40
1.778
1
11
0
INSERT
2
STK_TOP_44
8
0
10
2.250008
20
-4.2499786667
0
TEXT
8
SYM_TERMINAL
10
0
20
-36.576
40
1.778
1
12
0
INSERT
2
STK_TOP_44
8
0
10
2.7500066667
20
-4.2499786667
0
TEXT
8
SYM_TERMINAL
10
0
20
-39.624
40
1.778
1
13
0
INSERT
2
STK_TOP_44
8
0
10
3.250006
20
-4.2499786667
0
TEXT
8
SYM_TERMINAL
10
0
20
-42.672
40
1.778
1
14
0
INSERT
2
STK_TOP_44
8
0
10
3.7500046667
20
-4.2499786667
0
TEXT
8
SYM_TERMINAL
10
0
20
-45.72
40
1.778
1
15
0
INSERT
2
STK_TOP_44
8
0
10
4.250004
20
-4.2499786667
0
TEXT
8
SYM_TERMINAL
10
0
20
-48.768
40
1.778
1
16
0
INSERT
2
STK_TOP_43
8
0
10
5.0000153333
20
-3.4999926667
0
TEXT
8
SYM_TERMINAL
10
0
20
-51.816
40
1.778
1
17
0
INSERT
2
STK_TOP_43
8
0
10
5.0000153333
20
-2.999994
0
TEXT
8
SYM_TERMINAL
10
0
20
-54.864
40
1.778
1
18
0
INSERT
2
STK_TOP_43
8
0
10
5.0000153333
20
-2.4999946667
0
TEXT
8
SYM_TERMINAL
10
0
20
-57.912
40
1.778
1
19
0
INSERT
2
STK_TOP_43
8
0
10
5.0000153333
20
-1.999996
0
TEXT
8
SYM_TERMINAL
10
0
20
-60.96
40
1.778
1
20
0
INSERT
2
STK_TOP_43
8
0
10
5.0000153333
20
-1.4999966667
0
TEXT
8
SYM_TERMINAL
10
0
20
-64.008
40
1.778
1
21
0
INSERT
2
STK_TOP_43
8
0
10
5.0000153333
20
-0.9999973333
0
TEXT
8
SYM_TERMINAL
10
0
20
-67.056
40
1.778
1
22
0
INSERT
2
STK_TOP_43
8
0
10
5.0000153333
20
-0.4999986667
0
TEXT
8
SYM_TERMINAL
10
0
20
-70.104
40
1.778
1
23
0
INSERT
2
STK_TOP_43
8
0
10
5.0000153333
20
0
0
TEXT
8
SYM_TERMINAL
10
0
20
-73.152
40
1.778
1
24
0
INSERT
2
STK_TOP_44
8
0
10
4.250004
20
0.7500106667
0
TEXT
8
SYM_TERMINAL
10
0
20
-76.2
40
1.778
1
25
0
INSERT
2
STK_TOP_44
8
0
10
3.7500046667
20
0.7500106667
0
TEXT
8
SYM_TERMINAL
10
0
20
-79.248
40
1.778
1
26
0
INSERT
2
STK_TOP_44
8
0
10
3.250006
20
0.7500106667
0
TEXT
8
SYM_TERMINAL
10
0
20
-82.296
40
1.778
1
27
0
INSERT
2
STK_TOP_44
8
0
10
2.7500066667
20
0.7500106667
0
TEXT
8
SYM_TERMINAL
10
0
20
-85.344
40
1.778
1
28
0
INSERT
2
STK_TOP_44
8
0
10
2.250008
20
0.7500106667
0
TEXT
8
SYM_TERMINAL
10
0
20
-88.392
40
1.778
1
29
0
INSERT
2
STK_TOP_44
8
0
10
1.7500086667
20
0.7500106667
0
TEXT
8
SYM_TERMINAL
10
0
20
-91.44
40
1.778
1
30
0
INSERT
2
STK_TOP_44
8
0
10
1.25001
20
0.7500106667
0
TEXT
8
SYM_TERMINAL
10
0
20
-94.488
40
1.778
1
31
0
INSERT
2
STK_TOP_44
8
0
10
0.7500106667
20
0.7500106667
0
TEXT
8
SYM_TERMINAL
10
0
20
-97.536
40
1.778
1
32
0
INSERT
2
STK_TOP_46
8
0
10
2.4892
20
-1.7526
0
TEXT
8
SYM_TERMINAL
10
0
20
-100.584
40
1.778
1
33
0
ENDBLK
0
BLOCK
2
PKG_8
8
0
10
0
20
0
3
PKG_8
70
64
0
TEXT
8
PKG_INFO
10
0
20
0
40
1.778
1
*SYM:= 7
0
TEXT
8
PKG_INFO
10
0
20
-3.048
40
1.778
1
*PKG:= 0 RC522-QFN32 UND
0
ENDBLK
0
BLOCK
2
SYM_TOP_16
8
0
10
0
20
0
3
SYM_TOP_16
70
64
0
TEXT
8
SYM_NAME
10
0
20
0
40
1.778
1
LED_0603
41
0.75
0
TEXT
8
SYM_ATTRIBUTE_01
10
-1.39319
20
-0.313944
40
0.7112
1
Value
41
0.75
7
W0$1016R0
0
TEXT
8
SYM_PART_NAME_01
10
-1.245108
20
0.883158
40
0.7112
1
 
41
0.75
7
W0$1016R0
0
TEXT
8
SYM_PART_NAME_01
10
-1.245108
20
-0.132842
40
0.889
1
 
41
0.75
7
W0$127R0
0
TEXT
8
SYM_ATTRIBUTE_01
10
-1.245108
20
-1.402842
40
0.889
1
Value
41
0.75
7
W0$127R0
0
INSERT
2
PART_BODY_TOP_14
8
0
10
0
20
0
0
INSERT
2
STK_TOP_47
8
0
10
-0.762
20
0
0
TEXT
8
SYM_TERMINAL
10
0
20
-3.048
40
1.778
1
1
0
INSERT
2
STK_TOP_47
8
0
10
0.762
20
0
0
TEXT
8
SYM_TERMINAL
10
0
20
-6.096
40
1.778
1
2
0
ENDBLK
0
BLOCK
2
PKG_10
8
0
10
0
20
0
3
PKG_10
70
64
0
TEXT
8
PKG_INFO
10
0
20
0
40
1.778
1
*SYM:= 16
0
TEXT
8
PKG_INFO
10
0
20
-3.048
40
1.778
1
*PKG:= 0 LED UND
0
ENDBLK
0
BLOCK
2
SYM_TOP_19
8
0
10
0
20
0
3
SYM_TOP_19
70
64
0
TEXT
8
SYM_NAME
10
0
20
0
40
1.778
1
CONSMT_P4_1.25MM
41
0.75
0
TEXT
8
SYM_PART_NAME_01
10
0.762
20
3.0734
40
0.889
1
 
41
0.75
7
W0$127R0
0
TEXT
8
SYM_PART_TYPE_01
10
0.762
20
3.0734
40
0.889
1
 
73
2
11
0.762
21
3.0734
41
0.75
7
W0$127R0
0
INSERT
2
PART_BODY_TOP_120
8
0
10
0
20
0
0
INSERT
2
STK_TOP_96
8
0
10
0
20
0
0
TEXT
8
SYM_TERMINAL
10
0
20
-3.048
40
1.778
1
1
0
INSERT
2
STK_TOP_96
8
0
10
1.27
20
0
0
TEXT
8
SYM_TERMINAL
10
0
20
-6.096
40
1.778
1
2
0
INSERT
2
STK_TOP_97
8
0
10
2.54
20
0
0
TEXT
8
SYM_TERMINAL
10
0
20
-9.144
40
1.778
1
3
0
INSERT
2
STK_TOP_98
8
0
10
3.81
20
0
0
TEXT
8
SYM_TERMINAL
10
0
20
-12.192
40
1.778
1
4
0
INSERT
2
STK_TOP_99
8
0
10
-3.048
20
2.6162
0
TEXT
8
SYM_TERMINAL
10
0
20
-15.24
40
1.778
1
11
0
INSERT
2
STK_TOP_100
8
0
10
6.9088
20
2.6162
0
TEXT
8
SYM_TERMINAL
10
0
20
-18.288
40
1.778
1
12
0
ENDBLK
0
BLOCK
2
PKG_12
8
0
10
0
20
0
3
PKG_12
70
64
0
TEXT
8
PKG_INFO
10
0
20
0
40
1.778
1
*SYM:= 19
0
TEXT
8
PKG_INFO
10
0
20
-3.048
40
1.778
1
*PKG:= 0 CONSMT_P4_1.25MM UND
0
ENDBLK
0
BLOCK
2
SYM_TOP_24
8
0
10
0
20
0
3
SYM_TOP_24
70
64
0
TEXT
8
SYM_NAME
10
0
20
0
40
1.778
1
JA_1X4_2.54MM
41
0.75
0
TEXT
8
SYM_PART_NAME_126
10
-6.858002
20
3.2512
40
0.889
1
 
41
0.75
7
W0$127R0
0
TEXT
8
SYM_ATTRIBUTE_126
10
-6.858002
20
1.9812
40
0.889
1
Comment
41
0.75
7
W0$127R0
0
INSERT
2
PART_BODY_TOP_376
8
0
10
0
20
0
0
INSERT
2
STK_TOP_163
8
0
10
-5.080002
20
0
0
TEXT
8
SYM_TERMINAL
10
0
20
-3.048
40
1.778
1
1
0
INSERT
2
STK_TOP_162
8
0
10
-2.54
20
0
0
TEXT
8
SYM_TERMINAL
10
0
20
-6.096
40
1.778
1
2
0
INSERT
2
STK_TOP_162
8
0
10
0
20
0
0
TEXT
8
SYM_TERMINAL
10
0
20
-9.144
40
1.778
1
3
0
INSERT
2
STK_TOP_162
8
0
10
2.54
20
0
0
TEXT
8
SYM_TERMINAL
10
0
20
-12.192
40
1.778
1
4
0
ENDBLK
0
BLOCK
2
PKG_16
8
0
10
0
20
0
3
PKG_16
70
64
0
TEXT
8
PKG_INFO
10
0
20
0
40
1.778
1
*SYM:= 24
0
TEXT
8
PKG_INFO
10
0
20
-3.048
40
1.778
1
*PKG:= 0 JA_1X4_2.54MM UND
0
ENDBLK
0
BLOCK
2
PART_BODY_TOP_12
8
0
10
0
20
0
3
PART_BODY_TOP_12
70
64
0
POLYLINE
8
PART_TOP_2DLINE_00
66
1
40
0.1524
41
0.1524
70
1
0
VERTEX
8
PART_TOP_2DLINE_00
10
-0.6858
20
0.6604
0
VERTEX
8
PART_TOP_2DLINE_00
10
2.286
20
0.6604
0
VERTEX
8
PART_TOP_2DLINE_00
10
2.286
20
-0.6604
0
VERTEX
8
PART_TOP_2DLINE_00
10
-0.6858
20
-0.6604
0
SEQEND
0
INSERT
2
SMOOTH_0$1524
8
PART_TOP_2DLINE_00
10
-0.6858
20
0.6604
0
INSERT
2
SMOOTH_0$1524
8
PART_TOP_2DLINE_00
10
2.286
20
0.6604
0
INSERT
2
SMOOTH_0$1524
8
PART_TOP_2DLINE_00
10
2.286
20
-0.6604
0
INSERT
2
SMOOTH_0$1524
8
PART_TOP_2DLINE_00
10
-0.6858
20
-0.6604
0
POLYLINE
8
PART_TOP_2DLINE_00
66
1
40
0.1524
41
0.1524
0
VERTEX
8
PART_TOP_2DLINE_00
10
0.5842
20
0.4318
0
VERTEX
8
PART_TOP_2DLINE_00
10
0.5842
20
-0.4318
0
SEQEND
0
INSERT
2
SMOOTH_0$1524
8
PART_TOP_2DLINE_00
10
0.5842
20
0.4318
0
INSERT
2
SMOOTH_0$1524
8
PART_TOP_2DLINE_00
10
0.5842
20
-0.4318
0
POLYLINE
8
PART_TOP_2DLINE_00
66
1
40
0.1524
41
0.1524
0
VERTEX
8
PART_TOP_2DLINE_00
10
0.9906
20
0.4318
0
VERTEX
8
PART_TOP_2DLINE_00
10
0.9906
20
-0.4318
0
SEQEND
0
INSERT
2
SMOOTH_0$1524
8
PART_TOP_2DLINE_00
10
0.9906
20
0.4318
0
INSERT
2
SMOOTH_0$1524
8
PART_TOP_2DLINE_00
10
0.9906
20
-0.4318
0
ENDBLK
0
BLOCK
2
STK_TOP_22
8
0
10
0
20
0
3
STK_TOP_22
70
64
0
INSERT
2
DRIL_HOLE_0
8
DRIL_PLTE_THRU_01
10
0
20
0
0
INSERT
2
DRIL_HOLE_0
8
DRIL_PLTE_THRU_02
10
0
20
0
0
INSERT
2
PAD_0
8
PADS_INNER
10
0
20
0
0
INSERT
2
PAD_0
8
PADS_BOT
10
0
20
0
0
INSERT
2
PAD_1
8
PADS_TOP
10
0
20
0
0
ENDBLK
0
BLOCK
2
SYM_TOP_9
8
0
10
0
20
0
3
SYM_TOP_9
70
64
0
TEXT
8
SYM_NAME
10
0
20
0
40
1.778
1
C0402
41
0.75
0
TEXT
8
SYM_PART_TYPE_01
10
0
20
0
40
0.889
1
 
73
2
11
0
21
0
41
0.75
7
W0$127R0
0
TEXT
8
SYM_PART_NAME_01
10
0
20
0
40
0.889
1
 
41
0.75
7
W0$127R0
0
INSERT
2
PART_BODY_TOP_6
8
0
10
0
20
0
0
INSERT
2
STK_TOP_15
8
0
10
-0.508
20
0
0
TEXT
8
SYM_TERMINAL
10
0
20
-3.048
40
1.778
1
1
0
INSERT
2
STK_TOP_15
8
0
10
0.508
20
0
0
TEXT
8
SYM_TERMINAL
10
0
20
-6.096
40
1.778
1
2
0
ENDBLK
0
BLOCK
2
PART_BODY_TOP_122
8
0
10
0
20
0
3
PART_BODY_TOP_122
70
64
0
POLYLINE
8
PART_TOP_2DLINE_00
66
1
40
0.127
41
0.127
70
1
0
VERTEX
8
PART_TOP_2DLINE_00
10
-5.6896
20
0.1778
42
1
0
VERTEX
8
PART_TOP_2DLINE_00
10
-5.6896
20
0.3048
42
1
0
SEQEND
0
POLYLINE
8
PART_TOP_2DLINE_00
66
1
40
0.127
41
0.127
70
1
0
VERTEX
8
PART_TOP_2DLINE_00
10
-5.6896
20
0.9125966667
42
1
0
VERTEX
8
PART_TOP_2DLINE_00
10
-5.6896
20
1.0395966667
42
1
0
SEQEND
0
POLYLINE
8
PART_TOP_2DLINE_00
66
1
40
0.254
41
0.254
0
VERTEX
8
PART_TOP_2DLINE_00
10
-6.072396
20
0.5932986667
0
VERTEX
8
PART_TOP_2DLINE_00
10
-5.3375993333
20
0.5932986667
0
SEQEND
0
INSERT
2
SMOOTH_0$254
8
PART_TOP_2DLINE_00
10
-6.072396
20
0.5932986667
0
INSERT
2
SMOOTH_0$254
8
PART_TOP_2DLINE_00
10
-5.3375993333
20
0.5932986667
0
POLYLINE
8
PART_TOP_2DLINE_00
66
1
40
0.127
41
0.127
70
1
0
VERTEX
8
PART_TOP_2DLINE_00
10
-5.3375993333
20
0.5297986667
42
1
0
VERTEX
8
PART_TOP_2DLINE_00
10
-5.3375993333
20
0.6567986667
42
1
0
SEQEND
0
POLYLINE
8
PART_TOP_2DLINE_00
66
1
40
0.254
41
0.254
0
VERTEX
8
PART_TOP_2DLINE_00
10
5.3253986667
20
0.5823006667
0
VERTEX
8
PART_TOP_2DLINE_00
10
6.060196
20
0.5823006667
0
SEQEND
0
INSERT
2
SMOOTH_0$254
8
PART_TOP_2DLINE_00
10
5.3253986667
20
0.5823006667
0
INSERT
2
SMOOTH_0$254
8
PART_TOP_2DLINE_00
10
6.060196
20
0.5823006667
0
POLYLINE
8
PART_TOP_2DLINE_00
66
1
40
0.127
41
0.127
70
1
0
VERTEX
8
PART_TOP_2DLINE_00
10
5.3253986667
20
0.5188006667
42
1
0
VERTEX
8
PART_TOP_2DLINE_00
10
5.3253986667
20
0.6458006667
42
1
0
SEQEND
0
POLYLINE
8
PART_TOP_2DLINE_00
66
1
40
0.127
41
0.127
70
1
0
VERTEX
8
PART_TOP_2DLINE_00
10
6.060196
20
0.5188006667
42
1
0
VERTEX
8
PART_TOP_2DLINE_00
10
6.060196
20
0.6458006667
42
1
0
SEQEND
0
POLYLINE
8
PART_TOP_2DLINE_00
66
1
40
0.254
41
0.254
70
1
0
VERTEX
8
PART_TOP_2DLINE_00
10
0.016954
20
4.8902446667
42
1
0
VERTEX
8
PART_TOP_2DLINE_00
10
0.016954
20
-4.709736
42
1
0
SEQEND
0
POLYLINE
8
PART_TOP_2DLINE_00
66
1
40
0.254
41
0.254
0
VERTEX
8
PART_TOP_2DLINE_00
10
-5.6896
20
0.2413
0
VERTEX
8
PART_TOP_2DLINE_00
10
-5.6896
20
0.9760966667
0
SEQEND
0
INSERT
2
SMOOTH_0$254
8
PART_TOP_2DLINE_00
10
-5.6896
20
0.2413
0
INSERT
2
SMOOTH_0$254
8
PART_TOP_2DLINE_00
10
-5.6896
20
0.9760966667
0
ENDBLK
0
BLOCK
2
STK_TOP_108
8
0
10
0
20
0
3
STK_TOP_108
70
64
0
INSERT
2
DRIL_HOLE_0$9
8
DRIL_PLTE_THRU_01
10
0
20
0
0
INSERT
2
DRIL_HOLE_0$9
8
DRIL_PLTE_THRU_02
10
0
20
0
0
INSERT
2
PAD_2
8
PADS_INNER
10
0
20
0
0
INSERT
2
PAD_2
8
PADS_BOT
10
0
20
0
0
INSERT
2
PAD_2
8
PADS_TOP
10
0
20
0
0
ENDBLK
0
BLOCK
2
PART_BODY_TOP_8
8
0
10
0
20
0
3
PART_BODY_TOP_8
70
64
0
POLYLINE
8
PART_TOP_2DLINE_00
66
1
40
0.1524
41
0.1524
39
1.45009
70
1
0
VERTEX
8
PART_TOP_2DLINE_00
10
-0.6858
20
0.6604
0
VERTEX
8
PART_TOP_2DLINE_00
10
2.286
20
0.6604
0
VERTEX
8
PART_TOP_2DLINE_00
10
2.286
20
-0.6604
0
VERTEX
8
PART_TOP_2DLINE_00
10
-0.6858
20
-0.6604
0
SEQEND
0
INSERT
2
SMOOTH_0$1524
8
PART_TOP_2DLINE_00
10
-0.6858
20
0.6604
0
INSERT
2
SMOOTH_0$1524
8
PART_TOP_2DLINE_00
10
2.286
20
0.6604
0
INSERT
2
SMOOTH_0$1524
8
PART_TOP_2DLINE_00
10
2.286
20
-0.6604
0
INSERT
2
SMOOTH_0$1524
8
PART_TOP_2DLINE_00
10
-0.6858
20
-0.6604
0
POLYLINE
8
PART_TOP_2DLINE_00
66
1
40
0.1524
41
0.1524
39
1.45009
0
VERTEX
8
PART_TOP_2DLINE_00
10
0.5334
20
0
0
VERTEX
8
PART_TOP_2DLINE_00
10
1.0668
20
0
0
SEQEND
0
INSERT
2
SMOOTH_0$1524
8
PART_TOP_2DLINE_00
10
0.5334
20
0
0
INSERT
2
SMOOTH_0$1524
8
PART_TOP_2DLINE_00
10
1.0668
20
0
0
ENDBLK
0
BLOCK
2
SYM_TOP_10
8
0
10
0
20
0
3
SYM_TOP_10
70
64
0
TEXT
8
SYM_NAME
10
0
20
0
40
1.778
1
R0402
41
0.75
0
TEXT
8
SYM_PART_NAME_01
10
0
20
0
40
0.889
1
 
41
0.75
7
W0$127R0
0
TEXT
8
SYM_PART_TYPE_01
10
0
20
0
40
0.889
1
 
73
2
11
0
21
0
41
0.75
7
W0$127R0
0
INSERT
2
PART_BODY_TOP_7
8
0
10
0
20
0
0
INSERT
2
STK_TOP_15
8
0
10
-0.508
20
0
0
TEXT
8
SYM_TERMINAL
10
0
20
-3.048
40
1.778
1
1
0
INSERT
2
STK_TOP_15
8
0
10
0.508
20
0
0
TEXT
8
SYM_TERMINAL
10
0
20
-6.096
40
1.778
1
2
0
ENDBLK
0
BLOCK
2
PART_BODY_TOP_121
8
0
10
0
20
0
3
PART_BODY_TOP_121
70
64
0
POLYLINE
8
PART_TOP_2DLINE_01
66
1
40
0.127
41
0.127
0
VERTEX
8
PART_TOP_2DLINE_01
10
-0.762
20
1.016
0
VERTEX
8
PART_TOP_2DLINE_01
10
-1.397
20
1.016
0
VERTEX
8
PART_TOP_2DLINE_01
10
-1.397
20
0
0
SEQEND
0
INSERT
2
SMOOTH_0$127
8
PART_TOP_2DLINE_01
10
-0.762
20
1.016
0
INSERT
2
SMOOTH_0$127
8
PART_TOP_2DLINE_01
10
-1.397
20
1.016
0
INSERT
2
SMOOTH_0$127
8
PART_TOP_2DLINE_01
10
-1.397
20
0
0
POLYLINE
8
PART_TOP_2DLINE_01
66
1
40
0.127
41
0.127
0
VERTEX
8
PART_TOP_2DLINE_01
10
-0.127
20
-1.27
0
VERTEX
8
PART_TOP_2DLINE_01
10
0.127
20
-1.27
0
SEQEND
0
INSERT
2
SMOOTH_0$127
8
PART_TOP_2DLINE_01
10
-0.127
20
-1.27
0
INSERT
2
SMOOTH_0$127
8
PART_TOP_2DLINE_01
10
0.127
20
-1.27
0
POLYLINE
8
PART_TOP_2DLINE_01
66
1
40
0.127
41
0.127
0
VERTEX
8
PART_TOP_2DLINE_01
10
0.762
20
1.016
0
VERTEX
8
PART_TOP_2DLINE_01
10
1.397
20
1.016
0
VERTEX
8
PART_TOP_2DLINE_01
10
1.397
20
0
0
SEQEND
0
INSERT
2
SMOOTH_0$127
8
PART_TOP_2DLINE_01
10
0.762
20
1.016
0
INSERT
2
SMOOTH_0$127
8
PART_TOP_2DLINE_01
10
1.397
20
1.016
0
INSERT
2
SMOOTH_0$127
8
PART_TOP_2DLINE_01
10
1.397
20
0
0
ENDBLK
0
BLOCK
2
STK_TOP_101
8
0
10
0
20
0
3
STK_TOP_101
70
64
0
INSERT
2
DRIL_HOLE_0
8
DRIL_PLTE_THRU_01
10
0
20
0
0
INSERT
2
DRIL_HOLE_0
8
DRIL_PLTE_THRU_02
10
0
20
0
0
INSERT
2
PAD_0
8
PADS_INNER
10
0
20
0
0
INSERT
2
PAD_0
8
PADS_BOT
10
0
20
0
0
INSERT
2
PAD_3
8
PADS_TOP
10
0
20
0
50
90
0
ENDBLK
0
BLOCK
2
PART_BODY_TOP_5
8
0
10
0
20
0
3
PART_BODY_TOP_5
70
64
0
POLYLINE
8
PART_TOP_2DLINE_00
66
1
40
0.254
41
0.254
70
1
0
VERTEX
8
PART_TOP_2DLINE_00
10
-5.08
20
-1.27
0
VERTEX
8
PART_TOP_2DLINE_00
10
-5.08
20
-0.15875
0
VERTEX
8
PART_TOP_2DLINE_00
10
-4.445
20
-0.15875
0
VERTEX
8
PART_TOP_2DLINE_00
10
-4.445
20
0.15875
0
VERTEX
8
PART_TOP_2DLINE_00
10
-5.08
20
0.15875
0
VERTEX
8
PART_TOP_2DLINE_00
10
-5.08
20
1.27
0
VERTEX
8
PART_TOP_2DLINE_00
10
5.08
20
1.27
0
VERTEX
8
PART_TOP_2DLINE_00
10
5.08
20
-1.27
0
SEQEND
0
INSERT
2
SMOOTH_0$254
8
PART_TOP_2DLINE_00
10
-5.08
20
-1.27
0
INSERT
2
SMOOTH_0$254
8
PART_TOP_2DLINE_00
10
-5.08
20
-0.15875
0
INSERT
2
SMOOTH_0$254
8
PART_TOP_2DLINE_00
10
-4.445
20
-0.15875
0
INSERT
2
SMOOTH_0$254
8
PART_TOP_2DLINE_00
10
-4.445
20
0.15875
0
INSERT
2
SMOOTH_0$254
8
PART_TOP_2DLINE_00
10
-5.08
20
0.15875
0
INSERT
2
SMOOTH_0$254
8
PART_TOP_2DLINE_00
10
-5.08
20
1.27
0
INSERT
2
SMOOTH_0$254
8
PART_TOP_2DLINE_00
10
5.08
20
1.27
0
INSERT
2
SMOOTH_0$254
8
PART_TOP_2DLINE_00
10
5.08
20
-1.27
0
ENDBLK
0
BLOCK
2
STK_TOP_21
8
0
10
0
20
0
3
STK_TOP_21
70
64
0
INSERT
2
DRIL_HOLE_0
8
DRIL_NPLTE_THRU_01
10
0
20
0
0
INSERT
2
DRIL_HOLE_0
8
DRIL_NPLTE_THRU_02
10
0
20
0
0
INSERT
2
PAD_0
8
PADS_INNER
10
0
20
0
0
INSERT
2
PAD_0
8
PADS_BOT
10
0
20
0
0
INSERT
2
PAD_4
8
PADS_TOP
10
0
20
0
50
90
0
ENDBLK
0
BLOCK
2
STK_TOP_124
8
0
10
0
20
0
3
STK_TOP_124
70
64
0
INSERT
2
DRIL_HOLE_0
8
DRIL_NPLTE_THRU_01
10
0
20
0
0
INSERT
2
DRIL_HOLE_0
8
DRIL_NPLTE_THRU_02
10
0
20
0
0
INSERT
2
PAD_0
8
PADS_INNER
10
0
20
0
0
INSERT
2
PAD_0
8
PADS_BOT
10
0
20
0
0
INSERT
2
PAD_0
8
PADS_TOP
10
0
20
0
0
ENDBLK
0
BLOCK
2
PART_BODY_TOP_123
8
0
10
0
20
0
3
PART_BODY_TOP_123
70
64
0
POLYLINE
8
PART_TOP_COPPER_01
6
TRMIDX_0
66
1
40
0.0254
41
0.0254
70
1
0
VERTEX
8
PART_TOP_COPPER_01
10
-0.472814
20
0.56
0
VERTEX
8
PART_TOP_COPPER_01
10
-0.1
20
0.56
0
VERTEX
8
PART_TOP_COPPER_01
10
-0.1
20
-0.127
0
VERTEX
8
PART_TOP_COPPER_01
10
-0.472814
20
-0.127
42
-0.6911425322
0
SEQEND
0
INSERT
2
SMOOTH_0$0254
8
PART_TOP_COPPER_01
10
-0.472814
20
0.56
0
INSERT
2
SMOOTH_0$0254
8
PART_TOP_COPPER_01
10
-0.1
20
0.56
0
INSERT
2
SMOOTH_0$0254
8
PART_TOP_COPPER_01
10
-0.1
20
-0.127
0
INSERT
2
SMOOTH_0$0254
8
PART_TOP_COPPER_01
10
-0.472814
20
-0.127
0
POLYLINE
8
PART_TOP_COPPER_01
6
TRMIDX_1
66
1
40
0.0254
41
0.0254
70
1
0
VERTEX
8
PART_TOP_COPPER_01
10
0.391566
20
-0.127
0
VERTEX
8
PART_TOP_COPPER_01
10
0.05
20
-0.127
0
VERTEX
8
PART_TOP_COPPER_01
10
0.05
20
0.56
0
VERTEX
8
PART_TOP_COPPER_01
10
0.391566
20
0.56
42
-0.6911425322
0
SEQEND
0
INSERT
2
SMOOTH_0$0254
8
PART_TOP_COPPER_01
10
0.391566
20
-0.127
0
INSERT
2
SMOOTH_0$0254
8
PART_TOP_COPPER_01
10
0.05
20
-0.127
0
INSERT
2
SMOOTH_0$0254
8
PART_TOP_COPPER_01
10
0.05
20
0.56
0
INSERT
2
SMOOTH_0$0254
8
PART_TOP_COPPER_01
10
0.391566
20
0.56
0
ENDBLK
0
BLOCK
2
STK_TOP_119
8
0
10
0
20
0
3
STK_TOP_119
70
64
0
INSERT
2
DRIL_HOLE_0
8
DRIL_PLTE_THRU_01
10
0
20
0
0
INSERT
2
DRIL_HOLE_0
8
DRIL_PLTE_THRU_02
10
0
20
0
0
INSERT
2
PAD_0
8
PADS_INNER
10
0
20
0
0
INSERT
2
PAD_0
8
PADS_BOT
10
0
20
0
0
INSERT
2
PAD_5
8
PADS_TOP
10
0
20
0
50
90
0
ENDBLK
0
BLOCK
2
STK_TOP_118
8
0
10
0
20
0
3
STK_TOP_118
70
64
0
INSERT
2
DRIL_HOLE_0
8
DRIL_PLTE_THRU_01
10
0
20
0
0
INSERT
2
DRIL_HOLE_0
8
DRIL_PLTE_THRU_02
10
0
20
0
0
INSERT
2
PAD_0
8
PADS_INNER
10
0
20
0
0
INSERT
2
PAD_0
8
PADS_BOT
10
0
20
0
0
INSERT
2
PAD_6
8
PADS_TOP
10
0
20
0
50
90
0
ENDBLK
0
BLOCK
2
PART_BODY_TOP_124
8
0
10
0
20
0
3
PART_BODY_TOP_124
70
64
0
POLYLINE
8
PART_TOP_2DLINE_00
66
1
40
0.254
41
0.254
70
1
0
VERTEX
8
PART_TOP_2DLINE_00
10
-5.08
20
-1.27
0
VERTEX
8
PART_TOP_2DLINE_00
10
-5.08
20
-0.15875
0
VERTEX
8
PART_TOP_2DLINE_00
10
-4.445
20
-0.15875
0
VERTEX
8
PART_TOP_2DLINE_00
10
-4.445
20
0.15875
0
VERTEX
8
PART_TOP_2DLINE_00
10
-5.08
20
0.15875
0
VERTEX
8
PART_TOP_2DLINE_00
10
-5.08
20
1.27
0
VERTEX
8
PART_TOP_2DLINE_00
10
5.08
20
1.27
0
VERTEX
8
PART_TOP_2DLINE_00
10
5.08
20
-1.27
0
SEQEND
0
INSERT
2
SMOOTH_0$254
8
PART_TOP_2DLINE_00
10
-5.08
20
-1.27
0
INSERT
2
SMOOTH_0$254
8
PART_TOP_2DLINE_00
10
-5.08
20
-0.15875
0
INSERT
2
SMOOTH_0$254
8
PART_TOP_2DLINE_00
10
-4.445
20
-0.15875
0
INSERT
2
SMOOTH_0$254
8
PART_TOP_2DLINE_00
10
-4.445
20
0.15875
0
INSERT
2
SMOOTH_0$254
8
PART_TOP_2DLINE_00
10
-5.08
20
0.15875
0
INSERT
2
SMOOTH_0$254
8
PART_TOP_2DLINE_00
10
-5.08
20
1.27
0
INSERT
2
SMOOTH_0$254
8
PART_TOP_2DLINE_00
10
5.08
20
1.27
0
INSERT
2
SMOOTH_0$254
8
PART_TOP_2DLINE_00
10
5.08
20
-1.27
0
ENDBLK
0
BLOCK
2
PART_BODY_TOP_10
8
0
10
0
20
0
3
PART_BODY_TOP_10
70
64
0
POLYLINE
8
PART_TOP_2DLINE_00
66
1
40
0.1524
41
0.1524
0
VERTEX
8
PART_TOP_2DLINE_00
10
-0.199898
20
-0.40005
0
VERTEX
8
PART_TOP_2DLINE_00
10
-0.199898
20
0.40005
0
SEQEND
0
INSERT
2
SMOOTH_0$1524
8
PART_TOP_2DLINE_00
10
-0.199898
20
-0.40005
0
INSERT
2
SMOOTH_0$1524
8
PART_TOP_2DLINE_00
10
-0.199898
20
0.40005
0
POLYLINE
8
PART_TOP_2DLINE_00
66
1
40
0.1524
41
0.1524
0
VERTEX
8
PART_TOP_2DLINE_00
10
0.199898
20
-0.40005
0
VERTEX
8
PART_TOP_2DLINE_00
10
-0.199898
20
-0.40005
0
SEQEND
0
INSERT
2
SMOOTH_0$1524
8
PART_TOP_2DLINE_00
10
0.199898
20
-0.40005
0
INSERT
2
SMOOTH_0$1524
8
PART_TOP_2DLINE_00
10
-0.199898
20
-0.40005
0
POLYLINE
8
PART_TOP_2DLINE_00
66
1
40
0.1524
41
0.1524
0
VERTEX
8
PART_TOP_2DLINE_00
10
0.199898
20
0.40005
0
VERTEX
8
PART_TOP_2DLINE_00
10
0.199898
20
-0.40005
0
SEQEND
0
INSERT
2
SMOOTH_0$1524
8
PART_TOP_2DLINE_00
10
0.199898
20
0.40005
0
INSERT
2
SMOOTH_0$1524
8
PART_TOP_2DLINE_00
10
0.199898
20
-0.40005
0
POLYLINE
8
PART_TOP_2DLINE_00
66
1
40
0.1524
41
0.1524
0
VERTEX
8
PART_TOP_2DLINE_00
10
-0.199898
20
0.40005
0
VERTEX
8
PART_TOP_2DLINE_00
10
0.199898
20
0.40005
0
SEQEND
0
INSERT
2
SMOOTH_0$1524
8
PART_TOP_2DLINE_00
10
-0.199898
20
0.40005
0
INSERT
2
SMOOTH_0$1524
8
PART_TOP_2DLINE_00
10
0.199898
20
0.40005
0
POLYLINE
8
PART_TOP_2DLINE_00
66
1
40
0.1524
41
0.1524
0
VERTEX
8
PART_TOP_2DLINE_00
10
1.100074
20
0
0
VERTEX
8
PART_TOP_2DLINE_00
10
1.100074
20
0.8001
0
SEQEND
0
INSERT
2
SMOOTH_0$1524
8
PART_TOP_2DLINE_00
10
1.100074
20
0
0
INSERT
2
SMOOTH_0$1524
8
PART_TOP_2DLINE_00
10
1.100074
20
0.8001
0
POLYLINE
8
PART_TOP_2DLINE_00
66
1
40
0.1524
41
0.1524
0
VERTEX
8
PART_TOP_2DLINE_00
10
0.40005
20
0
0
VERTEX
8
PART_TOP_2DLINE_00
10
1.100074
20
0
0
SEQEND
0
INSERT
2
SMOOTH_0$1524
8
PART_TOP_2DLINE_00
10
0.40005
20
0
0
INSERT
2
SMOOTH_0$1524
8
PART_TOP_2DLINE_00
10
1.100074
20
0
0
POLYLINE
8
PART_TOP_2DLINE_00
66
1
40
0.1524
41
0.1524
0
VERTEX
8
PART_TOP_2DLINE_00
10
0.40005
20
0.500126
0
VERTEX
8
PART_TOP_2DLINE_00
10
0.40005
20
-0.500126
0
SEQEND
0
INSERT
2
SMOOTH_0$1524
8
PART_TOP_2DLINE_00
10
0.40005
20
0.500126
0
INSERT
2
SMOOTH_0$1524
8
PART_TOP_2DLINE_00
10
0.40005
20
-0.500126
0
POLYLINE
8
PART_TOP_2DLINE_00
66
1
40
0.1524
41
0.1524
0
VERTEX
8
PART_TOP_2DLINE_00
10
-0.40005
20
0.500126
0
VERTEX
8
PART_TOP_2DLINE_00
10
-0.40005
20
-0.500126
0
SEQEND
0
INSERT
2
SMOOTH_0$1524
8
PART_TOP_2DLINE_00
10
-0.40005
20
0.500126
0
INSERT
2
SMOOTH_0$1524
8
PART_TOP_2DLINE_00
10
-0.40005
20
-0.500126
0
POLYLINE
8
PART_TOP_2DLINE_00
66
1
40
0.1524
41
0.1524
0
VERTEX
8
PART_TOP_2DLINE_00
10
-1.100074
20
0
0
VERTEX
8
PART_TOP_2DLINE_00
10
-0.40005
20
0
0
SEQEND
0
INSERT
2
SMOOTH_0$1524
8
PART_TOP_2DLINE_00
10
-1.100074
20
0
0
INSERT
2
SMOOTH_0$1524
8
PART_TOP_2DLINE_00
10
-0.40005
20
0
0
POLYLINE
8
PART_TOP_2DLINE_00
66
1
40
0.1524
41
0.1524
0
VERTEX
8
PART_TOP_2DLINE_00
10
-1.100074
20
-0.8001
0
VERTEX
8
PART_TOP_2DLINE_00
10
-1.100074
20
0
0
SEQEND
0
INSERT
2
SMOOTH_0$1524
8
PART_TOP_2DLINE_00
10
-1.100074
20
-0.8001
0
INSERT
2
SMOOTH_0$1524
8
PART_TOP_2DLINE_00
10
-1.100074
20
0
0
POLYLINE
8
PART_TOP_2DLINE_00
66
1
40
0.1524
41
0.1524
70
1
0
VERTEX
8
PART_TOP_2DLINE_00
10
-1.75
20
-1.35
0
VERTEX
8
PART_TOP_2DLINE_00
10
-1.75
20
1.35
0
VERTEX
8
PART_TOP_2DLINE_00
10
1.75
20
1.35
0
VERTEX
8
PART_TOP_2DLINE_00
10
1.75
20
-1.35
0
SEQEND
0
INSERT
2
SMOOTH_0$1524
8
PART_TOP_2DLINE_00
10
-1.75
20
-1.35
0
INSERT
2
SMOOTH_0$1524
8
PART_TOP_2DLINE_00
10
-1.75
20
1.35
0
INSERT
2
SMOOTH_0$1524
8
PART_TOP_2DLINE_00
10
1.75
20
1.35
0
INSERT
2
SMOOTH_0$1524
8
PART_TOP_2DLINE_00
10
1.75
20
-1.35
0
POLYLINE
8
PART_TOP_2DLINE_01
66
1
40
0.1524
41
0.1524
70
1
0
VERTEX
8
PART_TOP_2DLINE_01
10
1.48
20
1.53
42
1
0
VERTEX
8
PART_TOP_2DLINE_01
10
1.7
20
1.53
42
1
0
SEQEND
0
ENDBLK
0
BLOCK
2
STK_TOP_19
8
0
10
0
20
0
3
STK_TOP_19
70
64
0
INSERT
2
DRIL_HOLE_0
8
DRIL_NPLTE_THRU_01
10
0
20
0
0
INSERT
2
DRIL_HOLE_0
8
DRIL_NPLTE_THRU_02
10
0
20
0
0
INSERT
2
PAD_0
8
PADS_INNER
10
0
20
0
0
INSERT
2
PAD_0
8
PADS_BOT
10
0
20
0
0
INSERT
2
PAD_7
8
PADS_TOP
10
0
20
0
0
ENDBLK
0
BLOCK
2
PART_BODY_TOP_17
8
0
10
0
20
0
3
PART_BODY_TOP_17
70
64
0
POLYLINE
8
PART_TOP_2DLINE_01
66
1
40
0.3
41
0.3
70
1
0
VERTEX
8
PART_TOP_2DLINE_01
10
0
20
-1.27
0
VERTEX
8
PART_TOP_2DLINE_01
10
3.2258
20
-1.27
0
VERTEX
8
PART_TOP_2DLINE_01
10
3.2258
20
1.2446
0
VERTEX
8
PART_TOP_2DLINE_01
10
0
20
1.2446
0
SEQEND
0
INSERT
2
SMOOTH_0$3
8
PART_TOP_2DLINE_01
10
0
20
-1.27
0
INSERT
2
SMOOTH_0$3
8
PART_TOP_2DLINE_01
10
3.2258
20
-1.27
0
INSERT
2
SMOOTH_0$3
8
PART_TOP_2DLINE_01
10
3.2258
20
1.2446
0
INSERT
2
SMOOTH_0$3
8
PART_TOP_2DLINE_01
10
0
20
1.2446
0
ENDBLK
0
BLOCK
2
STK_TOP_94
8
0
10
0
20
0
3
STK_TOP_94
70
64
0
INSERT
2
DRIL_HOLE_0
8
DRIL_PLTE_THRU_01
10
0
20
0
0
INSERT
2
DRIL_HOLE_0
8
DRIL_PLTE_THRU_02
10
0
20
0
0
INSERT
2
PAD_0
8
PADS_INNER
10
0
20
0
0
INSERT
2
PAD_0
8
PADS_BOT
10
0
20
0
0
INSERT
2
PAD_8
8
PADS_TOP
10
0
20
0
50
90
0
ENDBLK
0
BLOCK
2
PART_BODY_TOP_9
8
0
10
0
20
0
3
PART_BODY_TOP_9
70
64
0
POLYLINE
8
PART_TOP_2DLINE_00
66
1
40
0.1524
41
0.1524
0
VERTEX
8
PART_TOP_2DLINE_00
10
-0.2032
20
0.508
0
VERTEX
8
PART_TOP_2DLINE_00
10
-0.2032
20
-0.508
0
SEQEND
0
INSERT
2
SMOOTH_0$1524
8
PART_TOP_2DLINE_00
10
-0.2032
20
0.508
0
INSERT
2
SMOOTH_0$1524
8
PART_TOP_2DLINE_00
10
-0.2032
20
-0.508
0
POLYLINE
8
PART_TOP_2DLINE_00
66
1
40
0.1524
41
0.1524
0
VERTEX
8
PART_TOP_2DLINE_00
10
0.2032
20
0.508
0
VERTEX
8
PART_TOP_2DLINE_00
10
0.2032
20
-0.508
0
SEQEND
0
INSERT
2
SMOOTH_0$1524
8
PART_TOP_2DLINE_00
10
0.2032
20
0.508
0
INSERT
2
SMOOTH_0$1524
8
PART_TOP_2DLINE_00
10
0.2032
20
-0.508
0
POLYLINE
8
PART_TOP_2DLINE_00
66
1
40
0.1524
41
0.1524
0
VERTEX
8
PART_TOP_2DLINE_00
10
-0.3
20
0.9
0
VERTEX
8
PART_TOP_2DLINE_00
10
-1.5
20
0.9
0
VERTEX
8
PART_TOP_2DLINE_00
10
-1.8
20
0.6
0
VERTEX
8
PART_TOP_2DLINE_00
10
-1.8
20
-0.6
0
VERTEX
8
PART_TOP_2DLINE_00
10
-1.5
20
-0.9
0
VERTEX
8
PART_TOP_2DLINE_00
10
-0.3
20
-0.9
0
SEQEND
0
INSERT
2
SMOOTH_0$1524
8
PART_TOP_2DLINE_00
10
-0.3
20
0.9
0
INSERT
2
SMOOTH_0$1524
8
PART_TOP_2DLINE_00
10
-1.5
20
0.9
0
INSERT
2
SMOOTH_0$1524
8
PART_TOP_2DLINE_00
10
-1.8
20
0.6
0
INSERT
2
SMOOTH_0$1524
8
PART_TOP_2DLINE_00
10
-1.8
20
-0.6
0
INSERT
2
SMOOTH_0$1524
8
PART_TOP_2DLINE_00
10
-1.5
20
-0.9
0
INSERT
2
SMOOTH_0$1524
8
PART_TOP_2DLINE_00
10
-0.3
20
-0.9
0
POLYLINE
8
PART_TOP_2DLINE_00
66
1
40
0.1524
41
0.1524
0
VERTEX
8
PART_TOP_2DLINE_00
10
0.3
20
0.9
0
VERTEX
8
PART_TOP_2DLINE_00
10
1.5
20
0.9
0
VERTEX
8
PART_TOP_2DLINE_00
10
1.8
20
0.6
0
VERTEX
8
PART_TOP_2DLINE_00
10
1.8
20
-0.6
0
VERTEX
8
PART_TOP_2DLINE_00
10
1.5
20
-0.9
0
VERTEX
8
PART_TOP_2DLINE_00
10
0.3
20
-0.9
0
SEQEND
0
INSERT
2
SMOOTH_0$1524
8
PART_TOP_2DLINE_00
10
0.3
20
0.9
0
INSERT
2
SMOOTH_0$1524
8
PART_TOP_2DLINE_00
10
1.5
20
0.9
0
INSERT
2
SMOOTH_0$1524
8
PART_TOP_2DLINE_00
10
1.8
20
0.6
0
INSERT
2
SMOOTH_0$1524
8
PART_TOP_2DLINE_00
10
1.8
20
-0.6
0
INSERT
2
SMOOTH_0$1524
8
PART_TOP_2DLINE_00
10
1.5
20
-0.9
0
INSERT
2
SMOOTH_0$1524
8
PART_TOP_2DLINE_00
10
0.3
20
-0.9
0
ENDBLK
0
BLOCK
2
STK_TOP_24
8
0
10
0
20
0
3
STK_TOP_24
70
64
0
INSERT
2
DRIL_HOLE_0
8
DRIL_PLTE_THRU_01
10
0
20
0
0
INSERT
2
DRIL_HOLE_0
8
DRIL_PLTE_THRU_02
10
0
20
0
0
INSERT
2
PAD_0
8
PADS_INNER
10
0
20
0
0
INSERT
2
PAD_0
8
PADS_BOT
10
0
20
0
0
INSERT
2
PAD_9
8
PADS_TOP
10
0
20
0
50
90
0
ENDBLK
0
BLOCK
2
PART_BODY_TOP_11
8
0
10
0
20
0
3
PART_BODY_TOP_11
70
64
0
POLYLINE
8
PART_TOP_2DLINE_00
66
1
40
0.1524
41
0.1524
70
1
0
VERTEX
8
PART_TOP_2DLINE_00
10
-0.54575
20
2.18711
0
VERTEX
8
PART_TOP_2DLINE_00
10
2.454246
20
2.1871093333
0
VERTEX
8
PART_TOP_2DLINE_00
10
2.454246
20
0.1871093333
0
VERTEX
8
PART_TOP_2DLINE_00
10
-0.54575
20
0.18711
0
VERTEX
8
PART_TOP_2DLINE_00
10
-0.54575
20
0.78711
42
0.5698117828
0
VERTEX
8
PART_TOP_2DLINE_00
10
-0.54575
20
1.58711
0
SEQEND
0
INSERT
2
SMOOTH_0$1524
8
PART_TOP_2DLINE_00
10
-0.54575
20
2.18711
0
INSERT
2
SMOOTH_0$1524
8
PART_TOP_2DLINE_00
10
2.454246
20
2.1871093333
0
INSERT
2
SMOOTH_0$1524
8
PART_TOP_2DLINE_00
10
2.454246
20
0.1871093333
0
INSERT
2
SMOOTH_0$1524
8
PART_TOP_2DLINE_00
10
-0.54575
20
0.18711
0
INSERT
2
SMOOTH_0$1524
8
PART_TOP_2DLINE_00
10
-0.54575
20
0.78711
0
INSERT
2
SMOOTH_0$1524
8
PART_TOP_2DLINE_00
10
-0.54575
20
1.58711
0
POLYLINE
8
PART_TOP_2DLINE_00
66
1
40
0.1524
41
0.1524
70
1
0
VERTEX
8
PART_TOP_2DLINE_00
10
-0.2584706667
20
0.632
42
1
0
VERTEX
8
PART_TOP_2DLINE_00
10
0.167804
20
0.632
42
1
0
SEQEND
0
ENDBLK
0
BLOCK
2
STK_TOP_20
8
0
10
0
20
0
3
STK_TOP_20
70
64
0
INSERT
2
DRIL_HOLE_0
8
DRIL_NPLTE_THRU_01
10
0
20
0
0
INSERT
2
DRIL_HOLE_0
8
DRIL_NPLTE_THRU_02
10
0
20
0
0
INSERT
2
PAD_0
8
PADS_INNER
10
0
20
0
0
INSERT
2
PAD_0
8
PADS_BOT
10
0
20
0
0
INSERT
2
PAD_10
8
PADS_TOP
10
0
20
0
50
90
0
ENDBLK
0
BLOCK
2
SYM_TOP_17
8
0
10
0
20
0
3
SYM_TOP_17
70
64
0
TEXT
8
SYM_NAME
10
0
20
0
40
1.778
1
C0603A
41
0.75
0
TEXT
8
SYM_PART_TYPE_01
10
-0.635
20
0.2778133333
40
0.889
1
 
73
2
11
-0.635
21
0.2778133333
41
0.75
7
W0$127R0
0
TEXT
8
SYM_PART_NAME_01
10
-0.635
20
0
40
0.889
1
 
41
0.75
7
W0$127R0
0
INSERT
2
PART_BODY_TOP_16
8
0
10
0
20
0
0
INSERT
2
STK_TOP_22
8
0
10
0
20
0
0
TEXT
8
SYM_TERMINAL
10
0
20
-3.048
40
1.778
1
1
0
INSERT
2
STK_TOP_22
8
0
10
1.6002
20
0
0
TEXT
8
SYM_TERMINAL
10
0
20
-6.096
40
1.778
1
2
0
ENDBLK
0
BLOCK
2
PART_BODY_TOP_13
8
0
10
0
20
0
3
PART_BODY_TOP_13
70
64
0
POLYLINE
8
PART_TOP_2DLINE_126
66
1
40
0.1524
41
0.1524
0
VERTEX
8
PART_TOP_2DLINE_126
10
0
20
0.250012
0
VERTEX
8
PART_TOP_2DLINE_126
10
0.4999986667
20
0.7500106667
0
SEQEND
0
INSERT
2
SMOOTH_0$1524
8
PART_TOP_2DLINE_126
10
0
20
0.250012
0
INSERT
2
SMOOTH_0$1524
8
PART_TOP_2DLINE_126
10
0.4999986667
20
0.7500106667
0
POLYLINE
8
PART_TOP_2DLINE_126
66
1
40
0.1524
41
0.1524
0
VERTEX
8
PART_TOP_2DLINE_126
10
4.500016
20
0.7500106667
0
VERTEX
8
PART_TOP_2DLINE_126
10
5.0000153333
20
0.7500106667
0
VERTEX
8
PART_TOP_2DLINE_126
10
5.0000153333
20
0.250012
0
SEQEND
0
INSERT
2
SMOOTH_0$1524
8
PART_TOP_2DLINE_126
10
4.500016
20
0.7500106667
0
INSERT
2
SMOOTH_0$1524
8
PART_TOP_2DLINE_126
10
5.0000153333
20
0.7500106667
0
INSERT
2
SMOOTH_0$1524
8
PART_TOP_2DLINE_126
10
5.0000153333
20
0.250012
0
POLYLINE
8
PART_TOP_2DLINE_126
66
1
40
0.1524
41
0.1524
0
VERTEX
8
PART_TOP_2DLINE_126
10
4.500016
20
-4.2499786667
0
VERTEX
8
PART_TOP_2DLINE_126
10
5.0000153333
20
-4.2499786667
0
VERTEX
8
PART_TOP_2DLINE_126
10
5.0000153333
20
-3.7499793333
0
SEQEND
0
INSERT
2
SMOOTH_0$1524
8
PART_TOP_2DLINE_126
10
4.500016
20
-4.2499786667
0
INSERT
2
SMOOTH_0$1524
8
PART_TOP_2DLINE_126
10
5.0000153333
20
-4.2499786667
0
INSERT
2
SMOOTH_0$1524
8
PART_TOP_2DLINE_126
10
5.0000153333
20
-3.7499793333
0
POLYLINE
8
PART_TOP_2DLINE_126
66
1
40
0.1524
41
0.1524
0
VERTEX
8
PART_TOP_2DLINE_126
10
0.4999986667
20
-4.2499786667
0
VERTEX
8
PART_TOP_2DLINE_126
10
0
20
-4.2499786667
0
VERTEX
8
PART_TOP_2DLINE_126
10
0
20
-3.7499793333
0
SEQEND
0
INSERT
2
SMOOTH_0$1524
8
PART_TOP_2DLINE_126
10
0.4999986667
20
-4.2499786667
0
INSERT
2
SMOOTH_0$1524
8
PART_TOP_2DLINE_126
10
0
20
-4.2499786667
0
INSERT
2
SMOOTH_0$1524
8
PART_TOP_2DLINE_126
10
0
20
-3.7499793333
0
ENDBLK
0
BLOCK
2
STK_TOP_43
8
0
10
0
20
0
3
STK_TOP_43
70
64
0
INSERT
2
DRIL_HOLE_0
8
DRIL_PLTE_THRU_01
10
0
20
0
0
INSERT
2
DRIL_HOLE_0
8
DRIL_PLTE_THRU_02
10
0
20
0
0
INSERT
2
PAD_0
8
PADS_INNER
10
0
20
0
0
INSERT
2
PAD_0
8
PADS_BOT
10
0
20
0
0
INSERT
2
PAD_11
8
PADS_TOP
10
0
20
0
0
ENDBLK
0
BLOCK
2
STK_TOP_44
8
0
10
0
20
0
3
STK_TOP_44
70
64
0
INSERT
2
DRIL_HOLE_0
8
DRIL_PLTE_THRU_01
10
0
20
0
0
INSERT
2
DRIL_HOLE_0
8
DRIL_PLTE_THRU_02
10
0
20
0
0
INSERT
2
PAD_0
8
PADS_INNER
10
0
20
0
0
INSERT
2
PAD_0
8
PADS_BOT
10
0
20
0
0
INSERT
2
PAD_11
8
PADS_TOP
10
0
20
0
50
90
0
ENDBLK
0
BLOCK
2
STK_TOP_46
8
0
10
0
20
0
3
STK_TOP_46
70
64
0
INSERT
2
DRIL_HOLE_0
8
DRIL_PLTE_THRU_01
10
0
20
0
0
INSERT
2
DRIL_HOLE_0
8
DRIL_PLTE_THRU_02
10
0
20
0
0
INSERT
2
PAD_0
8
PADS_INNER
10
0
20
0
0
INSERT
2
PAD_0
8
PADS_BOT
10
0
20
0
0
INSERT
2
PAD_12
8
PADS_TOP
10
0
20
0
0
ENDBLK
0
BLOCK
2
PART_BODY_TOP_14
8
0
10
0
20
0
3
PART_BODY_TOP_14
70
64
0
POLYLINE
8
PART_TOP_2DLINE_00
66
1
40
0.1524
41
0.1524
70
1
0
VERTEX
8
PART_TOP_2DLINE_00
10
1.18618
20
-0.649986
42
0.5796797245
0
VERTEX
8
PART_TOP_2DLINE_00
10
1.18618
20
0.649986
0
VERTEX
8
PART_TOP_2DLINE_00
10
-1.4224
20
0.649986
0
VERTEX
8
PART_TOP_2DLINE_00
10
-1.4224
20
-0.649986
0
SEQEND
0
INSERT
2
SMOOTH_0$1524
8
PART_TOP_2DLINE_00
10
1.18618
20
-0.649986
0
INSERT
2
SMOOTH_0$1524
8
PART_TOP_2DLINE_00
10
1.18618
20
0.649986
0
INSERT
2
SMOOTH_0$1524
8
PART_TOP_2DLINE_00
10
-1.4224
20
0.649986
0
INSERT
2
SMOOTH_0$1524
8
PART_TOP_2DLINE_00
10
-1.4224
20
-0.649986
0
POLYLINE
8
PART_TOP_2DLINE_00
66
1
40
0.1524
41
0.1524
0
VERTEX
8
PART_TOP_2DLINE_00
10
1.7446666667
20
0.6526666667
0
VERTEX
8
PART_TOP_2DLINE_00
10
1.7446666667
20
-0.6475593333
0
SEQEND
0
INSERT
2
SMOOTH_0$1524
8
PART_TOP_2DLINE_00
10
1.7446666667
20
0.6526666667
0
INSERT
2
SMOOTH_0$1524
8
PART_TOP_2DLINE_00
10
1.7446666667
20
-0.6475593333
0
ENDBLK
0
BLOCK
2
STK_TOP_47
8
0
10
0
20
0
3
STK_TOP_47
70
64
0
INSERT
2
DRIL_HOLE_0
8
DRIL_NPLTE_THRU_01
10
0
20
0
0
INSERT
2
DRIL_HOLE_0
8
DRIL_NPLTE_THRU_02
10
0
20
0
0
INSERT
2
PAD_0
8
PADS_INNER
10
0
20
0
0
INSERT
2
PAD_0
8
PADS_BOT
10
0
20
0
0
INSERT
2
PAD_13
8
PADS_TOP
10
0
20
0
0
ENDBLK
0
BLOCK
2
PART_BODY_TOP_120
8
0
10
0
20
0
3
PART_BODY_TOP_120
70
64
0
POLYLINE
8
PART_TOP_2DLINE_00
66
1
40
0.127
41
0.127
70
1
0
VERTEX
8
PART_TOP_2DLINE_00
10
-2.8868906667
20
0.4973953333
42
1
0
VERTEX
8
PART_TOP_2DLINE_00
10
-3.0138906667
20
0.4973953333
42
1
0
SEQEND
0
POLYLINE
8
PART_TOP_2DLINE_00
66
1
40
0.127
41
0.127
70
1
0
VERTEX
8
PART_TOP_2DLINE_00
10
6.8661073333
20
0.5003953333
42
1
0
VERTEX
8
PART_TOP_2DLINE_00
10
6.7391073333
20
0.5003953333
42
1
0
SEQEND
0
POLYLINE
8
PART_TOP_2DLINE_00
66
1
40
0.254
41
0.254
0
VERTEX
8
PART_TOP_2DLINE_00
10
-4.2803926667
20
4.700394
0
VERTEX
8
PART_TOP_2DLINE_00
10
8.1296073333
20
4.700394
0
SEQEND
0
INSERT
2
SMOOTH_0$254
8
PART_TOP_2DLINE_00
10
-4.2803926667
20
4.700394
0
INSERT
2
SMOOTH_0$254
8
PART_TOP_2DLINE_00
10
8.1296073333
20
4.700394
0
POLYLINE
8
PART_TOP_2DLINE_00
66
1
40
0.127
41
0.127
70
1
0
VERTEX
8
PART_TOP_2DLINE_00
10
-4.2168926667
20
4.700394
42
1
0
VERTEX
8
PART_TOP_2DLINE_00
10
-4.3438926667
20
4.700394
42
1
0
SEQEND
0
POLYLINE
8
PART_TOP_2DLINE_00
66
1
40
0.254
41
0.254
0
VERTEX
8
PART_TOP_2DLINE_00
10
4.5496073333
20
0.5003953333
0
VERTEX
8
PART_TOP_2DLINE_00
10
8.1296073333
20
0.5003953333
0
SEQEND
0
INSERT
2
SMOOTH_0$254
8
PART_TOP_2DLINE_00
10
4.5496073333
20
0.5003953333
0
INSERT
2
SMOOTH_0$254
8
PART_TOP_2DLINE_00
10
8.1296073333
20
0.5003953333
0
POLYLINE
8
PART_TOP_2DLINE_00
66
1
40
0.127
41
0.127
70
1
0
VERTEX
8
PART_TOP_2DLINE_00
10
4.6131073333
20
0.5003953333
42
1
0
VERTEX
8
PART_TOP_2DLINE_00
10
4.4861073333
20
0.5003953333
42
1
0
SEQEND
0
POLYLINE
8
PART_TOP_2DLINE_00
66
1
40
0.127
41
0.127
70
1
0
VERTEX
8
PART_TOP_2DLINE_00
10
8.1931073333
20
0.5003953333
42
1
0
VERTEX
8
PART_TOP_2DLINE_00
10
8.0661073333
20
0.5003953333
42
1
0
SEQEND
0
POLYLINE
8
PART_TOP_2DLINE_00
66
1
40
0.254
41
0.254
0
VERTEX
8
PART_TOP_2DLINE_00
10
4.5496073333
20
0.5003953333
0
VERTEX
8
PART_TOP_2DLINE_00
10
4.5496073333
20
-1.4196066667
0
SEQEND
0
INSERT
2
SMOOTH_0$254
8
PART_TOP_2DLINE_00
10
4.5496073333
20
0.5003953333
0
INSERT
2
SMOOTH_0$254
8
PART_TOP_2DLINE_00
10
4.5496073333
20
-1.4196066667
0
POLYLINE
8
PART_TOP_2DLINE_00
66
1
40
0.127
41
0.127
70
1
0
VERTEX
8
PART_TOP_2DLINE_00
10
4.6131073333
20
0.5003953333
42
1
0
VERTEX
8
PART_TOP_2DLINE_00
10
4.4861073333
20
0.5003953333
42
1
0
SEQEND
0
POLYLINE
8
PART_TOP_2DLINE_00
66
1
40
0.254
41
0.254
0
VERTEX
8
PART_TOP_2DLINE_00
10
8.1296073333
20
4.700394
0
VERTEX
8
PART_TOP_2DLINE_00
10
8.1296073333
20
0.5003953333
0
SEQEND
0
INSERT
2
SMOOTH_0$254
8
PART_TOP_2DLINE_00
10
8.1296073333
20
4.700394
0
INSERT
2
SMOOTH_0$254
8
PART_TOP_2DLINE_00
10
8.1296073333
20
0.5003953333
0
POLYLINE
8
PART_TOP_2DLINE_00
66
1
40
0.127
41
0.127
70
1
0
VERTEX
8
PART_TOP_2DLINE_00
10
8.1931073333
20
0.5003953333
42
1
0
VERTEX
8
PART_TOP_2DLINE_00
10
8.0661073333
20
0.5003953333
42
1
0
SEQEND
0
POLYLINE
8
PART_TOP_2DLINE_00
66
1
40
0.254
41
0.254
0
VERTEX
8
PART_TOP_2DLINE_00
10
-4.2803926667
20
0.5003953333
0
VERTEX
8
PART_TOP_2DLINE_00
10
-0.7003926667
20
0.5003953333
0
SEQEND
0
INSERT
2
SMOOTH_0$254
8
PART_TOP_2DLINE_00
10
-4.2803926667
20
0.5003953333
0
INSERT
2
SMOOTH_0$254
8
PART_TOP_2DLINE_00
10
-0.7003926667
20
0.5003953333
0
POLYLINE
8
PART_TOP_2DLINE_00
66
1
40
0.127
41
0.127
70
1
0
VERTEX
8
PART_TOP_2DLINE_00
10
-4.2168926667
20
0.5003953333
42
1
0
VERTEX
8
PART_TOP_2DLINE_00
10
-4.3438926667
20
0.5003953333
42
1
0
SEQEND
0
POLYLINE
8
PART_TOP_2DLINE_00
66
1
40
0.127
41
0.127
70
1
0
VERTEX
8
PART_TOP_2DLINE_00
10
-0.6368926667
20
0.5003953333
42
1
0
VERTEX
8
PART_TOP_2DLINE_00
10
-0.7638926667
20
0.5003953333
42
1
0
SEQEND
0
POLYLINE
8
PART_TOP_2DLINE_00
66
1
40
0.254
41
0.254
0
VERTEX
8
PART_TOP_2DLINE_00
10
-0.7003926667
20
0.5003953333
0
VERTEX
8
PART_TOP_2DLINE_00
10
-0.7003926667
20
-1.4196066667
0
SEQEND
0
INSERT
2
SMOOTH_0$254
8
PART_TOP_2DLINE_00
10
-0.7003926667
20
0.5003953333
0
INSERT
2
SMOOTH_0$254
8
PART_TOP_2DLINE_00
10
-0.7003926667
20
-1.4196066667
0
POLYLINE
8
PART_TOP_2DLINE_00
66
1
40
0.127
41
0.127
70
1
0
VERTEX
8
PART_TOP_2DLINE_00
10
-0.6368926667
20
0.5003953333
42
1
0
VERTEX
8
PART_TOP_2DLINE_00
10
-0.7638926667
20
0.5003953333
42
1
0
SEQEND
0
POLYLINE
8
PART_TOP_2DLINE_00
66
1
40
0.254
41
0.254
0
VERTEX
8
PART_TOP_2DLINE_00
10
-4.2803926667
20
4.700394
0
VERTEX
8
PART_TOP_2DLINE_00
10
-4.2803926667
20
0.5003953333
0
SEQEND
0
INSERT
2
SMOOTH_0$254
8
PART_TOP_2DLINE_00
10
-4.2803926667
20
4.700394
0
INSERT
2
SMOOTH_0$254
8
PART_TOP_2DLINE_00
10
-4.2803926667
20
0.5003953333
0
POLYLINE
8
PART_TOP_2DLINE_00
66
1
40
0.127
41
0.127
70
1
0
VERTEX
8
PART_TOP_2DLINE_00
10
-4.2168926667
20
4.700394
42
1
0
VERTEX
8
PART_TOP_2DLINE_00
10
-4.3438926667
20
4.700394
42
1
0
SEQEND
0
POLYLINE
8
PART_TOP_2DLINE_00
66
1
40
0.127
41
0.127
70
1
0
VERTEX
8
PART_TOP_2DLINE_00
10
-4.2168926667
20
0.5003953333
42
1
0
VERTEX
8
PART_TOP_2DLINE_00
10
-4.3438926667
20
0.5003953333
42
1
0
SEQEND
0
POLYLINE
8
PART_TOP_2DLINE_00
66
1
40
0.127
41
0.127
70
1
0
VERTEX
8
PART_TOP_2DLINE_00
10
6.8631073333
20
4.700396
42
1
0
VERTEX
8
PART_TOP_2DLINE_00
10
6.7361073333
20
4.700396
42
1
0
SEQEND
0
POLYLINE
8
PART_TOP_2DLINE_00
66
1
40
0.127
41
0.127
70
1
0
VERTEX
8
PART_TOP_2DLINE_00
10
-2.8868906667
20
4.700396
42
1
0
VERTEX
8
PART_TOP_2DLINE_00
10
-3.0138906667
20
4.700396
42
1
0
SEQEND
0
POLYLINE
8
PART_TOP_2DLINE_00
66
1
40
0.254
41
0.254
0
VERTEX
8
PART_TOP_2DLINE_00
10
-0.7003926667
20
-1.4196066667
0
VERTEX
8
PART_TOP_2DLINE_00
10
4.5496073333
20
-1.4196066667
0
SEQEND
0
INSERT
2
SMOOTH_0$254
8
PART_TOP_2DLINE_00
10
-0.7003926667
20
-1.4196066667
0
INSERT
2
SMOOTH_0$254
8
PART_TOP_2DLINE_00
10
4.5496073333
20
-1.4196066667
0
POLYLINE
8
PART_TOP_2DLINE_00
66
1
40
0.127
41
0.127
70
1
0
VERTEX
8
PART_TOP_2DLINE_00
10
-0.6368926667
20
-1.4196066667
42
1
0
VERTEX
8
PART_TOP_2DLINE_00
10
-0.7638926667
20
-1.4196066667
42
1
0
SEQEND
0
POLYLINE
8
PART_TOP_2DLINE_00
66
1
40
0.127
41
0.127
70
1
0
VERTEX
8
PART_TOP_2DLINE_00
10
4.6131073333
20
-1.4196066667
42
1
0
VERTEX
8
PART_TOP_2DLINE_00
10
4.4861073333
20
-1.4196066667
42
1
0
SEQEND
0
POLYLINE
8
PART_TOP_2DLINE_00
66
1
40
0.127
41
0.127
70
1
0
VERTEX
8
PART_TOP_2DLINE_00
10
4.6131073333
20
-1.4196066667
42
1
0
VERTEX
8
PART_TOP_2DLINE_00
10
4.4861073333
20
-1.4196066667
42
1
0
SEQEND
0
POLYLINE
8
PART_TOP_2DLINE_00
66
1
40
0.127
41
0.127
70
1
0
VERTEX
8
PART_TOP_2DLINE_00
10
-0.6368926667
20
-1.4196066667
42
1
0
VERTEX
8
PART_TOP_2DLINE_00
10
-0.7638926667
20
-1.4196066667
42
1
0
SEQEND
0
ENDBLK
0
BLOCK
2
STK_TOP_96
8
0
10
0
20
0
3
STK_TOP_96
70
64
0
INSERT
2
DRIL_HOLE_0
8
DRIL_PLTE_THRU_01
10
0
20
0
0
INSERT
2
DRIL_HOLE_0
8
DRIL_PLTE_THRU_02
10
0
20
0
0
INSERT
2
PAD_0
8
PADS_INNER
10
0
20
0
0
INSERT
2
PAD_0
8
PADS_BOT
10
0
20
0
0
INSERT
2
PAD_14
8
PADS_TOP
10
0
20
0
50
90
0
ENDBLK
0
BLOCK
2
STK_TOP_97
8
0
10
0
20
0
3
STK_TOP_97
70
64
0
INSERT
2
DRIL_HOLE_0
8
DRIL_PLTE_THRU_01
10
0
20
0
0
INSERT
2
DRIL_HOLE_0
8
DRIL_PLTE_THRU_02
10
0
20
0
0
INSERT
2
PAD_0
8
PADS_INNER
10
0
20
0
0
INSERT
2
PAD_0
8
PADS_BOT
10
0
20
0
0
INSERT
2
PAD_15
8
PADS_TOP
10
0
20
0
50
90
0
ENDBLK
0
BLOCK
2
STK_TOP_98
8
0
10
0
20
0
3
STK_TOP_98
70
64
0
INSERT
2
DRIL_HOLE_0
8
DRIL_PLTE_THRU_01
10
0
20
0
0
INSERT
2
DRIL_HOLE_0
8
DRIL_PLTE_THRU_02
10
0
20
0
0
INSERT
2
PAD_0
8
PADS_INNER
10
0
20
0
0
INSERT
2
PAD_0
8
PADS_BOT
10
0
20
0
0
INSERT
2
PAD_16
8
PADS_TOP
10
0
20
0
50
90
0
ENDBLK
0
BLOCK
2
STK_TOP_99
8
0
10
0
20
0
3
STK_TOP_99
70
64
0
INSERT
2
DRIL_HOLE_0
8
DRIL_PLTE_THRU_01
10
0
20
0
0
INSERT
2
DRIL_HOLE_0
8
DRIL_PLTE_THRU_02
10
0
20
0
0
INSERT
2
PAD_0
8
PADS_INNER
10
0
20
0
0
INSERT
2
PAD_0
8
PADS_BOT
10
0
20
0
0
INSERT
2
PAD_17
8
PADS_TOP
10
0
20
0
50
90
0
ENDBLK
0
BLOCK
2
STK_TOP_100
8
0
10
0
20
0
3
STK_TOP_100
70
64
0
INSERT
2
DRIL_HOLE_0
8
DRIL_PLTE_THRU_01
10
0
20
0
0
INSERT
2
DRIL_HOLE_0
8
DRIL_PLTE_THRU_02
10
0
20
0
0
INSERT
2
PAD_0
8
PADS_INNER
10
0
20
0
0
INSERT
2
PAD_0
8
PADS_BOT
10
0
20
0
0
INSERT
2
PAD_18
8
PADS_TOP
10
0
20
0
50
90
0
ENDBLK
0
BLOCK
2
PART_BODY_TOP_376
8
0
10
0
20
0
3
PART_BODY_TOP_376
70
64
0
POLYLINE
8
PART_TOP_2DLINE_126
66
1
40
0.254
41
0.254
39
7.99998
70
1
0
VERTEX
8
PART_TOP_2DLINE_126
10
3.81
20
-1.524
0
VERTEX
8
PART_TOP_2DLINE_126
10
3.81
20
1.524
0
VERTEX
8
PART_TOP_2DLINE_126
10
-6.604002
20
1.524
0
VERTEX
8
PART_TOP_2DLINE_126
10
-6.604002
20
-1.524
0
SEQEND
0
INSERT
2
SMOOTH_0$254
8
PART_TOP_2DLINE_126
10
3.81
20
-1.524
0
INSERT
2
SMOOTH_0$254
8
PART_TOP_2DLINE_126
10
3.81
20
1.524
0
INSERT
2
SMOOTH_0$254
8
PART_TOP_2DLINE_126
10
-6.604002
20
1.524
0
INSERT
2
SMOOTH_0$254
8
PART_TOP_2DLINE_126
10
-6.604002
20
-1.524
0
POLYLINE
8
PART_TOP_2DLINE_126
66
1
40
0.254
41
0.254
39
7.99998
0
VERTEX
8
PART_TOP_2DLINE_126
10
-3.81
20
-1.524
0
VERTEX
8
PART_TOP_2DLINE_126
10
-3.81
20
1.524
0
SEQEND
0
INSERT
2
SMOOTH_0$254
8
PART_TOP_2DLINE_126
10
-3.81
20
-1.524
0
INSERT
2
SMOOTH_0$254
8
PART_TOP_2DLINE_126
10
-3.81
20
1.524
0
ENDBLK
0
BLOCK
2
STK_TOP_163
8
0
10
0
20
0
3
STK_TOP_163
70
64
0
INSERT
2
DRIL_HOLE_0$9000006667
8
DRIL_PLTE_THRU_01
10
0
20
0
0
INSERT
2
DRIL_HOLE_0$9000006667
8
DRIL_PLTE_THRU_02
10
0
20
0
0
INSERT
2
PAD_19
8
PADS_INNER
10
0
20
0
50
90
0
INSERT
2
PAD_19
8
PADS_BOT
10
0
20
0
50
90
0
INSERT
2
PAD_19
8
PADS_TOP
10
0
20
0
50
90
0
ENDBLK
0
BLOCK
2
STK_TOP_162
8
0
10
0
20
0
3
STK_TOP_162
70
64
0
INSERT
2
DRIL_HOLE_0$9000006667
8
DRIL_PLTE_THRU_01
10
0
20
0
0
INSERT
2
DRIL_HOLE_0$9000006667
8
DRIL_PLTE_THRU_02
10
0
20
0
0
INSERT
2
PAD_20
8
PADS_INNER
10
0
20
0
50
90
0
INSERT
2
PAD_20
8
PADS_BOT
10
0
20
0
50
90
0
INSERT
2
PAD_20
8
PADS_TOP
10
0
20
0
50
90
0
ENDBLK
0
BLOCK
2
PART_BODY_TOP_6
8
0
10
0
20
0
3
PART_BODY_TOP_6
70
64
0
POLYLINE
8
PART_TOP_2DLINE_00
66
1
40
0.127
41
0.127
0
VERTEX
8
PART_TOP_2DLINE_00
10
-0.2032
20
0.508
0
VERTEX
8
PART_TOP_2DLINE_00
10
-0.762
20
0.508
42
0.4142135624
0
VERTEX
8
PART_TOP_2DLINE_00
10
-1.016
20
0.254
0
VERTEX
8
PART_TOP_2DLINE_00
10
-1.016
20
-0.254
42
0.4142135624
0
VERTEX
8
PART_TOP_2DLINE_00
10
-0.762
20
-0.508
0
VERTEX
8
PART_TOP_2DLINE_00
10
-0.2032
20
-0.508
0
SEQEND
0
INSERT
2
SMOOTH_0$127
8
PART_TOP_2DLINE_00
10
-0.2032
20
0.508
0
INSERT
2
SMOOTH_0$127
8
PART_TOP_2DLINE_00
10
-0.762
20
0.508
0
POLYLINE
8
PART_TOP_2DLINE_00
66
1
40
0.127
41
0.127
0
VERTEX
8
PART_TOP_2DLINE_00
10
0.2032
20
-0.508
0
VERTEX
8
PART_TOP_2DLINE_00
10
0.762
20
-0.508
42
0.4142135624
0
VERTEX
8
PART_TOP_2DLINE_00
10
1.016
20
-0.254
0
VERTEX
8
PART_TOP_2DLINE_00
10
1.016
20
0.254
42
0.4142135624
0
VERTEX
8
PART_TOP_2DLINE_00
10
0.762
20
0.508
0
VERTEX
8
PART_TOP_2DLINE_00
10
0.2032
20
0.508
0
SEQEND
0
INSERT
2
SMOOTH_0$127
8
PART_TOP_2DLINE_00
10
0.2032
20
-0.508
0
INSERT
2
SMOOTH_0$127
8
PART_TOP_2DLINE_00
10
0.762
20
-0.508
0
ENDBLK
0
BLOCK
2
STK_TOP_15
8
0
10
0
20
0
3
STK_TOP_15
70
64
0
INSERT
2
DRIL_HOLE_0
8
DRIL_PLTE_THRU_01
10
0
20
0
0
INSERT
2
DRIL_HOLE_0
8
DRIL_PLTE_THRU_02
10
0
20
0
0
INSERT
2
PAD_0
8
PADS_INNER
10
0
20
0
0
INSERT
2
PAD_0
8
PADS_BOT
10
0
20
0
0
INSERT
2
PAD_21
8
PADS_TOP
10
0
20
0
0
ENDBLK
0
BLOCK
2
PART_BODY_TOP_7
8
0
10
0
20
0
3
PART_BODY_TOP_7
70
64
0
POLYLINE
8
PART_TOP_2DLINE_00
66
1
40
0.127
41
0.127
0
VERTEX
8
PART_TOP_2DLINE_00
10
-0.2032
20
0.508
0
VERTEX
8
PART_TOP_2DLINE_00
10
-1.016
20
0.508
0
VERTEX
8
PART_TOP_2DLINE_00
10
-1.016
20
-0.508
0
VERTEX
8
PART_TOP_2DLINE_00
10
-0.2032
20
-0.508
0
SEQEND
0
INSERT
2
SMOOTH_0$127
8
PART_TOP_2DLINE_00
10
-0.2032
20
0.508
0
INSERT
2
SMOOTH_0$127
8
PART_TOP_2DLINE_00
10
-1.016
20
0.508
0
INSERT
2
SMOOTH_0$127
8
PART_TOP_2DLINE_00
10
-1.016
20
-0.508
0
INSERT
2
SMOOTH_0$127
8
PART_TOP_2DLINE_00
10
-0.2032
20
-0.508
0
POLYLINE
8
PART_TOP_2DLINE_00
66
1
40
0.127
41
0.127
0
VERTEX
8
PART_TOP_2DLINE_00
10
0.2032
20
0.508
0
VERTEX
8
PART_TOP_2DLINE_00
10
1.016
20
0.508
0
VERTEX
8
PART_TOP_2DLINE_00
10
1.016
20
-0.508
0
VERTEX
8
PART_TOP_2DLINE_00
10
0.2032
20
-0.508
0
SEQEND
0
INSERT
2
SMOOTH_0$127
8
PART_TOP_2DLINE_00
10
0.2032
20
0.508
0
INSERT
2
SMOOTH_0$127
8
PART_TOP_2DLINE_00
10
1.016
20
0.508
0
INSERT
2
SMOOTH_0$127
8
PART_TOP_2DLINE_00
10
1.016
20
-0.508
0
INSERT
2
SMOOTH_0$127
8
PART_TOP_2DLINE_00
10
0.2032
20
-0.508
0
POLYLINE
8
PART_TOP_2DLINE_00
66
1
40
0.127
41
0.127
0
VERTEX
8
PART_TOP_2DLINE_00
10
0.1016
20
0.4826
0
VERTEX
8
PART_TOP_2DLINE_00
10
-0.127
20
0.254
0
VERTEX
8
PART_TOP_2DLINE_00
10
0.127
20
0
0
VERTEX
8
PART_TOP_2DLINE_00
10
-0.127
20
-0.254
0
VERTEX
8
PART_TOP_2DLINE_00
10
0.1016
20
-0.4826
0
SEQEND
0
INSERT
2
SMOOTH_0$127
8
PART_TOP_2DLINE_00
10
0.1016
20
0.4826
0
INSERT
2
SMOOTH_0$127
8
PART_TOP_2DLINE_00
10
-0.127
20
0.254
0
INSERT
2
SMOOTH_0$127
8
PART_TOP_2DLINE_00
10
0.127
20
0
0
INSERT
2
SMOOTH_0$127
8
PART_TOP_2DLINE_00
10
-0.127
20
-0.254
0
INSERT
2
SMOOTH_0$127
8
PART_TOP_2DLINE_00
10
0.1016
20
-0.4826
0
ENDBLK
0
BLOCK
2
PART_BODY_TOP_16
8
0
10
0
20
0
3
PART_BODY_TOP_16
70
64
0
POLYLINE
8
PART_TOP_2DLINE_00
66
1
40
0.1524
41
0.1524
70
1
0
VERTEX
8
PART_TOP_2DLINE_00
10
-0.6858
20
0.6604
0
VERTEX
8
PART_TOP_2DLINE_00
10
2.286
20
0.6604
0
VERTEX
8
PART_TOP_2DLINE_00
10
2.286
20
-0.6604
0
VERTEX
8
PART_TOP_2DLINE_00
10
-0.6858
20
-0.6604
0
SEQEND
0
INSERT
2
SMOOTH_0$1524
8
PART_TOP_2DLINE_00
10
-0.6858
20
0.6604
0
INSERT
2
SMOOTH_0$1524
8
PART_TOP_2DLINE_00
10
2.286
20
0.6604
0
INSERT
2
SMOOTH_0$1524
8
PART_TOP_2DLINE_00
10
2.286
20
-0.6604
0
INSERT
2
SMOOTH_0$1524
8
PART_TOP_2DLINE_00
10
-0.6858
20
-0.6604
0
POLYLINE
8
PART_TOP_2DLINE_00
66
1
40
0.1524
41
0.1524
0
VERTEX
8
PART_TOP_2DLINE_00
10
0.5842
20
0.4318
0
VERTEX
8
PART_TOP_2DLINE_00
10
0.5842
20
-0.4318
0
SEQEND
0
INSERT
2
SMOOTH_0$1524
8
PART_TOP_2DLINE_00
10
0.5842
20
0.4318
0
INSERT
2
SMOOTH_0$1524
8
PART_TOP_2DLINE_00
10
0.5842
20
-0.4318
0
POLYLINE
8
PART_TOP_2DLINE_00
66
1
40
0.1524
41
0.1524
0
VERTEX
8
PART_TOP_2DLINE_00
10
0.9906
20
0.4318
0
VERTEX
8
PART_TOP_2DLINE_00
10
0.9906
20
-0.4318
0
SEQEND
0
INSERT
2
SMOOTH_0$1524
8
PART_TOP_2DLINE_00
10
0.9906
20
0.4318
0
INSERT
2
SMOOTH_0$1524
8
PART_TOP_2DLINE_00
10
0.9906
20
-0.4318
0
ENDBLK
999
*** POWERPCB  PCB PARAMETER ***
0
BLOCK
2
PCB_PARAMS
8
0
10
0
20
0
3
PCB_PARAMS
70
64
999
 *  1.Job name           2.Backupfile name       3.CursorType
999
 *  4.TearDropFlag       5.HighlighNetsFlag      6.HatchDisplayFlag
999
 *  7.PadsFlag           8.TracksFlag            9.ViasFlag
999
 * 10.CopperFlag        11.LinesFlag            12.TextFlag
999
 * 13.TopComponentFlag  14.BottomComponentFlag  16.ObjectSnapFlags
0
TEXT
8
PCB_PARAMS
10
0
20
-3.048
40
1.778
1
A:=ZX522_V2.3.pcb <> 3 0 0 1 1 1 1 1 0 1 1 1 0 502 0
999
 *  1.RefDesHeight       2.RefDesWidth           3.DefaultWidth
999
 *  4.VGX                5.VGY                   6.OVR
999
 *  7.HatchGrid          8.ObjectSnapRadius
0
TEXT
8
PCB_PARAMS
10
0
20
-6.096
40
1.778
1
B:=2.54 0.254 0.0254 0.0254 0.0254 0.0762 0.0254 0.0254
999
 *  1.ScaleFactor        2.NetAttributeFlags     3.BackupInterval
999
 *  4.WorkingLevel       5.HatchMode             6.HatchDirection
999
 *  7.ConnectionColor    8.BackgroundColor       9.ForegroundColor
999
 * 10.BoardOutlineColor
0
TEXT
8
PCB_PARAMS
10
0
20
-9.144
40
1.778
1
C:=11.6721038818 10002 20 1 0 0 0 0 13 13
999
 * MitreAngle0 - MitreAngle6
0
TEXT
8
PCB_PARAMS
10
0
20
-12.192
40
1.778
1
D:=324000000 324000000 324000000 324000000 324000000 324000000 324000000
999
 * Hatch & Keepout Parameters
0
TEXT
8
PCB_PARAMS
10
0
20
-15.24
40
1.778
1
E:=0.5 0 0 2.54 0 1
999
 * Fanout Parameters
0
TEXT
8
PCB_PARAMS
10
0
20
-18.288
40
1.778
1
F:=0.0254 0.0254 6.35 1 2 0 1 1 0 0 1 1 1 1
999
 * Pad Entry Parameters
0
TEXT
8
PCB_PARAMS
10
0
20
-21.336
40
1.778
1
P:= 1 1 1 1
999
 * DFF Parameters
0
TEXT
8
PCB_PARAMS
10
0
20
-24.384
40
1.778
1
Q:=89.9999 3967 114300 114300 114300 5 4 114300 114300 114300 114300 1 114300 1 114300 1 114300 0
0
ENDBLK
0
BLOCK
2
DRIL_SYMBOL_0
8
0
10
0
20
0
3
DRIL_SYMBOL_0
70
64
0
ENDBLK
0
BLOCK
2
DRIL_SYMBOL_0$9
8
0
10
0
20
0
3
DRIL_SYMBOL_0$9
70
64
0
POLYLINE
8
DRIL_SYMBOL
66
1
40
0.0508
41
0.0508
0
VERTEX
8
DRIL_SYMBOL
10
0
20
-0.254
0
VERTEX
8
DRIL_SYMBOL
10
0
20
0.254
0
SEQEND
0
POLYLINE
8
DRIL_SYMBOL
66
1
40
0.0508
41
0.0508
0
VERTEX
8
DRIL_SYMBOL
10
-0.254
20
0
0
VERTEX
8
DRIL_SYMBOL
10
0.254
20
0
0
SEQEND
0
ENDBLK
0
BLOCK
2
DRIL_SYMBOL_0$9000006667
8
0
10
0
20
0
3
DRIL_SYMBOL_0$9000006667
70
64
0
POLYLINE
8
DRIL_SYMBOL
66
1
40
0.0508
41
0.0508
0
VERTEX
8
DRIL_SYMBOL
10
0
20
-0.254
0
VERTEX
8
DRIL_SYMBOL
10
0
20
0.254
0
SEQEND
0
POLYLINE
8
DRIL_SYMBOL
66
1
40
0.0508
41
0.0508
0
VERTEX
8
DRIL_SYMBOL
10
-0.254
20
0
0
VERTEX
8
DRIL_SYMBOL
10
0.254
20
0
0
SEQEND
0
ENDBLK
999
*** POWERPCB  SMOOTH CIRCLE ***
0
BLOCK
2
SMOOTH_0$0254
8
0
10
0
20
0
3
SMOOTH_0$0254
70
64
0
POLYLINE
8
0
66
1
40
0.0127
41
0.0127
70
1
0
VERTEX
8
0
10
-0.00635
20
0
42
1
0
VERTEX
8
0
10
0.00635
20
0
42
1
0
SEQEND
0
ENDBLK
0
BLOCK
2
SMOOTH_0$1524
8
0
10
0
20
0
3
SMOOTH_0$1524
70
64
0
POLYLINE
8
0
66
1
40
0.0762
41
0.0762
70
1
0
VERTEX
8
0
10
-0.0381
20
0
42
1
0
VERTEX
8
0
10
0.0381
20
0
42
1
0
SEQEND
0
ENDBLK
0
BLOCK
2
SMOOTH_0$254
8
0
10
0
20
0
3
SMOOTH_0$254
70
64
0
POLYLINE
8
0
66
1
40
0.127
41
0.127
70
1
0
VERTEX
8
0
10
-0.0635
20
0
42
1
0
VERTEX
8
0
10
0.0635
20
0
42
1
0
SEQEND
0
ENDBLK
0
BLOCK
2
SMOOTH_0$127
8
0
10
0
20
0
3
SMOOTH_0$127
70
64
0
POLYLINE
8
0
66
1
40
0.0635
41
0.0635
70
1
0
VERTEX
8
0
10
-0.03175
20
0
42
1
0
VERTEX
8
0
10
0.03175
20
0
42
1
0
SEQEND
0
ENDBLK
0
BLOCK
2
SMOOTH_0$3
8
0
10
0
20
0
3
SMOOTH_0$3
70
64
0
POLYLINE
8
0
66
1
40
0.15
41
0.15
70
1
0
VERTEX
8
0
10
-0.075
20
0
42
1
0
VERTEX
8
0
10
0.075
20
0
42
1
0
SEQEND
0
ENDBLK
0
BLOCK
2
PAD_0
8
0
10
0
20
0
3
PAD_0
70
64
0
POLYLINE
8
0
70
1
66
1
0
VERTEX
8
0
10
0
20
0
42
1
0
VERTEX
8
0
10
0
20
0
42
1
0
SEQEND
0
ENDBLK
0
BLOCK
2
PAD_1
8
0
10
0
20
0
3
PAD_1
70
64
0
POLYLINE
8
0
66
1
40
0.8382
41
0.8382
0
VERTEX
8
0
10
-0.4191
20
0
0
VERTEX
8
0
10
0.4191
20
0
0
SEQEND
0
ENDBLK
0
BLOCK
2
PAD_2
8
0
10
0
20
0
3
PAD_2
70
64
0
POLYLINE
8
0
70
1
66
1
40
0.85
41
0.85
0
VERTEX
8
0
10
0
20
-0.425
42
1
0
VERTEX
8
0
10
0
20
0.425
42
1
0
SEQEND
0
ENDBLK
0
BLOCK
2
PAD_3
8
0
10
0
20
0
3
PAD_3
70
64
0
POLYLINE
8
0
66
1
40
0.9144
41
0.9144
0
VERTEX
8
0
10
-0.635
20
0
0
VERTEX
8
0
10
0.635
20
0
0
SEQEND
0
ENDBLK
0
BLOCK
2
PAD_4
8
0
10
0
20
0
3
PAD_4
70
64
0
POLYLINE
8
0
70
1
66
1
40
0.3048
41
0.3048
0
VERTEX
8
0
10
-0.635
20
-0.1524
0
VERTEX
8
0
10
0.635
20
-0.1524
42
1
0
VERTEX
8
0
10
0.635
20
0.1524
0
VERTEX
8
0
10
-0.635
20
0.1524
42
1
0
SEQEND
0
ENDBLK
0
BLOCK
2
PAD_5
8
0
10
0
20
0
3
PAD_5
70
64
0
POLYLINE
8
0
66
1
40
0.15
41
0.15
0
VERTEX
8
0
10
-0.075
20
0
0
VERTEX
8
0
10
0.075
20
0
0
SEQEND
0
ENDBLK
0
BLOCK
2
PAD_6
8
0
10
0
20
0
3
PAD_6
70
64
0
POLYLINE
8
0
66
1
40
0.25
41
0.25
0
VERTEX
8
0
10
-0.125
20
0
0
VERTEX
8
0
10
0.125
20
0
0
SEQEND
0
ENDBLK
0
BLOCK
2
PAD_7
8
0
10
0
20
0
3
PAD_7
70
64
0
POLYLINE
8
0
66
1
40
1.1
41
1.1
0
VERTEX
8
0
10
-0.65
20
0
0
VERTEX
8
0
10
0.65
20
0
0
SEQEND
0
ENDBLK
0
BLOCK
2
PAD_8
8
0
10
0
20
0
3
PAD_8
70
64
0
POLYLINE
8
0
66
1
40
1.2
41
1.2
0
VERTEX
8
0
10
-1
20
0
0
VERTEX
8
0
10
1
20
0
0
SEQEND
0
ENDBLK
0
BLOCK
2
PAD_9
8
0
10
0
20
0
3
PAD_9
70
64
0
POLYLINE
8
0
66
1
40
1.016
41
1.016
0
VERTEX
8
0
10
-0.635
20
0
0
VERTEX
8
0
10
0.635
20
0
0
SEQEND
0
ENDBLK
0
BLOCK
2
PAD_10
8
0
10
0
20
0
3
PAD_10
70
64
0
POLYLINE
8
0
66
1
40
0.5
41
0.5
0
VERTEX
8
0
10
-0.5
20
0
0
VERTEX
8
0
10
0.5
20
0
0
SEQEND
0
ENDBLK
0
BLOCK
2
PAD_11
8
0
10
0
20
0
3
PAD_11
70
64
0
POLYLINE
8
0
66
1
40
0.349986
41
0.349986
0
VERTEX
8
0
10
-0.4999986667
20
0
0
VERTEX
8
0
10
0.4999986667
20
0
0
SEQEND
0
ENDBLK
0
BLOCK
2
PAD_12
8
0
10
0
20
0
3
PAD_12
70
64
0
POLYLINE
8
0
66
1
40
3
41
3
0
VERTEX
8
0
10
-1.5
20
0
0
VERTEX
8
0
10
1.5
20
0
0
SEQEND
0
ENDBLK
0
BLOCK
2
PAD_13
8
0
10
0
20
0
3
PAD_13
70
64
0
POLYLINE
8
0
66
1
40
0.8128
41
0.8128
0
VERTEX
8
0
10
-0.4064
20
0
0
VERTEX
8
0
10
0.4064
20
0
0
SEQEND
0
ENDBLK
0
BLOCK
2
PAD_14
8
0
10
0
20
0
3
PAD_14
70
64
0
POLYLINE
8
0
70
1
66
1
40
0.3
41
0.3
0
VERTEX
8
0
10
-0.6906
20
-0.15
0
VERTEX
8
0
10
0.6906
20
-0.15
42
1
0
VERTEX
8
0
10
0.6906
20
0.15
0
VERTEX
8
0
10
-0.6906
20
0.15
42
1
0
SEQEND
0
ENDBLK
0
BLOCK
2
PAD_15
8
0
10
0
20
0
3
PAD_15
70
64
0
POLYLINE
8
0
70
1
66
1
40
0.3
41
0.3
0
VERTEX
8
0
10
-0.6652
20
-0.15
0
VERTEX
8
0
10
0.6652
20
-0.15
42
1
0
VERTEX
8
0
10
0.6652
20
0.15
0
VERTEX
8
0
10
-0.6652
20
0.15
42
1
0
SEQEND
0
ENDBLK
0
BLOCK
2
PAD_16
8
0
10
0
20
0
3
PAD_16
70
64
0
POLYLINE
8
0
66
1
40
0.6
41
0.6
0
VERTEX
8
0
10
-0.9906
20
0
0
VERTEX
8
0
10
0.9906
20
0
0
SEQEND
0
ENDBLK
0
BLOCK
2
PAD_17
8
0
10
0
20
0
3
PAD_17
70
64
0
POLYLINE
8
0
66
1
40
2.032
41
2.032
0
VERTEX
8
0
10
-1.778
20
0
0
VERTEX
8
0
10
1.778
20
0
0
SEQEND
0
ENDBLK
0
BLOCK
2
PAD_18
8
0
10
0
20
0
3
PAD_18
70
64
0
POLYLINE
8
0
66
1
40
1.778
41
1.778
0
VERTEX
8
0
10
-1.778
20
0
0
VERTEX
8
0
10
1.778
20
0
0
SEQEND
0
ENDBLK
0
BLOCK
2
PAD_19
8
0
10
0
20
0
3
PAD_19
70
64
0
POLYLINE
8
0
66
1
40
1.4999993333
41
1.4999993333
0
VERTEX
8
0
10
-0.7499993333
20
0
0
VERTEX
8
0
10
0.7499993333
20
0
0
SEQEND
0
ENDBLK
0
BLOCK
2
PAD_20
8
0
10
0
20
0
3
PAD_20
70
64
0
POLYLINE
8
0
70
1
66
1
40
0.7499993333
41
0.7499993333
0
VERTEX
8
0
10
0
20
-0.3749993333
42
1
0
VERTEX
8
0
10
0
20
0.3749993333
42
1
0
SEQEND
0
ENDBLK
0
BLOCK
2
PAD_21
8
0
10
0
20
0
3
PAD_21
70
64
0
POLYLINE
8
0
66
1
40
0.5588
41
0.5588
0
VERTEX
8
0
10
-0.2794
20
0
0
VERTEX
8
0
10
0.2794
20
0
0
SEQEND
0
ENDBLK
999
*** POWERPCB  DRILL HOLE ***
0
BLOCK
2
DRIL_HOLE_0
8
0
10
0
20
0
3
DRIL_HOLE_0
70
64
0
POLYLINE
8
0
66
1
70
1
0
VERTEX
8
0
10
0
20
0
42
1
0
VERTEX
8
0
10
0
20
0
42
1
0
SEQEND
0
INSERT
2
DRIL_SYMBOL_0
8
0
10
0
20
0
0
ENDBLK
0
BLOCK
2
DRIL_HOLE_0$9
8
0
10
0
20
0
3
DRIL_HOLE_0$9
70
64
0
POLYLINE
8
0
66
1
40
0.45
41
0.45
70
1
0
VERTEX
8
0
10
-0.225
20
0
42
1
0
VERTEX
8
0
10
0.225
20
0
42
1
0
SEQEND
0
INSERT
2
DRIL_SYMBOL_0$9
8
0
10
0
20
0
0
ENDBLK
0
BLOCK
2
DRIL_HOLE_0$9000006667
8
0
10
0
20
0
3
DRIL_HOLE_0$9000006667
70
64
0
POLYLINE
8
0
66
1
40
0.45
41
0.45
70
1
0
VERTEX
8
0
10
-0.225
20
0
42
1
0
VERTEX
8
0
10
0.225
20
0
42
1
0
SEQEND
0
INSERT
2
DRIL_SYMBOL_0$9000006667
8
0
10
0
20
0
0
ENDBLK
0
ENDSEC
0
SECTION
2
ENTITIES
999
*** POWERPCB  DBLAYER ***
0
INSERT
2
DBLAYERS
8
0
10
0
20
0
999
*** POWERPCB  BOARD ***
0
INSERT
2
BOARD_373
8
0
10
4.2926
20
30.6832
999
*** POWERPCB  COMPONENT ***
0
INSERT
2
PART_TOP_0
8
0
10
10.2616
20
11.43
50
180
0
INSERT
2
PART_TOP_1
8
0
10
46.6598
20
9.8806
50
180
0
INSERT
2
PART_TOP_2
8
0
10
45.9994
20
24.2824
50
270
0
INSERT
2
PART_TOP_3
8
0
10
45.974
20
21.1074
50
270
0
INSERT
2
PART_TOP_4
8
0
10
45.974
20
16.6116
50
180
0
INSERT
2
PART_TOP_5
8
0
10
35.2552
20
20.8788
0
INSERT
2
PART_TOP_6
8
0
10
29.1846
20
11.9126
50
90
0
INSERT
2
PART_TOP_7
8
0
10
29.1084
20
8.7376
50
90
0
INSERT
2
PART_TOP_8
8
0
10
43.6626
20
18.1864
50
270
0
INSERT
2
PART_TOP_9
8
0
10
34.4424
20
13.716
50
270
0
INSERT
2
PART_TOP_10
8
0
10
33.1978
20
13.716
50
270
0
INSERT
2
PART_TOP_11
8
0
10
35.306
20
12.8524
0
INSERT
2
PART_TOP_12
8
0
10
19.0246
20
9.0932
50
90
0
INSERT
2
PART_TOP_13
8
0
10
24.5364
20
10.6934
50
270
0
INSERT
2
PART_TOP_14
8
0
10
21.844
20
9.906
50
180
0
INSERT
2
PART_TOP_15
8
0
10
8.6106
20
18.669
0
INSERT
2
PART_TOP_16
8
0
10
12.4968
20
17.6276
0
INSERT
2
PART_TOP_17
8
0
10
12.4968
20
14.732
0
INSERT
2
PART_TOP_18
8
0
10
43.6626
20
19.6342
50
90
0
INSERT
2
PART_TOP_19
8
0
10
14.9606
20
23.2918
50
270
0
INSERT
2
PART_TOP_20
8
0
10
21.3868
20
23.2918
50
270
0
INSERT
2
PART_TOP_21
8
0
10
27.1272
20
9.4996
50
90
0
INSERT
2
PART_TOP_22
8
0
10
19.431
20
22.1996
50
90
0
INSERT
2
PART_TOP_23
8
0
10
13.462
20
12.446
0
INSERT
2
PART_TOP_24
8
0
10
14.7828
20
19.8882
50
180
0
INSERT
2
PART_TOP_25
8
0
10
8.6106
20
20.0914
0
INSERT
2
PART_TOP_26
8
0
10
13.462
20
8.2296
0
INSERT
2
PART_TOP_27
8
0
10
16.6624
20
9.9822
50
270
0
INSERT
2
PART_TOP_28
8
0
10
13.462
20
9.652
0
INSERT
2
PART_TOP_29
8
0
10
35.6616
20
7.874
50
180
0
INSERT
2
PART_TOP_30
8
0
10
38.735
20
7.874
50
180
0
INSERT
2
PART_TOP_31
8
0
10
32.5628
20
7.874
50
180
0
INSERT
2
PART_TOP_32
8
0
10
19.7104
20
20.4724
0
INSERT
2
PART_TOP_33
8
0
10
18.0848
20
20.4724
50
180
0
INSERT
2
PART_TOP_34
8
0
10
13.1572
20
23.7744
50
270
0
INSERT
2
PART_TOP_35
8
0
10
29.1084
20
23.7998
50
270
0
INSERT
2
PART_TOP_36
8
0
10
25.3746
20
22.6568
0
INSERT
2
PART_TOP_37
8
0
10
27.0002
20
19.8374
50
180
0
INSERT
2
PART_TOP_38
8
0
10
43.6626
20
24.2824
50
270
0
INSERT
2
PART_TOP_39
8
0
10
42.0878
20
18.1864
50
270
0
INSERT
2
PART_TOP_40
8
0
10
27.0002
20
21.2344
50
180
0
INSERT
2
PART_TOP_41
8
0
10
42.0878
20
22.6822
50
90
0
INSERT
2
PART_TOP_42
8
0
10
27.0002
20
14.1986
50
180
0
INSERT
2
PART_TOP_43
8
0
10
27.0002
20
15.5956
50
180
0
INSERT
2
PART_TOP_44
8
0
10
27.0002
20
16.9926
50
180
0
INSERT
2
PART_TOP_45
8
0
10
27.0002
20
18.415
50
180
0
INSERT
2
PART_TOP_46
8
0
10
42.0878
20
21.2344
50
270
0
INSERT
2
PART_TOP_47
8
0
10
29.1084
20
15.875
50
90
0
INSERT
2
PART_TOP_48
8
0
10
29.1084
20
19.0246
50
90
0
INSERT
2
PART_TOP_49
8
0
10
22.352
20
18.3896
50
270
0
INSERT
2
PART_TOP_50
8
0
10
15.0622
20
11.049
50
180
0
INSERT
2
PART_TOP_51
8
0
10
8.6106
20
17.2212
0
INSERT
2
PART_TOP_52
8
0
10
10.287
20
14.3256
50
180
0
INSERT
2
PART_TOP_53
8
0
10
10.287
20
12.9286
50
180
0
INSERT
2
PART_TOP_54
8
0
10
26.162
20
24.1046
50
180
0
INSERT
2
PART_TOP_55
8
0
10
27.0002
20
12.8016
50
180
0
INSERT
2
PART_TOP_56
8
0
10
23.1902
20
23.7744
50
270
0
INSERT
2
PART_TOP_57
8
0
10
42.0878
20
15.2146
50
270
0
INSERT
2
PART_TOP_58
8
0
10
53.1114
20
17.8054
50
270
0
INSERT
2
PART_TOP_59
8
0
10
50.0888
20
21.6154
50
90
999
*** POWERPCB  PCB PARAMETER ***
0
INSERT
2
PCB_PARAMS
8
0
10
0
20
0
0
ENDSEC
0
EOF
